%TF.GenerationSoftware,KiCad,Pcbnew,8.0.4*%
%TF.CreationDate,2024-10-18T12:18:20-03:00*%
%TF.ProjectId,STM32_DEV_BOARD,53544d33-325f-4444-9556-5f424f415244,rev?*%
%TF.SameCoordinates,Original*%
%TF.FileFunction,Soldermask,Top*%
%TF.FilePolarity,Negative*%
%FSLAX46Y46*%
G04 Gerber Fmt 4.6, Leading zero omitted, Abs format (unit mm)*
G04 Created by KiCad (PCBNEW 8.0.4) date 2024-10-18 12:18:20*
%MOMM*%
%LPD*%
G01*
G04 APERTURE LIST*
G04 Aperture macros list*
%AMRoundRect*
0 Rectangle with rounded corners*
0 $1 Rounding radius*
0 $2 $3 $4 $5 $6 $7 $8 $9 X,Y pos of 4 corners*
0 Add a 4 corners polygon primitive as box body*
4,1,4,$2,$3,$4,$5,$6,$7,$8,$9,$2,$3,0*
0 Add four circle primitives for the rounded corners*
1,1,$1+$1,$2,$3*
1,1,$1+$1,$4,$5*
1,1,$1+$1,$6,$7*
1,1,$1+$1,$8,$9*
0 Add four rect primitives between the rounded corners*
20,1,$1+$1,$2,$3,$4,$5,0*
20,1,$1+$1,$4,$5,$6,$7,0*
20,1,$1+$1,$6,$7,$8,$9,0*
20,1,$1+$1,$8,$9,$2,$3,0*%
G04 Aperture macros list end*
%ADD10C,1.400000*%
%ADD11RoundRect,0.250000X-1.100000X0.500000X-1.100000X-0.500000X1.100000X-0.500000X1.100000X0.500000X0*%
%ADD12RoundRect,0.125000X0.125000X-0.625000X0.125000X0.625000X-0.125000X0.625000X-0.125000X-0.625000X0*%
%ADD13RoundRect,0.125000X0.625000X-0.125000X0.625000X0.125000X-0.625000X0.125000X-0.625000X-0.125000X0*%
%ADD14RoundRect,0.250000X-0.500000X-1.100000X0.500000X-1.100000X0.500000X1.100000X-0.500000X1.100000X0*%
%ADD15C,1.000000*%
%ADD16C,5.600000*%
%ADD17RoundRect,0.250000X-0.350000X0.850000X-0.350000X-0.850000X0.350000X-0.850000X0.350000X0.850000X0*%
%ADD18RoundRect,0.249997X-2.650003X2.950003X-2.650003X-2.950003X2.650003X-2.950003X2.650003X2.950003X0*%
%ADD19RoundRect,0.250000X-1.125000X1.275000X-1.125000X-1.275000X1.125000X-1.275000X1.125000X1.275000X0*%
%ADD20RoundRect,0.250000X-0.450000X0.325000X-0.450000X-0.325000X0.450000X-0.325000X0.450000X0.325000X0*%
%ADD21C,1.500000*%
%ADD22R,1.000000X1.500000*%
%ADD23RoundRect,0.250000X0.450000X-0.325000X0.450000X0.325000X-0.450000X0.325000X-0.450000X-0.325000X0*%
%ADD24RoundRect,0.250000X0.450000X-0.350000X0.450000X0.350000X-0.450000X0.350000X-0.450000X-0.350000X0*%
%ADD25RoundRect,0.250000X0.600000X-0.400000X0.600000X0.400000X-0.600000X0.400000X-0.600000X-0.400000X0*%
%ADD26RoundRect,0.250000X0.337500X0.475000X-0.337500X0.475000X-0.337500X-0.475000X0.337500X-0.475000X0*%
%ADD27RoundRect,0.250000X0.475000X-0.337500X0.475000X0.337500X-0.475000X0.337500X-0.475000X-0.337500X0*%
%ADD28R,1.500000X1.000000*%
%ADD29R,1.700000X1.700000*%
%ADD30O,1.700000X1.700000*%
%ADD31R,1.600000X1.600000*%
%ADD32C,1.600000*%
%ADD33C,4.000000*%
%ADD34R,3.500000X3.500000*%
%ADD35RoundRect,0.750000X-0.750000X-1.000000X0.750000X-1.000000X0.750000X1.000000X-0.750000X1.000000X0*%
%ADD36RoundRect,0.875000X-0.875000X-0.875000X0.875000X-0.875000X0.875000X0.875000X-0.875000X0.875000X0*%
%ADD37RoundRect,0.250000X1.100000X-0.412500X1.100000X0.412500X-1.100000X0.412500X-1.100000X-0.412500X0*%
G04 APERTURE END LIST*
D10*
%TO.C,JP2*%
X171190000Y-114602500D03*
X171190000Y-117142500D03*
%TD*%
D11*
%TO.C,D4*%
X146760000Y-120160000D03*
X146760000Y-124960000D03*
%TD*%
D12*
%TO.C,U1*%
X156740000Y-105625000D03*
X157540000Y-105625000D03*
X158340000Y-105625000D03*
X159140000Y-105625000D03*
X159940000Y-105625000D03*
X160740000Y-105625000D03*
X161540000Y-105625000D03*
X162340000Y-105625000D03*
D13*
X163715000Y-104250000D03*
X163715000Y-103450000D03*
X163715000Y-102650000D03*
X163715000Y-101850000D03*
X163715000Y-101050000D03*
X163715000Y-100250000D03*
X163715000Y-99450000D03*
X163715000Y-98650000D03*
D12*
X162340000Y-97275000D03*
X161540000Y-97275000D03*
X160740000Y-97275000D03*
X159940000Y-97275000D03*
X159140000Y-97275000D03*
X158340000Y-97275000D03*
X157540000Y-97275000D03*
X156740000Y-97275000D03*
D13*
X155365000Y-98650000D03*
X155365000Y-99450000D03*
X155365000Y-100250000D03*
X155365000Y-101050000D03*
X155365000Y-101850000D03*
X155365000Y-102650000D03*
X155365000Y-103450000D03*
X155365000Y-104250000D03*
%TD*%
D14*
%TO.C,D2*%
X150100000Y-112250000D03*
X154900000Y-112250000D03*
%TD*%
D15*
%TO.C,TP2*%
X179650000Y-80470000D03*
%TD*%
D16*
%TO.C,REF\u002A\u002A*%
X138140000Y-80050000D03*
%TD*%
D17*
%TO.C,U2*%
X153797500Y-82670000D03*
X151517500Y-82670000D03*
D18*
X151517500Y-88970000D03*
D19*
X149992500Y-90645000D03*
D17*
X149237500Y-82670000D03*
%TD*%
D20*
%TO.C,D6*%
X166810000Y-78752500D03*
X166810000Y-80802500D03*
%TD*%
D21*
%TO.C,Y1*%
X165840000Y-121300000D03*
X160960000Y-121300000D03*
%TD*%
D22*
%TO.C,JP5*%
X145990000Y-117380000D03*
X147290000Y-117380000D03*
%TD*%
D23*
%TO.C,D8*%
X172800000Y-87042500D03*
X172800000Y-84992500D03*
%TD*%
D24*
%TO.C,R2*%
X171190000Y-122650000D03*
X171190000Y-120650000D03*
%TD*%
D25*
%TO.C,D5*%
X175230000Y-122640000D03*
X175230000Y-119140000D03*
%TD*%
D26*
%TO.C,C3*%
X152167500Y-109020000D03*
X150092500Y-109020000D03*
%TD*%
D10*
%TO.C,JP7*%
X165842500Y-114130000D03*
X165842500Y-116670000D03*
%TD*%
D27*
%TO.C,C8*%
X168522500Y-116667500D03*
X168522500Y-114592500D03*
%TD*%
D28*
%TO.C,JP8*%
X152310000Y-96770000D03*
X152310000Y-95470000D03*
%TD*%
D29*
%TO.C,J2*%
X163330000Y-78780000D03*
D30*
X160790000Y-78780000D03*
X158250000Y-78780000D03*
X155710000Y-78780000D03*
%TD*%
D17*
%TO.C,U3*%
X154845000Y-116115000D03*
X152565000Y-116115000D03*
D18*
X152565000Y-122415000D03*
D19*
X154090000Y-124090000D03*
D17*
X150285000Y-116115000D03*
%TD*%
D20*
%TO.C,D7*%
X172820000Y-78745000D03*
X172820000Y-80795000D03*
%TD*%
D16*
%TO.C,REF\u002A\u002A*%
X138140001Y-122849999D03*
%TD*%
D28*
%TO.C,JP3*%
X149490000Y-95470000D03*
X149490000Y-96770000D03*
%TD*%
%TO.C,JP1*%
X169720000Y-78755000D03*
X169720000Y-80055000D03*
%TD*%
D31*
%TO.C,J1*%
X146570000Y-108820000D03*
D32*
X146570000Y-106320000D03*
X144570000Y-106320000D03*
X144570000Y-108820000D03*
D33*
X141710000Y-113570000D03*
X141710000Y-101570000D03*
%TD*%
D10*
%TO.C,JP6*%
X160962500Y-116670000D03*
X160962500Y-114130000D03*
%TD*%
D28*
%TO.C,JP4*%
X175660000Y-78747500D03*
X175660000Y-80047500D03*
%TD*%
D27*
%TO.C,C7*%
X158202500Y-116677500D03*
X158202500Y-114602500D03*
%TD*%
D15*
%TO.C,TP1*%
X179640000Y-78160000D03*
%TD*%
D27*
%TO.C,C6*%
X175220000Y-116680000D03*
X175220000Y-114605000D03*
%TD*%
D34*
%TO.C,J6*%
X144720000Y-89240000D03*
D35*
X138720000Y-89240000D03*
D36*
X141720000Y-93940000D03*
%TD*%
D23*
%TO.C,D9*%
X166810000Y-87015000D03*
X166810000Y-84965000D03*
%TD*%
D37*
%TO.C,C1*%
X144730000Y-82672500D03*
X144730000Y-79547500D03*
%TD*%
D29*
%TO.C,J3*%
X182190000Y-83670000D03*
D30*
X179650000Y-83670000D03*
X182190000Y-86210000D03*
X179650000Y-86210000D03*
X182190000Y-88750000D03*
X179650000Y-88750000D03*
X182190000Y-91290000D03*
X179650000Y-91290000D03*
X182190000Y-93830000D03*
X179650000Y-93830000D03*
X182190000Y-96370000D03*
X179650000Y-96370000D03*
X182190000Y-98910000D03*
X179650000Y-98910000D03*
X182190000Y-101450000D03*
X179650000Y-101450000D03*
X182190000Y-103990000D03*
X179650000Y-103990000D03*
X182190000Y-106530000D03*
X179650000Y-106530000D03*
X182190000Y-109070000D03*
X179650000Y-109070000D03*
X182190000Y-111610000D03*
X179650000Y-111610000D03*
X182190000Y-114150000D03*
X179650000Y-114150000D03*
X182190000Y-116690000D03*
X179650000Y-116690000D03*
X182190000Y-119230000D03*
X179650000Y-119230000D03*
%TD*%
M02*
