%TF.GenerationSoftware,KiCad,Pcbnew,8.0.4*%
%TF.CreationDate,2024-10-18T12:18:20-03:00*%
%TF.ProjectId,STM32_DEV_BOARD,53544d33-325f-4444-9556-5f424f415244,rev?*%
%TF.SameCoordinates,Original*%
%TF.FileFunction,Soldermask,Bot*%
%TF.FilePolarity,Negative*%
%FSLAX46Y46*%
G04 Gerber Fmt 4.6, Leading zero omitted, Abs format (unit mm)*
G04 Created by KiCad (PCBNEW 8.0.4) date 2024-10-18 12:18:20*
%MOMM*%
%LPD*%
G01*
G04 APERTURE LIST*
G04 Aperture macros list*
%AMRoundRect*
0 Rectangle with rounded corners*
0 $1 Rounding radius*
0 $2 $3 $4 $5 $6 $7 $8 $9 X,Y pos of 4 corners*
0 Add a 4 corners polygon primitive as box body*
4,1,4,$2,$3,$4,$5,$6,$7,$8,$9,$2,$3,0*
0 Add four circle primitives for the rounded corners*
1,1,$1+$1,$2,$3*
1,1,$1+$1,$4,$5*
1,1,$1+$1,$6,$7*
1,1,$1+$1,$8,$9*
0 Add four rect primitives between the rounded corners*
20,1,$1+$1,$2,$3,$4,$5,0*
20,1,$1+$1,$4,$5,$6,$7,0*
20,1,$1+$1,$6,$7,$8,$9,0*
20,1,$1+$1,$8,$9,$2,$3,0*%
G04 Aperture macros list end*
%ADD10C,1.400000*%
%ADD11RoundRect,0.250000X-1.100000X0.500000X-1.100000X-0.500000X1.100000X-0.500000X1.100000X0.500000X0*%
%ADD12RoundRect,0.125000X0.125000X-0.625000X0.125000X0.625000X-0.125000X0.625000X-0.125000X-0.625000X0*%
%ADD13RoundRect,0.125000X0.625000X-0.125000X0.625000X0.125000X-0.625000X0.125000X-0.625000X-0.125000X0*%
%ADD14RoundRect,0.250000X-0.500000X-1.100000X0.500000X-1.100000X0.500000X1.100000X-0.500000X1.100000X0*%
%ADD15C,5.600000*%
%ADD16C,1.500000*%
%ADD17RoundRect,0.250000X0.450000X-0.350000X0.450000X0.350000X-0.450000X0.350000X-0.450000X-0.350000X0*%
%ADD18RoundRect,0.250000X0.600000X-0.400000X0.600000X0.400000X-0.600000X0.400000X-0.600000X-0.400000X0*%
%ADD19RoundRect,0.250000X0.475000X-0.337500X0.475000X0.337500X-0.475000X0.337500X-0.475000X-0.337500X0*%
%ADD20R,1.700000X1.700000*%
%ADD21O,1.700000X1.700000*%
%ADD22RoundRect,0.250000X-1.125000X1.275000X-1.125000X-1.275000X1.125000X-1.275000X1.125000X1.275000X0*%
%ADD23R,1.600000X1.600000*%
%ADD24C,1.600000*%
%ADD25C,4.000000*%
%ADD26R,3.500000X3.500000*%
%ADD27RoundRect,0.750000X-0.750000X-1.000000X0.750000X-1.000000X0.750000X1.000000X-0.750000X1.000000X0*%
%ADD28RoundRect,0.875000X-0.875000X-0.875000X0.875000X-0.875000X0.875000X0.875000X-0.875000X0.875000X0*%
%ADD29RoundRect,0.250000X1.100000X-0.412500X1.100000X0.412500X-1.100000X0.412500X-1.100000X-0.412500X0*%
%ADD30RoundRect,0.250000X-0.450000X0.350000X-0.450000X-0.350000X0.450000X-0.350000X0.450000X0.350000X0*%
%ADD31RoundRect,0.250000X-0.475000X0.337500X-0.475000X-0.337500X0.475000X-0.337500X0.475000X0.337500X0*%
%ADD32RoundRect,0.250000X-0.337500X-0.475000X0.337500X-0.475000X0.337500X0.475000X-0.337500X0.475000X0*%
%ADD33RoundRect,0.250000X0.500000X1.100000X-0.500000X1.100000X-0.500000X-1.100000X0.500000X-1.100000X0*%
%ADD34RoundRect,0.250000X0.337500X0.475000X-0.337500X0.475000X-0.337500X-0.475000X0.337500X-0.475000X0*%
%ADD35RoundRect,0.250001X0.462499X0.624999X-0.462499X0.624999X-0.462499X-0.624999X0.462499X-0.624999X0*%
%ADD36RoundRect,0.150000X0.150000X-0.825000X0.150000X0.825000X-0.150000X0.825000X-0.150000X-0.825000X0*%
G04 APERTURE END LIST*
D10*
%TO.C,JP2*%
X171190000Y-114602500D03*
X171190000Y-117142500D03*
%TD*%
D11*
%TO.C,D4*%
X146760000Y-120160000D03*
%TD*%
D12*
%TO.C,U1*%
X156740000Y-105625000D03*
X159940000Y-105625000D03*
D13*
X163715000Y-98650000D03*
D12*
X162340000Y-97275000D03*
D13*
X155365000Y-104250000D03*
%TD*%
D14*
%TO.C,D2*%
X150100000Y-112250000D03*
%TD*%
D15*
%TO.C,REF\u002A\u002A*%
X138140000Y-80050000D03*
%TD*%
D16*
%TO.C,Y1*%
X165840000Y-121300000D03*
X160960000Y-121300000D03*
%TD*%
D17*
%TO.C,R2*%
X171190000Y-122650000D03*
%TD*%
D18*
%TO.C,D5*%
X175230000Y-122640000D03*
%TD*%
D10*
%TO.C,JP7*%
X165842500Y-114130000D03*
X165842500Y-116670000D03*
%TD*%
D19*
%TO.C,C8*%
X168522500Y-114592500D03*
%TD*%
D20*
%TO.C,J2*%
X163330000Y-78780000D03*
D21*
X160790000Y-78780000D03*
X158250000Y-78780000D03*
X155710000Y-78780000D03*
%TD*%
D22*
%TO.C,U3*%
X154090000Y-124090000D03*
%TD*%
D15*
%TO.C,REF\u002A\u002A*%
X138140001Y-122849999D03*
%TD*%
D23*
%TO.C,J1*%
X146570000Y-108820000D03*
D24*
X146570000Y-106320000D03*
X144570000Y-106320000D03*
X144570000Y-108820000D03*
D25*
X141710000Y-113570000D03*
X141710000Y-101570000D03*
%TD*%
D10*
%TO.C,JP6*%
X160962500Y-116670000D03*
X160962500Y-114130000D03*
%TD*%
D19*
%TO.C,C7*%
X158202500Y-114602500D03*
%TD*%
%TO.C,C6*%
X175220000Y-116680000D03*
X175220000Y-114605000D03*
%TD*%
D26*
%TO.C,J6*%
X144720000Y-89240000D03*
D27*
X138720000Y-89240000D03*
D28*
X141720000Y-93940000D03*
%TD*%
D29*
%TO.C,C1*%
X144730000Y-79547500D03*
%TD*%
D17*
%TO.C,R6*%
X166810000Y-87012500D03*
X166810000Y-85012500D03*
%TD*%
D30*
%TO.C,R4*%
X172820000Y-78767500D03*
X172820000Y-80767500D03*
%TD*%
D31*
%TO.C,C12*%
X171440000Y-107402500D03*
X171440000Y-109477500D03*
%TD*%
D32*
%TO.C,C4*%
X151512500Y-82660000D03*
X153587500Y-82660000D03*
%TD*%
D14*
%TO.C,D1*%
X149020000Y-87080000D03*
X153820000Y-87080000D03*
%TD*%
D19*
%TO.C,C11*%
X157560000Y-103377500D03*
X157560000Y-101302500D03*
%TD*%
%TO.C,C5*%
X151060000Y-124097500D03*
X151060000Y-122022500D03*
%TD*%
D33*
%TO.C,D3*%
X153870000Y-90810000D03*
X149070000Y-90810000D03*
%TD*%
D34*
%TO.C,C13*%
X175257500Y-94910000D03*
X173182500Y-94910000D03*
%TD*%
%TO.C,C2*%
X149247500Y-82670000D03*
X147172500Y-82670000D03*
%TD*%
D30*
%TO.C,R3*%
X149480000Y-99550000D03*
X149480000Y-101550000D03*
%TD*%
D19*
%TO.C,C10*%
X159940000Y-103377500D03*
X159940000Y-101302500D03*
%TD*%
D35*
%TO.C,F1*%
X140917500Y-108840000D03*
X137942500Y-108840000D03*
%TD*%
D30*
%TO.C,R1*%
X166810000Y-78775000D03*
X166810000Y-80775000D03*
%TD*%
D20*
%TO.C,J3*%
X182190000Y-83670000D03*
D21*
X179650000Y-83670000D03*
X182190000Y-86210000D03*
X179650000Y-86210000D03*
X182190000Y-88750000D03*
X179650000Y-88750000D03*
X182190000Y-91290000D03*
X179650000Y-91290000D03*
X182190000Y-93830000D03*
X179650000Y-93830000D03*
X182190000Y-96370000D03*
X179650000Y-96370000D03*
X182190000Y-98910000D03*
X179650000Y-98910000D03*
X182190000Y-101450000D03*
X179650000Y-101450000D03*
X182190000Y-103990000D03*
X179650000Y-103990000D03*
X182190000Y-106530000D03*
X179650000Y-106530000D03*
X182190000Y-109070000D03*
X179650000Y-109070000D03*
X182190000Y-111610000D03*
X179650000Y-111610000D03*
X182190000Y-114150000D03*
X179650000Y-114150000D03*
X182190000Y-116690000D03*
X179650000Y-116690000D03*
X182190000Y-119230000D03*
X179650000Y-119230000D03*
%TD*%
D36*
%TO.C,U4*%
X175250000Y-102770000D03*
X173980000Y-102770000D03*
X172710000Y-102770000D03*
X171440000Y-102770000D03*
X170170000Y-102770000D03*
X168900000Y-102770000D03*
X167630000Y-102770000D03*
X166360000Y-102770000D03*
X166360000Y-97820000D03*
X167630000Y-97820000D03*
X168900000Y-97820000D03*
X170170000Y-97820000D03*
X171440000Y-97820000D03*
X172710000Y-97820000D03*
X173980000Y-97820000D03*
X175250000Y-97820000D03*
%TD*%
D34*
%TO.C,C9*%
X159627500Y-99260000D03*
X157552500Y-99260000D03*
%TD*%
D17*
%TO.C,R5*%
X172800000Y-87017500D03*
X172800000Y-85017500D03*
%TD*%
M02*
