M48
; DRILL file {KiCad 8.0.4} date 2024-10-18T12:18:14-0300
; FORMAT={-:-/ absolute / inch / decimal}
; #@! TF.CreationDate,2024-10-18T12:18:14-03:00
; #@! TF.GenerationSoftware,Kicad,Pcbnew,8.0.4
; #@! TF.FileFunction,Plated,1,4,PTH
FMAT,2
INCH
; #@! TA.AperFunction,Plated,PTH,ComponentDrill
T1C0.0079
; #@! TA.AperFunction,Plated,PTH,ViaDrill
T2C0.0118
; #@! TA.AperFunction,Plated,PTH,ComponentDrill
T3C0.0157
; #@! TA.AperFunction,Plated,PTH,ComponentDrill
T4C0.0236
; #@! TA.AperFunction,Plated,PTH,ComponentDrill
T5C0.0315
; #@! TA.AperFunction,Plated,PTH,ComponentDrill
T6C0.0374
; #@! TA.AperFunction,Plated,PTH,ComponentDrill
T7C0.0394
; #@! TA.AperFunction,Plated,PTH,ComponentDrill
T8C0.0906
; #@! TA.AperFunction,Plated,PTH,ComponentDrill
T9C0.1260
%
G90
G05
T1
X6.1167Y-4.1043
X6.1709Y-4.1585
X6.2969Y-4.1585
X6.3913Y-3.8297
X6.4455Y-3.8839
T2
X5.5713Y-4.6217
X5.7929Y-4.5244
X5.8126Y-3.7587
X5.8756Y-3.1319
X5.885Y-3.8673
X5.9654Y-3.1323
X5.9685Y-3.6634
X6.0547Y-4.0724
X6.072Y-3.7587
X6.1276Y-3.5752
X6.1339Y-3.2547
X6.2303Y-3.4941
X6.3303Y-3.5441
X6.3371Y-4.313
X6.3594Y-3.9508
X6.5292Y-4.3118
X6.6378Y-3.3469
X6.6382Y-3.287
X6.6819Y-3.2858
X6.6846Y-4.3102
X6.702Y-3.4602
X6.7295Y-3.285
X6.7346Y-3.4256
X6.7496Y-4.1327
X6.8181Y-3.6685
X6.8276Y-4.2701
X6.8276Y-4.5937
X6.8878Y-3.3709
X6.8996Y-4.1323
X6.9157Y-3.2835
X6.9689Y-4.1441
X6.9819Y-3.4272
T3
X6.2284Y-4.5119
X6.6347Y-4.5115
X6.7398Y-4.8287
X6.8984Y-4.512
X6.8984Y-4.5937
X6.8988Y-4.8283
T4
X5.698Y-3.1318
X5.778Y-4.7307
X5.9094Y-4.4193
X6.0665Y-4.8854
T5
X6.337Y-4.7756
X6.3371Y-4.4933
X6.3371Y-4.5933
X6.5291Y-4.7756
X6.5292Y-4.4933
X6.5292Y-4.5933
X6.7398Y-4.5119
X6.7398Y-4.6119
T6
X5.6917Y-4.1858
X5.6917Y-4.2843
X5.7705Y-4.1858
X5.7705Y-4.2843
T7
X6.1303Y-3.1016
X6.2303Y-3.1016
X6.3303Y-3.1016
X6.4303Y-3.1016
X7.0728Y-3.2941
X7.0728Y-3.3941
X7.0728Y-3.4941
X7.0728Y-3.5941
X7.0728Y-3.6941
X7.0728Y-3.7941
X7.0728Y-3.8941
X7.0728Y-3.9941
X7.0728Y-4.0941
X7.0728Y-4.1941
X7.0728Y-4.2941
X7.0728Y-4.3941
X7.0728Y-4.4941
X7.0728Y-4.5941
X7.0728Y-4.6941
X7.1728Y-3.2941
X7.1728Y-3.3941
X7.1728Y-3.4941
X7.1728Y-3.5941
X7.1728Y-3.6941
X7.1728Y-3.7941
X7.1728Y-3.8941
X7.1728Y-3.9941
X7.1728Y-4.0941
X7.1728Y-4.1941
X7.1728Y-4.2941
X7.1728Y-4.3941
X7.1728Y-4.4941
X7.1728Y-4.5941
X7.1728Y-4.6941
T8
X5.5791Y-3.9988
X5.5791Y-4.4713
T9
X5.4386Y-3.1516
X5.4386Y-4.8366
T7
G00X5.4614Y-3.474
M15
G01X5.4614Y-3.5528
M16
G05
G00X5.5402Y-3.6984
M15
G01X5.6189Y-3.6984
M16
G05
G00X5.6976Y-3.474
M15
G01X5.6976Y-3.5528
M16
G05
M30
