%TF.GenerationSoftware,KiCad,Pcbnew,8.0.4*%
%TF.CreationDate,2024-10-18T12:18:18-03:00*%
%TF.ProjectId,STM32_DEV_BOARD,53544d33-325f-4444-9556-5f424f415244,rev?*%
%TF.SameCoordinates,Original*%
%TF.FileFunction,Copper,L1,Top*%
%TF.FilePolarity,Positive*%
%FSLAX46Y46*%
G04 Gerber Fmt 4.6, Leading zero omitted, Abs format (unit mm)*
G04 Created by KiCad (PCBNEW 8.0.4) date 2024-10-18 12:18:18*
%MOMM*%
%LPD*%
G01*
G04 APERTURE LIST*
G04 Aperture macros list*
%AMRoundRect*
0 Rectangle with rounded corners*
0 $1 Rounding radius*
0 $2 $3 $4 $5 $6 $7 $8 $9 X,Y pos of 4 corners*
0 Add a 4 corners polygon primitive as box body*
4,1,4,$2,$3,$4,$5,$6,$7,$8,$9,$2,$3,0*
0 Add four circle primitives for the rounded corners*
1,1,$1+$1,$2,$3*
1,1,$1+$1,$4,$5*
1,1,$1+$1,$6,$7*
1,1,$1+$1,$8,$9*
0 Add four rect primitives between the rounded corners*
20,1,$1+$1,$2,$3,$4,$5,0*
20,1,$1+$1,$4,$5,$6,$7,0*
20,1,$1+$1,$6,$7,$8,$9,0*
20,1,$1+$1,$8,$9,$2,$3,0*%
G04 Aperture macros list end*
%TA.AperFunction,ComponentPad*%
%ADD10C,1.400000*%
%TD*%
%TA.AperFunction,ComponentPad*%
%ADD11RoundRect,0.250000X-1.100000X0.500000X-1.100000X-0.500000X1.100000X-0.500000X1.100000X0.500000X0*%
%TD*%
%TA.AperFunction,SMDPad,CuDef*%
%ADD12RoundRect,0.250000X-1.100000X0.500000X-1.100000X-0.500000X1.100000X-0.500000X1.100000X0.500000X0*%
%TD*%
%TA.AperFunction,ComponentPad*%
%ADD13RoundRect,0.125000X0.125000X-0.625000X0.125000X0.625000X-0.125000X0.625000X-0.125000X-0.625000X0*%
%TD*%
%TA.AperFunction,SMDPad,CuDef*%
%ADD14RoundRect,0.125000X0.125000X-0.625000X0.125000X0.625000X-0.125000X0.625000X-0.125000X-0.625000X0*%
%TD*%
%TA.AperFunction,SMDPad,CuDef*%
%ADD15RoundRect,0.125000X0.625000X-0.125000X0.625000X0.125000X-0.625000X0.125000X-0.625000X-0.125000X0*%
%TD*%
%TA.AperFunction,ComponentPad*%
%ADD16RoundRect,0.125000X0.625000X-0.125000X0.625000X0.125000X-0.625000X0.125000X-0.625000X-0.125000X0*%
%TD*%
%TA.AperFunction,ComponentPad*%
%ADD17RoundRect,0.250000X-0.500000X-1.100000X0.500000X-1.100000X0.500000X1.100000X-0.500000X1.100000X0*%
%TD*%
%TA.AperFunction,SMDPad,CuDef*%
%ADD18RoundRect,0.250000X-0.500000X-1.100000X0.500000X-1.100000X0.500000X1.100000X-0.500000X1.100000X0*%
%TD*%
%TA.AperFunction,SMDPad,CuDef*%
%ADD19C,1.000000*%
%TD*%
%TA.AperFunction,ComponentPad*%
%ADD20C,5.600000*%
%TD*%
%TA.AperFunction,SMDPad,CuDef*%
%ADD21RoundRect,0.250000X-0.350000X0.850000X-0.350000X-0.850000X0.350000X-0.850000X0.350000X0.850000X0*%
%TD*%
%TA.AperFunction,SMDPad,CuDef*%
%ADD22RoundRect,0.250000X-1.125000X1.275000X-1.125000X-1.275000X1.125000X-1.275000X1.125000X1.275000X0*%
%TD*%
%TA.AperFunction,SMDPad,CuDef*%
%ADD23RoundRect,0.249997X-2.650003X2.950003X-2.650003X-2.950003X2.650003X-2.950003X2.650003X2.950003X0*%
%TD*%
%TA.AperFunction,SMDPad,CuDef*%
%ADD24RoundRect,0.250000X-0.450000X0.325000X-0.450000X-0.325000X0.450000X-0.325000X0.450000X0.325000X0*%
%TD*%
%TA.AperFunction,ComponentPad*%
%ADD25C,1.500000*%
%TD*%
%TA.AperFunction,SMDPad,CuDef*%
%ADD26R,1.000000X1.500000*%
%TD*%
%TA.AperFunction,SMDPad,CuDef*%
%ADD27RoundRect,0.250000X0.450000X-0.325000X0.450000X0.325000X-0.450000X0.325000X-0.450000X-0.325000X0*%
%TD*%
%TA.AperFunction,ComponentPad*%
%ADD28RoundRect,0.250000X0.450000X-0.350000X0.450000X0.350000X-0.450000X0.350000X-0.450000X-0.350000X0*%
%TD*%
%TA.AperFunction,SMDPad,CuDef*%
%ADD29RoundRect,0.250000X0.450000X-0.350000X0.450000X0.350000X-0.450000X0.350000X-0.450000X-0.350000X0*%
%TD*%
%TA.AperFunction,ComponentPad*%
%ADD30RoundRect,0.250000X0.600000X-0.400000X0.600000X0.400000X-0.600000X0.400000X-0.600000X-0.400000X0*%
%TD*%
%TA.AperFunction,SMDPad,CuDef*%
%ADD31RoundRect,0.250000X0.600000X-0.400000X0.600000X0.400000X-0.600000X0.400000X-0.600000X-0.400000X0*%
%TD*%
%TA.AperFunction,SMDPad,CuDef*%
%ADD32RoundRect,0.250000X0.337500X0.475000X-0.337500X0.475000X-0.337500X-0.475000X0.337500X-0.475000X0*%
%TD*%
%TA.AperFunction,SMDPad,CuDef*%
%ADD33RoundRect,0.250000X0.475000X-0.337500X0.475000X0.337500X-0.475000X0.337500X-0.475000X-0.337500X0*%
%TD*%
%TA.AperFunction,ComponentPad*%
%ADD34RoundRect,0.250000X0.475000X-0.337500X0.475000X0.337500X-0.475000X0.337500X-0.475000X-0.337500X0*%
%TD*%
%TA.AperFunction,SMDPad,CuDef*%
%ADD35R,1.500000X1.000000*%
%TD*%
%TA.AperFunction,ComponentPad*%
%ADD36R,1.700000X1.700000*%
%TD*%
%TA.AperFunction,ComponentPad*%
%ADD37O,1.700000X1.700000*%
%TD*%
%TA.AperFunction,ComponentPad*%
%ADD38RoundRect,0.250000X-1.125000X1.275000X-1.125000X-1.275000X1.125000X-1.275000X1.125000X1.275000X0*%
%TD*%
%TA.AperFunction,ComponentPad*%
%ADD39R,1.600000X1.600000*%
%TD*%
%TA.AperFunction,ComponentPad*%
%ADD40C,1.600000*%
%TD*%
%TA.AperFunction,ComponentPad*%
%ADD41C,4.000000*%
%TD*%
%TA.AperFunction,ComponentPad*%
%ADD42R,3.500000X3.500000*%
%TD*%
%TA.AperFunction,ComponentPad*%
%ADD43RoundRect,0.750000X-0.750000X-1.000000X0.750000X-1.000000X0.750000X1.000000X-0.750000X1.000000X0*%
%TD*%
%TA.AperFunction,ComponentPad*%
%ADD44RoundRect,0.875000X-0.875000X-0.875000X0.875000X-0.875000X0.875000X0.875000X-0.875000X0.875000X0*%
%TD*%
%TA.AperFunction,SMDPad,CuDef*%
%ADD45RoundRect,0.250000X1.100000X-0.412500X1.100000X0.412500X-1.100000X0.412500X-1.100000X-0.412500X0*%
%TD*%
%TA.AperFunction,ComponentPad*%
%ADD46RoundRect,0.250000X1.100000X-0.412500X1.100000X0.412500X-1.100000X0.412500X-1.100000X-0.412500X0*%
%TD*%
%TA.AperFunction,ViaPad*%
%ADD47C,0.600000*%
%TD*%
%TA.AperFunction,Conductor*%
%ADD48C,0.500000*%
%TD*%
%TA.AperFunction,Conductor*%
%ADD49C,1.000000*%
%TD*%
%TA.AperFunction,Conductor*%
%ADD50C,0.200000*%
%TD*%
G04 APERTURE END LIST*
D10*
%TO.P,JP2,1,A*%
%TO.N,GND*%
X171190000Y-114602500D03*
%TO.P,JP2,2,B*%
%TO.N,/RESET*%
X171190000Y-117142500D03*
%TD*%
D11*
%TO.P,D4,1,K*%
%TO.N,+3V3*%
X146760000Y-120160000D03*
D12*
%TO.P,D4,2,A*%
%TO.N,Net-(D4-A)*%
X146760000Y-124960000D03*
%TD*%
D13*
%TO.P,U1,1,VDD*%
%TO.N,+3V3*%
X156740000Y-105625000D03*
D14*
%TO.P,U1,2,PF0*%
%TO.N,/OSC_IN*%
X157540000Y-105625000D03*
%TO.P,U1,3,PF1*%
%TO.N,/OSC_OUT*%
X158340000Y-105625000D03*
%TO.P,U1,4,NRST*%
%TO.N,/RESET*%
X159140000Y-105625000D03*
D13*
%TO.P,U1,5,VDDA*%
%TO.N,+3V3*%
X159940000Y-105625000D03*
D14*
%TO.P,U1,6,PA0*%
%TO.N,/PA0*%
X160740000Y-105625000D03*
%TO.P,U1,7,PA1*%
%TO.N,/PA1*%
X161540000Y-105625000D03*
%TO.P,U1,8,PA2*%
%TO.N,/PA2*%
X162340000Y-105625000D03*
D15*
%TO.P,U1,9,PA3*%
%TO.N,/PA3*%
X163715000Y-104250000D03*
%TO.P,U1,10,PA4*%
%TO.N,/PA4*%
X163715000Y-103450000D03*
%TO.P,U1,11,PA5*%
%TO.N,/PA5*%
X163715000Y-102650000D03*
%TO.P,U1,12,PA6*%
%TO.N,/PA6*%
X163715000Y-101850000D03*
%TO.P,U1,13,PA7*%
%TO.N,/PA7*%
X163715000Y-101050000D03*
%TO.P,U1,14,PB0*%
%TO.N,/PB0*%
X163715000Y-100250000D03*
%TO.P,U1,15,PB1*%
%TO.N,/PB1*%
X163715000Y-99450000D03*
D16*
%TO.P,U1,16,VSS*%
%TO.N,GND*%
X163715000Y-98650000D03*
D13*
%TO.P,U1,17,VDD*%
%TO.N,+3V3*%
X162340000Y-97275000D03*
D14*
%TO.P,U1,18,PA8*%
%TO.N,/PA8*%
X161540000Y-97275000D03*
%TO.P,U1,19,PA9*%
%TO.N,/PA9*%
X160740000Y-97275000D03*
%TO.P,U1,20,PA10*%
%TO.N,/PA10*%
X159940000Y-97275000D03*
%TO.P,U1,21,PA11*%
%TO.N,/PA11*%
X159140000Y-97275000D03*
%TO.P,U1,22,PA12*%
%TO.N,/PA12*%
X158340000Y-97275000D03*
%TO.P,U1,23,PA13*%
%TO.N,/PA13*%
X157540000Y-97275000D03*
%TO.P,U1,24,PA14*%
%TO.N,/PA14*%
X156740000Y-97275000D03*
D15*
%TO.P,U1,25,PA15*%
%TO.N,/PA15*%
X155365000Y-98650000D03*
%TO.P,U1,26,PB3*%
%TO.N,/PB3*%
X155365000Y-99450000D03*
%TO.P,U1,27,PB4*%
%TO.N,/PB4*%
X155365000Y-100250000D03*
%TO.P,U1,28,PB5*%
%TO.N,/PB5*%
X155365000Y-101050000D03*
%TO.P,U1,29,PB6*%
%TO.N,/PB6*%
X155365000Y-101850000D03*
%TO.P,U1,30,PB7*%
%TO.N,/PB7*%
X155365000Y-102650000D03*
%TO.P,U1,31,BOOT0*%
%TO.N,BOOT0*%
X155365000Y-103450000D03*
D16*
%TO.P,U1,32,VSS*%
%TO.N,GND*%
X155365000Y-104250000D03*
%TD*%
D17*
%TO.P,D2,1,K*%
%TO.N,GND*%
X150100000Y-112250000D03*
D18*
%TO.P,D2,2,A*%
%TO.N,Net-(D2-A)*%
X154900000Y-112250000D03*
%TD*%
D19*
%TO.P,TP2,1,1*%
%TO.N,+3V3*%
X179650000Y-80470000D03*
%TD*%
D20*
%TO.P,REF\u002A\u002A,1*%
%TO.N,N/C*%
X138140000Y-80050000D03*
%TD*%
D21*
%TO.P,U2,1,GND*%
%TO.N,Net-(D1-A)*%
X153797500Y-82670000D03*
%TO.P,U2,2,VO*%
%TO.N,Net-(D3-A)*%
X151517500Y-82670000D03*
D22*
X153042500Y-87295000D03*
X149992500Y-87295000D03*
D23*
X151517500Y-88970000D03*
D22*
X153042500Y-90645000D03*
X149992500Y-90645000D03*
D21*
%TO.P,U2,3,VI*%
%TO.N,VDC*%
X149237500Y-82670000D03*
%TD*%
D24*
%TO.P,D6,1,K*%
%TO.N,Net-(D6-K)*%
X166810000Y-78752500D03*
%TO.P,D6,2,A*%
%TO.N,Net-(D6-A)*%
X166810000Y-80802500D03*
%TD*%
D25*
%TO.P,Y1,1,1*%
%TO.N,Net-(JP7-B)*%
X165840000Y-121300000D03*
%TO.P,Y1,2,2*%
%TO.N,Net-(JP6-A)*%
X160960000Y-121300000D03*
%TD*%
D26*
%TO.P,JP5,1,A*%
%TO.N,Net-(JP5-A)*%
X145990000Y-117380000D03*
%TO.P,JP5,2,B*%
%TO.N,Net-(JP5-B)*%
X147290000Y-117380000D03*
%TD*%
D27*
%TO.P,D8,1,K*%
%TO.N,/PA3*%
X172800000Y-87042500D03*
%TO.P,D8,2,A*%
%TO.N,Net-(D8-A)*%
X172800000Y-84992500D03*
%TD*%
D28*
%TO.P,R2,1*%
%TO.N,+3V3*%
X171190000Y-122650000D03*
D29*
%TO.P,R2,2*%
%TO.N,/RESET*%
X171190000Y-120650000D03*
%TD*%
D30*
%TO.P,D5,1,K*%
%TO.N,+3V3*%
X175230000Y-122640000D03*
D31*
%TO.P,D5,2,A*%
%TO.N,/RESET*%
X175230000Y-119140000D03*
%TD*%
D32*
%TO.P,C3,1*%
%TO.N,Net-(JP5-B)*%
X152167500Y-109020000D03*
%TO.P,C3,2*%
%TO.N,GND*%
X150092500Y-109020000D03*
%TD*%
D10*
%TO.P,JP7,1,A*%
%TO.N,/OSC_OUT*%
X165842500Y-114130000D03*
%TO.P,JP7,2,B*%
%TO.N,Net-(JP7-B)*%
X165842500Y-116670000D03*
%TD*%
D33*
%TO.P,C8,1*%
%TO.N,Net-(JP7-B)*%
X168522500Y-116667500D03*
D34*
%TO.P,C8,2*%
%TO.N,GND*%
X168522500Y-114592500D03*
%TD*%
D35*
%TO.P,JP8,1,A*%
%TO.N,Net-(JP3-B)*%
X152310000Y-96770000D03*
%TO.P,JP8,2,B*%
%TO.N,GND*%
X152310000Y-95470000D03*
%TD*%
D36*
%TO.P,J2,1,Pin_1*%
%TO.N,+3V3*%
X163330000Y-78780000D03*
D37*
%TO.P,J2,2,Pin_2*%
%TO.N,/PA13*%
X160790000Y-78780000D03*
%TO.P,J2,3,Pin_3*%
%TO.N,/PA14*%
X158250000Y-78780000D03*
%TO.P,J2,4,Pin_4*%
%TO.N,GND*%
X155710000Y-78780000D03*
%TD*%
D21*
%TO.P,U3,1,GND*%
%TO.N,Net-(D2-A)*%
X154845000Y-116115000D03*
%TO.P,U3,2,VO*%
%TO.N,Net-(D4-A)*%
X152565000Y-116115000D03*
D22*
X154090000Y-120740000D03*
X151040000Y-120740000D03*
D23*
X152565000Y-122415000D03*
D38*
X154090000Y-124090000D03*
D22*
X151040000Y-124090000D03*
D21*
%TO.P,U3,3,VI*%
%TO.N,Net-(JP5-B)*%
X150285000Y-116115000D03*
%TD*%
D24*
%TO.P,D7,1,K*%
%TO.N,Net-(D7-K)*%
X172820000Y-78745000D03*
%TO.P,D7,2,A*%
%TO.N,Net-(D7-A)*%
X172820000Y-80795000D03*
%TD*%
D20*
%TO.P,REF\u002A\u002A,1*%
%TO.N,N/C*%
X138140001Y-122849999D03*
%TD*%
D35*
%TO.P,JP3,1,A*%
%TO.N,+3V3*%
X149490000Y-95470000D03*
%TO.P,JP3,2,B*%
%TO.N,Net-(JP3-B)*%
X149490000Y-96770000D03*
%TD*%
%TO.P,JP1,1,A*%
%TO.N,Net-(D6-K)*%
X169720000Y-78755000D03*
%TO.P,JP1,2,B*%
%TO.N,GND*%
X169720000Y-80055000D03*
%TD*%
D39*
%TO.P,J1,1,VBUS*%
%TO.N,Net-(J1-VBUS)*%
X146570000Y-108820000D03*
D40*
%TO.P,J1,2,D-*%
%TO.N,Net-(J1-D-)*%
X146570000Y-106320000D03*
%TO.P,J1,3,D+*%
%TO.N,Net-(J1-D+)*%
X144570000Y-106320000D03*
%TO.P,J1,4,GND*%
%TO.N,GND*%
X144570000Y-108820000D03*
D41*
%TO.P,J1,5,Shield*%
X141710000Y-113570000D03*
X141710000Y-101570000D03*
%TD*%
D10*
%TO.P,JP6,1,A*%
%TO.N,Net-(JP6-A)*%
X160962500Y-116670000D03*
%TO.P,JP6,2,B*%
%TO.N,/OSC_IN*%
X160962500Y-114130000D03*
%TD*%
D35*
%TO.P,JP4,1,A*%
%TO.N,Net-(D7-K)*%
X175660000Y-78747500D03*
%TO.P,JP4,2,B*%
%TO.N,GND*%
X175660000Y-80047500D03*
%TD*%
D33*
%TO.P,C7,1*%
%TO.N,Net-(JP6-A)*%
X158202500Y-116677500D03*
D34*
%TO.P,C7,2*%
%TO.N,GND*%
X158202500Y-114602500D03*
%TD*%
D19*
%TO.P,TP1,1,1*%
%TO.N,GND*%
X179640000Y-78160000D03*
%TD*%
D34*
%TO.P,C6,1*%
%TO.N,/RESET*%
X175220000Y-116680000D03*
%TO.P,C6,2*%
%TO.N,GND*%
X175220000Y-114605000D03*
%TD*%
D42*
%TO.P,J6,1*%
%TO.N,VDC*%
X144720000Y-89240000D03*
D43*
%TO.P,J6,2*%
%TO.N,GND*%
X138720000Y-89240000D03*
D44*
%TO.P,J6,3*%
X141720000Y-93940000D03*
%TD*%
D27*
%TO.P,D9,1,K*%
%TO.N,/PA2*%
X166810000Y-87015000D03*
%TO.P,D9,2,A*%
%TO.N,Net-(D9-A)*%
X166810000Y-84965000D03*
%TD*%
D45*
%TO.P,C1,1*%
%TO.N,VDC*%
X144730000Y-82672500D03*
D46*
%TO.P,C1,2*%
%TO.N,GND*%
X144730000Y-79547500D03*
%TD*%
D36*
%TO.P,J3,1,Pin_1*%
%TO.N,VDC*%
X182190000Y-83670000D03*
D37*
%TO.P,J3,2,Pin_2*%
%TO.N,+3V3*%
X179650000Y-83670000D03*
%TO.P,J3,3,Pin_3*%
%TO.N,GND*%
X182190000Y-86210000D03*
%TO.P,J3,4,Pin_4*%
X179650000Y-86210000D03*
%TO.P,J3,5,Pin_5*%
%TO.N,/PA13*%
X182190000Y-88750000D03*
%TO.P,J3,6,Pin_6*%
%TO.N,/PA14*%
X179650000Y-88750000D03*
%TO.P,J3,7,Pin_7*%
%TO.N,/PA11*%
X182190000Y-91290000D03*
%TO.P,J3,8,Pin_8*%
%TO.N,/PA12*%
X179650000Y-91290000D03*
%TO.P,J3,9,Pin_9*%
%TO.N,/PA9*%
X182190000Y-93830000D03*
%TO.P,J3,10,Pin_10*%
%TO.N,/PA10*%
X179650000Y-93830000D03*
%TO.P,J3,11,Pin_11*%
%TO.N,/PB1*%
X182190000Y-96370000D03*
%TO.P,J3,12,Pin_12*%
%TO.N,/PA8*%
X179650000Y-96370000D03*
%TO.P,J3,13,Pin_13*%
%TO.N,/PA7*%
X182190000Y-98910000D03*
%TO.P,J3,14,Pin_14*%
%TO.N,/PB0*%
X179650000Y-98910000D03*
%TO.P,J3,15,Pin_15*%
%TO.N,/PA5*%
X182190000Y-101450000D03*
%TO.P,J3,16,Pin_16*%
%TO.N,/PA6*%
X179650000Y-101450000D03*
%TO.P,J3,17,Pin_17*%
%TO.N,/PA3*%
X182190000Y-103990000D03*
%TO.P,J3,18,Pin_18*%
%TO.N,/PA4*%
X179650000Y-103990000D03*
%TO.P,J3,19,Pin_19*%
%TO.N,/PA1*%
X182190000Y-106530000D03*
%TO.P,J3,20,Pin_20*%
%TO.N,/PA2*%
X179650000Y-106530000D03*
%TO.P,J3,21,Pin_21*%
%TO.N,/PB7*%
X182190000Y-109070000D03*
%TO.P,J3,22,Pin_22*%
%TO.N,/PA0*%
X179650000Y-109070000D03*
%TO.P,J3,23,Pin_23*%
%TO.N,/PB5*%
X182190000Y-111610000D03*
%TO.P,J3,24,Pin_24*%
%TO.N,/PB6*%
X179650000Y-111610000D03*
%TO.P,J3,25,Pin_25*%
%TO.N,/PB3*%
X182190000Y-114150000D03*
%TO.P,J3,26,Pin_26*%
%TO.N,/PB4*%
X179650000Y-114150000D03*
%TO.P,J3,27,Pin_27*%
%TO.N,/RESET*%
X182190000Y-116690000D03*
%TO.P,J3,28,Pin_28*%
%TO.N,/PA15*%
X179650000Y-116690000D03*
%TO.P,J3,29,Pin_29*%
%TO.N,/OSC_IN*%
X182190000Y-119230000D03*
%TO.P,J3,30,Pin_30*%
%TO.N,/OSC_OUT*%
X179650000Y-119230000D03*
%TD*%
D47*
%TO.N,VDC*%
X149240000Y-79550000D03*
%TO.N,GND*%
X169790000Y-109480000D03*
X147140000Y-114920000D03*
X175250000Y-104960000D03*
X175660000Y-83400000D03*
X173180000Y-93180000D03*
X154230000Y-95470000D03*
X161530000Y-100350000D03*
X169720000Y-83460000D03*
%TO.N,Net-(D3-A)*%
X151600000Y-93050000D03*
X151520000Y-79560000D03*
%TO.N,+3V3*%
X171440000Y-104970000D03*
X155640000Y-90810000D03*
X147640000Y-95470000D03*
X171060000Y-87010000D03*
%TO.N,Net-(D1-A)*%
X155800000Y-82670000D03*
%TO.N,Net-(D6-A)*%
X168610000Y-83490000D03*
%TO.N,Net-(D7-A)*%
X170930000Y-83440000D03*
%TO.N,Net-(D8-A)*%
X174950000Y-85620000D03*
%TO.N,/PA3*%
X177340000Y-87050000D03*
X177010000Y-105260000D03*
%TO.N,Net-(D9-A)*%
X168600000Y-85010000D03*
%TO.N,/PA2*%
X170230000Y-87890000D03*
%TO.N,/PA14*%
X158250000Y-88750000D03*
%TO.N,/PA13*%
X160790000Y-90020000D03*
%TO.N,BOOT0*%
X153790000Y-103440000D03*
%TO.N,/RESET*%
X173420000Y-116680000D03*
X173420000Y-108460000D03*
%TO.N,/OSC_OUT*%
X165842500Y-109520000D03*
%TO.N,/OSC_IN*%
X160962500Y-109550000D03*
%TO.N,Net-(JP3-B)*%
X149480000Y-98230000D03*
%TO.N,Net-(JP5-A)*%
X141510000Y-117390000D03*
%TD*%
D48*
%TO.N,VDC*%
X149237500Y-82670000D02*
X149230000Y-82662500D01*
X149240000Y-82667500D02*
X149237500Y-82670000D01*
D49*
X144720000Y-89240000D02*
X144720000Y-82682500D01*
X149240000Y-79550000D02*
X149240000Y-82667500D01*
D48*
X149235000Y-82672500D02*
X149237500Y-82670000D01*
D49*
X144730000Y-82672500D02*
X149235000Y-82672500D01*
D48*
X144720000Y-82682500D02*
X144730000Y-82672500D01*
D50*
%TO.N,GND*%
X182590000Y-78160000D02*
X183840000Y-79410000D01*
X169720000Y-80055000D02*
X169720000Y-83460000D01*
D48*
X150100000Y-109027500D02*
X150092500Y-109020000D01*
D50*
X175660000Y-80047500D02*
X175660000Y-83400000D01*
X152310000Y-95470000D02*
X154230000Y-95470000D01*
X183840000Y-85810000D02*
X183440000Y-86210000D01*
X183440000Y-86210000D02*
X182190000Y-86210000D01*
X179640000Y-78160000D02*
X182590000Y-78160000D01*
D48*
X150100000Y-112250000D02*
X150100000Y-109027500D01*
D50*
X183840000Y-79410000D02*
X183840000Y-85810000D01*
D48*
X150082500Y-112577500D02*
X150070000Y-112590000D01*
%TO.N,Net-(JP5-B)*%
X150290000Y-116110000D02*
X150290000Y-114590000D01*
X150285000Y-116115000D02*
X150290000Y-116110000D01*
X149505000Y-116115000D02*
X150285000Y-116115000D01*
X147290000Y-117380000D02*
X148240000Y-117380000D01*
X152157500Y-113932500D02*
X152157500Y-109290000D01*
X148240000Y-117380000D02*
X149505000Y-116115000D01*
X150290000Y-114590000D02*
X150540000Y-114340000D01*
X150540000Y-114340000D02*
X151750000Y-114340000D01*
X151750000Y-114340000D02*
X152157500Y-113932500D01*
%TO.N,Net-(D3-A)*%
X151600000Y-93050000D02*
X151600000Y-89052500D01*
X151517500Y-82670000D02*
X151517500Y-88970000D01*
X151520000Y-82667500D02*
X151517500Y-82670000D01*
X151600000Y-89052500D02*
X151517500Y-88970000D01*
X151530000Y-82657500D02*
X151517500Y-82670000D01*
X151520000Y-79560000D02*
X151520000Y-82667500D01*
X151517500Y-82670000D02*
X151510000Y-82662500D01*
%TO.N,Net-(D4-A)*%
X152565000Y-116115000D02*
X152565000Y-122415000D01*
X146760000Y-124960000D02*
X150170000Y-124960000D01*
X150170000Y-124960000D02*
X151040000Y-124090000D01*
D50*
%TO.N,Net-(JP6-A)*%
X160955000Y-116677500D02*
X160962500Y-116670000D01*
X160962500Y-116670000D02*
X160960000Y-116672500D01*
X158202500Y-116677500D02*
X160955000Y-116677500D01*
%TO.N,Net-(JP7-B)*%
X168520000Y-116670000D02*
X168522500Y-116667500D01*
X165842500Y-116670000D02*
X168520000Y-116670000D01*
X165842500Y-121297500D02*
X165840000Y-121300000D01*
%TO.N,+3V3*%
X149490000Y-95470000D02*
X147640000Y-95470000D01*
X179650000Y-83670000D02*
X179650000Y-80470000D01*
D48*
%TO.N,Net-(D1-A)*%
X155800000Y-82670000D02*
X153797500Y-82670000D01*
%TO.N,Net-(D2-A)*%
X154845000Y-112615000D02*
X154870000Y-112590000D01*
X154845000Y-116115000D02*
X154845000Y-112465000D01*
X154845000Y-112465000D02*
X154880000Y-112430000D01*
D50*
%TO.N,Net-(D6-K)*%
X166810000Y-78752500D02*
X169717500Y-78752500D01*
X169717500Y-78752500D02*
X169720000Y-78755000D01*
%TO.N,Net-(D6-A)*%
X167710000Y-83490000D02*
X166810000Y-82590000D01*
X166810000Y-82590000D02*
X166810000Y-80802500D01*
X168610000Y-83490000D02*
X167710000Y-83490000D01*
%TO.N,Net-(D7-K)*%
X175657500Y-78745000D02*
X175660000Y-78747500D01*
X172820000Y-78745000D02*
X175657500Y-78745000D01*
%TO.N,Net-(D7-A)*%
X172810000Y-80805000D02*
X172820000Y-80795000D01*
X172810000Y-82190000D02*
X172810000Y-80805000D01*
X171560000Y-83440000D02*
X172810000Y-82190000D01*
X170930000Y-83440000D02*
X171560000Y-83440000D01*
%TO.N,Net-(D8-A)*%
X174950000Y-85620000D02*
X174322500Y-84992500D01*
X174322500Y-84992500D02*
X172800000Y-84992500D01*
%TO.N,/PA3*%
X172800000Y-87042500D02*
X177332500Y-87042500D01*
X177332500Y-87042500D02*
X177340000Y-87050000D01*
X163715000Y-104250000D02*
X176000000Y-104250000D01*
X180920000Y-105260000D02*
X182190000Y-103990000D01*
X177010000Y-105260000D02*
X180920000Y-105260000D01*
X176000000Y-104250000D02*
X177010000Y-105260000D01*
%TO.N,Net-(D9-A)*%
X166855000Y-85010000D02*
X166810000Y-84965000D01*
X168600000Y-85010000D02*
X166855000Y-85010000D01*
%TO.N,/PA2*%
X162340000Y-106460000D02*
X162530000Y-106650000D01*
X177030000Y-106650000D02*
X177150000Y-106530000D01*
X170190000Y-87890000D02*
X169315000Y-87015000D01*
X162530000Y-106650000D02*
X177030000Y-106650000D01*
X169315000Y-87015000D02*
X166810000Y-87015000D01*
X170230000Y-87890000D02*
X170190000Y-87890000D01*
X162340000Y-105625000D02*
X162340000Y-106460000D01*
X177150000Y-106530000D02*
X179650000Y-106530000D01*
%TO.N,/PA14*%
X158250000Y-88750000D02*
X179650000Y-88750000D01*
X156740000Y-97275000D02*
X156740000Y-90260000D01*
X156740000Y-90260000D02*
X158250000Y-88750000D01*
%TO.N,/PA13*%
X157540000Y-91210000D02*
X157540000Y-97275000D01*
X160790000Y-90020000D02*
X158730000Y-90020000D01*
X182190000Y-88750000D02*
X180920000Y-90020000D01*
X158730000Y-90020000D02*
X157540000Y-91210000D01*
X180920000Y-90020000D02*
X160790000Y-90020000D01*
%TO.N,/PA15*%
X157470000Y-112350000D02*
X150970000Y-105850000D01*
X150970000Y-99640000D02*
X151960000Y-98650000D01*
X177210000Y-115910000D02*
X177210000Y-113651372D01*
X175908628Y-112350000D02*
X157470000Y-112350000D01*
X151960000Y-98650000D02*
X155365000Y-98650000D01*
X179650000Y-116690000D02*
X177990000Y-116690000D01*
X177990000Y-116690000D02*
X177210000Y-115910000D01*
X150970000Y-105850000D02*
X150970000Y-99640000D01*
X177210000Y-113651372D02*
X175908628Y-112350000D01*
%TO.N,/PA9*%
X160740000Y-95520000D02*
X161160000Y-95100000D01*
X160740000Y-97275000D02*
X160740000Y-95520000D01*
X180920000Y-95100000D02*
X182190000Y-93830000D01*
X161160000Y-95100000D02*
X180920000Y-95100000D01*
%TO.N,/PA0*%
X160740000Y-106950000D02*
X161240000Y-107450000D01*
X160740000Y-105625000D02*
X160740000Y-106950000D01*
X176770000Y-107450000D02*
X178390000Y-109070000D01*
X178390000Y-109070000D02*
X179650000Y-109070000D01*
X161240000Y-107450000D02*
X176770000Y-107450000D01*
%TO.N,/PA5*%
X176900000Y-102740000D02*
X180900000Y-102740000D01*
X163715000Y-102650000D02*
X176810000Y-102650000D01*
X176810000Y-102650000D02*
X176900000Y-102740000D01*
X180900000Y-102740000D02*
X182190000Y-101450000D01*
%TO.N,/PA8*%
X161540000Y-96040000D02*
X161840000Y-95740000D01*
X179020000Y-95740000D02*
X179650000Y-96370000D01*
X161540000Y-97275000D02*
X161540000Y-96040000D01*
X161840000Y-95740000D02*
X179020000Y-95740000D01*
%TO.N,/PA10*%
X160690000Y-93830000D02*
X179650000Y-93830000D01*
X159940000Y-97275000D02*
X159940000Y-94580000D01*
X159940000Y-94580000D02*
X160690000Y-93830000D01*
%TO.N,/PA7*%
X180920000Y-100180000D02*
X182190000Y-98910000D01*
X163715000Y-101050000D02*
X175960000Y-101050000D01*
X175960000Y-101050000D02*
X176830000Y-100180000D01*
X176830000Y-100180000D02*
X180920000Y-100180000D01*
%TO.N,/PA11*%
X180920000Y-92560000D02*
X182190000Y-91290000D01*
X159920000Y-92560000D02*
X180920000Y-92560000D01*
X159140000Y-93340000D02*
X159920000Y-92560000D01*
X159140000Y-97275000D02*
X159140000Y-93340000D01*
%TO.N,/PA4*%
X177000000Y-103990000D02*
X179650000Y-103990000D01*
X163715000Y-103450000D02*
X176460000Y-103450000D01*
X176460000Y-103450000D02*
X177000000Y-103990000D01*
%TO.N,/PA12*%
X159150000Y-91290000D02*
X158340000Y-92100000D01*
X179650000Y-91290000D02*
X159150000Y-91290000D01*
X158340000Y-92100000D02*
X158340000Y-97275000D01*
%TO.N,/PA6*%
X163715000Y-101850000D02*
X176420000Y-101850000D01*
X176820000Y-101450000D02*
X179650000Y-101450000D01*
X176420000Y-101850000D02*
X176820000Y-101450000D01*
%TO.N,/PA1*%
X180920000Y-107800000D02*
X177720000Y-107800000D01*
X176970000Y-107050000D02*
X161850000Y-107050000D01*
X161540000Y-106740000D02*
X161540000Y-105625000D01*
X182190000Y-106530000D02*
X180920000Y-107800000D01*
X161850000Y-107050000D02*
X161540000Y-106740000D01*
X177720000Y-107800000D02*
X176970000Y-107050000D01*
%TO.N,/PB1*%
X176930000Y-97640000D02*
X180920000Y-97640000D01*
X163715000Y-99450000D02*
X175120000Y-99450000D01*
X180920000Y-97640000D02*
X182190000Y-96370000D01*
X175120000Y-99450000D02*
X176930000Y-97640000D01*
%TO.N,/PB6*%
X153300000Y-101850000D02*
X152660000Y-102490000D01*
X152660000Y-105150000D02*
X158260000Y-110750000D01*
X155365000Y-101850000D02*
X153300000Y-101850000D01*
X152660000Y-102490000D02*
X152660000Y-105150000D01*
X176640000Y-110750000D02*
X177500000Y-111610000D01*
X158260000Y-110750000D02*
X176640000Y-110750000D01*
X177500000Y-111610000D02*
X179650000Y-111610000D01*
%TO.N,/PB4*%
X151780000Y-105470000D02*
X157860000Y-111550000D01*
X151780000Y-101110000D02*
X151780000Y-105470000D01*
X178840000Y-114150000D02*
X179650000Y-114150000D01*
X157860000Y-111550000D02*
X176240000Y-111550000D01*
X152640000Y-100250000D02*
X151780000Y-101110000D01*
X155365000Y-100250000D02*
X152640000Y-100250000D01*
X176240000Y-111550000D02*
X178840000Y-114150000D01*
%TO.N,/PB3*%
X176074314Y-111950000D02*
X177612157Y-113487843D01*
X178070000Y-115420000D02*
X180920000Y-115420000D01*
X180920000Y-115420000D02*
X182190000Y-114150000D01*
X177610000Y-114960000D02*
X178070000Y-115420000D01*
X151370000Y-105660000D02*
X157660000Y-111950000D01*
X157660000Y-111950000D02*
X176074314Y-111950000D01*
X151370000Y-100560000D02*
X151370000Y-105660000D01*
X177610000Y-113490000D02*
X177610000Y-114960000D01*
X177612157Y-113487843D02*
X177610000Y-113490000D01*
X155365000Y-99450000D02*
X152480000Y-99450000D01*
X152480000Y-99450000D02*
X151370000Y-100560000D01*
%TO.N,/PB7*%
X153570000Y-102650000D02*
X153080000Y-103140000D01*
X180920000Y-110340000D02*
X182190000Y-109070000D01*
X155365000Y-102650000D02*
X153570000Y-102650000D01*
X153080000Y-104960000D02*
X158460000Y-110340000D01*
X153080000Y-103140000D02*
X153080000Y-104960000D01*
X158460000Y-110340000D02*
X180920000Y-110340000D01*
%TO.N,/PB0*%
X163715000Y-100250000D02*
X175460000Y-100250000D01*
X175460000Y-100250000D02*
X176800000Y-98910000D01*
X176800000Y-98910000D02*
X179650000Y-98910000D01*
%TO.N,/PB5*%
X178160000Y-112880000D02*
X180920000Y-112880000D01*
X152210000Y-101780000D02*
X152210000Y-105270000D01*
X152940000Y-101050000D02*
X152210000Y-101780000D01*
X158090000Y-111150000D02*
X176430000Y-111150000D01*
X180920000Y-112880000D02*
X182190000Y-111610000D01*
X176430000Y-111150000D02*
X178160000Y-112880000D01*
X155365000Y-101050000D02*
X152940000Y-101050000D01*
X152210000Y-105270000D02*
X158090000Y-111150000D01*
%TO.N,BOOT0*%
X155355000Y-103440000D02*
X155365000Y-103450000D01*
X153790000Y-103440000D02*
X155355000Y-103440000D01*
%TO.N,/RESET*%
X172810000Y-107850000D02*
X159580000Y-107850000D01*
X177540000Y-117970000D02*
X176250000Y-116680000D01*
X171190000Y-117142500D02*
X171190000Y-120650000D01*
X175230000Y-116690000D02*
X175220000Y-116680000D01*
X180910000Y-117970000D02*
X177540000Y-117970000D01*
X159140000Y-107410000D02*
X159140000Y-105625000D01*
X172907500Y-117142500D02*
X173370000Y-116680000D01*
X182190000Y-116690000D02*
X180910000Y-117970000D01*
X176250000Y-116680000D02*
X175220000Y-116680000D01*
X175230000Y-119140000D02*
X175230000Y-116690000D01*
X159580000Y-107850000D02*
X159140000Y-107410000D01*
X173420000Y-116680000D02*
X175220000Y-116680000D01*
X171190000Y-117142500D02*
X172907500Y-117142500D01*
X173370000Y-116680000D02*
X173420000Y-116680000D01*
X173420000Y-108460000D02*
X172810000Y-107850000D01*
%TO.N,/OSC_OUT*%
X164802500Y-108480000D02*
X159080000Y-108480000D01*
X178890000Y-124170000D02*
X179650000Y-123410000D01*
X165842500Y-109520000D02*
X164802500Y-108480000D01*
X165010000Y-124170000D02*
X178890000Y-124170000D01*
X164150000Y-114530000D02*
X164150000Y-123310000D01*
X158340000Y-107740000D02*
X158340000Y-105625000D01*
X165842500Y-114130000D02*
X164550000Y-114130000D01*
X159080000Y-108480000D02*
X158340000Y-107740000D01*
X164150000Y-123310000D02*
X165010000Y-124170000D01*
X179650000Y-123410000D02*
X179650000Y-119230000D01*
X164550000Y-114130000D02*
X164150000Y-114530000D01*
%TO.N,/OSC_IN*%
X162070000Y-114130000D02*
X160962500Y-114130000D01*
X160962500Y-109550000D02*
X159220000Y-109550000D01*
X164050000Y-124900000D02*
X162540000Y-123390000D01*
X162540000Y-123390000D02*
X162540000Y-114600000D01*
X181410000Y-124900000D02*
X164050000Y-124900000D01*
X157540000Y-107870000D02*
X157540000Y-105625000D01*
X182190000Y-119230000D02*
X182190000Y-124120000D01*
X159220000Y-109550000D02*
X157540000Y-107870000D01*
X182190000Y-124120000D02*
X181410000Y-124900000D01*
X162540000Y-114600000D02*
X162070000Y-114130000D01*
%TO.N,Net-(JP3-B)*%
X149490000Y-96770000D02*
X152310000Y-96770000D01*
X149480000Y-98230000D02*
X149480000Y-96780000D01*
X149480000Y-96780000D02*
X149490000Y-96770000D01*
D48*
%TO.N,Net-(JP5-A)*%
X145980000Y-117390000D02*
X145990000Y-117380000D01*
X141510000Y-117390000D02*
X145980000Y-117390000D01*
%TD*%
%TA.AperFunction,Conductor*%
%TO.N,GND*%
G36*
X179413392Y-76970185D02*
G01*
X179459147Y-77022989D01*
X179469091Y-77092147D01*
X179440066Y-77155703D01*
X179382348Y-77193161D01*
X179255466Y-77231649D01*
X179131476Y-77297923D01*
X179640000Y-77806447D01*
X179640001Y-77806447D01*
X180148522Y-77297923D01*
X180024537Y-77231651D01*
X179897652Y-77193161D01*
X179839213Y-77154863D01*
X179810757Y-77091051D01*
X179821317Y-77021984D01*
X179867541Y-76969590D01*
X179933647Y-76950500D01*
X180874108Y-76950500D01*
X180936754Y-76950500D01*
X180943243Y-76950670D01*
X181257498Y-76967139D01*
X181270406Y-76968495D01*
X181578015Y-77017217D01*
X181590680Y-77019908D01*
X181891528Y-77100520D01*
X181903855Y-77104525D01*
X182194623Y-77216141D01*
X182206459Y-77221410D01*
X182483977Y-77362812D01*
X182495183Y-77369282D01*
X182756396Y-77538917D01*
X182766887Y-77546539D01*
X182999846Y-77735186D01*
X183008923Y-77742536D01*
X183018568Y-77751221D01*
X183238778Y-77971431D01*
X183247463Y-77981076D01*
X183443460Y-78223112D01*
X183451085Y-78233606D01*
X183620713Y-78494810D01*
X183627190Y-78506029D01*
X183749209Y-78745504D01*
X183768584Y-78783530D01*
X183773862Y-78795385D01*
X183788766Y-78834211D01*
X183885471Y-79086135D01*
X183889482Y-79098480D01*
X183911352Y-79180099D01*
X183967415Y-79389334D01*
X183970087Y-79399304D01*
X183972785Y-79411999D01*
X184021503Y-79719592D01*
X184022860Y-79732500D01*
X184039330Y-80046756D01*
X184039500Y-80053246D01*
X184039500Y-122846753D01*
X184039330Y-122853243D01*
X184022860Y-123167499D01*
X184021503Y-123180407D01*
X183972785Y-123488000D01*
X183970087Y-123500695D01*
X183889482Y-123801519D01*
X183885471Y-123813864D01*
X183773863Y-124104612D01*
X183768584Y-124116469D01*
X183627194Y-124393964D01*
X183620708Y-124405197D01*
X183566475Y-124488709D01*
X183451089Y-124666387D01*
X183443460Y-124676887D01*
X183247463Y-124918923D01*
X183238778Y-124928568D01*
X183018568Y-125148778D01*
X183008923Y-125157463D01*
X182766887Y-125353460D01*
X182756387Y-125361089D01*
X182743882Y-125369210D01*
X182495197Y-125530708D01*
X182483964Y-125537194D01*
X182206469Y-125678584D01*
X182194612Y-125683863D01*
X181903864Y-125795471D01*
X181891519Y-125799482D01*
X181590695Y-125880087D01*
X181578000Y-125882785D01*
X181270407Y-125931503D01*
X181257499Y-125932860D01*
X180943244Y-125949330D01*
X180936754Y-125949500D01*
X155958434Y-125949500D01*
X155891395Y-125929815D01*
X155845640Y-125877011D01*
X155835696Y-125807853D01*
X155852895Y-125760404D01*
X155899815Y-125684336D01*
X155954999Y-125517800D01*
X155965500Y-125415012D01*
X155965500Y-119414988D01*
X155954999Y-119312200D01*
X155899815Y-119145664D01*
X155899811Y-119145658D01*
X155899810Y-119145655D01*
X155807714Y-118996346D01*
X155807711Y-118996342D01*
X155683657Y-118872288D01*
X155683653Y-118872285D01*
X155534344Y-118780189D01*
X155534338Y-118780186D01*
X155534336Y-118780185D01*
X155433909Y-118746907D01*
X155367801Y-118725001D01*
X155265019Y-118714500D01*
X155265012Y-118714500D01*
X153439500Y-118714500D01*
X153372461Y-118694815D01*
X153326706Y-118642011D01*
X153315500Y-118590500D01*
X153315500Y-117668957D01*
X153335185Y-117601918D01*
X153374407Y-117563416D01*
X153383656Y-117557712D01*
X153507712Y-117433656D01*
X153599461Y-117284905D01*
X153651409Y-117238181D01*
X153720371Y-117226958D01*
X153784454Y-117254801D01*
X153810539Y-117284906D01*
X153885099Y-117405789D01*
X153902288Y-117433656D01*
X154026344Y-117557712D01*
X154175666Y-117649814D01*
X154342203Y-117704999D01*
X154444991Y-117715500D01*
X155245008Y-117715499D01*
X155245016Y-117715498D01*
X155245019Y-117715498D01*
X155301302Y-117709748D01*
X155347797Y-117704999D01*
X155514334Y-117649814D01*
X155663656Y-117557712D01*
X155787712Y-117433656D01*
X155879814Y-117284334D01*
X155934999Y-117117797D01*
X155945500Y-117015009D01*
X155945499Y-115214992D01*
X155945389Y-115213919D01*
X155934999Y-115112203D01*
X155934998Y-115112200D01*
X155911859Y-115042371D01*
X155879814Y-114945666D01*
X155787712Y-114796344D01*
X155663656Y-114672288D01*
X155663655Y-114672287D01*
X155654402Y-114666580D01*
X155607678Y-114614632D01*
X155595881Y-114562718D01*
X158002500Y-114562718D01*
X158002500Y-114642282D01*
X158032948Y-114715791D01*
X158089209Y-114772052D01*
X158162718Y-114802500D01*
X158242282Y-114802500D01*
X158315791Y-114772052D01*
X158372052Y-114715791D01*
X158402500Y-114642282D01*
X158402500Y-114562718D01*
X158372052Y-114489209D01*
X158315791Y-114432948D01*
X158242282Y-114402500D01*
X158162718Y-114402500D01*
X158089209Y-114432948D01*
X158032948Y-114489209D01*
X158002500Y-114562718D01*
X155595881Y-114562718D01*
X155595500Y-114561042D01*
X155595500Y-114215013D01*
X156977500Y-114215013D01*
X156977500Y-114352500D01*
X157952500Y-114352500D01*
X158452500Y-114352500D01*
X159427499Y-114352500D01*
X159427499Y-114215028D01*
X159427498Y-114215013D01*
X159417005Y-114112302D01*
X159361858Y-113945880D01*
X159361856Y-113945875D01*
X159269815Y-113796654D01*
X159145845Y-113672684D01*
X158996624Y-113580643D01*
X158996619Y-113580641D01*
X158830197Y-113525494D01*
X158830190Y-113525493D01*
X158727486Y-113515000D01*
X158452500Y-113515000D01*
X158452500Y-114352500D01*
X157952500Y-114352500D01*
X157952500Y-113515000D01*
X157677529Y-113515000D01*
X157677512Y-113515001D01*
X157574802Y-113525494D01*
X157408380Y-113580641D01*
X157408375Y-113580643D01*
X157259154Y-113672684D01*
X157135184Y-113796654D01*
X157043143Y-113945875D01*
X157043141Y-113945880D01*
X156987994Y-114112302D01*
X156987993Y-114112309D01*
X156977500Y-114215013D01*
X155595500Y-114215013D01*
X155595500Y-114165389D01*
X155615185Y-114098350D01*
X155667989Y-114052595D01*
X155680488Y-114047686D01*
X155719334Y-114034814D01*
X155868656Y-113942712D01*
X155992712Y-113818656D01*
X156084814Y-113669334D01*
X156139999Y-113502797D01*
X156150500Y-113400009D01*
X156150499Y-112179095D01*
X156170184Y-112112057D01*
X156222987Y-112066302D01*
X156292146Y-112056358D01*
X156355702Y-112085383D01*
X156362180Y-112091415D01*
X156985139Y-112714374D01*
X156985149Y-112714385D01*
X156989479Y-112718715D01*
X156989480Y-112718716D01*
X157101284Y-112830520D01*
X157148016Y-112857500D01*
X157188095Y-112880639D01*
X157188097Y-112880641D01*
X157226151Y-112902611D01*
X157238215Y-112909577D01*
X157390943Y-112950500D01*
X160154307Y-112950500D01*
X160221346Y-112970185D01*
X160267101Y-113022989D01*
X160277045Y-113092147D01*
X160248020Y-113155703D01*
X160237845Y-113166137D01*
X160071520Y-113317761D01*
X159937443Y-113495308D01*
X159937438Y-113495316D01*
X159838275Y-113694461D01*
X159838269Y-113694476D01*
X159777385Y-113908462D01*
X159777384Y-113908464D01*
X159756857Y-114129999D01*
X159756857Y-114130000D01*
X159777384Y-114351535D01*
X159777385Y-114351537D01*
X159838269Y-114565523D01*
X159838275Y-114565538D01*
X159937438Y-114764683D01*
X159937443Y-114764691D01*
X160071520Y-114942238D01*
X160235937Y-115092123D01*
X160235939Y-115092125D01*
X160425095Y-115209245D01*
X160425096Y-115209245D01*
X160425099Y-115209247D01*
X160619024Y-115284374D01*
X160674424Y-115326946D01*
X160698015Y-115392713D01*
X160682304Y-115460793D01*
X160632280Y-115509572D01*
X160619033Y-115515622D01*
X160503831Y-115560252D01*
X160425101Y-115590752D01*
X160425095Y-115590754D01*
X160235939Y-115707874D01*
X160235937Y-115707876D01*
X160071520Y-115857761D01*
X159943169Y-116027727D01*
X159887060Y-116069363D01*
X159844215Y-116077000D01*
X159466268Y-116077000D01*
X159399229Y-116057315D01*
X159360729Y-116018097D01*
X159270212Y-115871344D01*
X159146156Y-115747288D01*
X159142842Y-115745243D01*
X159141046Y-115743248D01*
X159140489Y-115742807D01*
X159140564Y-115742711D01*
X159096118Y-115693297D01*
X159084897Y-115624334D01*
X159112740Y-115560252D01*
X159142848Y-115534165D01*
X159145842Y-115532318D01*
X159269815Y-115408345D01*
X159361856Y-115259124D01*
X159361858Y-115259119D01*
X159417005Y-115092697D01*
X159417006Y-115092690D01*
X159427499Y-114989986D01*
X159427500Y-114989973D01*
X159427500Y-114852500D01*
X156977501Y-114852500D01*
X156977501Y-114989986D01*
X156987994Y-115092697D01*
X157043141Y-115259119D01*
X157043143Y-115259124D01*
X157135184Y-115408345D01*
X157259155Y-115532316D01*
X157259159Y-115532319D01*
X157262156Y-115534168D01*
X157263779Y-115535972D01*
X157264823Y-115536798D01*
X157264681Y-115536976D01*
X157308881Y-115586116D01*
X157320102Y-115655079D01*
X157292259Y-115719161D01*
X157262161Y-115745241D01*
X157258849Y-115747283D01*
X157258843Y-115747288D01*
X157134789Y-115871342D01*
X157042687Y-116020663D01*
X157042685Y-116020668D01*
X157026338Y-116070000D01*
X156987501Y-116187203D01*
X156987501Y-116187204D01*
X156987500Y-116187204D01*
X156977000Y-116289983D01*
X156977000Y-117065001D01*
X156977001Y-117065019D01*
X156987500Y-117167796D01*
X156987501Y-117167799D01*
X157042685Y-117334331D01*
X157042687Y-117334336D01*
X157064376Y-117369500D01*
X157134788Y-117483656D01*
X157258844Y-117607712D01*
X157408166Y-117699814D01*
X157574703Y-117754999D01*
X157677491Y-117765500D01*
X158727508Y-117765499D01*
X158727516Y-117765498D01*
X158727519Y-117765498D01*
X158825392Y-117755500D01*
X158830297Y-117754999D01*
X158996834Y-117699814D01*
X159146156Y-117607712D01*
X159270212Y-117483656D01*
X159360729Y-117336902D01*
X159412677Y-117290179D01*
X159466268Y-117278000D01*
X159855543Y-117278000D01*
X159922582Y-117297685D01*
X159954497Y-117327274D01*
X160071517Y-117482234D01*
X160071519Y-117482237D01*
X160235937Y-117632123D01*
X160235939Y-117632125D01*
X160425095Y-117749245D01*
X160425096Y-117749245D01*
X160425099Y-117749247D01*
X160632560Y-117829618D01*
X160851257Y-117870500D01*
X160851259Y-117870500D01*
X161073741Y-117870500D01*
X161073743Y-117870500D01*
X161292440Y-117829618D01*
X161499901Y-117749247D01*
X161689062Y-117632124D01*
X161731961Y-117593015D01*
X161794765Y-117562398D01*
X161864152Y-117570595D01*
X161918092Y-117615004D01*
X161939461Y-117681526D01*
X161939500Y-117684652D01*
X161939500Y-120221072D01*
X161919815Y-120288111D01*
X161867011Y-120333866D01*
X161797853Y-120343810D01*
X161744377Y-120322647D01*
X161587639Y-120212898D01*
X161389330Y-120120425D01*
X161389326Y-120120424D01*
X161389322Y-120120422D01*
X161177977Y-120063793D01*
X160960002Y-120044723D01*
X160959998Y-120044723D01*
X160814682Y-120057436D01*
X160742023Y-120063793D01*
X160742020Y-120063793D01*
X160530677Y-120120422D01*
X160530668Y-120120426D01*
X160332361Y-120212898D01*
X160332357Y-120212900D01*
X160153121Y-120338402D01*
X159998402Y-120493121D01*
X159872900Y-120672357D01*
X159872898Y-120672361D01*
X159780426Y-120870668D01*
X159780422Y-120870677D01*
X159723793Y-121082020D01*
X159723793Y-121082024D01*
X159704723Y-121299997D01*
X159704723Y-121300002D01*
X159723793Y-121517975D01*
X159723793Y-121517979D01*
X159780422Y-121729322D01*
X159780424Y-121729326D01*
X159780425Y-121729330D01*
X159810864Y-121794606D01*
X159872897Y-121927638D01*
X159872898Y-121927639D01*
X159998402Y-122106877D01*
X160153123Y-122261598D01*
X160332361Y-122387102D01*
X160530670Y-122479575D01*
X160742023Y-122536207D01*
X160924926Y-122552208D01*
X160959998Y-122555277D01*
X160960000Y-122555277D01*
X160960002Y-122555277D01*
X160988254Y-122552805D01*
X161177977Y-122536207D01*
X161389330Y-122479575D01*
X161587639Y-122387102D01*
X161744379Y-122277350D01*
X161810582Y-122255025D01*
X161878349Y-122272035D01*
X161926163Y-122322983D01*
X161939500Y-122378927D01*
X161939500Y-123303330D01*
X161939499Y-123303348D01*
X161939499Y-123469054D01*
X161939498Y-123469054D01*
X161956681Y-123533181D01*
X161980423Y-123621785D01*
X161991970Y-123641784D01*
X162031066Y-123709501D01*
X162059479Y-123758714D01*
X162059481Y-123758717D01*
X162178349Y-123877585D01*
X162178355Y-123877590D01*
X163565139Y-125264374D01*
X163565149Y-125264385D01*
X163569479Y-125268715D01*
X163569480Y-125268716D01*
X163681284Y-125380520D01*
X163681286Y-125380521D01*
X163681290Y-125380524D01*
X163818209Y-125459573D01*
X163818216Y-125459577D01*
X163930019Y-125489534D01*
X163970942Y-125500500D01*
X163970943Y-125500500D01*
X181323331Y-125500500D01*
X181323347Y-125500501D01*
X181330943Y-125500501D01*
X181489054Y-125500501D01*
X181489057Y-125500501D01*
X181641785Y-125459577D01*
X181691904Y-125430639D01*
X181778716Y-125380520D01*
X181890520Y-125268716D01*
X181890520Y-125268714D01*
X181900728Y-125258507D01*
X181900729Y-125258504D01*
X182670520Y-124488716D01*
X182749577Y-124351784D01*
X182790501Y-124199057D01*
X182790501Y-124040942D01*
X182790501Y-124033347D01*
X182790500Y-124033329D01*
X182790500Y-120519090D01*
X182810185Y-120452051D01*
X182862101Y-120406706D01*
X182867830Y-120404035D01*
X183061401Y-120268495D01*
X183228495Y-120101401D01*
X183364035Y-119907830D01*
X183463903Y-119693663D01*
X183525063Y-119465408D01*
X183545659Y-119230000D01*
X183525063Y-118994592D01*
X183463903Y-118766337D01*
X183364035Y-118552171D01*
X183318785Y-118487546D01*
X183228494Y-118358597D01*
X183061402Y-118191506D01*
X183061396Y-118191501D01*
X182875842Y-118061575D01*
X182832217Y-118006998D01*
X182825023Y-117937500D01*
X182856546Y-117875145D01*
X182875842Y-117858425D01*
X182898026Y-117842891D01*
X183061401Y-117728495D01*
X183228495Y-117561401D01*
X183364035Y-117367830D01*
X183463903Y-117153663D01*
X183525063Y-116925408D01*
X183545659Y-116690000D01*
X183525063Y-116454592D01*
X183463903Y-116226337D01*
X183364035Y-116012171D01*
X183362982Y-116010666D01*
X183228494Y-115818597D01*
X183061402Y-115651506D01*
X183061396Y-115651501D01*
X182875842Y-115521575D01*
X182832217Y-115466998D01*
X182825023Y-115397500D01*
X182856546Y-115335145D01*
X182875842Y-115318425D01*
X182915826Y-115290428D01*
X183061401Y-115188495D01*
X183228495Y-115021401D01*
X183364035Y-114827830D01*
X183463903Y-114613663D01*
X183525063Y-114385408D01*
X183545659Y-114150000D01*
X183525063Y-113914592D01*
X183463903Y-113686337D01*
X183364035Y-113472171D01*
X183313514Y-113400018D01*
X183228494Y-113278597D01*
X183061402Y-113111506D01*
X183061396Y-113111501D01*
X182875842Y-112981575D01*
X182832217Y-112926998D01*
X182825023Y-112857500D01*
X182856546Y-112795145D01*
X182875842Y-112778425D01*
X182967316Y-112714374D01*
X183061401Y-112648495D01*
X183228495Y-112481401D01*
X183364035Y-112287830D01*
X183463903Y-112073663D01*
X183525063Y-111845408D01*
X183545659Y-111610000D01*
X183525063Y-111374592D01*
X183463903Y-111146337D01*
X183364035Y-110932171D01*
X183292963Y-110830668D01*
X183228494Y-110738597D01*
X183061402Y-110571506D01*
X183061396Y-110571501D01*
X182875842Y-110441575D01*
X182832217Y-110386998D01*
X182825023Y-110317500D01*
X182856546Y-110255145D01*
X182875842Y-110238425D01*
X182934410Y-110197415D01*
X183061401Y-110108495D01*
X183228495Y-109941401D01*
X183364035Y-109747830D01*
X183463903Y-109533663D01*
X183525063Y-109305408D01*
X183545659Y-109070000D01*
X183525063Y-108834592D01*
X183463903Y-108606337D01*
X183364035Y-108392171D01*
X183353672Y-108377370D01*
X183228494Y-108198597D01*
X183061402Y-108031506D01*
X183061396Y-108031501D01*
X182875842Y-107901575D01*
X182832217Y-107846998D01*
X182825023Y-107777500D01*
X182856546Y-107715145D01*
X182875842Y-107698425D01*
X182927214Y-107662454D01*
X183061401Y-107568495D01*
X183228495Y-107401401D01*
X183364035Y-107207830D01*
X183463903Y-106993663D01*
X183525063Y-106765408D01*
X183545659Y-106530000D01*
X183525063Y-106294592D01*
X183463903Y-106066337D01*
X183364035Y-105852171D01*
X183310396Y-105775565D01*
X183228494Y-105658597D01*
X183061402Y-105491506D01*
X183061396Y-105491501D01*
X182875842Y-105361575D01*
X182832217Y-105306998D01*
X182825023Y-105237500D01*
X182856546Y-105175145D01*
X182875842Y-105158425D01*
X182925006Y-105124000D01*
X183061401Y-105028495D01*
X183228495Y-104861401D01*
X183364035Y-104667830D01*
X183463903Y-104453663D01*
X183525063Y-104225408D01*
X183545659Y-103990000D01*
X183525063Y-103754592D01*
X183463903Y-103526337D01*
X183364035Y-103312171D01*
X183328800Y-103261849D01*
X183228494Y-103118597D01*
X183061402Y-102951506D01*
X183061396Y-102951501D01*
X182875842Y-102821575D01*
X182832217Y-102766998D01*
X182825023Y-102697500D01*
X182856546Y-102635145D01*
X182875842Y-102618425D01*
X182968467Y-102553568D01*
X183061401Y-102488495D01*
X183228495Y-102321401D01*
X183364035Y-102127830D01*
X183463903Y-101913663D01*
X183525063Y-101685408D01*
X183545659Y-101450000D01*
X183525063Y-101214592D01*
X183463903Y-100986337D01*
X183364035Y-100772171D01*
X183308480Y-100692829D01*
X183228494Y-100578597D01*
X183061402Y-100411506D01*
X183061396Y-100411501D01*
X182875842Y-100281575D01*
X182832217Y-100226998D01*
X182825023Y-100157500D01*
X182856546Y-100095145D01*
X182875842Y-100078425D01*
X183005213Y-99987838D01*
X183061401Y-99948495D01*
X183228495Y-99781401D01*
X183364035Y-99587830D01*
X183463903Y-99373663D01*
X183525063Y-99145408D01*
X183545659Y-98910000D01*
X183525063Y-98674592D01*
X183463903Y-98446337D01*
X183364035Y-98232171D01*
X183320140Y-98169481D01*
X183228494Y-98038597D01*
X183061402Y-97871506D01*
X183061396Y-97871501D01*
X182875842Y-97741575D01*
X182832217Y-97686998D01*
X182825023Y-97617500D01*
X182856546Y-97555145D01*
X182875842Y-97538425D01*
X183000459Y-97451167D01*
X183061401Y-97408495D01*
X183228495Y-97241401D01*
X183364035Y-97047830D01*
X183463903Y-96833663D01*
X183525063Y-96605408D01*
X183545659Y-96370000D01*
X183525063Y-96134592D01*
X183463903Y-95906337D01*
X183364035Y-95692171D01*
X183333985Y-95649254D01*
X183228494Y-95498597D01*
X183061402Y-95331506D01*
X183061396Y-95331501D01*
X182875842Y-95201575D01*
X182832217Y-95146998D01*
X182825023Y-95077500D01*
X182856546Y-95015145D01*
X182875842Y-94998425D01*
X182919669Y-94967737D01*
X183061401Y-94868495D01*
X183228495Y-94701401D01*
X183364035Y-94507830D01*
X183463903Y-94293663D01*
X183525063Y-94065408D01*
X183545659Y-93830000D01*
X183525063Y-93594592D01*
X183463903Y-93366337D01*
X183364035Y-93152171D01*
X183292497Y-93050003D01*
X183228494Y-92958597D01*
X183061402Y-92791506D01*
X183061396Y-92791501D01*
X182875842Y-92661575D01*
X182832217Y-92606998D01*
X182825023Y-92537500D01*
X182856546Y-92475145D01*
X182875842Y-92458425D01*
X182975481Y-92388657D01*
X183061401Y-92328495D01*
X183228495Y-92161401D01*
X183364035Y-91967830D01*
X183463903Y-91753663D01*
X183525063Y-91525408D01*
X183545659Y-91290000D01*
X183525063Y-91054592D01*
X183463903Y-90826337D01*
X183364035Y-90612171D01*
X183327691Y-90560265D01*
X183228494Y-90418597D01*
X183061402Y-90251506D01*
X183061396Y-90251501D01*
X182875842Y-90121575D01*
X182832217Y-90066998D01*
X182825023Y-89997500D01*
X182856546Y-89935145D01*
X182875842Y-89918425D01*
X182914606Y-89891282D01*
X183061401Y-89788495D01*
X183228495Y-89621401D01*
X183364035Y-89427830D01*
X183463903Y-89213663D01*
X183525063Y-88985408D01*
X183545659Y-88750000D01*
X183525063Y-88514592D01*
X183463903Y-88286337D01*
X183364035Y-88072171D01*
X183364034Y-88072169D01*
X183228494Y-87878597D01*
X183061402Y-87711506D01*
X183061401Y-87711505D01*
X182875405Y-87581269D01*
X182831781Y-87526692D01*
X182824588Y-87457193D01*
X182856110Y-87394839D01*
X182875405Y-87378119D01*
X183061082Y-87248105D01*
X183228105Y-87081082D01*
X183363600Y-86887578D01*
X183463429Y-86673492D01*
X183463432Y-86673486D01*
X183520636Y-86460000D01*
X182623012Y-86460000D01*
X182655925Y-86402993D01*
X182690000Y-86275826D01*
X182690000Y-86144174D01*
X182655925Y-86017007D01*
X182623012Y-85960000D01*
X183520636Y-85960000D01*
X183520635Y-85959999D01*
X183463432Y-85746513D01*
X183463429Y-85746507D01*
X183363600Y-85532422D01*
X183363599Y-85532420D01*
X183228113Y-85338926D01*
X183228108Y-85338920D01*
X183106053Y-85216865D01*
X183072568Y-85155542D01*
X183077552Y-85085850D01*
X183119424Y-85029917D01*
X183150400Y-85013002D01*
X183282331Y-84963796D01*
X183397546Y-84877546D01*
X183483796Y-84762331D01*
X183534091Y-84627483D01*
X183540500Y-84567873D01*
X183540499Y-82772128D01*
X183534091Y-82712517D01*
X183532810Y-82709083D01*
X183483797Y-82577671D01*
X183483793Y-82577664D01*
X183397547Y-82462455D01*
X183397544Y-82462452D01*
X183282335Y-82376206D01*
X183282328Y-82376202D01*
X183147482Y-82325908D01*
X183147483Y-82325908D01*
X183087883Y-82319501D01*
X183087881Y-82319500D01*
X183087873Y-82319500D01*
X183087864Y-82319500D01*
X181292129Y-82319500D01*
X181292123Y-82319501D01*
X181232516Y-82325908D01*
X181097671Y-82376202D01*
X181097664Y-82376206D01*
X180982455Y-82462452D01*
X180982452Y-82462455D01*
X180896206Y-82577664D01*
X180896203Y-82577669D01*
X180847189Y-82709083D01*
X180805317Y-82765016D01*
X180739853Y-82789433D01*
X180671580Y-82774581D01*
X180643326Y-82753430D01*
X180521402Y-82631506D01*
X180521395Y-82631501D01*
X180327831Y-82495965D01*
X180327826Y-82495962D01*
X180322091Y-82493288D01*
X180269653Y-82447113D01*
X180250500Y-82380908D01*
X180250500Y-81330119D01*
X180270185Y-81263080D01*
X180295833Y-81234267D01*
X180360883Y-81180883D01*
X180369802Y-81170016D01*
X180485909Y-81028539D01*
X180485913Y-81028532D01*
X180506053Y-80990854D01*
X180578814Y-80854727D01*
X180636024Y-80666132D01*
X180655341Y-80470000D01*
X180636024Y-80273868D01*
X180578814Y-80085273D01*
X180578811Y-80085269D01*
X180578811Y-80085266D01*
X180485913Y-79911467D01*
X180485909Y-79911460D01*
X180360883Y-79759116D01*
X180208539Y-79634090D01*
X180208532Y-79634086D01*
X180034733Y-79541188D01*
X180034727Y-79541186D01*
X179908997Y-79503046D01*
X179846129Y-79483975D01*
X179650000Y-79464659D01*
X179453870Y-79483975D01*
X179265266Y-79541188D01*
X179091467Y-79634086D01*
X179091460Y-79634090D01*
X178939116Y-79759116D01*
X178814090Y-79911460D01*
X178814086Y-79911467D01*
X178721188Y-80085266D01*
X178663975Y-80273870D01*
X178644659Y-80470000D01*
X178663975Y-80666129D01*
X178721188Y-80854733D01*
X178814086Y-81028532D01*
X178814090Y-81028539D01*
X178939115Y-81180882D01*
X178970194Y-81206387D01*
X179004165Y-81234266D01*
X179043499Y-81292010D01*
X179049500Y-81330119D01*
X179049500Y-82380908D01*
X179029815Y-82447947D01*
X178977914Y-82493286D01*
X178972173Y-82495963D01*
X178972169Y-82495965D01*
X178778597Y-82631505D01*
X178611505Y-82798597D01*
X178475965Y-82992169D01*
X178475964Y-82992171D01*
X178376098Y-83206335D01*
X178376094Y-83206344D01*
X178314938Y-83434586D01*
X178314936Y-83434596D01*
X178294341Y-83669999D01*
X178294341Y-83670000D01*
X178314936Y-83905403D01*
X178314938Y-83905413D01*
X178376094Y-84133655D01*
X178376096Y-84133659D01*
X178376097Y-84133663D01*
X178446299Y-84284211D01*
X178475965Y-84347830D01*
X178475967Y-84347834D01*
X178555808Y-84461858D01*
X178611505Y-84541401D01*
X178778599Y-84708495D01*
X178958738Y-84834630D01*
X178964594Y-84838730D01*
X179008219Y-84893307D01*
X179015413Y-84962805D01*
X178983890Y-85025160D01*
X178964595Y-85041880D01*
X178778922Y-85171890D01*
X178778920Y-85171891D01*
X178611891Y-85338920D01*
X178611886Y-85338926D01*
X178476400Y-85532420D01*
X178476399Y-85532422D01*
X178376570Y-85746507D01*
X178376567Y-85746513D01*
X178319364Y-85959999D01*
X178319364Y-85960000D01*
X179216988Y-85960000D01*
X179184075Y-86017007D01*
X179150000Y-86144174D01*
X179150000Y-86275826D01*
X179184075Y-86402993D01*
X179216988Y-86460000D01*
X178319364Y-86460000D01*
X178376567Y-86673486D01*
X178376570Y-86673492D01*
X178476399Y-86887578D01*
X178611894Y-87081082D01*
X178778917Y-87248105D01*
X178964595Y-87378119D01*
X179008219Y-87432696D01*
X179015412Y-87502195D01*
X178983890Y-87564549D01*
X178964595Y-87581269D01*
X178778594Y-87711508D01*
X178611506Y-87878596D01*
X178475965Y-88072170D01*
X178475962Y-88072175D01*
X178473289Y-88077909D01*
X178427115Y-88130346D01*
X178360909Y-88149500D01*
X173828730Y-88149500D01*
X173761691Y-88129815D01*
X173715936Y-88077011D01*
X173705992Y-88007853D01*
X173735017Y-87944297D01*
X173741049Y-87937819D01*
X173788868Y-87890000D01*
X173842712Y-87836156D01*
X173925519Y-87701902D01*
X173977467Y-87655179D01*
X174031058Y-87643000D01*
X176749560Y-87643000D01*
X176816599Y-87662685D01*
X176837241Y-87679319D01*
X176837738Y-87679816D01*
X176990478Y-87775789D01*
X177132487Y-87825480D01*
X177160745Y-87835368D01*
X177160750Y-87835369D01*
X177339996Y-87855565D01*
X177340000Y-87855565D01*
X177340004Y-87855565D01*
X177519249Y-87835369D01*
X177519252Y-87835368D01*
X177519255Y-87835368D01*
X177689522Y-87775789D01*
X177842262Y-87679816D01*
X177969816Y-87552262D01*
X178065789Y-87399522D01*
X178125368Y-87229255D01*
X178136275Y-87132452D01*
X178145565Y-87050003D01*
X178145565Y-87049996D01*
X178125369Y-86870750D01*
X178125368Y-86870745D01*
X178065788Y-86700476D01*
X177969815Y-86547737D01*
X177842262Y-86420184D01*
X177689523Y-86324211D01*
X177519254Y-86264631D01*
X177519249Y-86264630D01*
X177340004Y-86244435D01*
X177339996Y-86244435D01*
X177160750Y-86264630D01*
X177160745Y-86264631D01*
X176990476Y-86324211D01*
X176833266Y-86422994D01*
X176767294Y-86442000D01*
X175559440Y-86442000D01*
X175492401Y-86422315D01*
X175446646Y-86369511D01*
X175436702Y-86300353D01*
X175465727Y-86236797D01*
X175471759Y-86230319D01*
X175497643Y-86204435D01*
X175579816Y-86122262D01*
X175675789Y-85969522D01*
X175735368Y-85799255D01*
X175736844Y-85786155D01*
X175755565Y-85620003D01*
X175755565Y-85619996D01*
X175735369Y-85440750D01*
X175735368Y-85440745D01*
X175700122Y-85340019D01*
X175675789Y-85270478D01*
X175675174Y-85269500D01*
X175624753Y-85189255D01*
X175579816Y-85117738D01*
X175452262Y-84990184D01*
X175410269Y-84963798D01*
X175299521Y-84894210D01*
X175129249Y-84834630D01*
X175042330Y-84824837D01*
X174977916Y-84797770D01*
X174968533Y-84789298D01*
X174810090Y-84630855D01*
X174810088Y-84630852D01*
X174691217Y-84511981D01*
X174691216Y-84511980D01*
X174604404Y-84461860D01*
X174604404Y-84461859D01*
X174604400Y-84461858D01*
X174554285Y-84432923D01*
X174401557Y-84391999D01*
X174243443Y-84391999D01*
X174235847Y-84391999D01*
X174235831Y-84392000D01*
X174031058Y-84392000D01*
X173964019Y-84372315D01*
X173925519Y-84333097D01*
X173914149Y-84314663D01*
X173842712Y-84198844D01*
X173718656Y-84074788D01*
X173596719Y-83999577D01*
X173569336Y-83982687D01*
X173569331Y-83982685D01*
X173499360Y-83959499D01*
X173402797Y-83927501D01*
X173402795Y-83927500D01*
X173300010Y-83917000D01*
X172299998Y-83917000D01*
X172299980Y-83917001D01*
X172237132Y-83923422D01*
X172168439Y-83910652D01*
X172117555Y-83862771D01*
X172100635Y-83794981D01*
X172123051Y-83728805D01*
X172136844Y-83712389D01*
X173168506Y-82680728D01*
X173168511Y-82680724D01*
X173178714Y-82670520D01*
X173178716Y-82670520D01*
X173290520Y-82558716D01*
X173351215Y-82453588D01*
X173369577Y-82421785D01*
X173410501Y-82269057D01*
X173410501Y-82110943D01*
X173410501Y-82103348D01*
X173410500Y-82103330D01*
X173410500Y-81953614D01*
X173430185Y-81886575D01*
X173482989Y-81840820D01*
X173495481Y-81835913D01*
X173589334Y-81804814D01*
X173738656Y-81712712D01*
X173862712Y-81588656D01*
X173954814Y-81439334D01*
X174009999Y-81272797D01*
X174020500Y-81170009D01*
X174020499Y-80595344D01*
X174410000Y-80595344D01*
X174416401Y-80654872D01*
X174416403Y-80654879D01*
X174466645Y-80789586D01*
X174466649Y-80789593D01*
X174552809Y-80904687D01*
X174552812Y-80904690D01*
X174667906Y-80990850D01*
X174667913Y-80990854D01*
X174802620Y-81041096D01*
X174802627Y-81041098D01*
X174862155Y-81047499D01*
X174862172Y-81047500D01*
X175410000Y-81047500D01*
X175910000Y-81047500D01*
X176457828Y-81047500D01*
X176457844Y-81047499D01*
X176517372Y-81041098D01*
X176517379Y-81041096D01*
X176652086Y-80990854D01*
X176652093Y-80990850D01*
X176767187Y-80904690D01*
X176767190Y-80904687D01*
X176853350Y-80789593D01*
X176853354Y-80789586D01*
X176903596Y-80654879D01*
X176903598Y-80654872D01*
X176909999Y-80595344D01*
X176910000Y-80595327D01*
X176910000Y-80297500D01*
X175910000Y-80297500D01*
X175910000Y-81047500D01*
X175410000Y-81047500D01*
X175410000Y-80297500D01*
X174410000Y-80297500D01*
X174410000Y-80595344D01*
X174020499Y-80595344D01*
X174020499Y-80419992D01*
X174019209Y-80407368D01*
X174009999Y-80317203D01*
X174009998Y-80317200D01*
X173995639Y-80273868D01*
X173954814Y-80150666D01*
X173862712Y-80001344D01*
X173738656Y-79877288D01*
X173735819Y-79875538D01*
X173734283Y-79873830D01*
X173732989Y-79872807D01*
X173733163Y-79872585D01*
X173689096Y-79823594D01*
X173677872Y-79754632D01*
X173705713Y-79690549D01*
X173735817Y-79664462D01*
X173738656Y-79662712D01*
X173862712Y-79538656D01*
X173945519Y-79404402D01*
X173997467Y-79357679D01*
X174051058Y-79345500D01*
X174288529Y-79345500D01*
X174355568Y-79365185D01*
X174401323Y-79417989D01*
X174411818Y-79482756D01*
X174410000Y-79499655D01*
X174410000Y-79797500D01*
X176910000Y-79797500D01*
X176910000Y-79499672D01*
X176909999Y-79499655D01*
X176903598Y-79440127D01*
X176901814Y-79432576D01*
X176903459Y-79432187D01*
X176899143Y-79371861D01*
X176904058Y-79355119D01*
X176904091Y-79354981D01*
X176904304Y-79353000D01*
X176910500Y-79295373D01*
X176910500Y-79022075D01*
X179131476Y-79022075D01*
X179255462Y-79088348D01*
X179443969Y-79145531D01*
X179443965Y-79145531D01*
X179640000Y-79164838D01*
X179836032Y-79145531D01*
X180024537Y-79088348D01*
X180148523Y-79022076D01*
X180148523Y-79022075D01*
X179640001Y-78513553D01*
X179640000Y-78513553D01*
X179131476Y-79022075D01*
X176910500Y-79022075D01*
X176910499Y-78199628D01*
X176906239Y-78160000D01*
X178635161Y-78160000D01*
X178654468Y-78356032D01*
X178711651Y-78544537D01*
X178777923Y-78668522D01*
X179286447Y-78160000D01*
X179286447Y-78159999D01*
X179993553Y-78159999D01*
X179993553Y-78160000D01*
X180502076Y-78668523D01*
X180568348Y-78544537D01*
X180625531Y-78356032D01*
X180644838Y-78160000D01*
X180625531Y-77963967D01*
X180568348Y-77775462D01*
X180502075Y-77651476D01*
X179993553Y-78159999D01*
X179286447Y-78159999D01*
X178777923Y-77651476D01*
X178711649Y-77775466D01*
X178654468Y-77963967D01*
X178635161Y-78160000D01*
X176906239Y-78160000D01*
X176904091Y-78140017D01*
X176903420Y-78138219D01*
X176853797Y-78005171D01*
X176853793Y-78005164D01*
X176767547Y-77889955D01*
X176767544Y-77889952D01*
X176652335Y-77803706D01*
X176652328Y-77803702D01*
X176517482Y-77753408D01*
X176517483Y-77753408D01*
X176457883Y-77747001D01*
X176457881Y-77747000D01*
X176457873Y-77747000D01*
X176457864Y-77747000D01*
X174862129Y-77747000D01*
X174862123Y-77747001D01*
X174802516Y-77753408D01*
X174667671Y-77803702D01*
X174667664Y-77803706D01*
X174552455Y-77889952D01*
X174552452Y-77889955D01*
X174466206Y-78005164D01*
X174466203Y-78005169D01*
X174444323Y-78063834D01*
X174402451Y-78119767D01*
X174336987Y-78144184D01*
X174328141Y-78144500D01*
X174051058Y-78144500D01*
X173984019Y-78124815D01*
X173945519Y-78085597D01*
X173936722Y-78071334D01*
X173862712Y-77951344D01*
X173738656Y-77827288D01*
X173620647Y-77754500D01*
X173589336Y-77735187D01*
X173589331Y-77735185D01*
X173574236Y-77730183D01*
X173422797Y-77680001D01*
X173422795Y-77680000D01*
X173320010Y-77669500D01*
X172319998Y-77669500D01*
X172319980Y-77669501D01*
X172217203Y-77680000D01*
X172217200Y-77680001D01*
X172050668Y-77735185D01*
X172050663Y-77735187D01*
X171901342Y-77827289D01*
X171777289Y-77951342D01*
X171685187Y-78100663D01*
X171685185Y-78100668D01*
X171665525Y-78159999D01*
X171630001Y-78267203D01*
X171630001Y-78267204D01*
X171630000Y-78267204D01*
X171619500Y-78369983D01*
X171619500Y-79120001D01*
X171619501Y-79120019D01*
X171630000Y-79222796D01*
X171630001Y-79222799D01*
X171685185Y-79389331D01*
X171685187Y-79389336D01*
X171699166Y-79411999D01*
X171742888Y-79482885D01*
X171777289Y-79538657D01*
X171901346Y-79662714D01*
X171904182Y-79664463D01*
X171905717Y-79666170D01*
X171907011Y-79667193D01*
X171906836Y-79667414D01*
X171950905Y-79716411D01*
X171962126Y-79785374D01*
X171934282Y-79849456D01*
X171904182Y-79875537D01*
X171901346Y-79877285D01*
X171777289Y-80001342D01*
X171685187Y-80150663D01*
X171685185Y-80150668D01*
X171682700Y-80158168D01*
X171630001Y-80317203D01*
X171630001Y-80317204D01*
X171630000Y-80317204D01*
X171619500Y-80419983D01*
X171619500Y-81170001D01*
X171619501Y-81170019D01*
X171630000Y-81272796D01*
X171630001Y-81272799D01*
X171676765Y-81413921D01*
X171685186Y-81439334D01*
X171777288Y-81588656D01*
X171901344Y-81712712D01*
X172050666Y-81804814D01*
X172081628Y-81815073D01*
X172139072Y-81854846D01*
X172165895Y-81919361D01*
X172153580Y-81988137D01*
X172130304Y-82020460D01*
X171445881Y-82704882D01*
X171384558Y-82738367D01*
X171314866Y-82733383D01*
X171292226Y-82722193D01*
X171279525Y-82714212D01*
X171109254Y-82654631D01*
X171109249Y-82654630D01*
X170930004Y-82634435D01*
X170929996Y-82634435D01*
X170750750Y-82654630D01*
X170750745Y-82654631D01*
X170580476Y-82714211D01*
X170427737Y-82810184D01*
X170300184Y-82937737D01*
X170204211Y-83090476D01*
X170144631Y-83260745D01*
X170144630Y-83260750D01*
X170124435Y-83439996D01*
X170124435Y-83440003D01*
X170144630Y-83619249D01*
X170144631Y-83619254D01*
X170204211Y-83789523D01*
X170288346Y-83923422D01*
X170300184Y-83942262D01*
X170427738Y-84069816D01*
X170507314Y-84119817D01*
X170562909Y-84154750D01*
X170580478Y-84165789D01*
X170692005Y-84204814D01*
X170750745Y-84225368D01*
X170750750Y-84225369D01*
X170929996Y-84245565D01*
X170930000Y-84245565D01*
X170930004Y-84245565D01*
X171109249Y-84225369D01*
X171109252Y-84225368D01*
X171109255Y-84225368D01*
X171279522Y-84165789D01*
X171432262Y-84069816D01*
X171432266Y-84069811D01*
X171435097Y-84067555D01*
X171437275Y-84066665D01*
X171438158Y-84066111D01*
X171438255Y-84066265D01*
X171499784Y-84041146D01*
X171512411Y-84040501D01*
X171632780Y-84040501D01*
X171699819Y-84060186D01*
X171745574Y-84112990D01*
X171755518Y-84182148D01*
X171738319Y-84229597D01*
X171665189Y-84348159D01*
X171665186Y-84348166D01*
X171610001Y-84514703D01*
X171610001Y-84514704D01*
X171610000Y-84514704D01*
X171599500Y-84617483D01*
X171599500Y-85367501D01*
X171599501Y-85367519D01*
X171610000Y-85470296D01*
X171610001Y-85470299D01*
X171665185Y-85636831D01*
X171665187Y-85636836D01*
X171667025Y-85639816D01*
X171757287Y-85786155D01*
X171757289Y-85786157D01*
X171881346Y-85910214D01*
X171884182Y-85911963D01*
X171885717Y-85913670D01*
X171887011Y-85914693D01*
X171886836Y-85914914D01*
X171930905Y-85963911D01*
X171942126Y-86032874D01*
X171914282Y-86096956D01*
X171884182Y-86123037D01*
X171881346Y-86124785D01*
X171757287Y-86248844D01*
X171710070Y-86325395D01*
X171658122Y-86372119D01*
X171589159Y-86383340D01*
X171538560Y-86365291D01*
X171409523Y-86284211D01*
X171239254Y-86224631D01*
X171239249Y-86224630D01*
X171060004Y-86204435D01*
X171059996Y-86204435D01*
X170880750Y-86224630D01*
X170880745Y-86224631D01*
X170710476Y-86284211D01*
X170557737Y-86380184D01*
X170430184Y-86507737D01*
X170334211Y-86660476D01*
X170274631Y-86830745D01*
X170274631Y-86830747D01*
X170273623Y-86839694D01*
X170246554Y-86904107D01*
X170188958Y-86943660D01*
X170119120Y-86945795D01*
X170062722Y-86913487D01*
X169802590Y-86653355D01*
X169802588Y-86653352D01*
X169683717Y-86534481D01*
X169683716Y-86534480D01*
X169594416Y-86482923D01*
X169594415Y-86482922D01*
X169546790Y-86455425D01*
X169546789Y-86455424D01*
X169496690Y-86442000D01*
X169394057Y-86414499D01*
X169235943Y-86414499D01*
X169228347Y-86414499D01*
X169228331Y-86414500D01*
X168041058Y-86414500D01*
X167974019Y-86394815D01*
X167935519Y-86355597D01*
X167852712Y-86221344D01*
X167728656Y-86097288D01*
X167725819Y-86095538D01*
X167724283Y-86093830D01*
X167722989Y-86092807D01*
X167723163Y-86092585D01*
X167679096Y-86043594D01*
X167667872Y-85974632D01*
X167695713Y-85910549D01*
X167725817Y-85884462D01*
X167728656Y-85882712D01*
X167852712Y-85758656D01*
X167907764Y-85669402D01*
X167959711Y-85622679D01*
X168013302Y-85610500D01*
X168017588Y-85610500D01*
X168084627Y-85630185D01*
X168094903Y-85637555D01*
X168097736Y-85639814D01*
X168097738Y-85639816D01*
X168250478Y-85735789D01*
X168420745Y-85795368D01*
X168420750Y-85795369D01*
X168599996Y-85815565D01*
X168600000Y-85815565D01*
X168600004Y-85815565D01*
X168779249Y-85795369D01*
X168779252Y-85795368D01*
X168779255Y-85795368D01*
X168949522Y-85735789D01*
X169102262Y-85639816D01*
X169229816Y-85512262D01*
X169325789Y-85359522D01*
X169385368Y-85189255D01*
X169385441Y-85188610D01*
X169405565Y-85010003D01*
X169405565Y-85009996D01*
X169385369Y-84830750D01*
X169385368Y-84830745D01*
X169381601Y-84819980D01*
X169325789Y-84660478D01*
X169298778Y-84617491D01*
X169258309Y-84553084D01*
X169229816Y-84507738D01*
X169102262Y-84380184D01*
X169089739Y-84372315D01*
X169067171Y-84358134D01*
X169020880Y-84305799D01*
X169010233Y-84236745D01*
X169038609Y-84172897D01*
X169067171Y-84148148D01*
X169112262Y-84119816D01*
X169239816Y-83992262D01*
X169335789Y-83839522D01*
X169395368Y-83669255D01*
X169401002Y-83619254D01*
X169415565Y-83490003D01*
X169415565Y-83489996D01*
X169395369Y-83310750D01*
X169395368Y-83310745D01*
X169368817Y-83234868D01*
X169335789Y-83140478D01*
X169323289Y-83120585D01*
X169239815Y-82987737D01*
X169112262Y-82860184D01*
X168959523Y-82764211D01*
X168789254Y-82704631D01*
X168789249Y-82704630D01*
X168610004Y-82684435D01*
X168609996Y-82684435D01*
X168430750Y-82704630D01*
X168430745Y-82704631D01*
X168260476Y-82764211D01*
X168107736Y-82860185D01*
X168104903Y-82862445D01*
X168102724Y-82863334D01*
X168101842Y-82863889D01*
X168101744Y-82863734D01*
X168040217Y-82888855D01*
X168027588Y-82889500D01*
X168010097Y-82889500D01*
X167943058Y-82869815D01*
X167922416Y-82853181D01*
X167446819Y-82377584D01*
X167413334Y-82316261D01*
X167410500Y-82289903D01*
X167410500Y-81957800D01*
X167430185Y-81890761D01*
X167482989Y-81845006D01*
X167495482Y-81840099D01*
X167579334Y-81812314D01*
X167728656Y-81720212D01*
X167852712Y-81596156D01*
X167944814Y-81446834D01*
X167999999Y-81280297D01*
X168010500Y-81177509D01*
X168010499Y-80602844D01*
X168470000Y-80602844D01*
X168476401Y-80662372D01*
X168476403Y-80662379D01*
X168526645Y-80797086D01*
X168526649Y-80797093D01*
X168612809Y-80912187D01*
X168612812Y-80912190D01*
X168727906Y-80998350D01*
X168727913Y-80998354D01*
X168862620Y-81048596D01*
X168862627Y-81048598D01*
X168922155Y-81054999D01*
X168922172Y-81055000D01*
X169470000Y-81055000D01*
X169970000Y-81055000D01*
X170517828Y-81055000D01*
X170517844Y-81054999D01*
X170577372Y-81048598D01*
X170577379Y-81048596D01*
X170712086Y-80998354D01*
X170712093Y-80998350D01*
X170827187Y-80912190D01*
X170827190Y-80912187D01*
X170913350Y-80797093D01*
X170913354Y-80797086D01*
X170963596Y-80662379D01*
X170963598Y-80662372D01*
X170969999Y-80602844D01*
X170970000Y-80602827D01*
X170970000Y-80305000D01*
X169970000Y-80305000D01*
X169970000Y-81055000D01*
X169470000Y-81055000D01*
X169470000Y-80305000D01*
X168470000Y-80305000D01*
X168470000Y-80602844D01*
X168010499Y-80602844D01*
X168010499Y-80427492D01*
X168009733Y-80419998D01*
X167999999Y-80324703D01*
X167999998Y-80324700D01*
X167990985Y-80297500D01*
X167944814Y-80158166D01*
X167852712Y-80008844D01*
X167728656Y-79884788D01*
X167725819Y-79883038D01*
X167724283Y-79881330D01*
X167722989Y-79880307D01*
X167723163Y-79880085D01*
X167679096Y-79831094D01*
X167667872Y-79762132D01*
X167695713Y-79698049D01*
X167725817Y-79671962D01*
X167728656Y-79670212D01*
X167852712Y-79546156D01*
X167935519Y-79411902D01*
X167987467Y-79365179D01*
X168041058Y-79353000D01*
X168348529Y-79353000D01*
X168415568Y-79372685D01*
X168461323Y-79425489D01*
X168471818Y-79490256D01*
X168470000Y-79507155D01*
X168470000Y-79805000D01*
X170970000Y-79805000D01*
X170970000Y-79507172D01*
X170969999Y-79507155D01*
X170963598Y-79447627D01*
X170961814Y-79440076D01*
X170963459Y-79439687D01*
X170959143Y-79379361D01*
X170964058Y-79362619D01*
X170964091Y-79362481D01*
X170970500Y-79302873D01*
X170970499Y-78207128D01*
X170964091Y-78147517D01*
X170961293Y-78140016D01*
X170913797Y-78012671D01*
X170913793Y-78012664D01*
X170827547Y-77897455D01*
X170827544Y-77897452D01*
X170712335Y-77811206D01*
X170712328Y-77811202D01*
X170577482Y-77760908D01*
X170577483Y-77760908D01*
X170517883Y-77754501D01*
X170517881Y-77754500D01*
X170517873Y-77754500D01*
X170517864Y-77754500D01*
X168922129Y-77754500D01*
X168922123Y-77754501D01*
X168862516Y-77760908D01*
X168727671Y-77811202D01*
X168727664Y-77811206D01*
X168612455Y-77897452D01*
X168612452Y-77897455D01*
X168526206Y-78012664D01*
X168526203Y-78012669D01*
X168504323Y-78071334D01*
X168462451Y-78127267D01*
X168396987Y-78151684D01*
X168388141Y-78152000D01*
X168041058Y-78152000D01*
X167974019Y-78132315D01*
X167935519Y-78093097D01*
X167930893Y-78085597D01*
X167852712Y-77958844D01*
X167728656Y-77834788D01*
X167632473Y-77775462D01*
X167579336Y-77742687D01*
X167579331Y-77742685D01*
X167575758Y-77741501D01*
X167412797Y-77687501D01*
X167412795Y-77687500D01*
X167310010Y-77677000D01*
X166309998Y-77677000D01*
X166309980Y-77677001D01*
X166207203Y-77687500D01*
X166207200Y-77687501D01*
X166040668Y-77742685D01*
X166040663Y-77742687D01*
X165891342Y-77834789D01*
X165767289Y-77958842D01*
X165675187Y-78108163D01*
X165675185Y-78108168D01*
X165660661Y-78152000D01*
X165620001Y-78274703D01*
X165620001Y-78274704D01*
X165620000Y-78274704D01*
X165609500Y-78377483D01*
X165609500Y-79127501D01*
X165609501Y-79127519D01*
X165620000Y-79230296D01*
X165620001Y-79230299D01*
X165675185Y-79396831D01*
X165675187Y-79396836D01*
X165684540Y-79411999D01*
X165764222Y-79541186D01*
X165767289Y-79546157D01*
X165891346Y-79670214D01*
X165894182Y-79671963D01*
X165895717Y-79673670D01*
X165897011Y-79674693D01*
X165896836Y-79674914D01*
X165940905Y-79723911D01*
X165952126Y-79792874D01*
X165924282Y-79856956D01*
X165894182Y-79883037D01*
X165891346Y-79884785D01*
X165767289Y-80008842D01*
X165675187Y-80158163D01*
X165675186Y-80158166D01*
X165620001Y-80324703D01*
X165620001Y-80324704D01*
X165620000Y-80324704D01*
X165609500Y-80427483D01*
X165609500Y-81177501D01*
X165609501Y-81177519D01*
X165620000Y-81280296D01*
X165620001Y-81280299D01*
X165661593Y-81405814D01*
X165675186Y-81446834D01*
X165767288Y-81596156D01*
X165891344Y-81720212D01*
X166040666Y-81812314D01*
X166124505Y-81840095D01*
X166181948Y-81879866D01*
X166208772Y-81944382D01*
X166209500Y-81957800D01*
X166209500Y-82503330D01*
X166209499Y-82503348D01*
X166209499Y-82669054D01*
X166209498Y-82669054D01*
X166244210Y-82798597D01*
X166250423Y-82821785D01*
X166260651Y-82839500D01*
X166329477Y-82958712D01*
X166329481Y-82958717D01*
X166448349Y-83077585D01*
X166448355Y-83077590D01*
X167048584Y-83677819D01*
X167082069Y-83739142D01*
X167077085Y-83808834D01*
X167035213Y-83864767D01*
X166969749Y-83889184D01*
X166960903Y-83889500D01*
X166309998Y-83889500D01*
X166309980Y-83889501D01*
X166207203Y-83900000D01*
X166207200Y-83900001D01*
X166040668Y-83955185D01*
X166040663Y-83955187D01*
X165891342Y-84047289D01*
X165767289Y-84171342D01*
X165675187Y-84320663D01*
X165675185Y-84320668D01*
X165651548Y-84392000D01*
X165620001Y-84487203D01*
X165620001Y-84487204D01*
X165620000Y-84487204D01*
X165609500Y-84589983D01*
X165609500Y-85340001D01*
X165609501Y-85340019D01*
X165620000Y-85442796D01*
X165620001Y-85442799D01*
X165675185Y-85609331D01*
X165675187Y-85609336D01*
X165692146Y-85636831D01*
X165759798Y-85746513D01*
X165767289Y-85758657D01*
X165891346Y-85882714D01*
X165894182Y-85884463D01*
X165895717Y-85886170D01*
X165897011Y-85887193D01*
X165896836Y-85887414D01*
X165940905Y-85936411D01*
X165952126Y-86005374D01*
X165924282Y-86069456D01*
X165894182Y-86095537D01*
X165891346Y-86097285D01*
X165767289Y-86221342D01*
X165675187Y-86370663D01*
X165675185Y-86370668D01*
X165670986Y-86383340D01*
X165620001Y-86537203D01*
X165620001Y-86537204D01*
X165620000Y-86537204D01*
X165609500Y-86639983D01*
X165609500Y-87390001D01*
X165609501Y-87390019D01*
X165620000Y-87492796D01*
X165620001Y-87492799D01*
X165675185Y-87659331D01*
X165675187Y-87659336D01*
X165687513Y-87679319D01*
X165765850Y-87806325D01*
X165767289Y-87808657D01*
X165896451Y-87937819D01*
X165929936Y-87999142D01*
X165924952Y-88068834D01*
X165883080Y-88124767D01*
X165817616Y-88149184D01*
X165808770Y-88149500D01*
X158832412Y-88149500D01*
X158765373Y-88129815D01*
X158755097Y-88122445D01*
X158752263Y-88120185D01*
X158752262Y-88120184D01*
X158670539Y-88068834D01*
X158599523Y-88024211D01*
X158429254Y-87964631D01*
X158429249Y-87964630D01*
X158250004Y-87944435D01*
X158249996Y-87944435D01*
X158070750Y-87964630D01*
X158070745Y-87964631D01*
X157900476Y-88024211D01*
X157747737Y-88120184D01*
X157620184Y-88247737D01*
X157524210Y-88400478D01*
X157464630Y-88570750D01*
X157454837Y-88657668D01*
X157427770Y-88722082D01*
X157419298Y-88731465D01*
X156371286Y-89779478D01*
X156259481Y-89891282D01*
X156259479Y-89891285D01*
X156209361Y-89978094D01*
X156209359Y-89978096D01*
X156180424Y-90028211D01*
X156178788Y-90032161D01*
X156176516Y-90034979D01*
X156176358Y-90035254D01*
X156176315Y-90035229D01*
X156134945Y-90086563D01*
X156068650Y-90108626D01*
X156000951Y-90091345D01*
X155998272Y-90089709D01*
X155989522Y-90084211D01*
X155989519Y-90084209D01*
X155819262Y-90024633D01*
X155819249Y-90024630D01*
X155640004Y-90004435D01*
X155639996Y-90004435D01*
X155460750Y-90024630D01*
X155460745Y-90024631D01*
X155290476Y-90084211D01*
X155137737Y-90180184D01*
X155129681Y-90188241D01*
X155068358Y-90221726D01*
X154998666Y-90216742D01*
X154942733Y-90174870D01*
X154918316Y-90109406D01*
X154918000Y-90100560D01*
X154918000Y-85969993D01*
X154917999Y-85969980D01*
X154917379Y-85963911D01*
X154907499Y-85867200D01*
X154852315Y-85700664D01*
X154852311Y-85700658D01*
X154852310Y-85700655D01*
X154760214Y-85551346D01*
X154760211Y-85551342D01*
X154636157Y-85427288D01*
X154636153Y-85427285D01*
X154486844Y-85335189D01*
X154486838Y-85335186D01*
X154486836Y-85335185D01*
X154486833Y-85335184D01*
X154320301Y-85280001D01*
X154217519Y-85269500D01*
X154217512Y-85269500D01*
X152392000Y-85269500D01*
X152324961Y-85249815D01*
X152279206Y-85197011D01*
X152268000Y-85145500D01*
X152268000Y-84223957D01*
X152287685Y-84156918D01*
X152326907Y-84118416D01*
X152336156Y-84112712D01*
X152460212Y-83988656D01*
X152551961Y-83839905D01*
X152603909Y-83793181D01*
X152672871Y-83781958D01*
X152736954Y-83809801D01*
X152763038Y-83839905D01*
X152772460Y-83855180D01*
X152851105Y-83982686D01*
X152854788Y-83988656D01*
X152978844Y-84112712D01*
X153128166Y-84204814D01*
X153294703Y-84259999D01*
X153397491Y-84270500D01*
X154197508Y-84270499D01*
X154197516Y-84270498D01*
X154197519Y-84270498D01*
X154253802Y-84264748D01*
X154300297Y-84259999D01*
X154466834Y-84204814D01*
X154616156Y-84112712D01*
X154740212Y-83988656D01*
X154832314Y-83839334D01*
X154887499Y-83672797D01*
X154898000Y-83570009D01*
X154898000Y-83544500D01*
X154917685Y-83477461D01*
X154970489Y-83431706D01*
X155022000Y-83420500D01*
X155500028Y-83420500D01*
X155540982Y-83427457D01*
X155561371Y-83434592D01*
X155620745Y-83455368D01*
X155620750Y-83455369D01*
X155799996Y-83475565D01*
X155800000Y-83475565D01*
X155800004Y-83475565D01*
X155979249Y-83455369D01*
X155979252Y-83455368D01*
X155979255Y-83455368D01*
X156149522Y-83395789D01*
X156302262Y-83299816D01*
X156429816Y-83172262D01*
X156525789Y-83019522D01*
X156585368Y-82849255D01*
X156588463Y-82821785D01*
X156605565Y-82670003D01*
X156605565Y-82669996D01*
X156585369Y-82490750D01*
X156585368Y-82490745D01*
X156570392Y-82447947D01*
X156525789Y-82320478D01*
X156525174Y-82319500D01*
X156429815Y-82167737D01*
X156302262Y-82040184D01*
X156149523Y-81944211D01*
X155979254Y-81884631D01*
X155979249Y-81884630D01*
X155800004Y-81864435D01*
X155799996Y-81864435D01*
X155620750Y-81884630D01*
X155620745Y-81884631D01*
X155540983Y-81912542D01*
X155500028Y-81919500D01*
X155021999Y-81919500D01*
X154954960Y-81899815D01*
X154909205Y-81847011D01*
X154897999Y-81795500D01*
X154897999Y-81769998D01*
X154897998Y-81769981D01*
X154887499Y-81667203D01*
X154887498Y-81667200D01*
X154873780Y-81625802D01*
X154832314Y-81500666D01*
X154740212Y-81351344D01*
X154616156Y-81227288D01*
X154466834Y-81135186D01*
X154300297Y-81080001D01*
X154300295Y-81080000D01*
X154197510Y-81069500D01*
X153397498Y-81069500D01*
X153397480Y-81069501D01*
X153294703Y-81080000D01*
X153294700Y-81080001D01*
X153128168Y-81135185D01*
X153128163Y-81135187D01*
X152978842Y-81227289D01*
X152854789Y-81351342D01*
X152854788Y-81351344D01*
X152795892Y-81446831D01*
X152763039Y-81500094D01*
X152711091Y-81546818D01*
X152642128Y-81558041D01*
X152578046Y-81530197D01*
X152551961Y-81500094D01*
X152551959Y-81500091D01*
X152460212Y-81351344D01*
X152336156Y-81227288D01*
X152336155Y-81227287D01*
X152329402Y-81223122D01*
X152282678Y-81171173D01*
X152270500Y-81117584D01*
X152270500Y-79859972D01*
X152277458Y-79819017D01*
X152298418Y-79759116D01*
X152305368Y-79739255D01*
X152307097Y-79723911D01*
X152325565Y-79560003D01*
X152325565Y-79559996D01*
X152305369Y-79380750D01*
X152305368Y-79380745D01*
X152290922Y-79339460D01*
X152245789Y-79210478D01*
X152217111Y-79164838D01*
X152171471Y-79092202D01*
X152149816Y-79057738D01*
X152022262Y-78930184D01*
X151993663Y-78912214D01*
X151869523Y-78834211D01*
X151699254Y-78774631D01*
X151699249Y-78774630D01*
X151520004Y-78754435D01*
X151519996Y-78754435D01*
X151340750Y-78774630D01*
X151340745Y-78774631D01*
X151170476Y-78834211D01*
X151017737Y-78930184D01*
X150890184Y-79057737D01*
X150794211Y-79210476D01*
X150734631Y-79380745D01*
X150734630Y-79380750D01*
X150714435Y-79559996D01*
X150714435Y-79560003D01*
X150734630Y-79739249D01*
X150734631Y-79739254D01*
X150762542Y-79819017D01*
X150769500Y-79859972D01*
X150769500Y-81114500D01*
X150749815Y-81181539D01*
X150710598Y-81220038D01*
X150698844Y-81227287D01*
X150574788Y-81351343D01*
X150574785Y-81351347D01*
X150483037Y-81500094D01*
X150431089Y-81546819D01*
X150362127Y-81558040D01*
X150298045Y-81530197D01*
X150271959Y-81500091D01*
X150258960Y-81479015D01*
X150240500Y-81413921D01*
X150240500Y-79451456D01*
X150202052Y-79258170D01*
X150202051Y-79258169D01*
X150202051Y-79258165D01*
X150199511Y-79252032D01*
X150126635Y-79076092D01*
X150126628Y-79076079D01*
X150017139Y-78912218D01*
X150017136Y-78912214D01*
X149877785Y-78772863D01*
X149877781Y-78772860D01*
X149713920Y-78663371D01*
X149713907Y-78663364D01*
X149531839Y-78587950D01*
X149531829Y-78587947D01*
X149338543Y-78549500D01*
X149338541Y-78549500D01*
X149141459Y-78549500D01*
X149141457Y-78549500D01*
X148948170Y-78587947D01*
X148948160Y-78587950D01*
X148766092Y-78663364D01*
X148766079Y-78663371D01*
X148602218Y-78772860D01*
X148602214Y-78772863D01*
X148462863Y-78912214D01*
X148462860Y-78912218D01*
X148353371Y-79076079D01*
X148353364Y-79076092D01*
X148277950Y-79258160D01*
X148277947Y-79258170D01*
X148239500Y-79451456D01*
X148239500Y-81405814D01*
X148221040Y-81470908D01*
X148202687Y-81500663D01*
X148174076Y-81587005D01*
X148134303Y-81644449D01*
X148069787Y-81671272D01*
X148056370Y-81672000D01*
X146341461Y-81672000D01*
X146276366Y-81653539D01*
X146171174Y-81588657D01*
X146149336Y-81575187D01*
X146149331Y-81575185D01*
X146147862Y-81574698D01*
X145982797Y-81520001D01*
X145982795Y-81520000D01*
X145880010Y-81509500D01*
X143579998Y-81509500D01*
X143579981Y-81509501D01*
X143477203Y-81520000D01*
X143477200Y-81520001D01*
X143310668Y-81575185D01*
X143310663Y-81575187D01*
X143161342Y-81667289D01*
X143037289Y-81791342D01*
X142945187Y-81940663D01*
X142945185Y-81940668D01*
X142918745Y-82020460D01*
X142890001Y-82107203D01*
X142890001Y-82107204D01*
X142890000Y-82107204D01*
X142879500Y-82209983D01*
X142879500Y-83135001D01*
X142879501Y-83135019D01*
X142890000Y-83237796D01*
X142890001Y-83237799D01*
X142927347Y-83350499D01*
X142945186Y-83404334D01*
X143037288Y-83553656D01*
X143161344Y-83677712D01*
X143310666Y-83769814D01*
X143477203Y-83824999D01*
X143579991Y-83835500D01*
X143595496Y-83835499D01*
X143662534Y-83855180D01*
X143708292Y-83907981D01*
X143719500Y-83959499D01*
X143719500Y-86865500D01*
X143699815Y-86932539D01*
X143647011Y-86978294D01*
X143595500Y-86989500D01*
X142922129Y-86989500D01*
X142922123Y-86989501D01*
X142862516Y-86995908D01*
X142727671Y-87046202D01*
X142727664Y-87046206D01*
X142612455Y-87132452D01*
X142612452Y-87132455D01*
X142526206Y-87247664D01*
X142526202Y-87247671D01*
X142475908Y-87382517D01*
X142469501Y-87442116D01*
X142469501Y-87442123D01*
X142469500Y-87442135D01*
X142469500Y-91037870D01*
X142469501Y-91037876D01*
X142475908Y-91097483D01*
X142526202Y-91232328D01*
X142526206Y-91232335D01*
X142612452Y-91347544D01*
X142612455Y-91347547D01*
X142727664Y-91433793D01*
X142727673Y-91433798D01*
X142776506Y-91452011D01*
X142832440Y-91493881D01*
X142856858Y-91559345D01*
X142842007Y-91627618D01*
X142792603Y-91677024D01*
X142726598Y-91692018D01*
X142688625Y-91690001D01*
X142688579Y-91690000D01*
X141970000Y-91690000D01*
X141970000Y-93440000D01*
X141470000Y-93440000D01*
X141470000Y-91690000D01*
X140751423Y-91690000D01*
X140751411Y-91690001D01*
X140698808Y-91692794D01*
X140469012Y-91737237D01*
X140250024Y-91819879D01*
X140048158Y-91938339D01*
X140048151Y-91938344D01*
X139869213Y-92089211D01*
X139869211Y-92089213D01*
X139718344Y-92268151D01*
X139718339Y-92268158D01*
X139599879Y-92470024D01*
X139517237Y-92689012D01*
X139472794Y-92918808D01*
X139472794Y-92918809D01*
X139470001Y-92971382D01*
X139470000Y-92971421D01*
X139470000Y-93690000D01*
X140286988Y-93690000D01*
X140254075Y-93747007D01*
X140220000Y-93874174D01*
X140220000Y-94005826D01*
X140254075Y-94132993D01*
X140286988Y-94190000D01*
X139470001Y-94190000D01*
X139470001Y-94908588D01*
X139472794Y-94961191D01*
X139517237Y-95190987D01*
X139599879Y-95409975D01*
X139718339Y-95611841D01*
X139718344Y-95611848D01*
X139869211Y-95790786D01*
X139869213Y-95790788D01*
X140048151Y-95941655D01*
X140048158Y-95941660D01*
X140250024Y-96060120D01*
X140469012Y-96142762D01*
X140698809Y-96187205D01*
X140751382Y-96189998D01*
X140751421Y-96189999D01*
X141469999Y-96189999D01*
X141470000Y-96189998D01*
X141470000Y-94440000D01*
X141970000Y-94440000D01*
X141970000Y-96189999D01*
X142688576Y-96189999D01*
X142688588Y-96189998D01*
X142741191Y-96187205D01*
X142970987Y-96142762D01*
X143189975Y-96060120D01*
X143391841Y-95941660D01*
X143391848Y-95941655D01*
X143570786Y-95790788D01*
X143570788Y-95790786D01*
X143721655Y-95611848D01*
X143721660Y-95611841D01*
X143804898Y-95469996D01*
X146834435Y-95469996D01*
X146834435Y-95470003D01*
X146854630Y-95649249D01*
X146854631Y-95649254D01*
X146914211Y-95819523D01*
X146968765Y-95906344D01*
X147010184Y-95972262D01*
X147137738Y-96099816D01*
X147139629Y-96101004D01*
X147281261Y-96189998D01*
X147290478Y-96195789D01*
X147460745Y-96255368D01*
X147460750Y-96255369D01*
X147639996Y-96275565D01*
X147640000Y-96275565D01*
X147640004Y-96275565D01*
X147819249Y-96255369D01*
X147819252Y-96255368D01*
X147819255Y-96255368D01*
X147989522Y-96195789D01*
X147998739Y-96189998D01*
X148016165Y-96179047D01*
X148049527Y-96158084D01*
X148116763Y-96139084D01*
X148183599Y-96159451D01*
X148228813Y-96212718D01*
X148239500Y-96263078D01*
X148239500Y-97317870D01*
X148239501Y-97317876D01*
X148245908Y-97377483D01*
X148296202Y-97512328D01*
X148296206Y-97512335D01*
X148382452Y-97627544D01*
X148382455Y-97627547D01*
X148497664Y-97713793D01*
X148497671Y-97713797D01*
X148557107Y-97735965D01*
X148632517Y-97764091D01*
X148633630Y-97764210D01*
X148634438Y-97764545D01*
X148640062Y-97765874D01*
X148639846Y-97766785D01*
X148698181Y-97790944D01*
X148738033Y-97848334D01*
X148740531Y-97918159D01*
X148737423Y-97928455D01*
X148694631Y-98050745D01*
X148694630Y-98050750D01*
X148674435Y-98229996D01*
X148674435Y-98230003D01*
X148694630Y-98409249D01*
X148694631Y-98409254D01*
X148754211Y-98579523D01*
X148834088Y-98706645D01*
X148850184Y-98732262D01*
X148977738Y-98859816D01*
X149130478Y-98955789D01*
X149298290Y-99014509D01*
X149300745Y-99015368D01*
X149300750Y-99015369D01*
X149479996Y-99035565D01*
X149480000Y-99035565D01*
X149480004Y-99035565D01*
X149659249Y-99015369D01*
X149659252Y-99015368D01*
X149659255Y-99015368D01*
X149829522Y-98955789D01*
X149982262Y-98859816D01*
X150109816Y-98732262D01*
X150205789Y-98579522D01*
X150265368Y-98409255D01*
X150280516Y-98274814D01*
X150285565Y-98230003D01*
X150285565Y-98229996D01*
X150265369Y-98050750D01*
X150265366Y-98050737D01*
X150223303Y-97930528D01*
X150219741Y-97860749D01*
X150254469Y-97800122D01*
X150316463Y-97767894D01*
X150327092Y-97766283D01*
X150347483Y-97764091D01*
X150347486Y-97764090D01*
X150482331Y-97713796D01*
X150597546Y-97627546D01*
X150683796Y-97512331D01*
X150706609Y-97451167D01*
X150748480Y-97395233D01*
X150813944Y-97370816D01*
X150822791Y-97370500D01*
X150977209Y-97370500D01*
X151044248Y-97390185D01*
X151090003Y-97442989D01*
X151093391Y-97451167D01*
X151116202Y-97512328D01*
X151116206Y-97512335D01*
X151202452Y-97627544D01*
X151202455Y-97627547D01*
X151317664Y-97713793D01*
X151317671Y-97713797D01*
X151452517Y-97764091D01*
X151452516Y-97764091D01*
X151459444Y-97764835D01*
X151512127Y-97770500D01*
X153107872Y-97770499D01*
X153167483Y-97764091D01*
X153302331Y-97713796D01*
X153417546Y-97627546D01*
X153503796Y-97512331D01*
X153554091Y-97377483D01*
X153560500Y-97317873D01*
X153560499Y-96222128D01*
X153554091Y-96162517D01*
X153554091Y-96162516D01*
X153552307Y-96154966D01*
X153553559Y-96154669D01*
X153549145Y-96092924D01*
X153553132Y-96079346D01*
X153553598Y-96077375D01*
X153559999Y-96017844D01*
X153560000Y-96017827D01*
X153560000Y-95720000D01*
X151060000Y-95720000D01*
X151060000Y-96017828D01*
X151061550Y-96032245D01*
X151049144Y-96101004D01*
X151001534Y-96152142D01*
X150938260Y-96169500D01*
X150862244Y-96169500D01*
X150795205Y-96149815D01*
X150749450Y-96097011D01*
X150738954Y-96032247D01*
X150740500Y-96017873D01*
X150740499Y-94922155D01*
X151060000Y-94922155D01*
X151060000Y-95220000D01*
X152060000Y-95220000D01*
X152560000Y-95220000D01*
X153560000Y-95220000D01*
X153560000Y-94922172D01*
X153559999Y-94922155D01*
X153553598Y-94862627D01*
X153553596Y-94862620D01*
X153503354Y-94727913D01*
X153503350Y-94727906D01*
X153417190Y-94612812D01*
X153417187Y-94612809D01*
X153302093Y-94526649D01*
X153302086Y-94526645D01*
X153167379Y-94476403D01*
X153167372Y-94476401D01*
X153107844Y-94470000D01*
X152560000Y-94470000D01*
X152560000Y-95220000D01*
X152060000Y-95220000D01*
X152060000Y-94470000D01*
X151512155Y-94470000D01*
X151452627Y-94476401D01*
X151452620Y-94476403D01*
X151317913Y-94526645D01*
X151317906Y-94526649D01*
X151202812Y-94612809D01*
X151202809Y-94612812D01*
X151116649Y-94727906D01*
X151116645Y-94727913D01*
X151066403Y-94862620D01*
X151066401Y-94862627D01*
X151060000Y-94922155D01*
X150740499Y-94922155D01*
X150740499Y-94922128D01*
X150734091Y-94862517D01*
X150725761Y-94840184D01*
X150683797Y-94727671D01*
X150683793Y-94727664D01*
X150597547Y-94612455D01*
X150597544Y-94612452D01*
X150482335Y-94526206D01*
X150482328Y-94526202D01*
X150347482Y-94475908D01*
X150347483Y-94475908D01*
X150287883Y-94469501D01*
X150287881Y-94469500D01*
X150287873Y-94469500D01*
X150287864Y-94469500D01*
X148692129Y-94469500D01*
X148692123Y-94469501D01*
X148632516Y-94475908D01*
X148497671Y-94526202D01*
X148497664Y-94526206D01*
X148382455Y-94612452D01*
X148382452Y-94612455D01*
X148296206Y-94727664D01*
X148296202Y-94727672D01*
X148286192Y-94754509D01*
X148244319Y-94810442D01*
X148178854Y-94834857D01*
X148110582Y-94820004D01*
X148104039Y-94816167D01*
X147989523Y-94744211D01*
X147819254Y-94684631D01*
X147819249Y-94684630D01*
X147640004Y-94664435D01*
X147639996Y-94664435D01*
X147460750Y-94684630D01*
X147460745Y-94684631D01*
X147290476Y-94744211D01*
X147137737Y-94840184D01*
X147010184Y-94967737D01*
X146914211Y-95120476D01*
X146854631Y-95290745D01*
X146854630Y-95290750D01*
X146834435Y-95469996D01*
X143804898Y-95469996D01*
X143840120Y-95409975D01*
X143922762Y-95190987D01*
X143967205Y-94961191D01*
X143967205Y-94961190D01*
X143969998Y-94908617D01*
X143970000Y-94908578D01*
X143970000Y-94190000D01*
X143153012Y-94190000D01*
X143185925Y-94132993D01*
X143220000Y-94005826D01*
X143220000Y-93874174D01*
X143185925Y-93747007D01*
X143153012Y-93690000D01*
X143969999Y-93690000D01*
X143969999Y-92971423D01*
X143969998Y-92971411D01*
X143967205Y-92918808D01*
X143922762Y-92689012D01*
X143840120Y-92470024D01*
X143721660Y-92268158D01*
X143721655Y-92268151D01*
X143570788Y-92089213D01*
X143570786Y-92089211D01*
X143391848Y-91938344D01*
X143391841Y-91938339D01*
X143189975Y-91819879D01*
X142970984Y-91737236D01*
X142965840Y-91736241D01*
X142903760Y-91704180D01*
X142868869Y-91643646D01*
X142872244Y-91573858D01*
X142912814Y-91516973D01*
X142977697Y-91491052D01*
X142989374Y-91490499D01*
X146517872Y-91490499D01*
X146577483Y-91484091D01*
X146712331Y-91433796D01*
X146827546Y-91347546D01*
X146913796Y-91232331D01*
X146964091Y-91097483D01*
X146970500Y-91037873D01*
X146970499Y-87442128D01*
X146964091Y-87382517D01*
X146924571Y-87276559D01*
X146913797Y-87247671D01*
X146913793Y-87247664D01*
X146827547Y-87132455D01*
X146827544Y-87132452D01*
X146712335Y-87046206D01*
X146712328Y-87046202D01*
X146577482Y-86995908D01*
X146577483Y-86995908D01*
X146517883Y-86989501D01*
X146517881Y-86989500D01*
X146517873Y-86989500D01*
X146517865Y-86989500D01*
X145844500Y-86989500D01*
X145777461Y-86969815D01*
X145731706Y-86917011D01*
X145720500Y-86865500D01*
X145720500Y-83959499D01*
X145740185Y-83892460D01*
X145792989Y-83846705D01*
X145844500Y-83835499D01*
X145880002Y-83835499D01*
X145880008Y-83835499D01*
X145982797Y-83824999D01*
X146149334Y-83769814D01*
X146276366Y-83691460D01*
X146341461Y-83673000D01*
X148058027Y-83673000D01*
X148125066Y-83692685D01*
X148170821Y-83745489D01*
X148175731Y-83757990D01*
X148201415Y-83835499D01*
X148202686Y-83839333D01*
X148202687Y-83839336D01*
X148203039Y-83839906D01*
X148294788Y-83988656D01*
X148418844Y-84112712D01*
X148568166Y-84204814D01*
X148734703Y-84259999D01*
X148837491Y-84270500D01*
X149637508Y-84270499D01*
X149637516Y-84270498D01*
X149637519Y-84270498D01*
X149693802Y-84264748D01*
X149740297Y-84259999D01*
X149906834Y-84204814D01*
X150056156Y-84112712D01*
X150180212Y-83988656D01*
X150271961Y-83839905D01*
X150323909Y-83793181D01*
X150392871Y-83781958D01*
X150456954Y-83809801D01*
X150483038Y-83839905D01*
X150492460Y-83855180D01*
X150571105Y-83982686D01*
X150574788Y-83988656D01*
X150698844Y-84112712D01*
X150708091Y-84118416D01*
X150754818Y-84170360D01*
X150767000Y-84223957D01*
X150767000Y-85145500D01*
X150747315Y-85212539D01*
X150694511Y-85258294D01*
X150643000Y-85269500D01*
X148817480Y-85269500D01*
X148714698Y-85280001D01*
X148548166Y-85335184D01*
X148548155Y-85335189D01*
X148398846Y-85427285D01*
X148398842Y-85427288D01*
X148274788Y-85551342D01*
X148274785Y-85551346D01*
X148182689Y-85700655D01*
X148182684Y-85700666D01*
X148127501Y-85867198D01*
X148117000Y-85969980D01*
X148117000Y-91970019D01*
X148127501Y-92072801D01*
X148182684Y-92239333D01*
X148182689Y-92239344D01*
X148274785Y-92388653D01*
X148274788Y-92388657D01*
X148398842Y-92512711D01*
X148398846Y-92512714D01*
X148548155Y-92604810D01*
X148548158Y-92604811D01*
X148548164Y-92604815D01*
X148714700Y-92659999D01*
X148817488Y-92670500D01*
X148817491Y-92670500D01*
X150709939Y-92670500D01*
X150776978Y-92690185D01*
X150822733Y-92742989D01*
X150832677Y-92812147D01*
X150826980Y-92835455D01*
X150814631Y-92870743D01*
X150814631Y-92870746D01*
X150794435Y-93049996D01*
X150794435Y-93050003D01*
X150814630Y-93229249D01*
X150814631Y-93229254D01*
X150874211Y-93399523D01*
X150962417Y-93539901D01*
X150970184Y-93552262D01*
X151097738Y-93679816D01*
X151250478Y-93775789D01*
X151405401Y-93829999D01*
X151420745Y-93835368D01*
X151420750Y-93835369D01*
X151599996Y-93855565D01*
X151600000Y-93855565D01*
X151600004Y-93855565D01*
X151779249Y-93835369D01*
X151779252Y-93835368D01*
X151779255Y-93835368D01*
X151949522Y-93775789D01*
X152102262Y-93679816D01*
X152229816Y-93552262D01*
X152325789Y-93399522D01*
X152385368Y-93229255D01*
X152393564Y-93156512D01*
X152405565Y-93050003D01*
X152405565Y-93049996D01*
X152385368Y-92870746D01*
X152385368Y-92870743D01*
X152373020Y-92835455D01*
X152369458Y-92765676D01*
X152404186Y-92705049D01*
X152466180Y-92672821D01*
X152490061Y-92670500D01*
X154217507Y-92670500D01*
X154217512Y-92670500D01*
X154320300Y-92659999D01*
X154486836Y-92604815D01*
X154636157Y-92512712D01*
X154760212Y-92388657D01*
X154852315Y-92239336D01*
X154907499Y-92072800D01*
X154918000Y-91970012D01*
X154918000Y-91519440D01*
X154937685Y-91452401D01*
X154990489Y-91406646D01*
X155059647Y-91396702D01*
X155123203Y-91425727D01*
X155129681Y-91431759D01*
X155137738Y-91439816D01*
X155218401Y-91490500D01*
X155273964Y-91525413D01*
X155290478Y-91535789D01*
X155399273Y-91573858D01*
X155460745Y-91595368D01*
X155460750Y-91595369D01*
X155639996Y-91615565D01*
X155640000Y-91615565D01*
X155640004Y-91615565D01*
X155819249Y-91595369D01*
X155819251Y-91595368D01*
X155819255Y-91595368D01*
X155819258Y-91595366D01*
X155819262Y-91595366D01*
X155974545Y-91541030D01*
X156044324Y-91537468D01*
X156104951Y-91572196D01*
X156137179Y-91634190D01*
X156139500Y-91658071D01*
X156139500Y-96191899D01*
X156120479Y-96256674D01*
X156120801Y-96256865D01*
X156120051Y-96258132D01*
X156119815Y-96258938D01*
X156118346Y-96261014D01*
X156036382Y-96399609D01*
X156036380Y-96399614D01*
X155992292Y-96551366D01*
X155992290Y-96551379D01*
X155989500Y-96586829D01*
X155989500Y-97775500D01*
X155969815Y-97842539D01*
X155917011Y-97888294D01*
X155865500Y-97899500D01*
X154676849Y-97899500D01*
X154676824Y-97899501D01*
X154641372Y-97902291D01*
X154489614Y-97946380D01*
X154489609Y-97946382D01*
X154346865Y-98030801D01*
X154345430Y-98028376D01*
X154292858Y-98049015D01*
X154281899Y-98049500D01*
X151880940Y-98049500D01*
X151840019Y-98060464D01*
X151840019Y-98060465D01*
X151802751Y-98070451D01*
X151728214Y-98090423D01*
X151728209Y-98090426D01*
X151591290Y-98169475D01*
X151591282Y-98169481D01*
X150489481Y-99271282D01*
X150489477Y-99271287D01*
X150441945Y-99353617D01*
X150441945Y-99353618D01*
X150410423Y-99408214D01*
X150410423Y-99408215D01*
X150369499Y-99560943D01*
X150369499Y-99560945D01*
X150369499Y-99729046D01*
X150369500Y-99729059D01*
X150369500Y-105763330D01*
X150369499Y-105763348D01*
X150369499Y-105929054D01*
X150369498Y-105929054D01*
X150369499Y-105929057D01*
X150410423Y-106081785D01*
X150417074Y-106093305D01*
X150417075Y-106093308D01*
X150417076Y-106093308D01*
X150489477Y-106218712D01*
X150489481Y-106218717D01*
X150608349Y-106337585D01*
X150608355Y-106337590D01*
X151854305Y-107583540D01*
X151887790Y-107644863D01*
X151882806Y-107714555D01*
X151840934Y-107770488D01*
X151779226Y-107794579D01*
X151677202Y-107805001D01*
X151677200Y-107805001D01*
X151510668Y-107860185D01*
X151510663Y-107860187D01*
X151361342Y-107952289D01*
X151237288Y-108076343D01*
X151237283Y-108076349D01*
X151235241Y-108079661D01*
X151233247Y-108081453D01*
X151232807Y-108082011D01*
X151232711Y-108081935D01*
X151183291Y-108126383D01*
X151114328Y-108137602D01*
X151050247Y-108109755D01*
X151024168Y-108079656D01*
X151022319Y-108076659D01*
X151022316Y-108076655D01*
X150898345Y-107952684D01*
X150749124Y-107860643D01*
X150749119Y-107860641D01*
X150582697Y-107805494D01*
X150582690Y-107805493D01*
X150479986Y-107795000D01*
X150342500Y-107795000D01*
X150342500Y-109146000D01*
X150322815Y-109213039D01*
X150270011Y-109258794D01*
X150218500Y-109270000D01*
X149005001Y-109270000D01*
X149005001Y-109544986D01*
X149015494Y-109647697D01*
X149070641Y-109814119D01*
X149070643Y-109814124D01*
X149162684Y-109963345D01*
X149286654Y-110087315D01*
X149435875Y-110179356D01*
X149442421Y-110182408D01*
X149441804Y-110183729D01*
X149492576Y-110218875D01*
X149519406Y-110283389D01*
X149507097Y-110352166D01*
X149459559Y-110403370D01*
X149435140Y-110414524D01*
X149280878Y-110465642D01*
X149280875Y-110465643D01*
X149131654Y-110557684D01*
X149007684Y-110681654D01*
X148915643Y-110830875D01*
X148915641Y-110830880D01*
X148860494Y-110997302D01*
X148860493Y-110997309D01*
X148850000Y-111100013D01*
X148850000Y-112000000D01*
X149933012Y-112000000D01*
X149915795Y-112009940D01*
X149859940Y-112065795D01*
X149820444Y-112134204D01*
X149800000Y-112210504D01*
X149800000Y-112289496D01*
X149820444Y-112365796D01*
X149859940Y-112434205D01*
X149915795Y-112490060D01*
X149933012Y-112500000D01*
X148850001Y-112500000D01*
X148850001Y-113399986D01*
X148860494Y-113502697D01*
X148915641Y-113669119D01*
X148915643Y-113669124D01*
X149007684Y-113818345D01*
X149131654Y-113942315D01*
X149280875Y-114034356D01*
X149280880Y-114034358D01*
X149447302Y-114089505D01*
X149447310Y-114089506D01*
X149509628Y-114095873D01*
X149574320Y-114122269D01*
X149614471Y-114179449D01*
X149617335Y-114249260D01*
X149611587Y-114266683D01*
X149568343Y-114371082D01*
X149568340Y-114371092D01*
X149539500Y-114516079D01*
X149539500Y-114557958D01*
X149519815Y-114624997D01*
X149480597Y-114663496D01*
X149466347Y-114672285D01*
X149466343Y-114672288D01*
X149342289Y-114796342D01*
X149250187Y-114945663D01*
X149250185Y-114945668D01*
X149224759Y-115022398D01*
X149195001Y-115112203D01*
X149195001Y-115112204D01*
X149195000Y-115112204D01*
X149184500Y-115214983D01*
X149184500Y-115360253D01*
X149164815Y-115427292D01*
X149129391Y-115463355D01*
X149026584Y-115532048D01*
X149026580Y-115532051D01*
X148302803Y-116255827D01*
X148241480Y-116289312D01*
X148171788Y-116284328D01*
X148140811Y-116267412D01*
X148032335Y-116186206D01*
X148032328Y-116186202D01*
X147897482Y-116135908D01*
X147897483Y-116135908D01*
X147837883Y-116129501D01*
X147837881Y-116129500D01*
X147837873Y-116129500D01*
X147837864Y-116129500D01*
X146742129Y-116129500D01*
X146742123Y-116129501D01*
X146682520Y-116135908D01*
X146674974Y-116137692D01*
X146674628Y-116136230D01*
X146613622Y-116140584D01*
X146598600Y-116136172D01*
X146597482Y-116135908D01*
X146537883Y-116129501D01*
X146537881Y-116129500D01*
X146537873Y-116129500D01*
X146537864Y-116129500D01*
X145442129Y-116129500D01*
X145442123Y-116129501D01*
X145382516Y-116135908D01*
X145247671Y-116186202D01*
X145247664Y-116186206D01*
X145132455Y-116272452D01*
X145132452Y-116272455D01*
X145046206Y-116387664D01*
X145046202Y-116387671D01*
X144995908Y-116522516D01*
X144995238Y-116528756D01*
X144968500Y-116593307D01*
X144911107Y-116633155D01*
X144871949Y-116639500D01*
X141809972Y-116639500D01*
X141769017Y-116632542D01*
X141689254Y-116604631D01*
X141689249Y-116604630D01*
X141510004Y-116584435D01*
X141509996Y-116584435D01*
X141330750Y-116604630D01*
X141330745Y-116604631D01*
X141160476Y-116664211D01*
X141007737Y-116760184D01*
X140880184Y-116887737D01*
X140784211Y-117040476D01*
X140724631Y-117210745D01*
X140724630Y-117210750D01*
X140704435Y-117389996D01*
X140704435Y-117390003D01*
X140724630Y-117569249D01*
X140724631Y-117569254D01*
X140784211Y-117739523D01*
X140840821Y-117829617D01*
X140880184Y-117892262D01*
X141007738Y-118019816D01*
X141064029Y-118055186D01*
X141142702Y-118104620D01*
X141160478Y-118115789D01*
X141330745Y-118175368D01*
X141330750Y-118175369D01*
X141509996Y-118195565D01*
X141510000Y-118195565D01*
X141510004Y-118195565D01*
X141689249Y-118175369D01*
X141689252Y-118175368D01*
X141689255Y-118175368D01*
X141769017Y-118147457D01*
X141809972Y-118140500D01*
X144874878Y-118140500D01*
X144941917Y-118160185D01*
X144987672Y-118212989D01*
X144995555Y-118235985D01*
X144995909Y-118237484D01*
X145046202Y-118372328D01*
X145046206Y-118372335D01*
X145132452Y-118487544D01*
X145132455Y-118487547D01*
X145247664Y-118573793D01*
X145247671Y-118573797D01*
X145382517Y-118624091D01*
X145382516Y-118624091D01*
X145389444Y-118624835D01*
X145442127Y-118630500D01*
X146537872Y-118630499D01*
X146597483Y-118624091D01*
X146597485Y-118624090D01*
X146597487Y-118624090D01*
X146605031Y-118622308D01*
X146605377Y-118623775D01*
X146666342Y-118619408D01*
X146681378Y-118623822D01*
X146682513Y-118624089D01*
X146682517Y-118624091D01*
X146742127Y-118630500D01*
X147837872Y-118630499D01*
X147897483Y-118624091D01*
X148032331Y-118573796D01*
X148147546Y-118487546D01*
X148233796Y-118372331D01*
X148284091Y-118237483D01*
X148285453Y-118224811D01*
X148312189Y-118160263D01*
X148369580Y-118120414D01*
X148384551Y-118116450D01*
X148396996Y-118113974D01*
X148458913Y-118101658D01*
X148595495Y-118045084D01*
X148650406Y-118008394D01*
X148718416Y-117962952D01*
X149207319Y-117474046D01*
X149268641Y-117440563D01*
X149338332Y-117445547D01*
X149382680Y-117474048D01*
X149466344Y-117557712D01*
X149615666Y-117649814D01*
X149782203Y-117704999D01*
X149884991Y-117715500D01*
X150685008Y-117715499D01*
X150685016Y-117715498D01*
X150685019Y-117715498D01*
X150741302Y-117709748D01*
X150787797Y-117704999D01*
X150954334Y-117649814D01*
X151103656Y-117557712D01*
X151227712Y-117433656D01*
X151319461Y-117284905D01*
X151371409Y-117238181D01*
X151440371Y-117226958D01*
X151504454Y-117254801D01*
X151530539Y-117284906D01*
X151605099Y-117405789D01*
X151622288Y-117433656D01*
X151746344Y-117557712D01*
X151755591Y-117563416D01*
X151802318Y-117615360D01*
X151814500Y-117668957D01*
X151814500Y-118590500D01*
X151794815Y-118657539D01*
X151742011Y-118703294D01*
X151690500Y-118714500D01*
X149864980Y-118714500D01*
X149762198Y-118725001D01*
X149595666Y-118780184D01*
X149595655Y-118780189D01*
X149446346Y-118872285D01*
X149446342Y-118872288D01*
X149322288Y-118996342D01*
X149322285Y-118996346D01*
X149230189Y-119145655D01*
X149230184Y-119145666D01*
X149175001Y-119312198D01*
X149164500Y-119414980D01*
X149164500Y-124085500D01*
X149144815Y-124152539D01*
X149092011Y-124198294D01*
X149040500Y-124209500D01*
X148655908Y-124209500D01*
X148588869Y-124189815D01*
X148550363Y-124145728D01*
X148548605Y-124146813D01*
X148529889Y-124116469D01*
X148452712Y-123991344D01*
X148328656Y-123867288D01*
X148179334Y-123775186D01*
X148012797Y-123720001D01*
X148012795Y-123720000D01*
X147910010Y-123709500D01*
X145609998Y-123709500D01*
X145609981Y-123709501D01*
X145507203Y-123720000D01*
X145507200Y-123720001D01*
X145340668Y-123775185D01*
X145340663Y-123775187D01*
X145191342Y-123867289D01*
X145067289Y-123991342D01*
X144975187Y-124140663D01*
X144975185Y-124140668D01*
X144956090Y-124198294D01*
X144920001Y-124307203D01*
X144920001Y-124307204D01*
X144920000Y-124307204D01*
X144909500Y-124409983D01*
X144909500Y-125510001D01*
X144909501Y-125510019D01*
X144920000Y-125612796D01*
X144920001Y-125612799D01*
X144977458Y-125786189D01*
X144974427Y-125787193D01*
X144982762Y-125842224D01*
X144954216Y-125905996D01*
X144895723Y-125944211D01*
X144859895Y-125949500D01*
X139837051Y-125949500D01*
X139770012Y-125929815D01*
X139724257Y-125877011D01*
X139714313Y-125807853D01*
X139743338Y-125744297D01*
X139773119Y-125719251D01*
X139994920Y-125585799D01*
X140279838Y-125369210D01*
X140539669Y-125123085D01*
X140771366Y-124850310D01*
X140972212Y-124554084D01*
X141139854Y-124237879D01*
X141272325Y-123905402D01*
X141368072Y-123560551D01*
X141397606Y-123380403D01*
X141425971Y-123207384D01*
X141425971Y-123207381D01*
X141425973Y-123207370D01*
X141445349Y-122849999D01*
X141425973Y-122492628D01*
X141423833Y-122479577D01*
X141368074Y-122139459D01*
X141368073Y-122139458D01*
X141368072Y-122139447D01*
X141282528Y-121831344D01*
X141272328Y-121794606D01*
X141272326Y-121794599D01*
X141263060Y-121771344D01*
X141191887Y-121592712D01*
X141139858Y-121462128D01*
X141139849Y-121462110D01*
X140972216Y-121145921D01*
X140972214Y-121145918D01*
X140972212Y-121145914D01*
X140771366Y-120849688D01*
X140771362Y-120849683D01*
X140771359Y-120849679D01*
X140539669Y-120576913D01*
X140478626Y-120519090D01*
X140279838Y-120330788D01*
X140279831Y-120330782D01*
X140279828Y-120330780D01*
X140197890Y-120268493D01*
X139994920Y-120114199D01*
X139688254Y-119929684D01*
X139688253Y-119929683D01*
X139688249Y-119929681D01*
X139688245Y-119929679D01*
X139363448Y-119779413D01*
X139363442Y-119779410D01*
X139363436Y-119779408D01*
X139193855Y-119722269D01*
X139024274Y-119665130D01*
X138773738Y-119609983D01*
X144909500Y-119609983D01*
X144909500Y-120710001D01*
X144909501Y-120710019D01*
X144920000Y-120812796D01*
X144920001Y-120812799D01*
X144975185Y-120979331D01*
X144975186Y-120979334D01*
X145067288Y-121128656D01*
X145191344Y-121252712D01*
X145340666Y-121344814D01*
X145507203Y-121399999D01*
X145609991Y-121410500D01*
X147910008Y-121410499D01*
X148012797Y-121399999D01*
X148179334Y-121344814D01*
X148328656Y-121252712D01*
X148452712Y-121128656D01*
X148544814Y-120979334D01*
X148599999Y-120812797D01*
X148610500Y-120710009D01*
X148610499Y-119609992D01*
X148608458Y-119590016D01*
X148599999Y-119507203D01*
X148599998Y-119507200D01*
X148586148Y-119465403D01*
X148544814Y-119340666D01*
X148452712Y-119191344D01*
X148328656Y-119067288D01*
X148179334Y-118975186D01*
X148012797Y-118920001D01*
X148012795Y-118920000D01*
X147910010Y-118909500D01*
X145609998Y-118909500D01*
X145609981Y-118909501D01*
X145507203Y-118920000D01*
X145507200Y-118920001D01*
X145340668Y-118975185D01*
X145340663Y-118975187D01*
X145191342Y-119067289D01*
X145067289Y-119191342D01*
X144975187Y-119340663D01*
X144975186Y-119340666D01*
X144920001Y-119507203D01*
X144920001Y-119507204D01*
X144920000Y-119507204D01*
X144909500Y-119609983D01*
X138773738Y-119609983D01*
X138674745Y-119588193D01*
X138318950Y-119549499D01*
X138318949Y-119549499D01*
X137961053Y-119549499D01*
X137961051Y-119549499D01*
X137605256Y-119588193D01*
X137255727Y-119665130D01*
X136999971Y-119751305D01*
X136916566Y-119779408D01*
X136916564Y-119779409D01*
X136916553Y-119779413D01*
X136591756Y-119929679D01*
X136591752Y-119929681D01*
X136460494Y-120008657D01*
X136285082Y-120114199D01*
X136260729Y-120132712D01*
X136000173Y-120330780D01*
X136000164Y-120330788D01*
X135740332Y-120576913D01*
X135508642Y-120849679D01*
X135508635Y-120849689D01*
X135307791Y-121145912D01*
X135307785Y-121145922D01*
X135274055Y-121209543D01*
X135225261Y-121259553D01*
X135157176Y-121275244D01*
X135091417Y-121251634D01*
X135048860Y-121196220D01*
X135040500Y-121151460D01*
X135040500Y-113569994D01*
X139205057Y-113569994D01*
X139205057Y-113570005D01*
X139224807Y-113883942D01*
X139224808Y-113883949D01*
X139283755Y-114192958D01*
X139380963Y-114492132D01*
X139380965Y-114492137D01*
X139514900Y-114776761D01*
X139514903Y-114776767D01*
X139683457Y-115042367D01*
X139683460Y-115042371D01*
X139774286Y-115152160D01*
X140737913Y-114188533D01*
X140832829Y-114319175D01*
X140960825Y-114447171D01*
X141091465Y-114542086D01*
X140124971Y-115508579D01*
X140124972Y-115508581D01*
X140367772Y-115684985D01*
X140367790Y-115684996D01*
X140643447Y-115836540D01*
X140643455Y-115836544D01*
X140935926Y-115952340D01*
X141240620Y-116030573D01*
X141240629Y-116030575D01*
X141552701Y-116069999D01*
X141552715Y-116070000D01*
X141867285Y-116070000D01*
X141867298Y-116069999D01*
X142179370Y-116030575D01*
X142179379Y-116030573D01*
X142484073Y-115952340D01*
X142776544Y-115836544D01*
X142776552Y-115836540D01*
X143052209Y-115684996D01*
X143052219Y-115684990D01*
X143295026Y-115508579D01*
X143295027Y-115508579D01*
X142328533Y-114542086D01*
X142459175Y-114447171D01*
X142587171Y-114319175D01*
X142682086Y-114188534D01*
X143645712Y-115152160D01*
X143736544Y-115042364D01*
X143905096Y-114776767D01*
X143905099Y-114776761D01*
X144039034Y-114492137D01*
X144039036Y-114492132D01*
X144136244Y-114192958D01*
X144195191Y-113883949D01*
X144195192Y-113883942D01*
X144214943Y-113570005D01*
X144214943Y-113569994D01*
X144195192Y-113256057D01*
X144195191Y-113256050D01*
X144136244Y-112947041D01*
X144039036Y-112647867D01*
X144039034Y-112647862D01*
X143905099Y-112363238D01*
X143905096Y-112363232D01*
X143736542Y-112097632D01*
X143736539Y-112097628D01*
X143645712Y-111987838D01*
X142682085Y-112951465D01*
X142587171Y-112820825D01*
X142459175Y-112692829D01*
X142328533Y-112597913D01*
X143295027Y-111631419D01*
X143295026Y-111631417D01*
X143052227Y-111455014D01*
X143052209Y-111455003D01*
X142776552Y-111303459D01*
X142776544Y-111303455D01*
X142484073Y-111187659D01*
X142179379Y-111109426D01*
X142179370Y-111109424D01*
X141867298Y-111070000D01*
X141552701Y-111070000D01*
X141240629Y-111109424D01*
X141240620Y-111109426D01*
X140935926Y-111187659D01*
X140643455Y-111303455D01*
X140643447Y-111303459D01*
X140367787Y-111455004D01*
X140367782Y-111455007D01*
X140124972Y-111631418D01*
X140124971Y-111631419D01*
X141091466Y-112597913D01*
X140960825Y-112692829D01*
X140832829Y-112820825D01*
X140737913Y-112951465D01*
X139774286Y-111987838D01*
X139774285Y-111987838D01*
X139683459Y-112097629D01*
X139683457Y-112097632D01*
X139514903Y-112363232D01*
X139514900Y-112363238D01*
X139380965Y-112647862D01*
X139380963Y-112647867D01*
X139283755Y-112947041D01*
X139224808Y-113256050D01*
X139224807Y-113256057D01*
X139205057Y-113569994D01*
X135040500Y-113569994D01*
X135040500Y-106319998D01*
X143264532Y-106319998D01*
X143264532Y-106320001D01*
X143284364Y-106546686D01*
X143284366Y-106546697D01*
X143343258Y-106766488D01*
X143343261Y-106766497D01*
X143439431Y-106972732D01*
X143439432Y-106972734D01*
X143569954Y-107159141D01*
X143730858Y-107320045D01*
X143730861Y-107320047D01*
X143917266Y-107450568D01*
X143932975Y-107457893D01*
X143985414Y-107504064D01*
X144004567Y-107571257D01*
X143984352Y-107638138D01*
X143932979Y-107682656D01*
X143917514Y-107689867D01*
X143917512Y-107689868D01*
X143844526Y-107740973D01*
X143844526Y-107740974D01*
X144461002Y-108357449D01*
X144386657Y-108377370D01*
X144278343Y-108439905D01*
X144189905Y-108528343D01*
X144127370Y-108636657D01*
X144107449Y-108711001D01*
X143490974Y-108094526D01*
X143490973Y-108094526D01*
X143439868Y-108167512D01*
X143439866Y-108167516D01*
X143343734Y-108373673D01*
X143343730Y-108373682D01*
X143284860Y-108593389D01*
X143284858Y-108593400D01*
X143265034Y-108819997D01*
X143265034Y-108820002D01*
X143284858Y-109046599D01*
X143284860Y-109046610D01*
X143343730Y-109266317D01*
X143343735Y-109266331D01*
X143439863Y-109472478D01*
X143490974Y-109545472D01*
X144107449Y-108928997D01*
X144127370Y-109003343D01*
X144189905Y-109111657D01*
X144278343Y-109200095D01*
X144386657Y-109262630D01*
X144461000Y-109282550D01*
X143844526Y-109899025D01*
X143917513Y-109950132D01*
X143917521Y-109950136D01*
X144123668Y-110046264D01*
X144123682Y-110046269D01*
X144343389Y-110105139D01*
X144343400Y-110105141D01*
X144569998Y-110124966D01*
X144570002Y-110124966D01*
X144796599Y-110105141D01*
X144796610Y-110105139D01*
X145016317Y-110046269D01*
X145016326Y-110046265D01*
X145222481Y-109950134D01*
X145235253Y-109941191D01*
X145301459Y-109918862D01*
X145369227Y-109935870D01*
X145405644Y-109968449D01*
X145412454Y-109977546D01*
X145458643Y-110012123D01*
X145527664Y-110063793D01*
X145527671Y-110063797D01*
X145662517Y-110114091D01*
X145662516Y-110114091D01*
X145669444Y-110114835D01*
X145722127Y-110120500D01*
X147417872Y-110120499D01*
X147477483Y-110114091D01*
X147612331Y-110063796D01*
X147727546Y-109977546D01*
X147813796Y-109862331D01*
X147864091Y-109727483D01*
X147870500Y-109667873D01*
X147870499Y-108495013D01*
X149005000Y-108495013D01*
X149005000Y-108770000D01*
X149842500Y-108770000D01*
X149842500Y-107795000D01*
X149705027Y-107795000D01*
X149705012Y-107795001D01*
X149602302Y-107805494D01*
X149435880Y-107860641D01*
X149435875Y-107860643D01*
X149286654Y-107952684D01*
X149162684Y-108076654D01*
X149070643Y-108225875D01*
X149070641Y-108225880D01*
X149015494Y-108392302D01*
X149015493Y-108392309D01*
X149005000Y-108495013D01*
X147870499Y-108495013D01*
X147870499Y-107972128D01*
X147864091Y-107912517D01*
X147844743Y-107860643D01*
X147813797Y-107777671D01*
X147813793Y-107777664D01*
X147727547Y-107662455D01*
X147727544Y-107662452D01*
X147612335Y-107576206D01*
X147612328Y-107576202D01*
X147477483Y-107525908D01*
X147472079Y-107524632D01*
X147411363Y-107490060D01*
X147378976Y-107428149D01*
X147385202Y-107358558D01*
X147412910Y-107316275D01*
X147570047Y-107159139D01*
X147700568Y-106972734D01*
X147796739Y-106766496D01*
X147855635Y-106546692D01*
X147875468Y-106320000D01*
X147873245Y-106294596D01*
X147855635Y-106093313D01*
X147855635Y-106093308D01*
X147796739Y-105873504D01*
X147700568Y-105667266D01*
X147570047Y-105480861D01*
X147570045Y-105480858D01*
X147409141Y-105319954D01*
X147222734Y-105189432D01*
X147222732Y-105189431D01*
X147016497Y-105093261D01*
X147016488Y-105093258D01*
X146796697Y-105034366D01*
X146796693Y-105034365D01*
X146796692Y-105034365D01*
X146796691Y-105034364D01*
X146796686Y-105034364D01*
X146570002Y-105014532D01*
X146569998Y-105014532D01*
X146343313Y-105034364D01*
X146343302Y-105034366D01*
X146123511Y-105093258D01*
X146123502Y-105093261D01*
X145917267Y-105189431D01*
X145917265Y-105189432D01*
X145730858Y-105319954D01*
X145657681Y-105393132D01*
X145596358Y-105426617D01*
X145526666Y-105421633D01*
X145482319Y-105393132D01*
X145409141Y-105319954D01*
X145222734Y-105189432D01*
X145222732Y-105189431D01*
X145016497Y-105093261D01*
X145016488Y-105093258D01*
X144796697Y-105034366D01*
X144796693Y-105034365D01*
X144796692Y-105034365D01*
X144796691Y-105034364D01*
X144796686Y-105034364D01*
X144570002Y-105014532D01*
X144569998Y-105014532D01*
X144343313Y-105034364D01*
X144343302Y-105034366D01*
X144123511Y-105093258D01*
X144123502Y-105093261D01*
X143917267Y-105189431D01*
X143917265Y-105189432D01*
X143730858Y-105319954D01*
X143569954Y-105480858D01*
X143439432Y-105667265D01*
X143439431Y-105667267D01*
X143343261Y-105873502D01*
X143343258Y-105873511D01*
X143284366Y-106093302D01*
X143284364Y-106093313D01*
X143264532Y-106319998D01*
X135040500Y-106319998D01*
X135040500Y-101569994D01*
X139205057Y-101569994D01*
X139205057Y-101570005D01*
X139224807Y-101883942D01*
X139224808Y-101883949D01*
X139283755Y-102192958D01*
X139380963Y-102492132D01*
X139380965Y-102492137D01*
X139514900Y-102776761D01*
X139514903Y-102776767D01*
X139683457Y-103042367D01*
X139683460Y-103042371D01*
X139774286Y-103152160D01*
X140737913Y-102188533D01*
X140832829Y-102319175D01*
X140960825Y-102447171D01*
X141091465Y-102542086D01*
X140124971Y-103508579D01*
X140124972Y-103508581D01*
X140367772Y-103684985D01*
X140367790Y-103684996D01*
X140643447Y-103836540D01*
X140643455Y-103836544D01*
X140935926Y-103952340D01*
X141240620Y-104030573D01*
X141240629Y-104030575D01*
X141552701Y-104069999D01*
X141552715Y-104070000D01*
X141867285Y-104070000D01*
X141867298Y-104069999D01*
X142179370Y-104030575D01*
X142179379Y-104030573D01*
X142484073Y-103952340D01*
X142776544Y-103836544D01*
X142776552Y-103836540D01*
X143052209Y-103684996D01*
X143052219Y-103684990D01*
X143295026Y-103508579D01*
X143295027Y-103508579D01*
X142328533Y-102542086D01*
X142459175Y-102447171D01*
X142587171Y-102319175D01*
X142682086Y-102188534D01*
X143645712Y-103152160D01*
X143736544Y-103042364D01*
X143905096Y-102776767D01*
X143905099Y-102776761D01*
X144039034Y-102492137D01*
X144039036Y-102492132D01*
X144136244Y-102192958D01*
X144195191Y-101883949D01*
X144195192Y-101883942D01*
X144214943Y-101570005D01*
X144214943Y-101569994D01*
X144195192Y-101256057D01*
X144195191Y-101256050D01*
X144136244Y-100947041D01*
X144039036Y-100647867D01*
X144039034Y-100647862D01*
X143905099Y-100363238D01*
X143905096Y-100363232D01*
X143736542Y-100097632D01*
X143736539Y-100097628D01*
X143645712Y-99987838D01*
X142682085Y-100951465D01*
X142587171Y-100820825D01*
X142459175Y-100692829D01*
X142328533Y-100597913D01*
X143295027Y-99631419D01*
X143295026Y-99631417D01*
X143052227Y-99455014D01*
X143052209Y-99455003D01*
X142776552Y-99303459D01*
X142776544Y-99303455D01*
X142484073Y-99187659D01*
X142179379Y-99109426D01*
X142179370Y-99109424D01*
X141867298Y-99070000D01*
X141552701Y-99070000D01*
X141240629Y-99109424D01*
X141240620Y-99109426D01*
X140935926Y-99187659D01*
X140643455Y-99303455D01*
X140643447Y-99303459D01*
X140367787Y-99455004D01*
X140367782Y-99455007D01*
X140124972Y-99631418D01*
X140124971Y-99631419D01*
X141091466Y-100597913D01*
X140960825Y-100692829D01*
X140832829Y-100820825D01*
X140737913Y-100951465D01*
X139774286Y-99987838D01*
X139774285Y-99987838D01*
X139683459Y-100097629D01*
X139683457Y-100097632D01*
X139514903Y-100363232D01*
X139514900Y-100363238D01*
X139380965Y-100647862D01*
X139380963Y-100647867D01*
X139283755Y-100947041D01*
X139224808Y-101256050D01*
X139224807Y-101256057D01*
X139205057Y-101569994D01*
X135040500Y-101569994D01*
X135040500Y-88175803D01*
X136720000Y-88175803D01*
X136720000Y-88990000D01*
X138220000Y-88990000D01*
X138220000Y-89490000D01*
X136720001Y-89490000D01*
X136720001Y-90304197D01*
X136730400Y-90436332D01*
X136785377Y-90654519D01*
X136878428Y-90859374D01*
X136878431Y-90859380D01*
X137006559Y-91044323D01*
X137006569Y-91044335D01*
X137165664Y-91203430D01*
X137165676Y-91203440D01*
X137350619Y-91331568D01*
X137350625Y-91331571D01*
X137555480Y-91424622D01*
X137773667Y-91479599D01*
X137905810Y-91489999D01*
X138469999Y-91489999D01*
X138470000Y-91489998D01*
X138470000Y-90673012D01*
X138527007Y-90705925D01*
X138654174Y-90740000D01*
X138785826Y-90740000D01*
X138912993Y-90705925D01*
X138970000Y-90673012D01*
X138970000Y-91489999D01*
X139534182Y-91489999D01*
X139534197Y-91489998D01*
X139666332Y-91479599D01*
X139884519Y-91424622D01*
X140089374Y-91331571D01*
X140089380Y-91331568D01*
X140274323Y-91203440D01*
X140274335Y-91203430D01*
X140433430Y-91044335D01*
X140433440Y-91044323D01*
X140561568Y-90859380D01*
X140561571Y-90859374D01*
X140654622Y-90654519D01*
X140709599Y-90436332D01*
X140719999Y-90304196D01*
X140720000Y-90304184D01*
X140720000Y-89490000D01*
X139220000Y-89490000D01*
X139220000Y-88990000D01*
X140719999Y-88990000D01*
X140719999Y-88175817D01*
X140719998Y-88175802D01*
X140709599Y-88043667D01*
X140654622Y-87825480D01*
X140561571Y-87620625D01*
X140561568Y-87620619D01*
X140433440Y-87435676D01*
X140433430Y-87435664D01*
X140274335Y-87276569D01*
X140274323Y-87276559D01*
X140089380Y-87148431D01*
X140089374Y-87148428D01*
X139884519Y-87055377D01*
X139666332Y-87000400D01*
X139534196Y-86990000D01*
X138970000Y-86990000D01*
X138970000Y-87806988D01*
X138912993Y-87774075D01*
X138785826Y-87740000D01*
X138654174Y-87740000D01*
X138527007Y-87774075D01*
X138470000Y-87806988D01*
X138470000Y-86990000D01*
X137905817Y-86990000D01*
X137905802Y-86990001D01*
X137773667Y-87000400D01*
X137555480Y-87055377D01*
X137350625Y-87148428D01*
X137350619Y-87148431D01*
X137165676Y-87276559D01*
X137165664Y-87276569D01*
X137006569Y-87435664D01*
X137006559Y-87435676D01*
X136878431Y-87620619D01*
X136878428Y-87620625D01*
X136785377Y-87825480D01*
X136730400Y-88043667D01*
X136720000Y-88175803D01*
X135040500Y-88175803D01*
X135040500Y-81748540D01*
X135060185Y-81681501D01*
X135112989Y-81635746D01*
X135182147Y-81625802D01*
X135245703Y-81654827D01*
X135274055Y-81690457D01*
X135307784Y-81754077D01*
X135307787Y-81754082D01*
X135307789Y-81754085D01*
X135436813Y-81944382D01*
X135508634Y-82050309D01*
X135508641Y-82050319D01*
X135644268Y-82209991D01*
X135740332Y-82323086D01*
X136000163Y-82569211D01*
X136285081Y-82785800D01*
X136591747Y-82970315D01*
X136591749Y-82970316D01*
X136591751Y-82970317D01*
X136591755Y-82970319D01*
X136823619Y-83077590D01*
X136916565Y-83120591D01*
X137255726Y-83234868D01*
X137605254Y-83311805D01*
X137961052Y-83350500D01*
X137961058Y-83350500D01*
X138318942Y-83350500D01*
X138318948Y-83350500D01*
X138674746Y-83311805D01*
X139024274Y-83234868D01*
X139363435Y-83120591D01*
X139688253Y-82970315D01*
X139994919Y-82785800D01*
X140279837Y-82569211D01*
X140539668Y-82323086D01*
X140771365Y-82050311D01*
X140972211Y-81754085D01*
X141139853Y-81437880D01*
X141272324Y-81105403D01*
X141368071Y-80760552D01*
X141393929Y-80602827D01*
X141425970Y-80407385D01*
X141425970Y-80407382D01*
X141425972Y-80407371D01*
X141445136Y-80053903D01*
X141445348Y-80050002D01*
X141445348Y-80049997D01*
X141443179Y-80009986D01*
X142880001Y-80009986D01*
X142890494Y-80112697D01*
X142945641Y-80279119D01*
X142945643Y-80279124D01*
X143037684Y-80428345D01*
X143161654Y-80552315D01*
X143310875Y-80644356D01*
X143310880Y-80644358D01*
X143477302Y-80699505D01*
X143477309Y-80699506D01*
X143580019Y-80709999D01*
X144479999Y-80709999D01*
X144980000Y-80709999D01*
X145879972Y-80709999D01*
X145879986Y-80709998D01*
X145982697Y-80699505D01*
X146149119Y-80644358D01*
X146149124Y-80644356D01*
X146298345Y-80552315D01*
X146422315Y-80428345D01*
X146514356Y-80279124D01*
X146514358Y-80279119D01*
X146569505Y-80112697D01*
X146569506Y-80112690D01*
X146579999Y-80009986D01*
X146580000Y-80009973D01*
X146580000Y-79797500D01*
X144980000Y-79797500D01*
X144980000Y-80709999D01*
X144479999Y-80709999D01*
X144480000Y-80709998D01*
X144480000Y-79797500D01*
X142880001Y-79797500D01*
X142880001Y-80009986D01*
X141443179Y-80009986D01*
X141437837Y-79911467D01*
X141425972Y-79692629D01*
X141425753Y-79691296D01*
X141395704Y-79508004D01*
X144430000Y-79508004D01*
X144430000Y-79586996D01*
X144450444Y-79663296D01*
X144489940Y-79731705D01*
X144545795Y-79787560D01*
X144614204Y-79827056D01*
X144690504Y-79847500D01*
X144769496Y-79847500D01*
X144845796Y-79827056D01*
X144914205Y-79787560D01*
X144970060Y-79731705D01*
X145009556Y-79663296D01*
X145030000Y-79586996D01*
X145030000Y-79508004D01*
X145009556Y-79431704D01*
X144970060Y-79363295D01*
X144914205Y-79307440D01*
X144896988Y-79297500D01*
X144980000Y-79297500D01*
X146579999Y-79297500D01*
X146579999Y-79085028D01*
X146579998Y-79085013D01*
X146569505Y-78982302D01*
X146514358Y-78815880D01*
X146514356Y-78815875D01*
X146422315Y-78666654D01*
X146298345Y-78542684D01*
X146277780Y-78529999D01*
X154379364Y-78529999D01*
X154379364Y-78530000D01*
X155276988Y-78530000D01*
X155244075Y-78587007D01*
X155210000Y-78714174D01*
X155210000Y-78845826D01*
X155244075Y-78972993D01*
X155276988Y-79030000D01*
X154379364Y-79030000D01*
X154436567Y-79243486D01*
X154436570Y-79243492D01*
X154536399Y-79457578D01*
X154671894Y-79651082D01*
X154838917Y-79818105D01*
X155032421Y-79953600D01*
X155246507Y-80053429D01*
X155246516Y-80053433D01*
X155460000Y-80110634D01*
X155460000Y-79213012D01*
X155517007Y-79245925D01*
X155644174Y-79280000D01*
X155775826Y-79280000D01*
X155902993Y-79245925D01*
X155960000Y-79213012D01*
X155960000Y-80110633D01*
X156173483Y-80053433D01*
X156173492Y-80053429D01*
X156387578Y-79953600D01*
X156581082Y-79818105D01*
X156748105Y-79651082D01*
X156878119Y-79465405D01*
X156932696Y-79421781D01*
X157002195Y-79414588D01*
X157064549Y-79446110D01*
X157081269Y-79465405D01*
X157211505Y-79651401D01*
X157378599Y-79818495D01*
X157460063Y-79875537D01*
X157572165Y-79954032D01*
X157572167Y-79954033D01*
X157572170Y-79954035D01*
X157786337Y-80053903D01*
X158014592Y-80115063D01*
X158191034Y-80130500D01*
X158249999Y-80135659D01*
X158250000Y-80135659D01*
X158250001Y-80135659D01*
X158308966Y-80130500D01*
X158485408Y-80115063D01*
X158713663Y-80053903D01*
X158927830Y-79954035D01*
X159121401Y-79818495D01*
X159288495Y-79651401D01*
X159418425Y-79465842D01*
X159473002Y-79422217D01*
X159542500Y-79415023D01*
X159604855Y-79446546D01*
X159621575Y-79465842D01*
X159751281Y-79651082D01*
X159751505Y-79651401D01*
X159918599Y-79818495D01*
X160000063Y-79875537D01*
X160112165Y-79954032D01*
X160112167Y-79954033D01*
X160112170Y-79954035D01*
X160326337Y-80053903D01*
X160554592Y-80115063D01*
X160731034Y-80130500D01*
X160789999Y-80135659D01*
X160790000Y-80135659D01*
X160790001Y-80135659D01*
X160848966Y-80130500D01*
X161025408Y-80115063D01*
X161253663Y-80053903D01*
X161467830Y-79954035D01*
X161661401Y-79818495D01*
X161783329Y-79696566D01*
X161844648Y-79663084D01*
X161914340Y-79668068D01*
X161970274Y-79709939D01*
X161987189Y-79740917D01*
X162036202Y-79872328D01*
X162036206Y-79872335D01*
X162122452Y-79987544D01*
X162122455Y-79987547D01*
X162237664Y-80073793D01*
X162237671Y-80073797D01*
X162372517Y-80124091D01*
X162372516Y-80124091D01*
X162379444Y-80124835D01*
X162432127Y-80130500D01*
X164227872Y-80130499D01*
X164287483Y-80124091D01*
X164422331Y-80073796D01*
X164537546Y-79987546D01*
X164623796Y-79872331D01*
X164674091Y-79737483D01*
X164680500Y-79677873D01*
X164680499Y-77882128D01*
X164674091Y-77822517D01*
X164672810Y-77819083D01*
X164623797Y-77687671D01*
X164623793Y-77687664D01*
X164537547Y-77572455D01*
X164537544Y-77572452D01*
X164422335Y-77486206D01*
X164422328Y-77486202D01*
X164287482Y-77435908D01*
X164287483Y-77435908D01*
X164227883Y-77429501D01*
X164227881Y-77429500D01*
X164227873Y-77429500D01*
X164227864Y-77429500D01*
X162432129Y-77429500D01*
X162432123Y-77429501D01*
X162372516Y-77435908D01*
X162237671Y-77486202D01*
X162237664Y-77486206D01*
X162122455Y-77572452D01*
X162122452Y-77572455D01*
X162036206Y-77687664D01*
X162036203Y-77687669D01*
X161987189Y-77819083D01*
X161945317Y-77875016D01*
X161879853Y-77899433D01*
X161811580Y-77884581D01*
X161783326Y-77863430D01*
X161661402Y-77741506D01*
X161661395Y-77741501D01*
X161652376Y-77735186D01*
X161584518Y-77687671D01*
X161467834Y-77605967D01*
X161467830Y-77605965D01*
X161467828Y-77605964D01*
X161253663Y-77506097D01*
X161253659Y-77506096D01*
X161253655Y-77506094D01*
X161025413Y-77444938D01*
X161025403Y-77444936D01*
X160790001Y-77424341D01*
X160789999Y-77424341D01*
X160554596Y-77444936D01*
X160554586Y-77444938D01*
X160326344Y-77506094D01*
X160326335Y-77506098D01*
X160112171Y-77605964D01*
X160112169Y-77605965D01*
X159918597Y-77741505D01*
X159751505Y-77908597D01*
X159621575Y-78094158D01*
X159566998Y-78137783D01*
X159497500Y-78144977D01*
X159435145Y-78113454D01*
X159418425Y-78094158D01*
X159288494Y-77908597D01*
X159121402Y-77741506D01*
X159121395Y-77741501D01*
X159112376Y-77735186D01*
X159044518Y-77687671D01*
X158927834Y-77605967D01*
X158927830Y-77605965D01*
X158927828Y-77605964D01*
X158713663Y-77506097D01*
X158713659Y-77506096D01*
X158713655Y-77506094D01*
X158485413Y-77444938D01*
X158485403Y-77444936D01*
X158250001Y-77424341D01*
X158249999Y-77424341D01*
X158014596Y-77444936D01*
X158014586Y-77444938D01*
X157786344Y-77506094D01*
X157786335Y-77506098D01*
X157572171Y-77605964D01*
X157572169Y-77605965D01*
X157378597Y-77741505D01*
X157211508Y-77908594D01*
X157081269Y-78094595D01*
X157026692Y-78138219D01*
X156957193Y-78145412D01*
X156894839Y-78113890D01*
X156878119Y-78094594D01*
X156748113Y-77908926D01*
X156748108Y-77908920D01*
X156581082Y-77741894D01*
X156387578Y-77606399D01*
X156173492Y-77506570D01*
X156173486Y-77506567D01*
X155960000Y-77449364D01*
X155960000Y-78346988D01*
X155902993Y-78314075D01*
X155775826Y-78280000D01*
X155644174Y-78280000D01*
X155517007Y-78314075D01*
X155460000Y-78346988D01*
X155460000Y-77449364D01*
X155459999Y-77449364D01*
X155246513Y-77506567D01*
X155246507Y-77506570D01*
X155032422Y-77606399D01*
X155032420Y-77606400D01*
X154838926Y-77741886D01*
X154838920Y-77741891D01*
X154671891Y-77908920D01*
X154671886Y-77908926D01*
X154536400Y-78102420D01*
X154536399Y-78102422D01*
X154436570Y-78316507D01*
X154436567Y-78316513D01*
X154379364Y-78529999D01*
X146277780Y-78529999D01*
X146149124Y-78450643D01*
X146149119Y-78450641D01*
X145982697Y-78395494D01*
X145982690Y-78395493D01*
X145879986Y-78385000D01*
X144980000Y-78385000D01*
X144980000Y-79297500D01*
X144896988Y-79297500D01*
X144845796Y-79267944D01*
X144769496Y-79247500D01*
X144690504Y-79247500D01*
X144614204Y-79267944D01*
X144545795Y-79307440D01*
X144489940Y-79363295D01*
X144450444Y-79431704D01*
X144430000Y-79508004D01*
X141395704Y-79508004D01*
X141368073Y-79339460D01*
X141368072Y-79339459D01*
X141368071Y-79339448D01*
X141319591Y-79164838D01*
X141297428Y-79085013D01*
X142880000Y-79085013D01*
X142880000Y-79297500D01*
X144480000Y-79297500D01*
X144480000Y-78385000D01*
X143580028Y-78385000D01*
X143580012Y-78385001D01*
X143477302Y-78395494D01*
X143310880Y-78450641D01*
X143310875Y-78450643D01*
X143161654Y-78542684D01*
X143037684Y-78666654D01*
X142945643Y-78815875D01*
X142945641Y-78815880D01*
X142890494Y-78982302D01*
X142890493Y-78982309D01*
X142880000Y-79085013D01*
X141297428Y-79085013D01*
X141272327Y-78994607D01*
X141272325Y-78994600D01*
X141246659Y-78930184D01*
X141201115Y-78815875D01*
X141139857Y-78662129D01*
X141139848Y-78662111D01*
X140972215Y-78345922D01*
X140972213Y-78345919D01*
X140972211Y-78345915D01*
X140771365Y-78049689D01*
X140771361Y-78049684D01*
X140771358Y-78049680D01*
X140539668Y-77776914D01*
X140503533Y-77742685D01*
X140279837Y-77530789D01*
X140279830Y-77530783D01*
X140279827Y-77530781D01*
X140166902Y-77444938D01*
X139994919Y-77314200D01*
X139773122Y-77180749D01*
X139725829Y-77129321D01*
X139713846Y-77060486D01*
X139740981Y-76996101D01*
X139798618Y-76956607D01*
X139837052Y-76950500D01*
X179346353Y-76950500D01*
X179413392Y-76970185D01*
G37*
%TD.AperFunction*%
%TA.AperFunction,Conductor*%
G36*
X175675570Y-112970185D02*
G01*
X175696212Y-112986819D01*
X176060555Y-113351162D01*
X176094040Y-113412485D01*
X176089056Y-113482177D01*
X176047184Y-113538110D01*
X175981720Y-113562527D01*
X175933871Y-113556549D01*
X175847700Y-113527995D01*
X175847690Y-113527993D01*
X175744986Y-113517500D01*
X175470000Y-113517500D01*
X175470000Y-114731000D01*
X175450315Y-114798039D01*
X175397511Y-114843794D01*
X175346000Y-114855000D01*
X173995001Y-114855000D01*
X173995001Y-114992486D01*
X174005494Y-115095197D01*
X174060641Y-115261619D01*
X174060643Y-115261624D01*
X174152684Y-115410845D01*
X174276655Y-115534816D01*
X174276659Y-115534819D01*
X174279656Y-115536668D01*
X174281279Y-115538472D01*
X174282323Y-115539298D01*
X174282181Y-115539476D01*
X174326381Y-115588616D01*
X174337602Y-115657579D01*
X174309759Y-115721661D01*
X174279661Y-115747741D01*
X174276349Y-115749783D01*
X174276343Y-115749788D01*
X174152289Y-115873842D01*
X174075292Y-115998675D01*
X174023344Y-116045399D01*
X173954381Y-116056622D01*
X173903782Y-116038572D01*
X173769522Y-115954211D01*
X173734625Y-115942000D01*
X173599254Y-115894631D01*
X173599249Y-115894630D01*
X173420004Y-115874435D01*
X173419996Y-115874435D01*
X173240750Y-115894630D01*
X173240745Y-115894631D01*
X173070476Y-115954211D01*
X172917737Y-116050184D01*
X172790184Y-116177737D01*
X172694211Y-116330476D01*
X172649255Y-116458955D01*
X172608533Y-116515731D01*
X172543580Y-116541478D01*
X172532213Y-116542000D01*
X172302621Y-116542000D01*
X172235582Y-116522315D01*
X172203667Y-116492727D01*
X172080979Y-116330261D01*
X171916562Y-116180376D01*
X171916560Y-116180374D01*
X171727404Y-116063254D01*
X171727398Y-116063251D01*
X171591651Y-116010663D01*
X171532784Y-115987858D01*
X171477385Y-115945286D01*
X171453794Y-115879519D01*
X171469505Y-115811439D01*
X171519529Y-115762660D01*
X171532786Y-115756605D01*
X171727177Y-115681297D01*
X171727181Y-115681295D01*
X171843326Y-115609379D01*
X171236448Y-115002500D01*
X171242661Y-115002500D01*
X171344394Y-114975241D01*
X171435606Y-114922580D01*
X171510080Y-114848106D01*
X171562741Y-114756894D01*
X171590000Y-114655161D01*
X171590000Y-114648947D01*
X172198861Y-115257808D01*
X172214631Y-115236925D01*
X172214633Y-115236922D01*
X172313759Y-115037850D01*
X172374621Y-114823939D01*
X172395141Y-114602500D01*
X172395141Y-114602499D01*
X172391686Y-114565218D01*
X175020000Y-114565218D01*
X175020000Y-114644782D01*
X175050448Y-114718291D01*
X175106709Y-114774552D01*
X175180218Y-114805000D01*
X175259782Y-114805000D01*
X175333291Y-114774552D01*
X175389552Y-114718291D01*
X175420000Y-114644782D01*
X175420000Y-114565218D01*
X175389552Y-114491709D01*
X175333291Y-114435448D01*
X175259782Y-114405000D01*
X175180218Y-114405000D01*
X175106709Y-114435448D01*
X175050448Y-114491709D01*
X175020000Y-114565218D01*
X172391686Y-114565218D01*
X172374621Y-114381060D01*
X172328089Y-114217513D01*
X173995000Y-114217513D01*
X173995000Y-114355000D01*
X174970000Y-114355000D01*
X174970000Y-113517500D01*
X174695029Y-113517500D01*
X174695012Y-113517501D01*
X174592302Y-113527994D01*
X174425880Y-113583141D01*
X174425875Y-113583143D01*
X174276654Y-113675184D01*
X174152684Y-113799154D01*
X174060643Y-113948375D01*
X174060641Y-113948380D01*
X174005494Y-114114802D01*
X174005493Y-114114809D01*
X173995000Y-114217513D01*
X172328089Y-114217513D01*
X172313759Y-114167149D01*
X172214635Y-113968080D01*
X172214630Y-113968072D01*
X172198860Y-113947190D01*
X171590000Y-114556051D01*
X171590000Y-114549839D01*
X171562741Y-114448106D01*
X171510080Y-114356894D01*
X171435606Y-114282420D01*
X171344394Y-114229759D01*
X171242661Y-114202500D01*
X171236448Y-114202500D01*
X171843327Y-113595619D01*
X171727178Y-113523702D01*
X171727177Y-113523701D01*
X171519804Y-113443365D01*
X171301193Y-113402500D01*
X171078807Y-113402500D01*
X170860195Y-113443365D01*
X170652824Y-113523700D01*
X170652823Y-113523701D01*
X170536671Y-113595619D01*
X171143553Y-114202500D01*
X171137339Y-114202500D01*
X171035606Y-114229759D01*
X170944394Y-114282420D01*
X170869920Y-114356894D01*
X170817259Y-114448106D01*
X170790000Y-114549839D01*
X170790000Y-114556053D01*
X170181138Y-113947191D01*
X170181137Y-113947191D01*
X170165368Y-113968074D01*
X170066240Y-114167149D01*
X170005378Y-114381060D01*
X169984859Y-114602499D01*
X169984859Y-114602500D01*
X170005378Y-114823939D01*
X170066240Y-115037850D01*
X170165369Y-115236928D01*
X170181137Y-115257808D01*
X170181138Y-115257808D01*
X170790000Y-114648946D01*
X170790000Y-114655161D01*
X170817259Y-114756894D01*
X170869920Y-114848106D01*
X170944394Y-114922580D01*
X171035606Y-114975241D01*
X171137339Y-115002500D01*
X171143553Y-115002500D01*
X170536672Y-115609379D01*
X170536672Y-115609380D01*
X170652821Y-115681297D01*
X170652822Y-115681298D01*
X170847213Y-115756605D01*
X170902614Y-115799178D01*
X170926205Y-115864945D01*
X170910494Y-115933025D01*
X170860470Y-115981804D01*
X170847213Y-115987859D01*
X170652601Y-116063251D01*
X170652595Y-116063254D01*
X170463439Y-116180374D01*
X170463437Y-116180376D01*
X170299020Y-116330261D01*
X170164943Y-116507808D01*
X170164938Y-116507816D01*
X170065775Y-116706961D01*
X170065769Y-116706976D01*
X170004885Y-116920962D01*
X170004885Y-116920964D01*
X169995470Y-117022560D01*
X169969683Y-117087497D01*
X169960433Y-117094122D01*
X169983581Y-117139754D01*
X169985142Y-117150981D01*
X170004885Y-117364035D01*
X170004885Y-117364037D01*
X170065769Y-117578023D01*
X170065775Y-117578038D01*
X170164938Y-117777183D01*
X170164943Y-117777191D01*
X170299020Y-117954738D01*
X170463433Y-118104620D01*
X170463435Y-118104621D01*
X170463438Y-118104624D01*
X170530778Y-118146318D01*
X170577412Y-118198343D01*
X170589500Y-118251744D01*
X170589500Y-119469699D01*
X170569815Y-119536738D01*
X170517011Y-119582493D01*
X170504507Y-119587403D01*
X170496624Y-119590016D01*
X170420668Y-119615185D01*
X170420663Y-119615187D01*
X170271342Y-119707289D01*
X170147289Y-119831342D01*
X170055187Y-119980663D01*
X170055185Y-119980668D01*
X170027640Y-120063793D01*
X170000001Y-120147203D01*
X170000001Y-120147204D01*
X170000000Y-120147204D01*
X169989500Y-120249983D01*
X169989500Y-121050001D01*
X169989501Y-121050019D01*
X170000000Y-121152796D01*
X170000001Y-121152799D01*
X170040576Y-121275244D01*
X170055186Y-121319334D01*
X170143250Y-121462110D01*
X170147289Y-121468657D01*
X170240951Y-121562319D01*
X170274436Y-121623642D01*
X170269452Y-121693334D01*
X170240951Y-121737681D01*
X170147289Y-121831342D01*
X170055187Y-121980663D01*
X170055186Y-121980666D01*
X170000001Y-122147203D01*
X170000001Y-122147204D01*
X170000000Y-122147204D01*
X169989500Y-122249983D01*
X169989500Y-123050001D01*
X169989501Y-123050019D01*
X170000000Y-123152796D01*
X170000001Y-123152799D01*
X170025896Y-123230943D01*
X170055186Y-123319334D01*
X170092854Y-123380404D01*
X170111294Y-123447796D01*
X170090371Y-123514459D01*
X170036729Y-123559229D01*
X169987315Y-123569500D01*
X165310098Y-123569500D01*
X165243059Y-123549815D01*
X165222417Y-123533181D01*
X164786819Y-123097583D01*
X164753334Y-123036260D01*
X164750500Y-123009902D01*
X164750500Y-122278337D01*
X164770185Y-122211298D01*
X164822989Y-122165543D01*
X164892147Y-122155599D01*
X164955703Y-122184624D01*
X164962181Y-122190656D01*
X165033123Y-122261598D01*
X165212361Y-122387102D01*
X165410670Y-122479575D01*
X165622023Y-122536207D01*
X165804926Y-122552208D01*
X165839998Y-122555277D01*
X165840000Y-122555277D01*
X165840002Y-122555277D01*
X165868254Y-122552805D01*
X166057977Y-122536207D01*
X166269330Y-122479575D01*
X166467639Y-122387102D01*
X166646877Y-122261598D01*
X166801598Y-122106877D01*
X166927102Y-121927639D01*
X167019575Y-121729330D01*
X167076207Y-121517977D01*
X167095277Y-121300000D01*
X167076207Y-121082023D01*
X167019575Y-120870670D01*
X166927102Y-120672362D01*
X166927100Y-120672359D01*
X166927099Y-120672357D01*
X166801599Y-120493124D01*
X166746319Y-120437844D01*
X166646877Y-120338402D01*
X166467639Y-120212898D01*
X166467640Y-120212898D01*
X166467638Y-120212897D01*
X166368484Y-120166661D01*
X166269330Y-120120425D01*
X166269326Y-120120424D01*
X166269322Y-120120422D01*
X166057977Y-120063793D01*
X165840002Y-120044723D01*
X165839998Y-120044723D01*
X165694682Y-120057436D01*
X165622023Y-120063793D01*
X165622020Y-120063793D01*
X165410677Y-120120422D01*
X165410668Y-120120426D01*
X165212361Y-120212898D01*
X165212357Y-120212900D01*
X165033121Y-120338402D01*
X164962181Y-120409343D01*
X164900858Y-120442828D01*
X164831166Y-120437844D01*
X164775233Y-120395972D01*
X164750816Y-120330508D01*
X164750500Y-120321662D01*
X164750500Y-117579816D01*
X164770185Y-117512777D01*
X164822989Y-117467022D01*
X164892147Y-117457078D01*
X164955703Y-117486103D01*
X164958038Y-117488179D01*
X165096311Y-117614232D01*
X165115937Y-117632123D01*
X165115939Y-117632125D01*
X165305095Y-117749245D01*
X165305096Y-117749245D01*
X165305099Y-117749247D01*
X165512560Y-117829618D01*
X165731257Y-117870500D01*
X165731259Y-117870500D01*
X165953741Y-117870500D01*
X165953743Y-117870500D01*
X166172440Y-117829618D01*
X166379901Y-117749247D01*
X166569062Y-117632124D01*
X166729829Y-117485565D01*
X166733479Y-117482238D01*
X166733483Y-117482234D01*
X166856167Y-117319772D01*
X166912276Y-117278137D01*
X166955121Y-117270500D01*
X167260274Y-117270500D01*
X167327313Y-117290185D01*
X167365811Y-117329401D01*
X167454788Y-117473656D01*
X167578844Y-117597712D01*
X167728166Y-117689814D01*
X167894703Y-117744999D01*
X167997491Y-117755500D01*
X169047508Y-117755499D01*
X169047516Y-117755498D01*
X169047519Y-117755498D01*
X169103802Y-117749748D01*
X169150297Y-117744999D01*
X169316834Y-117689814D01*
X169466156Y-117597712D01*
X169590212Y-117473656D01*
X169682314Y-117324334D01*
X169737499Y-117157797D01*
X169738313Y-117149824D01*
X169764704Y-117085135D01*
X169773252Y-117079131D01*
X169750306Y-117034925D01*
X169747999Y-117011127D01*
X169747999Y-116279992D01*
X169737499Y-116177203D01*
X169682314Y-116010666D01*
X169590212Y-115861344D01*
X169466156Y-115737288D01*
X169462842Y-115735243D01*
X169461046Y-115733248D01*
X169460489Y-115732807D01*
X169460564Y-115732711D01*
X169416118Y-115683297D01*
X169404897Y-115614334D01*
X169432740Y-115550252D01*
X169462848Y-115524165D01*
X169465842Y-115522318D01*
X169589815Y-115398345D01*
X169681856Y-115249124D01*
X169681858Y-115249119D01*
X169737005Y-115082697D01*
X169737006Y-115082690D01*
X169747499Y-114979986D01*
X169747500Y-114979973D01*
X169747500Y-114842500D01*
X167297501Y-114842500D01*
X167297501Y-114979986D01*
X167307994Y-115082697D01*
X167363141Y-115249119D01*
X167363143Y-115249124D01*
X167455184Y-115398345D01*
X167579155Y-115522316D01*
X167579159Y-115522319D01*
X167582156Y-115524168D01*
X167583779Y-115525972D01*
X167584823Y-115526798D01*
X167584681Y-115526976D01*
X167628881Y-115576116D01*
X167640102Y-115645079D01*
X167612259Y-115709161D01*
X167582161Y-115735241D01*
X167578849Y-115737283D01*
X167578843Y-115737288D01*
X167454789Y-115861342D01*
X167434256Y-115894632D01*
X167376015Y-115989057D01*
X167362729Y-116010597D01*
X167310781Y-116057321D01*
X167257190Y-116069500D01*
X166955121Y-116069500D01*
X166888082Y-116049815D01*
X166856167Y-116020227D01*
X166850083Y-116012171D01*
X166790315Y-115933025D01*
X166733479Y-115857761D01*
X166569062Y-115707876D01*
X166569060Y-115707874D01*
X166379904Y-115590754D01*
X166379895Y-115590750D01*
X166275356Y-115550252D01*
X166185975Y-115515625D01*
X166130575Y-115473054D01*
X166106984Y-115407288D01*
X166122695Y-115339207D01*
X166172719Y-115290428D01*
X166185966Y-115284377D01*
X166379901Y-115209247D01*
X166569062Y-115092124D01*
X166729716Y-114945668D01*
X166733479Y-114942238D01*
X166804090Y-114848735D01*
X166867558Y-114764689D01*
X166966729Y-114565528D01*
X166970374Y-114552718D01*
X168322500Y-114552718D01*
X168322500Y-114632282D01*
X168352948Y-114705791D01*
X168409209Y-114762052D01*
X168482718Y-114792500D01*
X168562282Y-114792500D01*
X168635791Y-114762052D01*
X168692052Y-114705791D01*
X168722500Y-114632282D01*
X168722500Y-114552718D01*
X168692052Y-114479209D01*
X168635791Y-114422948D01*
X168562282Y-114392500D01*
X168482718Y-114392500D01*
X168409209Y-114422948D01*
X168352948Y-114479209D01*
X168322500Y-114552718D01*
X166970374Y-114552718D01*
X167027615Y-114351536D01*
X167041192Y-114205013D01*
X167297500Y-114205013D01*
X167297500Y-114342500D01*
X168272500Y-114342500D01*
X168772500Y-114342500D01*
X169747499Y-114342500D01*
X169747499Y-114205028D01*
X169747498Y-114205013D01*
X169737005Y-114102302D01*
X169681858Y-113935880D01*
X169681856Y-113935875D01*
X169589815Y-113786654D01*
X169465845Y-113662684D01*
X169316624Y-113570643D01*
X169316619Y-113570641D01*
X169150197Y-113515494D01*
X169150190Y-113515493D01*
X169047486Y-113505000D01*
X168772500Y-113505000D01*
X168772500Y-114342500D01*
X168272500Y-114342500D01*
X168272500Y-113505000D01*
X167997529Y-113505000D01*
X167997512Y-113505001D01*
X167894802Y-113515494D01*
X167728380Y-113570641D01*
X167728375Y-113570643D01*
X167579154Y-113662684D01*
X167455184Y-113786654D01*
X167363143Y-113935875D01*
X167363141Y-113935880D01*
X167307994Y-114102302D01*
X167307993Y-114102309D01*
X167297500Y-114205013D01*
X167041192Y-114205013D01*
X167048143Y-114130000D01*
X167045576Y-114102302D01*
X167027615Y-113908464D01*
X167027614Y-113908462D01*
X167020639Y-113883949D01*
X166966729Y-113694472D01*
X166962682Y-113686344D01*
X166867561Y-113495316D01*
X166867556Y-113495308D01*
X166733479Y-113317761D01*
X166567155Y-113166137D01*
X166530873Y-113106426D01*
X166532634Y-113036578D01*
X166571877Y-112978771D01*
X166636144Y-112951356D01*
X166650693Y-112950500D01*
X175608531Y-112950500D01*
X175675570Y-112970185D01*
G37*
%TD.AperFunction*%
%TA.AperFunction,Conductor*%
G36*
X176536942Y-108070185D02*
G01*
X176557584Y-108086819D01*
X177905139Y-109434374D01*
X177905149Y-109434385D01*
X177909479Y-109438715D01*
X177909480Y-109438716D01*
X177998584Y-109527820D01*
X178032068Y-109589141D01*
X178027084Y-109658833D01*
X177985213Y-109714767D01*
X177919749Y-109739184D01*
X177910902Y-109739500D01*
X166762090Y-109739500D01*
X166695051Y-109719815D01*
X166649296Y-109667011D01*
X166638870Y-109601617D01*
X166648065Y-109520004D01*
X166648065Y-109519996D01*
X166627869Y-109340750D01*
X166627868Y-109340745D01*
X166601829Y-109266331D01*
X166568289Y-109170478D01*
X166552908Y-109146000D01*
X166490457Y-109046610D01*
X166472316Y-109017738D01*
X166344762Y-108890184D01*
X166302029Y-108863333D01*
X166192021Y-108794210D01*
X166021749Y-108734630D01*
X165934830Y-108724837D01*
X165870416Y-108697770D01*
X165861033Y-108689298D01*
X165833916Y-108662181D01*
X165800431Y-108600858D01*
X165805415Y-108531166D01*
X165847287Y-108475233D01*
X165912751Y-108450816D01*
X165921597Y-108450500D01*
X172502551Y-108450500D01*
X172569590Y-108470185D01*
X172615345Y-108522989D01*
X172625771Y-108560617D01*
X172634630Y-108639249D01*
X172694210Y-108809521D01*
X172740088Y-108882535D01*
X172790184Y-108962262D01*
X172917738Y-109089816D01*
X172952498Y-109111657D01*
X173046110Y-109170478D01*
X173070478Y-109185789D01*
X173112457Y-109200478D01*
X173240745Y-109245368D01*
X173240750Y-109245369D01*
X173419996Y-109265565D01*
X173420000Y-109265565D01*
X173420004Y-109265565D01*
X173599249Y-109245369D01*
X173599252Y-109245368D01*
X173599255Y-109245368D01*
X173769522Y-109185789D01*
X173922262Y-109089816D01*
X174049816Y-108962262D01*
X174145789Y-108809522D01*
X174205368Y-108639255D01*
X174209077Y-108606335D01*
X174225565Y-108460003D01*
X174225565Y-108459996D01*
X174205369Y-108280750D01*
X174205368Y-108280745D01*
X174182522Y-108215455D01*
X174178961Y-108145676D01*
X174213690Y-108085048D01*
X174275683Y-108052821D01*
X174299564Y-108050500D01*
X176469903Y-108050500D01*
X176536942Y-108070185D01*
G37*
%TD.AperFunction*%
%TA.AperFunction,Conductor*%
G36*
X178245174Y-96360185D02*
G01*
X178290929Y-96412989D01*
X178301663Y-96453692D01*
X178314936Y-96605403D01*
X178314938Y-96605413D01*
X178376094Y-96833655D01*
X178376095Y-96833658D01*
X178376097Y-96833663D01*
X178389822Y-96863097D01*
X178400314Y-96932171D01*
X178371795Y-96995956D01*
X178313319Y-97034196D01*
X178277440Y-97039500D01*
X177016670Y-97039500D01*
X177016654Y-97039499D01*
X177009058Y-97039499D01*
X176850943Y-97039499D01*
X176774579Y-97059961D01*
X176698214Y-97080423D01*
X176698209Y-97080426D01*
X176561290Y-97159475D01*
X176561282Y-97159481D01*
X174907584Y-98813181D01*
X174846261Y-98846666D01*
X174819903Y-98849500D01*
X164798101Y-98849500D01*
X164733325Y-98830479D01*
X164733135Y-98830801D01*
X164731867Y-98830051D01*
X164731062Y-98829815D01*
X164728985Y-98828346D01*
X164590390Y-98746382D01*
X164590385Y-98746380D01*
X164438633Y-98702292D01*
X164438620Y-98702290D01*
X164403163Y-98699500D01*
X163802736Y-98699500D01*
X163815000Y-98669891D01*
X163815000Y-98630109D01*
X163799776Y-98593355D01*
X163771645Y-98565224D01*
X163734891Y-98550000D01*
X163695109Y-98550000D01*
X163658355Y-98565224D01*
X163630224Y-98593355D01*
X163615000Y-98630109D01*
X163615000Y-98669891D01*
X163627264Y-98699500D01*
X163026849Y-98699500D01*
X163026824Y-98699501D01*
X162991372Y-98702291D01*
X162839614Y-98746380D01*
X162839609Y-98746382D01*
X162703583Y-98826827D01*
X162703574Y-98826834D01*
X162666730Y-98863680D01*
X162605408Y-98897166D01*
X162579048Y-98900000D01*
X162475475Y-98900000D01*
X162508742Y-99014509D01*
X162508742Y-99083697D01*
X162467291Y-99226373D01*
X162467290Y-99226379D01*
X162464500Y-99261829D01*
X162464500Y-99638150D01*
X162464501Y-99638175D01*
X162467290Y-99673624D01*
X162508481Y-99815406D01*
X162508481Y-99884594D01*
X162467291Y-100026373D01*
X162467290Y-100026379D01*
X162464500Y-100061829D01*
X162464500Y-100438150D01*
X162464501Y-100438175D01*
X162467290Y-100473624D01*
X162508481Y-100615406D01*
X162508481Y-100684594D01*
X162467291Y-100826373D01*
X162467290Y-100826379D01*
X162464500Y-100861829D01*
X162464500Y-101238150D01*
X162464501Y-101238175D01*
X162467290Y-101273624D01*
X162508481Y-101415406D01*
X162508481Y-101484594D01*
X162467291Y-101626373D01*
X162467290Y-101626379D01*
X162464500Y-101661829D01*
X162464500Y-102038150D01*
X162464501Y-102038175D01*
X162467290Y-102073624D01*
X162508481Y-102215406D01*
X162508481Y-102284594D01*
X162467291Y-102426373D01*
X162467290Y-102426379D01*
X162464500Y-102461829D01*
X162464500Y-102838150D01*
X162464501Y-102838175D01*
X162467290Y-102873624D01*
X162508481Y-103015406D01*
X162508481Y-103084594D01*
X162467291Y-103226373D01*
X162467290Y-103226379D01*
X162464500Y-103261829D01*
X162464500Y-103638150D01*
X162464501Y-103638175D01*
X162467290Y-103673624D01*
X162508481Y-103815406D01*
X162508481Y-103884594D01*
X162467291Y-104026373D01*
X162467290Y-104026379D01*
X162464500Y-104061829D01*
X162464500Y-104250500D01*
X162444815Y-104317539D01*
X162392011Y-104363294D01*
X162340501Y-104374500D01*
X162151850Y-104374500D01*
X162151824Y-104374501D01*
X162116375Y-104377290D01*
X161974594Y-104418481D01*
X161905406Y-104418481D01*
X161823728Y-104394751D01*
X161763627Y-104377291D01*
X161763625Y-104377290D01*
X161763620Y-104377290D01*
X161728163Y-104374500D01*
X161351849Y-104374500D01*
X161351824Y-104374501D01*
X161316375Y-104377290D01*
X161174594Y-104418481D01*
X161105406Y-104418481D01*
X161023728Y-104394751D01*
X160963627Y-104377291D01*
X160963625Y-104377290D01*
X160963620Y-104377290D01*
X160928163Y-104374500D01*
X160551849Y-104374500D01*
X160551824Y-104374501D01*
X160516375Y-104377290D01*
X160374594Y-104418481D01*
X160305406Y-104418481D01*
X160223728Y-104394751D01*
X160163627Y-104377291D01*
X160163625Y-104377290D01*
X160163620Y-104377290D01*
X160128163Y-104374500D01*
X159751849Y-104374500D01*
X159751824Y-104374501D01*
X159716375Y-104377290D01*
X159574594Y-104418481D01*
X159505406Y-104418481D01*
X159423728Y-104394751D01*
X159363627Y-104377291D01*
X159363625Y-104377290D01*
X159363620Y-104377290D01*
X159328163Y-104374500D01*
X158951849Y-104374500D01*
X158951824Y-104374501D01*
X158916375Y-104377290D01*
X158774594Y-104418481D01*
X158705406Y-104418481D01*
X158623728Y-104394751D01*
X158563627Y-104377291D01*
X158563625Y-104377290D01*
X158563620Y-104377290D01*
X158528163Y-104374500D01*
X158151849Y-104374500D01*
X158151824Y-104374501D01*
X158116375Y-104377290D01*
X157974594Y-104418481D01*
X157905406Y-104418481D01*
X157823728Y-104394751D01*
X157763627Y-104377291D01*
X157763625Y-104377290D01*
X157763620Y-104377290D01*
X157728163Y-104374500D01*
X157351849Y-104374500D01*
X157351824Y-104374501D01*
X157316375Y-104377290D01*
X157174594Y-104418481D01*
X157105406Y-104418481D01*
X157023728Y-104394751D01*
X156963627Y-104377291D01*
X156963625Y-104377290D01*
X156963620Y-104377290D01*
X156928163Y-104374500D01*
X156551849Y-104374500D01*
X156551824Y-104374501D01*
X156516372Y-104377291D01*
X156364614Y-104421380D01*
X156364609Y-104421382D01*
X156260873Y-104482732D01*
X156197752Y-104500000D01*
X155615000Y-104500000D01*
X155615000Y-105000000D01*
X155865500Y-105000000D01*
X155932539Y-105019685D01*
X155978294Y-105072489D01*
X155989500Y-105124000D01*
X155989500Y-106313150D01*
X155989501Y-106313175D01*
X155992291Y-106348627D01*
X156036380Y-106500385D01*
X156036382Y-106500390D01*
X156116827Y-106636416D01*
X156116834Y-106636425D01*
X156228574Y-106748165D01*
X156228583Y-106748172D01*
X156259569Y-106766497D01*
X156364610Y-106828618D01*
X156516373Y-106872709D01*
X156551837Y-106875500D01*
X156815501Y-106875499D01*
X156882539Y-106895183D01*
X156928294Y-106947987D01*
X156939500Y-106999499D01*
X156939500Y-107670903D01*
X156919815Y-107737942D01*
X156867011Y-107783697D01*
X156797853Y-107793641D01*
X156734297Y-107764616D01*
X156727819Y-107758584D01*
X153716819Y-104747584D01*
X153683334Y-104686261D01*
X153680500Y-104659903D01*
X153680500Y-104368715D01*
X153700185Y-104301676D01*
X153752989Y-104255921D01*
X153790614Y-104245495D01*
X153860214Y-104237653D01*
X153976176Y-104224589D01*
X153976505Y-104227510D01*
X154033120Y-104230967D01*
X154089487Y-104272253D01*
X154114585Y-104337459D01*
X154115000Y-104347594D01*
X154115000Y-104438118D01*
X154117788Y-104473547D01*
X154117789Y-104473553D01*
X154161843Y-104625185D01*
X154161844Y-104625188D01*
X154242226Y-104761108D01*
X154242232Y-104761116D01*
X154353883Y-104872767D01*
X154353891Y-104872773D01*
X154489811Y-104953155D01*
X154489814Y-104953156D01*
X154641446Y-104997210D01*
X154641452Y-104997211D01*
X154676881Y-104999999D01*
X154676894Y-105000000D01*
X155115000Y-105000000D01*
X155115000Y-104324499D01*
X155134685Y-104257460D01*
X155187489Y-104211705D01*
X155238997Y-104200499D01*
X155277264Y-104200499D01*
X155265000Y-104230109D01*
X155265000Y-104269891D01*
X155280224Y-104306645D01*
X155308355Y-104334776D01*
X155345109Y-104350000D01*
X155384891Y-104350000D01*
X155421645Y-104334776D01*
X155449776Y-104306645D01*
X155465000Y-104269891D01*
X155465000Y-104230109D01*
X155452735Y-104200499D01*
X156053162Y-104200499D01*
X156088627Y-104197709D01*
X156240390Y-104153618D01*
X156376420Y-104073170D01*
X156413270Y-104036320D01*
X156474592Y-104002834D01*
X156500952Y-104000000D01*
X156604526Y-104000000D01*
X156604525Y-103999999D01*
X156571258Y-103885492D01*
X156571258Y-103816302D01*
X156612709Y-103673627D01*
X156615500Y-103638163D01*
X156615499Y-103261838D01*
X156612709Y-103226373D01*
X156571519Y-103084594D01*
X156571519Y-103015405D01*
X156612707Y-102873633D01*
X156612709Y-102873627D01*
X156615500Y-102838163D01*
X156615499Y-102461838D01*
X156612709Y-102426373D01*
X156571519Y-102284594D01*
X156571519Y-102215405D01*
X156612707Y-102073633D01*
X156612709Y-102073627D01*
X156615500Y-102038163D01*
X156615499Y-101661838D01*
X156612709Y-101626373D01*
X156571519Y-101484594D01*
X156571519Y-101415405D01*
X156612707Y-101273633D01*
X156612709Y-101273627D01*
X156615500Y-101238163D01*
X156615499Y-100861838D01*
X156612709Y-100826373D01*
X156571519Y-100684594D01*
X156571519Y-100615405D01*
X156612707Y-100473633D01*
X156612709Y-100473627D01*
X156615500Y-100438163D01*
X156615499Y-100061838D01*
X156612709Y-100026373D01*
X156571519Y-99884594D01*
X156571519Y-99815405D01*
X156583413Y-99774462D01*
X156612709Y-99673627D01*
X156615500Y-99638163D01*
X156615499Y-99261838D01*
X156612709Y-99226373D01*
X156571519Y-99084595D01*
X156571519Y-99015405D01*
X156588839Y-98955788D01*
X156612709Y-98873627D01*
X156615500Y-98838163D01*
X156615499Y-98649498D01*
X156635183Y-98582460D01*
X156687987Y-98536705D01*
X156739499Y-98525499D01*
X156928150Y-98525499D01*
X156928162Y-98525499D01*
X156963627Y-98522709D01*
X157105405Y-98481519D01*
X157174595Y-98481519D01*
X157316373Y-98522709D01*
X157351837Y-98525500D01*
X157728162Y-98525499D01*
X157763627Y-98522709D01*
X157905405Y-98481519D01*
X157974595Y-98481519D01*
X158116373Y-98522709D01*
X158151837Y-98525500D01*
X158528162Y-98525499D01*
X158563627Y-98522709D01*
X158705405Y-98481519D01*
X158774595Y-98481519D01*
X158916373Y-98522709D01*
X158951837Y-98525500D01*
X159328162Y-98525499D01*
X159363627Y-98522709D01*
X159505405Y-98481519D01*
X159574595Y-98481519D01*
X159716373Y-98522709D01*
X159751837Y-98525500D01*
X160128162Y-98525499D01*
X160163627Y-98522709D01*
X160305405Y-98481519D01*
X160374595Y-98481519D01*
X160516373Y-98522709D01*
X160551837Y-98525500D01*
X160928162Y-98525499D01*
X160963627Y-98522709D01*
X161105405Y-98481519D01*
X161174595Y-98481519D01*
X161316373Y-98522709D01*
X161351837Y-98525500D01*
X161728162Y-98525499D01*
X161763627Y-98522709D01*
X161905405Y-98481519D01*
X161974595Y-98481519D01*
X162116373Y-98522709D01*
X162151837Y-98525500D01*
X162528162Y-98525499D01*
X162563627Y-98522709D01*
X162715390Y-98478618D01*
X162819127Y-98417267D01*
X162882248Y-98400000D01*
X163465000Y-98400000D01*
X163965000Y-98400000D01*
X164954526Y-98400000D01*
X164954525Y-98399999D01*
X164918156Y-98274814D01*
X164918154Y-98274808D01*
X164837773Y-98138891D01*
X164837767Y-98138883D01*
X164726116Y-98027232D01*
X164726108Y-98027226D01*
X164590188Y-97946844D01*
X164590185Y-97946843D01*
X164438553Y-97902789D01*
X164438547Y-97902788D01*
X164403118Y-97900000D01*
X163965000Y-97900000D01*
X163965000Y-98400000D01*
X163465000Y-98400000D01*
X163465000Y-97900000D01*
X163214500Y-97900000D01*
X163147461Y-97880315D01*
X163101706Y-97827511D01*
X163090500Y-97776000D01*
X163090499Y-96586849D01*
X163090498Y-96586824D01*
X163087709Y-96551379D01*
X163087709Y-96551373D01*
X163072521Y-96499095D01*
X163072720Y-96429225D01*
X163110662Y-96370555D01*
X163174301Y-96341712D01*
X163191597Y-96340500D01*
X178178135Y-96340500D01*
X178245174Y-96360185D01*
G37*
%TD.AperFunction*%
%TA.AperFunction,Conductor*%
G36*
X170577474Y-104870185D02*
G01*
X170623229Y-104922989D01*
X170631991Y-104963268D01*
X170633655Y-104963081D01*
X170654630Y-105149249D01*
X170654631Y-105149254D01*
X170714211Y-105319523D01*
X170789444Y-105439255D01*
X170810184Y-105472262D01*
X170937738Y-105599816D01*
X170953185Y-105609522D01*
X171045085Y-105667267D01*
X171090478Y-105695789D01*
X171260745Y-105755368D01*
X171260750Y-105755369D01*
X171439996Y-105775565D01*
X171440000Y-105775565D01*
X171440004Y-105775565D01*
X171619249Y-105755369D01*
X171619252Y-105755368D01*
X171619255Y-105755368D01*
X171789522Y-105695789D01*
X171942262Y-105599816D01*
X172069816Y-105472262D01*
X172165789Y-105319522D01*
X172225368Y-105149255D01*
X172225369Y-105149249D01*
X172246345Y-104963081D01*
X172248835Y-104963361D01*
X172265250Y-104907461D01*
X172318054Y-104861706D01*
X172369565Y-104850500D01*
X175699903Y-104850500D01*
X175766942Y-104870185D01*
X175787584Y-104886819D01*
X176179298Y-105278533D01*
X176212783Y-105339856D01*
X176214837Y-105352330D01*
X176224630Y-105439249D01*
X176284210Y-105609521D01*
X176380184Y-105762262D01*
X176455741Y-105837819D01*
X176489226Y-105899142D01*
X176484242Y-105968834D01*
X176442370Y-106024767D01*
X176376906Y-106049184D01*
X176368060Y-106049500D01*
X163214500Y-106049500D01*
X163147461Y-106029815D01*
X163101706Y-105977011D01*
X163090500Y-105925500D01*
X163090499Y-105124499D01*
X163110183Y-105057460D01*
X163162987Y-105011705D01*
X163214499Y-105000499D01*
X164403150Y-105000499D01*
X164403162Y-105000499D01*
X164438627Y-104997709D01*
X164590390Y-104953618D01*
X164726420Y-104873170D01*
X164726419Y-104873170D01*
X164733135Y-104869199D01*
X164734569Y-104871623D01*
X164787142Y-104850985D01*
X164798101Y-104850500D01*
X170510435Y-104850500D01*
X170577474Y-104870185D01*
G37*
%TD.AperFunction*%
%TA.AperFunction,Conductor*%
G36*
X181724075Y-86017007D02*
G01*
X181690000Y-86144174D01*
X181690000Y-86275826D01*
X181724075Y-86402993D01*
X181756988Y-86460000D01*
X180083012Y-86460000D01*
X180115925Y-86402993D01*
X180150000Y-86275826D01*
X180150000Y-86144174D01*
X180115925Y-86017007D01*
X180083012Y-85960000D01*
X181756988Y-85960000D01*
X181724075Y-86017007D01*
G37*
%TD.AperFunction*%
%TD*%
M02*
