%TF.GenerationSoftware,KiCad,Pcbnew,8.0.4*%
%TF.CreationDate,2024-10-18T12:18:19-03:00*%
%TF.ProjectId,STM32_DEV_BOARD,53544d33-325f-4444-9556-5f424f415244,rev?*%
%TF.SameCoordinates,Original*%
%TF.FileFunction,Copper,L4,Bot*%
%TF.FilePolarity,Positive*%
%FSLAX46Y46*%
G04 Gerber Fmt 4.6, Leading zero omitted, Abs format (unit mm)*
G04 Created by KiCad (PCBNEW 8.0.4) date 2024-10-18 12:18:19*
%MOMM*%
%LPD*%
G01*
G04 APERTURE LIST*
G04 Aperture macros list*
%AMRoundRect*
0 Rectangle with rounded corners*
0 $1 Rounding radius*
0 $2 $3 $4 $5 $6 $7 $8 $9 X,Y pos of 4 corners*
0 Add a 4 corners polygon primitive as box body*
4,1,4,$2,$3,$4,$5,$6,$7,$8,$9,$2,$3,0*
0 Add four circle primitives for the rounded corners*
1,1,$1+$1,$2,$3*
1,1,$1+$1,$4,$5*
1,1,$1+$1,$6,$7*
1,1,$1+$1,$8,$9*
0 Add four rect primitives between the rounded corners*
20,1,$1+$1,$2,$3,$4,$5,0*
20,1,$1+$1,$4,$5,$6,$7,0*
20,1,$1+$1,$6,$7,$8,$9,0*
20,1,$1+$1,$8,$9,$2,$3,0*%
G04 Aperture macros list end*
%TA.AperFunction,ComponentPad*%
%ADD10C,1.400000*%
%TD*%
%TA.AperFunction,ComponentPad*%
%ADD11RoundRect,0.250000X-1.100000X0.500000X-1.100000X-0.500000X1.100000X-0.500000X1.100000X0.500000X0*%
%TD*%
%TA.AperFunction,ComponentPad*%
%ADD12RoundRect,0.125000X0.125000X-0.625000X0.125000X0.625000X-0.125000X0.625000X-0.125000X-0.625000X0*%
%TD*%
%TA.AperFunction,ComponentPad*%
%ADD13RoundRect,0.125000X0.625000X-0.125000X0.625000X0.125000X-0.625000X0.125000X-0.625000X-0.125000X0*%
%TD*%
%TA.AperFunction,ComponentPad*%
%ADD14RoundRect,0.250000X-0.500000X-1.100000X0.500000X-1.100000X0.500000X1.100000X-0.500000X1.100000X0*%
%TD*%
%TA.AperFunction,ComponentPad*%
%ADD15C,5.600000*%
%TD*%
%TA.AperFunction,ComponentPad*%
%ADD16C,1.500000*%
%TD*%
%TA.AperFunction,ComponentPad*%
%ADD17RoundRect,0.250000X0.450000X-0.350000X0.450000X0.350000X-0.450000X0.350000X-0.450000X-0.350000X0*%
%TD*%
%TA.AperFunction,ComponentPad*%
%ADD18RoundRect,0.250000X0.600000X-0.400000X0.600000X0.400000X-0.600000X0.400000X-0.600000X-0.400000X0*%
%TD*%
%TA.AperFunction,ComponentPad*%
%ADD19RoundRect,0.250000X0.475000X-0.337500X0.475000X0.337500X-0.475000X0.337500X-0.475000X-0.337500X0*%
%TD*%
%TA.AperFunction,ComponentPad*%
%ADD20R,1.700000X1.700000*%
%TD*%
%TA.AperFunction,ComponentPad*%
%ADD21O,1.700000X1.700000*%
%TD*%
%TA.AperFunction,ComponentPad*%
%ADD22RoundRect,0.250000X-1.125000X1.275000X-1.125000X-1.275000X1.125000X-1.275000X1.125000X1.275000X0*%
%TD*%
%TA.AperFunction,ComponentPad*%
%ADD23R,1.600000X1.600000*%
%TD*%
%TA.AperFunction,ComponentPad*%
%ADD24C,1.600000*%
%TD*%
%TA.AperFunction,ComponentPad*%
%ADD25C,4.000000*%
%TD*%
%TA.AperFunction,ComponentPad*%
%ADD26R,3.500000X3.500000*%
%TD*%
%TA.AperFunction,ComponentPad*%
%ADD27RoundRect,0.750000X-0.750000X-1.000000X0.750000X-1.000000X0.750000X1.000000X-0.750000X1.000000X0*%
%TD*%
%TA.AperFunction,ComponentPad*%
%ADD28RoundRect,0.875000X-0.875000X-0.875000X0.875000X-0.875000X0.875000X0.875000X-0.875000X0.875000X0*%
%TD*%
%TA.AperFunction,ComponentPad*%
%ADD29RoundRect,0.250000X1.100000X-0.412500X1.100000X0.412500X-1.100000X0.412500X-1.100000X-0.412500X0*%
%TD*%
%TA.AperFunction,SMDPad,CuDef*%
%ADD30RoundRect,0.250000X0.450000X-0.350000X0.450000X0.350000X-0.450000X0.350000X-0.450000X-0.350000X0*%
%TD*%
%TA.AperFunction,SMDPad,CuDef*%
%ADD31RoundRect,0.250000X-0.450000X0.350000X-0.450000X-0.350000X0.450000X-0.350000X0.450000X0.350000X0*%
%TD*%
%TA.AperFunction,SMDPad,CuDef*%
%ADD32RoundRect,0.250000X-0.475000X0.337500X-0.475000X-0.337500X0.475000X-0.337500X0.475000X0.337500X0*%
%TD*%
%TA.AperFunction,SMDPad,CuDef*%
%ADD33RoundRect,0.250000X-0.337500X-0.475000X0.337500X-0.475000X0.337500X0.475000X-0.337500X0.475000X0*%
%TD*%
%TA.AperFunction,SMDPad,CuDef*%
%ADD34RoundRect,0.250000X-0.500000X-1.100000X0.500000X-1.100000X0.500000X1.100000X-0.500000X1.100000X0*%
%TD*%
%TA.AperFunction,SMDPad,CuDef*%
%ADD35RoundRect,0.250000X0.475000X-0.337500X0.475000X0.337500X-0.475000X0.337500X-0.475000X-0.337500X0*%
%TD*%
%TA.AperFunction,SMDPad,CuDef*%
%ADD36RoundRect,0.250000X0.500000X1.100000X-0.500000X1.100000X-0.500000X-1.100000X0.500000X-1.100000X0*%
%TD*%
%TA.AperFunction,SMDPad,CuDef*%
%ADD37RoundRect,0.250000X0.337500X0.475000X-0.337500X0.475000X-0.337500X-0.475000X0.337500X-0.475000X0*%
%TD*%
%TA.AperFunction,SMDPad,CuDef*%
%ADD38RoundRect,0.250001X0.462499X0.624999X-0.462499X0.624999X-0.462499X-0.624999X0.462499X-0.624999X0*%
%TD*%
%TA.AperFunction,SMDPad,CuDef*%
%ADD39RoundRect,0.150000X0.150000X-0.825000X0.150000X0.825000X-0.150000X0.825000X-0.150000X-0.825000X0*%
%TD*%
%TA.AperFunction,ViaPad*%
%ADD40C,0.600000*%
%TD*%
%TA.AperFunction,Conductor*%
%ADD41C,0.500000*%
%TD*%
%TA.AperFunction,Conductor*%
%ADD42C,0.200000*%
%TD*%
G04 APERTURE END LIST*
D10*
%TO.P,JP2,1,A*%
%TO.N,GND*%
X171190000Y-114602500D03*
%TO.P,JP2,2,B*%
%TO.N,/RESET*%
X171190000Y-117142500D03*
%TD*%
D11*
%TO.P,D4,1,K*%
%TO.N,+3V3*%
X146760000Y-120160000D03*
%TD*%
D12*
%TO.P,U1,1,VDD*%
%TO.N,+3V3*%
X156740000Y-105625000D03*
%TO.P,U1,5,VDDA*%
X159940000Y-105625000D03*
D13*
%TO.P,U1,16,VSS*%
%TO.N,GND*%
X163715000Y-98650000D03*
D12*
%TO.P,U1,17,VDD*%
%TO.N,+3V3*%
X162340000Y-97275000D03*
D13*
%TO.P,U1,32,VSS*%
%TO.N,GND*%
X155365000Y-104250000D03*
%TD*%
D14*
%TO.P,D2,1,K*%
%TO.N,GND*%
X150100000Y-112250000D03*
%TD*%
D15*
%TO.P,REF\u002A\u002A,1*%
%TO.N,N/C*%
X138140000Y-80050000D03*
%TD*%
D16*
%TO.P,Y1,1,1*%
%TO.N,Net-(JP7-B)*%
X165840000Y-121300000D03*
%TO.P,Y1,2,2*%
%TO.N,Net-(JP6-A)*%
X160960000Y-121300000D03*
%TD*%
D17*
%TO.P,R2,1*%
%TO.N,+3V3*%
X171190000Y-122650000D03*
%TD*%
D18*
%TO.P,D5,1,K*%
%TO.N,+3V3*%
X175230000Y-122640000D03*
%TD*%
D10*
%TO.P,JP7,1,A*%
%TO.N,/OSC_OUT*%
X165842500Y-114130000D03*
%TO.P,JP7,2,B*%
%TO.N,Net-(JP7-B)*%
X165842500Y-116670000D03*
%TD*%
D19*
%TO.P,C8,2*%
%TO.N,GND*%
X168522500Y-114592500D03*
%TD*%
D20*
%TO.P,J2,1,Pin_1*%
%TO.N,+3V3*%
X163330000Y-78780000D03*
D21*
%TO.P,J2,2,Pin_2*%
%TO.N,/PA13*%
X160790000Y-78780000D03*
%TO.P,J2,3,Pin_3*%
%TO.N,/PA14*%
X158250000Y-78780000D03*
%TO.P,J2,4,Pin_4*%
%TO.N,GND*%
X155710000Y-78780000D03*
%TD*%
D22*
%TO.P,U3,2,VO*%
%TO.N,Net-(D4-A)*%
X154090000Y-124090000D03*
%TD*%
D15*
%TO.P,REF\u002A\u002A,1*%
%TO.N,N/C*%
X138140001Y-122849999D03*
%TD*%
D23*
%TO.P,J1,1,VBUS*%
%TO.N,Net-(J1-VBUS)*%
X146570000Y-108820000D03*
D24*
%TO.P,J1,2,D-*%
%TO.N,Net-(J1-D-)*%
X146570000Y-106320000D03*
%TO.P,J1,3,D+*%
%TO.N,Net-(J1-D+)*%
X144570000Y-106320000D03*
%TO.P,J1,4,GND*%
%TO.N,GND*%
X144570000Y-108820000D03*
D25*
%TO.P,J1,5,Shield*%
X141710000Y-113570000D03*
X141710000Y-101570000D03*
%TD*%
D10*
%TO.P,JP6,1,A*%
%TO.N,Net-(JP6-A)*%
X160962500Y-116670000D03*
%TO.P,JP6,2,B*%
%TO.N,/OSC_IN*%
X160962500Y-114130000D03*
%TD*%
D19*
%TO.P,C7,2*%
%TO.N,GND*%
X158202500Y-114602500D03*
%TD*%
%TO.P,C6,1*%
%TO.N,/RESET*%
X175220000Y-116680000D03*
%TO.P,C6,2*%
%TO.N,GND*%
X175220000Y-114605000D03*
%TD*%
D26*
%TO.P,J6,1*%
%TO.N,VDC*%
X144720000Y-89240000D03*
D27*
%TO.P,J6,2*%
%TO.N,GND*%
X138720000Y-89240000D03*
D28*
%TO.P,J6,3*%
X141720000Y-93940000D03*
%TD*%
D29*
%TO.P,C1,2*%
%TO.N,GND*%
X144730000Y-79547500D03*
%TD*%
D30*
%TO.P,R6,1*%
%TO.N,+3V3*%
X166810000Y-87012500D03*
%TO.P,R6,2*%
%TO.N,Net-(D9-A)*%
X166810000Y-85012500D03*
%TD*%
D31*
%TO.P,R4,1*%
%TO.N,/PB0*%
X172820000Y-78767500D03*
%TO.P,R4,2*%
%TO.N,Net-(D7-A)*%
X172820000Y-80767500D03*
%TD*%
D32*
%TO.P,C12,1*%
%TO.N,+3V3*%
X171440000Y-107402500D03*
%TO.P,C12,2*%
%TO.N,GND*%
X171440000Y-109477500D03*
%TD*%
D33*
%TO.P,C4,1*%
%TO.N,Net-(D3-A)*%
X151512500Y-82660000D03*
%TO.P,C4,2*%
%TO.N,GND*%
X153587500Y-82660000D03*
%TD*%
D34*
%TO.P,D1,1,K*%
%TO.N,GND*%
X149020000Y-87080000D03*
%TO.P,D1,2,A*%
%TO.N,Net-(D1-A)*%
X153820000Y-87080000D03*
%TD*%
D35*
%TO.P,C11,1*%
%TO.N,+3V3*%
X157560000Y-103377500D03*
%TO.P,C11,2*%
%TO.N,GND*%
X157560000Y-101302500D03*
%TD*%
%TO.P,C5,1*%
%TO.N,Net-(D4-A)*%
X151060000Y-124097500D03*
%TO.P,C5,2*%
%TO.N,GND*%
X151060000Y-122022500D03*
%TD*%
D36*
%TO.P,D3,1,K*%
%TO.N,+3V3*%
X153870000Y-90810000D03*
%TO.P,D3,2,A*%
%TO.N,Net-(D3-A)*%
X149070000Y-90810000D03*
%TD*%
D37*
%TO.P,C13,1*%
%TO.N,+3V3*%
X175257500Y-94910000D03*
%TO.P,C13,2*%
%TO.N,GND*%
X173182500Y-94910000D03*
%TD*%
%TO.P,C2,1*%
%TO.N,VDC*%
X149247500Y-82670000D03*
%TO.P,C2,2*%
%TO.N,GND*%
X147172500Y-82670000D03*
%TD*%
D31*
%TO.P,R3,1*%
%TO.N,Net-(JP3-B)*%
X149480000Y-99550000D03*
%TO.P,R3,2*%
%TO.N,BOOT0*%
X149480000Y-101550000D03*
%TD*%
D35*
%TO.P,C10,1*%
%TO.N,+3V3*%
X159940000Y-103377500D03*
%TO.P,C10,2*%
%TO.N,GND*%
X159940000Y-101302500D03*
%TD*%
D38*
%TO.P,F1,1*%
%TO.N,Net-(J1-VBUS)*%
X140917500Y-108840000D03*
%TO.P,F1,2*%
%TO.N,Net-(JP5-A)*%
X137942500Y-108840000D03*
%TD*%
D31*
%TO.P,R1,1*%
%TO.N,+3V3*%
X166810000Y-78775000D03*
%TO.P,R1,2*%
%TO.N,Net-(D6-A)*%
X166810000Y-80775000D03*
%TD*%
D20*
%TO.P,J3,1,Pin_1*%
%TO.N,VDC*%
X182190000Y-83670000D03*
D21*
%TO.P,J3,2,Pin_2*%
%TO.N,+3V3*%
X179650000Y-83670000D03*
%TO.P,J3,3,Pin_3*%
%TO.N,GND*%
X182190000Y-86210000D03*
%TO.P,J3,4,Pin_4*%
X179650000Y-86210000D03*
%TO.P,J3,5,Pin_5*%
%TO.N,/PA13*%
X182190000Y-88750000D03*
%TO.P,J3,6,Pin_6*%
%TO.N,/PA14*%
X179650000Y-88750000D03*
%TO.P,J3,7,Pin_7*%
%TO.N,/PA11*%
X182190000Y-91290000D03*
%TO.P,J3,8,Pin_8*%
%TO.N,/PA12*%
X179650000Y-91290000D03*
%TO.P,J3,9,Pin_9*%
%TO.N,/PA9*%
X182190000Y-93830000D03*
%TO.P,J3,10,Pin_10*%
%TO.N,/PA10*%
X179650000Y-93830000D03*
%TO.P,J3,11,Pin_11*%
%TO.N,/PB1*%
X182190000Y-96370000D03*
%TO.P,J3,12,Pin_12*%
%TO.N,/PA8*%
X179650000Y-96370000D03*
%TO.P,J3,13,Pin_13*%
%TO.N,/PA7*%
X182190000Y-98910000D03*
%TO.P,J3,14,Pin_14*%
%TO.N,/PB0*%
X179650000Y-98910000D03*
%TO.P,J3,15,Pin_15*%
%TO.N,/PA5*%
X182190000Y-101450000D03*
%TO.P,J3,16,Pin_16*%
%TO.N,/PA6*%
X179650000Y-101450000D03*
%TO.P,J3,17,Pin_17*%
%TO.N,/PA3*%
X182190000Y-103990000D03*
%TO.P,J3,18,Pin_18*%
%TO.N,/PA4*%
X179650000Y-103990000D03*
%TO.P,J3,19,Pin_19*%
%TO.N,/PA1*%
X182190000Y-106530000D03*
%TO.P,J3,20,Pin_20*%
%TO.N,/PA2*%
X179650000Y-106530000D03*
%TO.P,J3,21,Pin_21*%
%TO.N,/PB7*%
X182190000Y-109070000D03*
%TO.P,J3,22,Pin_22*%
%TO.N,/PA0*%
X179650000Y-109070000D03*
%TO.P,J3,23,Pin_23*%
%TO.N,/PB5*%
X182190000Y-111610000D03*
%TO.P,J3,24,Pin_24*%
%TO.N,/PB6*%
X179650000Y-111610000D03*
%TO.P,J3,25,Pin_25*%
%TO.N,/PB3*%
X182190000Y-114150000D03*
%TO.P,J3,26,Pin_26*%
%TO.N,/PB4*%
X179650000Y-114150000D03*
%TO.P,J3,27,Pin_27*%
%TO.N,/RESET*%
X182190000Y-116690000D03*
%TO.P,J3,28,Pin_28*%
%TO.N,/PA15*%
X179650000Y-116690000D03*
%TO.P,J3,29,Pin_29*%
%TO.N,/OSC_IN*%
X182190000Y-119230000D03*
%TO.P,J3,30,Pin_30*%
%TO.N,/OSC_OUT*%
X179650000Y-119230000D03*
%TD*%
D39*
%TO.P,U4,1,GND*%
%TO.N,GND*%
X175250000Y-102770000D03*
%TO.P,U4,2,TXD*%
%TO.N,/PA3*%
X173980000Y-102770000D03*
%TO.P,U4,3,RXD*%
%TO.N,/PA2*%
X172710000Y-102770000D03*
%TO.P,U4,4,V3*%
%TO.N,+3V3*%
X171440000Y-102770000D03*
%TO.P,U4,5,UD+*%
%TO.N,Net-(J1-D+)*%
X170170000Y-102770000D03*
%TO.P,U4,6,UD-*%
%TO.N,Net-(J1-D-)*%
X168900000Y-102770000D03*
%TO.P,U4,7,NC*%
%TO.N,unconnected-(U4-NC-Pad7)*%
X167630000Y-102770000D03*
%TO.P,U4,8,NC*%
%TO.N,unconnected-(U4-NC-Pad8)*%
X166360000Y-102770000D03*
%TO.P,U4,9,~{CTS}*%
%TO.N,unconnected-(U4-~{CTS}-Pad9)*%
X166360000Y-97820000D03*
%TO.P,U4,10,~{DSR}*%
%TO.N,unconnected-(U4-~{DSR}-Pad10)*%
X167630000Y-97820000D03*
%TO.P,U4,11,~{RI}*%
%TO.N,unconnected-(U4-~{RI}-Pad11)*%
X168900000Y-97820000D03*
%TO.P,U4,12,~{DCD}*%
%TO.N,unconnected-(U4-~{DCD}-Pad12)*%
X170170000Y-97820000D03*
%TO.P,U4,13,~{DTR}*%
%TO.N,unconnected-(U4-~{DTR}-Pad13)*%
X171440000Y-97820000D03*
%TO.P,U4,14,~{RTS}*%
%TO.N,unconnected-(U4-~{RTS}-Pad14)*%
X172710000Y-97820000D03*
%TO.P,U4,15,R232*%
%TO.N,unconnected-(U4-R232-Pad15)*%
X173980000Y-97820000D03*
%TO.P,U4,16,VCC*%
%TO.N,+3V3*%
X175250000Y-97820000D03*
%TD*%
D37*
%TO.P,C9,1*%
%TO.N,+3V3*%
X159627500Y-99260000D03*
%TO.P,C9,2*%
%TO.N,GND*%
X157552500Y-99260000D03*
%TD*%
D30*
%TO.P,R5,1*%
%TO.N,+3V3*%
X172800000Y-87017500D03*
%TO.P,R5,2*%
%TO.N,Net-(D8-A)*%
X172800000Y-85017500D03*
%TD*%
D40*
%TO.N,VDC*%
X149240000Y-79550000D03*
%TO.N,GND*%
X169790000Y-109480000D03*
X147140000Y-114920000D03*
X175250000Y-104960000D03*
X175660000Y-83400000D03*
X173180000Y-93180000D03*
X154230000Y-95470000D03*
X161530000Y-100350000D03*
X169720000Y-83460000D03*
%TO.N,Net-(D3-A)*%
X151600000Y-93050000D03*
X151520000Y-79560000D03*
%TO.N,+3V3*%
X171440000Y-104970000D03*
X155640000Y-90810000D03*
X147640000Y-95470000D03*
X171060000Y-87010000D03*
%TO.N,Net-(D1-A)*%
X155800000Y-82670000D03*
%TO.N,Net-(D6-A)*%
X168610000Y-83490000D03*
%TO.N,Net-(D7-A)*%
X170930000Y-83440000D03*
%TO.N,Net-(D8-A)*%
X174950000Y-85620000D03*
%TO.N,/PA3*%
X177340000Y-87050000D03*
X177010000Y-105260000D03*
%TO.N,Net-(D9-A)*%
X168600000Y-85010000D03*
%TO.N,/PA2*%
X170230000Y-87890000D03*
%TO.N,/PA14*%
X158250000Y-88750000D03*
%TO.N,/PA13*%
X160790000Y-90020000D03*
%TO.N,BOOT0*%
X153790000Y-103440000D03*
%TO.N,/RESET*%
X173420000Y-116680000D03*
X173420000Y-108460000D03*
%TO.N,/OSC_OUT*%
X165842500Y-109520000D03*
%TO.N,/OSC_IN*%
X160962500Y-109550000D03*
%TO.N,Net-(JP3-B)*%
X149480000Y-98230000D03*
%TO.N,Net-(JP5-A)*%
X141510000Y-117390000D03*
%TD*%
D41*
%TO.N,VDC*%
X149247500Y-82670000D02*
X149247500Y-79557500D01*
X149247500Y-79557500D02*
X149240000Y-79550000D01*
%TO.N,GND*%
X149020000Y-85380000D02*
X148460000Y-84820000D01*
X147172500Y-80367500D02*
X147190000Y-80350000D01*
X146387500Y-79547500D02*
X144730000Y-79547500D01*
X147172500Y-82670000D02*
X147172500Y-80367500D01*
X151060000Y-118840000D02*
X147140000Y-114920000D01*
X147220000Y-84470000D02*
X147200000Y-84470000D01*
D42*
X161137500Y-101302500D02*
X161350000Y-101090000D01*
D41*
X147190000Y-80350000D02*
X146387500Y-79547500D01*
D42*
X157552500Y-101295000D02*
X157560000Y-101302500D01*
D41*
X153587500Y-79432500D02*
X154240000Y-78780000D01*
D42*
X161530000Y-100910000D02*
X161530000Y-100350000D01*
X159940000Y-101302500D02*
X161137500Y-101302500D01*
D41*
X147172500Y-84442500D02*
X147172500Y-82670000D01*
X148460000Y-84820000D02*
X147570000Y-84820000D01*
D42*
X157560000Y-101302500D02*
X159940000Y-101302500D01*
X173182500Y-93182500D02*
X173180000Y-93180000D01*
X175250000Y-102770000D02*
X175250000Y-104960000D01*
X175250000Y-114575000D02*
X175220000Y-114605000D01*
D41*
X147200000Y-84470000D02*
X147172500Y-84442500D01*
D42*
X161350000Y-101090000D02*
X161530000Y-100910000D01*
D41*
X154240000Y-78780000D02*
X155710000Y-78780000D01*
D42*
X169792500Y-109477500D02*
X169790000Y-109480000D01*
X171440000Y-109477500D02*
X169792500Y-109477500D01*
X157552500Y-99260000D02*
X157552500Y-101295000D01*
D41*
X147570000Y-84820000D02*
X147220000Y-84470000D01*
D42*
X173182500Y-94910000D02*
X173182500Y-93182500D01*
D41*
X149020000Y-87080000D02*
X149020000Y-85380000D01*
X153587500Y-82660000D02*
X153587500Y-79432500D01*
X151060000Y-122022500D02*
X151060000Y-118840000D01*
%TO.N,Net-(D3-A)*%
X149070000Y-90810000D02*
X151050000Y-90810000D01*
X151512500Y-79567500D02*
X151520000Y-79560000D01*
X151600000Y-91360000D02*
X151600000Y-93050000D01*
X151050000Y-90810000D02*
X151510000Y-91270000D01*
X151512500Y-82660000D02*
X151512500Y-79567500D01*
X151510000Y-91270000D02*
X151600000Y-91360000D01*
%TO.N,Net-(D4-A)*%
X151060000Y-124097500D02*
X154082500Y-124097500D01*
X154082500Y-124097500D02*
X154090000Y-124090000D01*
D42*
%TO.N,Net-(JP6-A)*%
X160962500Y-116670000D02*
X160962500Y-121297500D01*
X160962500Y-121297500D02*
X160960000Y-121300000D01*
%TO.N,Net-(JP7-B)*%
X165840000Y-116672500D02*
X165840000Y-121300000D01*
X165842500Y-116670000D02*
X165840000Y-116672500D01*
D41*
%TO.N,+3V3*%
X153870000Y-90810000D02*
X155640000Y-90810000D01*
D42*
X171060000Y-87010000D02*
X171062500Y-87012500D01*
X171057500Y-87012500D02*
X171060000Y-87010000D01*
X175257500Y-94910000D02*
X175257500Y-97812500D01*
X171440000Y-102770000D02*
X171440000Y-104970000D01*
X162340000Y-98630000D02*
X162340000Y-97275000D01*
X172050000Y-99600000D02*
X174980000Y-99600000D01*
X166810000Y-78775000D02*
X163335000Y-78775000D01*
X161710000Y-99260000D02*
X162340000Y-98630000D01*
X159940000Y-103377500D02*
X159940000Y-105625000D01*
X157560000Y-103377500D02*
X157560000Y-104010000D01*
X171440000Y-107402500D02*
X171440000Y-104970000D01*
X175250000Y-99330000D02*
X175250000Y-97820000D01*
X171440000Y-100210000D02*
X172050000Y-99600000D01*
X174980000Y-99600000D02*
X175250000Y-99330000D01*
X157560000Y-104010000D02*
X156740000Y-104830000D01*
X163335000Y-78775000D02*
X163330000Y-78780000D01*
X166810000Y-87012500D02*
X171057500Y-87012500D01*
X156740000Y-104830000D02*
X156740000Y-105625000D01*
X171440000Y-102770000D02*
X171440000Y-100210000D01*
X172795000Y-87012500D02*
X172800000Y-87017500D01*
X175257500Y-97812500D02*
X175250000Y-97820000D01*
X171062500Y-87012500D02*
X172795000Y-87012500D01*
X159627500Y-99260000D02*
X161710000Y-99260000D01*
D41*
%TO.N,Net-(D1-A)*%
X155180000Y-87080000D02*
X155800000Y-86460000D01*
X155800000Y-86460000D02*
X155800000Y-82670000D01*
X153820000Y-87080000D02*
X155180000Y-87080000D01*
D42*
%TO.N,Net-(D6-A)*%
X166810000Y-80775000D02*
X166810000Y-82590000D01*
X167270000Y-83050000D02*
X167710000Y-83490000D01*
X166810000Y-82590000D02*
X167270000Y-83050000D01*
X167710000Y-83490000D02*
X168610000Y-83490000D01*
%TO.N,Net-(D7-A)*%
X171560000Y-83440000D02*
X170930000Y-83440000D01*
X172820000Y-80767500D02*
X172820000Y-82180000D01*
X172800000Y-82200000D02*
X171560000Y-83440000D01*
X172820000Y-82180000D02*
X172800000Y-82200000D01*
%TO.N,Net-(D8-A)*%
X172800000Y-85017500D02*
X174347500Y-85017500D01*
X174347500Y-85017500D02*
X174950000Y-85620000D01*
%TO.N,/PA3*%
X176530000Y-105740000D02*
X177010000Y-105260000D01*
X177650000Y-100950000D02*
X177650000Y-97260000D01*
X173980000Y-105280000D02*
X174440000Y-105740000D01*
X177650000Y-87360000D02*
X177340000Y-87050000D01*
X174440000Y-105740000D02*
X176530000Y-105740000D01*
X177160000Y-101440000D02*
X177650000Y-100950000D01*
X173980000Y-102770000D02*
X173980000Y-105280000D01*
X177650000Y-97260000D02*
X177650000Y-87360000D01*
X177010000Y-101590000D02*
X177160000Y-101440000D01*
X177010000Y-105260000D02*
X177010000Y-101590000D01*
%TO.N,Net-(D9-A)*%
X168597500Y-85012500D02*
X168600000Y-85010000D01*
X166810000Y-85012500D02*
X168597500Y-85012500D01*
%TO.N,/PA2*%
X177210000Y-100750000D02*
X177210000Y-89220000D01*
X173140000Y-101090000D02*
X175730000Y-101090000D01*
X176870000Y-101090000D02*
X177210000Y-100750000D01*
X171150000Y-88530000D02*
X170870000Y-88530000D01*
X177210000Y-89220000D02*
X177050000Y-89060000D01*
X173530000Y-106530000D02*
X172710000Y-105710000D01*
X170870000Y-88530000D02*
X170230000Y-87890000D01*
X175730000Y-101090000D02*
X176870000Y-101090000D01*
X172710000Y-101520000D02*
X172980000Y-101250000D01*
X172710000Y-102770000D02*
X172710000Y-101520000D01*
X176520000Y-88530000D02*
X171150000Y-88530000D01*
X179650000Y-106530000D02*
X173530000Y-106530000D01*
X172980000Y-101250000D02*
X173140000Y-101090000D01*
X177050000Y-89060000D02*
X176520000Y-88530000D01*
X172710000Y-105710000D02*
X172710000Y-102770000D01*
D41*
%TO.N,Net-(J1-VBUS)*%
X140917500Y-108840000D02*
X141930000Y-108840000D01*
X146010000Y-110620000D02*
X146570000Y-110060000D01*
X146540000Y-108850000D02*
X146570000Y-108820000D01*
X146570000Y-110060000D02*
X146570000Y-108820000D01*
X143710000Y-110620000D02*
X146010000Y-110620000D01*
X141930000Y-108840000D02*
X143710000Y-110620000D01*
D42*
%TO.N,Net-(J1-D+)*%
X145820000Y-107570000D02*
X169160000Y-107570000D01*
X169160000Y-107570000D02*
X170170000Y-106560000D01*
X170170000Y-106560000D02*
X170170000Y-102770000D01*
X144570000Y-106320000D02*
X145820000Y-107570000D01*
%TO.N,Net-(J1-D-)*%
X154300000Y-106320000D02*
X155100000Y-107120000D01*
X155100000Y-107120000D02*
X168390000Y-107120000D01*
X168390000Y-107120000D02*
X168410000Y-107140000D01*
X168900000Y-106650000D02*
X168900000Y-102770000D01*
X168410000Y-107140000D02*
X168900000Y-106650000D01*
X146570000Y-106320000D02*
X154300000Y-106320000D01*
%TO.N,/PA14*%
X158250000Y-78780000D02*
X158250000Y-88750000D01*
%TO.N,/PA13*%
X160790000Y-78780000D02*
X160790000Y-90020000D01*
%TO.N,/PB0*%
X178430000Y-98910000D02*
X178050000Y-98530000D01*
X177280000Y-78770000D02*
X172822500Y-78770000D01*
X178050000Y-79540000D02*
X177280000Y-78770000D01*
X179650000Y-98910000D02*
X178430000Y-98910000D01*
X178050000Y-98530000D02*
X178050000Y-79540000D01*
X172822500Y-78770000D02*
X172820000Y-78767500D01*
%TO.N,BOOT0*%
X150100000Y-103440000D02*
X153790000Y-103440000D01*
X150100000Y-103440000D02*
X149480000Y-102820000D01*
X149480000Y-102820000D02*
X149480000Y-101550000D01*
%TO.N,/RESET*%
X173420000Y-108460000D02*
X173420000Y-116680000D01*
%TO.N,/OSC_OUT*%
X165842500Y-109520000D02*
X165842500Y-114130000D01*
%TO.N,/OSC_IN*%
X160962500Y-109550000D02*
X160962500Y-114130000D01*
%TO.N,Net-(JP3-B)*%
X149480000Y-99550000D02*
X149480000Y-98230000D01*
D41*
%TO.N,Net-(JP5-A)*%
X137942500Y-108840000D02*
X137942500Y-116022500D01*
X139310000Y-117390000D02*
X141510000Y-117390000D01*
X138530000Y-116610000D02*
X139310000Y-117390000D01*
X137942500Y-116022500D02*
X138530000Y-116610000D01*
%TD*%
%TA.AperFunction,Conductor*%
%TO.N,GND*%
G36*
X176352539Y-101710185D02*
G01*
X176398294Y-101762989D01*
X176409500Y-101814500D01*
X176409500Y-104677587D01*
X176389815Y-104744626D01*
X176382450Y-104754896D01*
X176380186Y-104757734D01*
X176284209Y-104910480D01*
X176233130Y-105056455D01*
X176192409Y-105113231D01*
X176127456Y-105138978D01*
X176116089Y-105139500D01*
X174740097Y-105139500D01*
X174673058Y-105119815D01*
X174652416Y-105103181D01*
X174616819Y-105067584D01*
X174583334Y-105006261D01*
X174580500Y-104979903D01*
X174580500Y-104260326D01*
X174600185Y-104193287D01*
X174652989Y-104147532D01*
X174722147Y-104137588D01*
X174767621Y-104153594D01*
X174839801Y-104196281D01*
X174997514Y-104242100D01*
X174997511Y-104242100D01*
X174999998Y-104242295D01*
X175000000Y-104242295D01*
X175500000Y-104242295D01*
X175500001Y-104242295D01*
X175502486Y-104242100D01*
X175660198Y-104196281D01*
X175801552Y-104112685D01*
X175801561Y-104112678D01*
X175917678Y-103996561D01*
X175917685Y-103996552D01*
X176001282Y-103855196D01*
X176001283Y-103855193D01*
X176047099Y-103697495D01*
X176047100Y-103697489D01*
X176049999Y-103660649D01*
X176050000Y-103660634D01*
X176050000Y-103020000D01*
X175500000Y-103020000D01*
X175500000Y-104242295D01*
X175000000Y-104242295D01*
X175000000Y-102644000D01*
X175019685Y-102576961D01*
X175072489Y-102531206D01*
X175124000Y-102520000D01*
X176050000Y-102520000D01*
X176050000Y-101879365D01*
X176049999Y-101879350D01*
X176047099Y-101842503D01*
X176046054Y-101836778D01*
X176053374Y-101767293D01*
X176097098Y-101712795D01*
X176163345Y-101690589D01*
X176168036Y-101690500D01*
X176285500Y-101690500D01*
X176352539Y-101710185D01*
G37*
%TD.AperFunction*%
%TA.AperFunction,Conductor*%
G36*
X177046942Y-79390185D02*
G01*
X177067584Y-79406819D01*
X177413181Y-79752416D01*
X177446666Y-79813739D01*
X177449500Y-79840097D01*
X177449500Y-86121284D01*
X177429815Y-86188323D01*
X177377011Y-86234078D01*
X177339383Y-86244504D01*
X177160750Y-86264630D01*
X177160745Y-86264631D01*
X176990476Y-86324211D01*
X176837737Y-86420184D01*
X176710184Y-86547737D01*
X176614211Y-86700476D01*
X176554631Y-86870745D01*
X176554630Y-86870750D01*
X176534435Y-87049996D01*
X176534435Y-87050003D01*
X176554630Y-87229249D01*
X176554631Y-87229254D01*
X176614211Y-87399523D01*
X176690098Y-87520295D01*
X176710184Y-87552262D01*
X176837738Y-87679816D01*
X176990478Y-87775789D01*
X176990480Y-87775789D01*
X176991472Y-87776413D01*
X177037763Y-87828748D01*
X177049500Y-87881407D01*
X177049500Y-87927534D01*
X177029815Y-87994573D01*
X176977011Y-88040328D01*
X176907853Y-88050272D01*
X176863501Y-88034922D01*
X176801904Y-87999360D01*
X176801904Y-87999359D01*
X176801900Y-87999358D01*
X176751785Y-87970423D01*
X176599057Y-87929499D01*
X176440943Y-87929499D01*
X176433347Y-87929499D01*
X176433331Y-87929500D01*
X174007311Y-87929500D01*
X173940272Y-87909815D01*
X173894517Y-87857011D01*
X173884573Y-87787853D01*
X173901771Y-87740405D01*
X173934814Y-87686834D01*
X173989999Y-87520297D01*
X174000500Y-87417509D01*
X174000499Y-86617492D01*
X173999987Y-86612483D01*
X173989999Y-86514703D01*
X173989998Y-86514700D01*
X173965349Y-86440315D01*
X173934814Y-86348166D01*
X173842712Y-86198844D01*
X173749049Y-86105181D01*
X173715564Y-86043858D01*
X173720548Y-85974166D01*
X173749049Y-85929819D01*
X173775875Y-85902993D01*
X173842712Y-85836156D01*
X173929878Y-85694835D01*
X173981824Y-85648112D01*
X174050787Y-85636889D01*
X174114869Y-85664732D01*
X174153726Y-85722801D01*
X174158636Y-85746049D01*
X174164630Y-85799249D01*
X174224210Y-85969521D01*
X174267778Y-86038858D01*
X174320184Y-86122262D01*
X174447738Y-86249816D01*
X174538080Y-86306582D01*
X174596306Y-86343168D01*
X174600478Y-86345789D01*
X174711179Y-86384525D01*
X174770745Y-86405368D01*
X174770750Y-86405369D01*
X174949996Y-86425565D01*
X174950000Y-86425565D01*
X174950004Y-86425565D01*
X175129249Y-86405369D01*
X175129252Y-86405368D01*
X175129255Y-86405368D01*
X175299522Y-86345789D01*
X175452262Y-86249816D01*
X175579816Y-86122262D01*
X175675789Y-85969522D01*
X175735368Y-85799255D01*
X175741311Y-85746513D01*
X175755565Y-85620003D01*
X175755565Y-85619996D01*
X175735369Y-85440750D01*
X175735368Y-85440745D01*
X175727235Y-85417501D01*
X175675789Y-85270478D01*
X175656638Y-85240000D01*
X175624753Y-85189255D01*
X175579816Y-85117738D01*
X175452262Y-84990184D01*
X175410269Y-84963798D01*
X175299521Y-84894210D01*
X175129249Y-84834630D01*
X175042330Y-84824837D01*
X174977916Y-84797770D01*
X174968544Y-84789308D01*
X174828021Y-84648785D01*
X174828020Y-84648784D01*
X174716216Y-84536980D01*
X174629404Y-84486860D01*
X174629404Y-84486859D01*
X174629400Y-84486858D01*
X174579285Y-84457923D01*
X174426557Y-84416999D01*
X174268443Y-84416999D01*
X174260847Y-84416999D01*
X174260831Y-84417000D01*
X174045908Y-84417000D01*
X173978869Y-84397315D01*
X173940363Y-84353228D01*
X173938605Y-84354313D01*
X173934814Y-84348166D01*
X173842712Y-84198844D01*
X173718656Y-84074788D01*
X173596719Y-83999577D01*
X173569336Y-83982687D01*
X173569331Y-83982685D01*
X173532616Y-83970519D01*
X173402797Y-83927501D01*
X173402795Y-83927500D01*
X173300010Y-83917000D01*
X172299998Y-83917000D01*
X172299980Y-83917001D01*
X172237132Y-83923422D01*
X172168439Y-83910652D01*
X172117555Y-83862771D01*
X172100635Y-83794981D01*
X172123051Y-83728805D01*
X172136844Y-83712389D01*
X173178506Y-82670728D01*
X173178511Y-82670724D01*
X173188714Y-82660520D01*
X173188716Y-82660520D01*
X173300520Y-82548716D01*
X173356886Y-82451087D01*
X173379577Y-82411785D01*
X173420500Y-82259058D01*
X173420500Y-82100943D01*
X173420500Y-81947800D01*
X173440185Y-81880761D01*
X173492989Y-81835006D01*
X173505482Y-81830099D01*
X173589334Y-81802314D01*
X173738656Y-81710212D01*
X173862712Y-81586156D01*
X173954814Y-81436834D01*
X174009999Y-81270297D01*
X174020500Y-81167509D01*
X174020499Y-80367492D01*
X174009999Y-80264703D01*
X173954814Y-80098166D01*
X173862712Y-79948844D01*
X173769049Y-79855181D01*
X173735564Y-79793858D01*
X173740548Y-79724166D01*
X173769049Y-79679819D01*
X173797786Y-79651082D01*
X173862712Y-79586156D01*
X173954814Y-79436834D01*
X173954815Y-79436831D01*
X173958605Y-79430687D01*
X173961065Y-79432204D01*
X173998551Y-79389645D01*
X174064743Y-79370500D01*
X176979903Y-79370500D01*
X177046942Y-79390185D01*
G37*
%TD.AperFunction*%
%TA.AperFunction,Conductor*%
G36*
X181724075Y-86017007D02*
G01*
X181690000Y-86144174D01*
X181690000Y-86275826D01*
X181724075Y-86402993D01*
X181756988Y-86460000D01*
X180083012Y-86460000D01*
X180115925Y-86402993D01*
X180150000Y-86275826D01*
X180150000Y-86144174D01*
X180115925Y-86017007D01*
X180083012Y-85960000D01*
X181756988Y-85960000D01*
X181724075Y-86017007D01*
G37*
%TD.AperFunction*%
%TA.AperFunction,Conductor*%
G36*
X180943243Y-76950670D02*
G01*
X181257498Y-76967139D01*
X181270406Y-76968495D01*
X181578015Y-77017217D01*
X181590680Y-77019908D01*
X181891528Y-77100520D01*
X181903855Y-77104525D01*
X182194623Y-77216141D01*
X182206459Y-77221410D01*
X182483977Y-77362812D01*
X182495183Y-77369282D01*
X182756396Y-77538917D01*
X182766887Y-77546539D01*
X182996760Y-77732687D01*
X183008923Y-77742536D01*
X183018568Y-77751221D01*
X183238778Y-77971431D01*
X183247463Y-77981076D01*
X183443460Y-78223112D01*
X183451085Y-78233606D01*
X183620713Y-78494810D01*
X183627190Y-78506029D01*
X183758955Y-78764632D01*
X183768584Y-78783530D01*
X183773862Y-78795385D01*
X183788766Y-78834211D01*
X183885471Y-79086135D01*
X183889482Y-79098480D01*
X183967643Y-79390185D01*
X183970087Y-79399304D01*
X183972785Y-79411999D01*
X184021503Y-79719592D01*
X184022860Y-79732500D01*
X184039330Y-80046756D01*
X184039500Y-80053246D01*
X184039500Y-122846753D01*
X184039330Y-122853243D01*
X184022860Y-123167499D01*
X184021503Y-123180407D01*
X183972785Y-123488000D01*
X183970087Y-123500695D01*
X183889482Y-123801519D01*
X183885471Y-123813864D01*
X183773863Y-124104612D01*
X183768584Y-124116469D01*
X183627194Y-124393964D01*
X183620708Y-124405197D01*
X183553917Y-124508047D01*
X183451089Y-124666387D01*
X183443460Y-124676887D01*
X183247463Y-124918923D01*
X183238778Y-124928568D01*
X183018568Y-125148778D01*
X183008923Y-125157463D01*
X182766887Y-125353460D01*
X182756387Y-125361089D01*
X182743882Y-125369210D01*
X182495197Y-125530708D01*
X182483964Y-125537194D01*
X182206469Y-125678584D01*
X182194612Y-125683863D01*
X181903864Y-125795471D01*
X181891519Y-125799482D01*
X181590695Y-125880087D01*
X181578000Y-125882785D01*
X181270407Y-125931503D01*
X181257499Y-125932860D01*
X180943244Y-125949330D01*
X180936754Y-125949500D01*
X155958433Y-125949500D01*
X155891394Y-125929815D01*
X155845639Y-125877011D01*
X155835695Y-125807853D01*
X155852893Y-125760405D01*
X155899814Y-125684334D01*
X155954999Y-125517797D01*
X155965500Y-125415009D01*
X155965499Y-122764992D01*
X155956727Y-122679124D01*
X155954999Y-122662203D01*
X155954998Y-122662200D01*
X155919567Y-122555277D01*
X155899814Y-122495666D01*
X155807712Y-122346344D01*
X155683656Y-122222288D01*
X155534334Y-122130186D01*
X155367797Y-122075001D01*
X155367795Y-122075000D01*
X155265010Y-122064500D01*
X152914998Y-122064500D01*
X152914981Y-122064501D01*
X152812203Y-122075000D01*
X152812200Y-122075001D01*
X152645668Y-122130185D01*
X152645663Y-122130187D01*
X152496342Y-122222289D01*
X152453247Y-122265385D01*
X152391924Y-122298870D01*
X152322232Y-122293886D01*
X152288956Y-122272500D01*
X149835001Y-122272500D01*
X149835001Y-122409986D01*
X149845494Y-122512697D01*
X149900641Y-122679119D01*
X149900643Y-122679124D01*
X149992684Y-122828345D01*
X150116655Y-122952316D01*
X150116659Y-122952319D01*
X150119656Y-122954168D01*
X150121279Y-122955972D01*
X150122323Y-122956798D01*
X150122181Y-122956976D01*
X150166381Y-123006116D01*
X150177602Y-123075079D01*
X150149759Y-123139161D01*
X150119661Y-123165241D01*
X150116349Y-123167283D01*
X150116343Y-123167288D01*
X149992289Y-123291342D01*
X149900187Y-123440663D01*
X149900185Y-123440668D01*
X149884501Y-123488000D01*
X149845001Y-123607203D01*
X149845001Y-123607204D01*
X149845000Y-123607204D01*
X149834500Y-123709983D01*
X149834500Y-124485001D01*
X149834501Y-124485019D01*
X149845000Y-124587796D01*
X149845001Y-124587799D01*
X149900185Y-124754331D01*
X149900186Y-124754334D01*
X149992288Y-124903656D01*
X150116344Y-125027712D01*
X150265666Y-125119814D01*
X150432203Y-125174999D01*
X150534991Y-125185500D01*
X151585008Y-125185499D01*
X151585016Y-125185498D01*
X151585019Y-125185498D01*
X151641302Y-125179748D01*
X151687797Y-125174999D01*
X151854334Y-125119814D01*
X152003656Y-125027712D01*
X152003662Y-125027705D01*
X152009319Y-125023234D01*
X152010293Y-125024466D01*
X152064143Y-124995063D01*
X152133835Y-125000047D01*
X152189768Y-125041919D01*
X152214185Y-125107383D01*
X152214501Y-125116229D01*
X152214501Y-125415018D01*
X152225000Y-125517796D01*
X152225001Y-125517799D01*
X152278281Y-125678584D01*
X152280186Y-125684334D01*
X152327106Y-125760404D01*
X152345546Y-125827796D01*
X152324623Y-125894459D01*
X152270981Y-125939229D01*
X152221567Y-125949500D01*
X139837051Y-125949500D01*
X139770012Y-125929815D01*
X139724257Y-125877011D01*
X139714313Y-125807853D01*
X139743338Y-125744297D01*
X139773119Y-125719251D01*
X139994920Y-125585799D01*
X140279838Y-125369210D01*
X140539669Y-125123085D01*
X140771366Y-124850310D01*
X140972212Y-124554084D01*
X141139854Y-124237879D01*
X141272325Y-123905402D01*
X141368072Y-123560551D01*
X141391587Y-123417115D01*
X141425971Y-123207384D01*
X141425971Y-123207381D01*
X141425973Y-123207370D01*
X141445349Y-122849999D01*
X141425973Y-122492628D01*
X141423833Y-122479577D01*
X141368074Y-122139459D01*
X141368073Y-122139458D01*
X141368072Y-122139447D01*
X141282528Y-121831344D01*
X141272328Y-121794606D01*
X141272326Y-121794599D01*
X141263060Y-121771344D01*
X141208741Y-121635013D01*
X149835000Y-121635013D01*
X149835000Y-121772500D01*
X150810000Y-121772500D01*
X151310000Y-121772500D01*
X152284999Y-121772500D01*
X152284999Y-121635028D01*
X152284998Y-121635013D01*
X152274505Y-121532302D01*
X152219358Y-121365880D01*
X152219356Y-121365875D01*
X152178722Y-121299997D01*
X159704723Y-121299997D01*
X159704723Y-121300002D01*
X159723793Y-121517975D01*
X159723793Y-121517979D01*
X159780422Y-121729322D01*
X159780424Y-121729326D01*
X159780425Y-121729330D01*
X159810864Y-121794606D01*
X159872897Y-121927638D01*
X159872898Y-121927639D01*
X159998402Y-122106877D01*
X160153123Y-122261598D01*
X160332361Y-122387102D01*
X160530670Y-122479575D01*
X160742023Y-122536207D01*
X160924926Y-122552208D01*
X160959998Y-122555277D01*
X160960000Y-122555277D01*
X160960002Y-122555277D01*
X160988254Y-122552805D01*
X161177977Y-122536207D01*
X161389330Y-122479575D01*
X161587639Y-122387102D01*
X161766877Y-122261598D01*
X161921598Y-122106877D01*
X162047102Y-121927639D01*
X162139575Y-121729330D01*
X162196207Y-121517977D01*
X162215277Y-121300000D01*
X162215277Y-121299997D01*
X164584723Y-121299997D01*
X164584723Y-121300002D01*
X164603793Y-121517975D01*
X164603793Y-121517979D01*
X164660422Y-121729322D01*
X164660424Y-121729326D01*
X164660425Y-121729330D01*
X164690864Y-121794606D01*
X164752897Y-121927638D01*
X164752898Y-121927639D01*
X164878402Y-122106877D01*
X165033123Y-122261598D01*
X165212361Y-122387102D01*
X165410670Y-122479575D01*
X165622023Y-122536207D01*
X165804926Y-122552208D01*
X165839998Y-122555277D01*
X165840000Y-122555277D01*
X165840002Y-122555277D01*
X165868254Y-122552805D01*
X166057977Y-122536207D01*
X166269330Y-122479575D01*
X166467639Y-122387102D01*
X166646877Y-122261598D01*
X166658492Y-122249983D01*
X169989500Y-122249983D01*
X169989500Y-123050001D01*
X169989501Y-123050019D01*
X170000000Y-123152796D01*
X170000001Y-123152799D01*
X170018089Y-123207384D01*
X170055186Y-123319334D01*
X170147288Y-123468656D01*
X170271344Y-123592712D01*
X170420666Y-123684814D01*
X170587203Y-123739999D01*
X170689991Y-123750500D01*
X171690008Y-123750499D01*
X171690016Y-123750498D01*
X171690019Y-123750498D01*
X171746302Y-123744748D01*
X171792797Y-123739999D01*
X171959334Y-123684814D01*
X172108656Y-123592712D01*
X172232712Y-123468656D01*
X172324814Y-123319334D01*
X172379999Y-123152797D01*
X172390500Y-123050009D01*
X172390499Y-122249992D01*
X172384369Y-122189983D01*
X173879500Y-122189983D01*
X173879500Y-123090001D01*
X173879501Y-123090019D01*
X173890000Y-123192796D01*
X173890001Y-123192799D01*
X173922656Y-123291344D01*
X173945186Y-123359334D01*
X174037288Y-123508656D01*
X174161344Y-123632712D01*
X174310666Y-123724814D01*
X174477203Y-123779999D01*
X174579991Y-123790500D01*
X175880008Y-123790499D01*
X175982797Y-123779999D01*
X176149334Y-123724814D01*
X176298656Y-123632712D01*
X176422712Y-123508656D01*
X176514814Y-123359334D01*
X176569999Y-123192797D01*
X176580500Y-123090009D01*
X176580499Y-122189992D01*
X176569999Y-122087203D01*
X176514814Y-121920666D01*
X176422712Y-121771344D01*
X176298656Y-121647288D01*
X176205888Y-121590069D01*
X176149336Y-121555187D01*
X176149331Y-121555185D01*
X176132175Y-121549500D01*
X175982797Y-121500001D01*
X175982795Y-121500000D01*
X175880010Y-121489500D01*
X174579998Y-121489500D01*
X174579981Y-121489501D01*
X174477203Y-121500000D01*
X174477200Y-121500001D01*
X174310668Y-121555185D01*
X174310663Y-121555187D01*
X174161342Y-121647289D01*
X174037289Y-121771342D01*
X173945187Y-121920663D01*
X173945185Y-121920668D01*
X173942875Y-121927639D01*
X173890001Y-122087203D01*
X173890001Y-122087204D01*
X173890000Y-122087204D01*
X173879500Y-122189983D01*
X172384369Y-122189983D01*
X172379999Y-122147203D01*
X172324814Y-121980666D01*
X172232712Y-121831344D01*
X172108656Y-121707288D01*
X171959334Y-121615186D01*
X171792797Y-121560001D01*
X171792795Y-121560000D01*
X171690010Y-121549500D01*
X170689998Y-121549500D01*
X170689980Y-121549501D01*
X170587203Y-121560000D01*
X170587200Y-121560001D01*
X170420668Y-121615185D01*
X170420663Y-121615187D01*
X170271342Y-121707289D01*
X170147289Y-121831342D01*
X170055187Y-121980663D01*
X170055186Y-121980666D01*
X170000001Y-122147203D01*
X170000001Y-122147204D01*
X170000000Y-122147204D01*
X169989500Y-122249983D01*
X166658492Y-122249983D01*
X166801598Y-122106877D01*
X166927102Y-121927639D01*
X167019575Y-121729330D01*
X167076207Y-121517977D01*
X167095277Y-121300000D01*
X167076207Y-121082023D01*
X167039624Y-120945493D01*
X167019577Y-120870677D01*
X167019576Y-120870676D01*
X167019575Y-120870670D01*
X166927102Y-120672362D01*
X166927100Y-120672359D01*
X166927099Y-120672357D01*
X166801599Y-120493124D01*
X166801596Y-120493121D01*
X166646877Y-120338402D01*
X166635607Y-120330510D01*
X166493376Y-120230918D01*
X166449751Y-120176341D01*
X166440500Y-120129344D01*
X166440500Y-117780792D01*
X166460185Y-117713753D01*
X166499220Y-117675367D01*
X166569062Y-117632124D01*
X166733481Y-117482236D01*
X166867558Y-117304689D01*
X166948320Y-117142499D01*
X169984357Y-117142499D01*
X169984357Y-117142500D01*
X170004884Y-117364035D01*
X170004885Y-117364037D01*
X170065769Y-117578023D01*
X170065775Y-117578038D01*
X170164938Y-117777183D01*
X170164943Y-117777191D01*
X170299020Y-117954738D01*
X170463437Y-118104623D01*
X170463439Y-118104625D01*
X170652595Y-118221745D01*
X170652596Y-118221745D01*
X170652599Y-118221747D01*
X170860060Y-118302118D01*
X171078757Y-118343000D01*
X171078759Y-118343000D01*
X171301241Y-118343000D01*
X171301243Y-118343000D01*
X171519940Y-118302118D01*
X171727401Y-118221747D01*
X171916562Y-118104624D01*
X172080981Y-117954736D01*
X172215058Y-117777189D01*
X172314229Y-117578028D01*
X172375115Y-117364036D01*
X172395643Y-117142500D01*
X172390631Y-117088416D01*
X172375115Y-116920964D01*
X172375114Y-116920962D01*
X172366741Y-116891535D01*
X172314229Y-116706972D01*
X172305778Y-116690000D01*
X172215061Y-116507816D01*
X172215056Y-116507808D01*
X172080979Y-116330261D01*
X171916562Y-116180376D01*
X171916560Y-116180374D01*
X171727404Y-116063254D01*
X171727398Y-116063251D01*
X171595538Y-116012169D01*
X171532784Y-115987858D01*
X171477385Y-115945286D01*
X171453794Y-115879519D01*
X171469505Y-115811439D01*
X171519529Y-115762660D01*
X171532786Y-115756605D01*
X171727177Y-115681297D01*
X171727181Y-115681295D01*
X171843326Y-115609379D01*
X171236448Y-115002500D01*
X171242661Y-115002500D01*
X171344394Y-114975241D01*
X171435606Y-114922580D01*
X171510080Y-114848106D01*
X171562741Y-114756894D01*
X171590000Y-114655161D01*
X171590000Y-114648947D01*
X172198861Y-115257808D01*
X172214631Y-115236925D01*
X172214633Y-115236922D01*
X172313759Y-115037850D01*
X172374621Y-114823939D01*
X172395141Y-114602500D01*
X172395141Y-114602499D01*
X172374621Y-114381060D01*
X172313759Y-114167149D01*
X172214635Y-113968080D01*
X172214630Y-113968072D01*
X172198860Y-113947190D01*
X171590000Y-114556051D01*
X171590000Y-114549839D01*
X171562741Y-114448106D01*
X171510080Y-114356894D01*
X171435606Y-114282420D01*
X171344394Y-114229759D01*
X171242661Y-114202500D01*
X171236448Y-114202500D01*
X171843327Y-113595619D01*
X171727178Y-113523702D01*
X171727177Y-113523701D01*
X171519804Y-113443365D01*
X171301193Y-113402500D01*
X171078807Y-113402500D01*
X170860195Y-113443365D01*
X170652824Y-113523700D01*
X170652823Y-113523701D01*
X170536671Y-113595619D01*
X171143553Y-114202500D01*
X171137339Y-114202500D01*
X171035606Y-114229759D01*
X170944394Y-114282420D01*
X170869920Y-114356894D01*
X170817259Y-114448106D01*
X170790000Y-114549839D01*
X170790000Y-114556053D01*
X170181138Y-113947191D01*
X170181137Y-113947191D01*
X170165368Y-113968074D01*
X170066240Y-114167149D01*
X170005378Y-114381060D01*
X169984859Y-114602499D01*
X169984859Y-114602500D01*
X170005378Y-114823939D01*
X170066240Y-115037850D01*
X170165369Y-115236928D01*
X170181137Y-115257808D01*
X170181138Y-115257808D01*
X170790000Y-114648946D01*
X170790000Y-114655161D01*
X170817259Y-114756894D01*
X170869920Y-114848106D01*
X170944394Y-114922580D01*
X171035606Y-114975241D01*
X171137339Y-115002500D01*
X171143553Y-115002500D01*
X170536672Y-115609379D01*
X170536672Y-115609380D01*
X170652821Y-115681297D01*
X170652822Y-115681298D01*
X170847213Y-115756605D01*
X170902614Y-115799178D01*
X170926205Y-115864945D01*
X170910494Y-115933025D01*
X170860470Y-115981804D01*
X170847213Y-115987859D01*
X170652601Y-116063251D01*
X170652595Y-116063254D01*
X170463439Y-116180374D01*
X170463437Y-116180376D01*
X170299020Y-116330261D01*
X170164943Y-116507808D01*
X170164938Y-116507816D01*
X170065775Y-116706961D01*
X170065769Y-116706976D01*
X170004885Y-116920962D01*
X170004884Y-116920964D01*
X169984357Y-117142499D01*
X166948320Y-117142499D01*
X166966729Y-117105528D01*
X167027615Y-116891536D01*
X167048143Y-116670000D01*
X167027615Y-116448464D01*
X166966729Y-116234472D01*
X166962682Y-116226344D01*
X166867561Y-116035316D01*
X166867556Y-116035308D01*
X166733479Y-115857761D01*
X166569062Y-115707876D01*
X166569060Y-115707874D01*
X166379904Y-115590754D01*
X166379895Y-115590750D01*
X166286456Y-115554552D01*
X166185975Y-115515625D01*
X166130575Y-115473054D01*
X166106984Y-115407288D01*
X166122695Y-115339207D01*
X166172719Y-115290428D01*
X166185966Y-115284377D01*
X166379901Y-115209247D01*
X166569062Y-115092124D01*
X166692071Y-114979986D01*
X167297501Y-114979986D01*
X167307994Y-115082697D01*
X167363141Y-115249119D01*
X167363143Y-115249124D01*
X167455184Y-115398345D01*
X167579154Y-115522315D01*
X167728375Y-115614356D01*
X167728380Y-115614358D01*
X167894802Y-115669505D01*
X167894809Y-115669506D01*
X167997519Y-115679999D01*
X168272499Y-115679999D01*
X168772500Y-115679999D01*
X169047472Y-115679999D01*
X169047486Y-115679998D01*
X169150197Y-115669505D01*
X169316619Y-115614358D01*
X169316624Y-115614356D01*
X169465845Y-115522315D01*
X169589815Y-115398345D01*
X169681856Y-115249124D01*
X169681858Y-115249119D01*
X169737005Y-115082697D01*
X169737006Y-115082690D01*
X169747499Y-114979986D01*
X169747500Y-114979973D01*
X169747500Y-114842500D01*
X168772500Y-114842500D01*
X168772500Y-115679999D01*
X168272499Y-115679999D01*
X168272500Y-115679998D01*
X168272500Y-114842500D01*
X167297501Y-114842500D01*
X167297501Y-114979986D01*
X166692071Y-114979986D01*
X166733481Y-114942236D01*
X166867558Y-114764689D01*
X166966729Y-114565528D01*
X166970374Y-114552718D01*
X168322500Y-114552718D01*
X168322500Y-114632282D01*
X168352948Y-114705791D01*
X168409209Y-114762052D01*
X168482718Y-114792500D01*
X168562282Y-114792500D01*
X168635791Y-114762052D01*
X168692052Y-114705791D01*
X168722500Y-114632282D01*
X168722500Y-114552718D01*
X168692052Y-114479209D01*
X168635791Y-114422948D01*
X168562282Y-114392500D01*
X168482718Y-114392500D01*
X168409209Y-114422948D01*
X168352948Y-114479209D01*
X168322500Y-114552718D01*
X166970374Y-114552718D01*
X167027615Y-114351536D01*
X167041192Y-114205013D01*
X167297500Y-114205013D01*
X167297500Y-114342500D01*
X168272500Y-114342500D01*
X168772500Y-114342500D01*
X169747499Y-114342500D01*
X169747499Y-114205028D01*
X169747498Y-114205013D01*
X169737005Y-114102302D01*
X169681858Y-113935880D01*
X169681856Y-113935875D01*
X169589815Y-113786654D01*
X169465845Y-113662684D01*
X169316624Y-113570643D01*
X169316619Y-113570641D01*
X169150197Y-113515494D01*
X169150190Y-113515493D01*
X169047486Y-113505000D01*
X168772500Y-113505000D01*
X168772500Y-114342500D01*
X168272500Y-114342500D01*
X168272500Y-113505000D01*
X167997529Y-113505000D01*
X167997512Y-113505001D01*
X167894802Y-113515494D01*
X167728380Y-113570641D01*
X167728375Y-113570643D01*
X167579154Y-113662684D01*
X167455184Y-113786654D01*
X167363143Y-113935875D01*
X167363141Y-113935880D01*
X167307994Y-114102302D01*
X167307993Y-114102309D01*
X167297500Y-114205013D01*
X167041192Y-114205013D01*
X167048143Y-114130000D01*
X167045576Y-114102302D01*
X167027615Y-113908464D01*
X167027614Y-113908462D01*
X167020639Y-113883949D01*
X166966729Y-113694472D01*
X166962682Y-113686344D01*
X166867561Y-113495316D01*
X166867556Y-113495308D01*
X166733479Y-113317761D01*
X166569063Y-113167877D01*
X166569062Y-113167876D01*
X166501721Y-113126180D01*
X166455087Y-113074153D01*
X166443000Y-113020754D01*
X166443000Y-110102412D01*
X166462685Y-110035373D01*
X166470055Y-110025097D01*
X166472310Y-110022267D01*
X166472316Y-110022262D01*
X166568289Y-109869522D01*
X166569876Y-109864986D01*
X170215001Y-109864986D01*
X170225494Y-109967697D01*
X170280641Y-110134119D01*
X170280643Y-110134124D01*
X170372684Y-110283345D01*
X170496654Y-110407315D01*
X170645875Y-110499356D01*
X170645880Y-110499358D01*
X170812302Y-110554505D01*
X170812309Y-110554506D01*
X170915019Y-110564999D01*
X171189999Y-110564999D01*
X171190000Y-110564998D01*
X171190000Y-109727500D01*
X170215001Y-109727500D01*
X170215001Y-109864986D01*
X166569876Y-109864986D01*
X166627868Y-109699255D01*
X166637046Y-109617796D01*
X166648065Y-109520003D01*
X166648065Y-109519996D01*
X166627869Y-109340750D01*
X166627868Y-109340745D01*
X166568288Y-109170476D01*
X166491166Y-109047738D01*
X166472316Y-109017738D01*
X166344762Y-108890184D01*
X166302031Y-108863334D01*
X166192023Y-108794211D01*
X166021754Y-108734631D01*
X166021749Y-108734630D01*
X165842504Y-108714435D01*
X165842496Y-108714435D01*
X165663250Y-108734630D01*
X165663245Y-108734631D01*
X165492976Y-108794211D01*
X165340237Y-108890184D01*
X165212684Y-109017737D01*
X165116711Y-109170476D01*
X165057131Y-109340745D01*
X165057130Y-109340750D01*
X165036935Y-109519996D01*
X165036935Y-109520003D01*
X165057130Y-109699249D01*
X165057131Y-109699254D01*
X165116711Y-109869523D01*
X165161876Y-109941402D01*
X165197467Y-109998045D01*
X165212685Y-110022263D01*
X165214945Y-110025097D01*
X165215834Y-110027275D01*
X165216389Y-110028158D01*
X165216234Y-110028255D01*
X165241355Y-110089783D01*
X165242000Y-110102412D01*
X165242000Y-113020754D01*
X165222315Y-113087793D01*
X165183278Y-113126181D01*
X165115936Y-113167877D01*
X164951520Y-113317761D01*
X164817443Y-113495308D01*
X164817438Y-113495316D01*
X164718275Y-113694461D01*
X164718269Y-113694476D01*
X164657385Y-113908462D01*
X164657384Y-113908464D01*
X164636857Y-114129999D01*
X164636857Y-114130000D01*
X164657384Y-114351535D01*
X164657385Y-114351537D01*
X164718269Y-114565523D01*
X164718275Y-114565538D01*
X164817438Y-114764683D01*
X164817443Y-114764691D01*
X164951520Y-114942238D01*
X165115937Y-115092123D01*
X165115939Y-115092125D01*
X165305095Y-115209245D01*
X165305096Y-115209245D01*
X165305099Y-115209247D01*
X165499024Y-115284374D01*
X165554424Y-115326946D01*
X165578015Y-115392713D01*
X165562304Y-115460793D01*
X165512280Y-115509572D01*
X165499033Y-115515622D01*
X165377378Y-115562752D01*
X165305101Y-115590752D01*
X165305095Y-115590754D01*
X165115939Y-115707874D01*
X165115937Y-115707876D01*
X164951520Y-115857761D01*
X164817443Y-116035308D01*
X164817438Y-116035316D01*
X164718275Y-116234461D01*
X164718269Y-116234476D01*
X164657385Y-116448462D01*
X164657384Y-116448464D01*
X164636857Y-116669999D01*
X164636857Y-116670000D01*
X164657384Y-116891535D01*
X164657385Y-116891537D01*
X164718269Y-117105523D01*
X164718275Y-117105538D01*
X164817438Y-117304683D01*
X164817443Y-117304691D01*
X164951520Y-117482238D01*
X165115936Y-117632123D01*
X165115938Y-117632124D01*
X165180777Y-117672270D01*
X165227413Y-117724297D01*
X165239500Y-117777697D01*
X165239500Y-120129345D01*
X165219815Y-120196384D01*
X165186623Y-120230920D01*
X165033121Y-120338402D01*
X164878402Y-120493121D01*
X164752900Y-120672357D01*
X164752898Y-120672361D01*
X164660426Y-120870668D01*
X164660422Y-120870677D01*
X164603793Y-121082020D01*
X164603793Y-121082024D01*
X164584723Y-121299997D01*
X162215277Y-121299997D01*
X162196207Y-121082023D01*
X162159624Y-120945493D01*
X162139577Y-120870677D01*
X162139576Y-120870676D01*
X162139575Y-120870670D01*
X162047102Y-120672362D01*
X162047100Y-120672359D01*
X162047099Y-120672357D01*
X161921599Y-120493124D01*
X161921596Y-120493121D01*
X161766877Y-120338402D01*
X161749851Y-120326480D01*
X161615876Y-120232669D01*
X161572251Y-120178092D01*
X161563000Y-120131095D01*
X161563000Y-117779244D01*
X161582685Y-117712205D01*
X161621720Y-117673819D01*
X161689062Y-117632124D01*
X161853481Y-117482236D01*
X161987558Y-117304689D01*
X162086729Y-117105528D01*
X162147615Y-116891536D01*
X162168143Y-116670000D01*
X162147615Y-116448464D01*
X162086729Y-116234472D01*
X162082682Y-116226344D01*
X161987561Y-116035316D01*
X161987556Y-116035308D01*
X161853479Y-115857761D01*
X161689062Y-115707876D01*
X161689060Y-115707874D01*
X161499904Y-115590754D01*
X161499895Y-115590750D01*
X161406456Y-115554552D01*
X161305975Y-115515625D01*
X161250575Y-115473054D01*
X161226984Y-115407288D01*
X161242695Y-115339207D01*
X161292719Y-115290428D01*
X161305966Y-115284377D01*
X161499901Y-115209247D01*
X161689062Y-115092124D01*
X161853481Y-114942236D01*
X161987558Y-114764689D01*
X162086729Y-114565528D01*
X162147615Y-114351536D01*
X162168143Y-114130000D01*
X162165576Y-114102302D01*
X162147615Y-113908464D01*
X162147614Y-113908462D01*
X162140639Y-113883949D01*
X162086729Y-113694472D01*
X162082682Y-113686344D01*
X161987561Y-113495316D01*
X161987556Y-113495308D01*
X161853479Y-113317761D01*
X161689063Y-113167877D01*
X161689062Y-113167876D01*
X161621721Y-113126180D01*
X161575087Y-113074153D01*
X161563000Y-113020754D01*
X161563000Y-110132412D01*
X161582685Y-110065373D01*
X161590055Y-110055097D01*
X161592310Y-110052267D01*
X161592316Y-110052262D01*
X161688289Y-109899522D01*
X161747868Y-109729255D01*
X161749788Y-109712217D01*
X161768065Y-109550003D01*
X161768065Y-109549996D01*
X161747869Y-109370750D01*
X161747868Y-109370745D01*
X161737372Y-109340750D01*
X161688289Y-109200478D01*
X161688048Y-109200095D01*
X161618879Y-109090013D01*
X161592316Y-109047738D01*
X161464762Y-108920184D01*
X161417048Y-108890203D01*
X161312023Y-108824211D01*
X161141754Y-108764631D01*
X161141749Y-108764630D01*
X160962504Y-108744435D01*
X160962496Y-108744435D01*
X160783250Y-108764630D01*
X160783245Y-108764631D01*
X160612976Y-108824211D01*
X160460237Y-108920184D01*
X160332684Y-109047737D01*
X160236711Y-109200476D01*
X160177131Y-109370745D01*
X160177130Y-109370750D01*
X160156935Y-109549996D01*
X160156935Y-109550003D01*
X160177130Y-109729249D01*
X160177131Y-109729254D01*
X160236711Y-109899523D01*
X160285737Y-109977546D01*
X160332254Y-110051578D01*
X160332685Y-110052263D01*
X160334945Y-110055097D01*
X160335834Y-110057275D01*
X160336389Y-110058158D01*
X160336234Y-110058255D01*
X160361355Y-110119783D01*
X160362000Y-110132412D01*
X160362000Y-113020754D01*
X160342315Y-113087793D01*
X160303278Y-113126181D01*
X160235936Y-113167877D01*
X160071520Y-113317761D01*
X159937443Y-113495308D01*
X159937438Y-113495316D01*
X159838275Y-113694461D01*
X159838269Y-113694476D01*
X159777385Y-113908462D01*
X159777384Y-113908464D01*
X159756857Y-114129999D01*
X159756857Y-114130000D01*
X159777384Y-114351535D01*
X159777385Y-114351537D01*
X159838269Y-114565523D01*
X159838275Y-114565538D01*
X159937438Y-114764683D01*
X159937443Y-114764691D01*
X160071520Y-114942238D01*
X160235937Y-115092123D01*
X160235939Y-115092125D01*
X160425095Y-115209245D01*
X160425096Y-115209245D01*
X160425099Y-115209247D01*
X160619024Y-115284374D01*
X160674424Y-115326946D01*
X160698015Y-115392713D01*
X160682304Y-115460793D01*
X160632280Y-115509572D01*
X160619033Y-115515622D01*
X160497378Y-115562752D01*
X160425101Y-115590752D01*
X160425095Y-115590754D01*
X160235939Y-115707874D01*
X160235937Y-115707876D01*
X160071520Y-115857761D01*
X159937443Y-116035308D01*
X159937438Y-116035316D01*
X159838275Y-116234461D01*
X159838269Y-116234476D01*
X159777385Y-116448462D01*
X159777384Y-116448464D01*
X159756857Y-116669999D01*
X159756857Y-116670000D01*
X159777384Y-116891535D01*
X159777385Y-116891537D01*
X159838269Y-117105523D01*
X159838275Y-117105538D01*
X159937438Y-117304683D01*
X159937443Y-117304691D01*
X160071520Y-117482238D01*
X160235933Y-117632120D01*
X160235935Y-117632121D01*
X160235938Y-117632124D01*
X160303278Y-117673818D01*
X160349912Y-117725843D01*
X160362000Y-117779244D01*
X160362000Y-120127594D01*
X160342315Y-120194633D01*
X160309124Y-120229169D01*
X160153118Y-120338405D01*
X159998402Y-120493121D01*
X159872900Y-120672357D01*
X159872898Y-120672361D01*
X159780426Y-120870668D01*
X159780422Y-120870677D01*
X159723793Y-121082020D01*
X159723793Y-121082024D01*
X159704723Y-121299997D01*
X152178722Y-121299997D01*
X152127315Y-121216654D01*
X152003345Y-121092684D01*
X151854124Y-121000643D01*
X151854119Y-121000641D01*
X151687697Y-120945494D01*
X151687690Y-120945493D01*
X151584986Y-120935000D01*
X151310000Y-120935000D01*
X151310000Y-121772500D01*
X150810000Y-121772500D01*
X150810000Y-120935000D01*
X150535029Y-120935000D01*
X150535012Y-120935001D01*
X150432302Y-120945494D01*
X150265880Y-121000641D01*
X150265875Y-121000643D01*
X150116654Y-121092684D01*
X149992684Y-121216654D01*
X149900643Y-121365875D01*
X149900641Y-121365880D01*
X149845494Y-121532302D01*
X149845493Y-121532309D01*
X149835000Y-121635013D01*
X141208741Y-121635013D01*
X141200842Y-121615187D01*
X141139858Y-121462128D01*
X141139849Y-121462110D01*
X140972216Y-121145921D01*
X140972214Y-121145918D01*
X140972212Y-121145914D01*
X140771366Y-120849688D01*
X140771362Y-120849683D01*
X140771359Y-120849679D01*
X140539669Y-120576913D01*
X140451211Y-120493121D01*
X140279838Y-120330788D01*
X140279831Y-120330782D01*
X140279828Y-120330780D01*
X140197890Y-120268493D01*
X139994920Y-120114199D01*
X139688254Y-119929684D01*
X139688253Y-119929683D01*
X139688249Y-119929681D01*
X139688245Y-119929679D01*
X139363448Y-119779413D01*
X139363442Y-119779410D01*
X139363436Y-119779408D01*
X139193855Y-119722269D01*
X139024274Y-119665130D01*
X138773738Y-119609983D01*
X144909500Y-119609983D01*
X144909500Y-120710001D01*
X144909501Y-120710019D01*
X144920000Y-120812796D01*
X144920001Y-120812799D01*
X144975185Y-120979331D01*
X144975186Y-120979334D01*
X145067288Y-121128656D01*
X145191344Y-121252712D01*
X145340666Y-121344814D01*
X145507203Y-121399999D01*
X145609991Y-121410500D01*
X147910008Y-121410499D01*
X148012797Y-121399999D01*
X148179334Y-121344814D01*
X148328656Y-121252712D01*
X148452712Y-121128656D01*
X148544814Y-120979334D01*
X148599999Y-120812797D01*
X148610500Y-120710009D01*
X148610499Y-119609992D01*
X148599999Y-119507203D01*
X148544814Y-119340666D01*
X148452712Y-119191344D01*
X148328656Y-119067288D01*
X148179334Y-118975186D01*
X148012797Y-118920001D01*
X148012795Y-118920000D01*
X147910010Y-118909500D01*
X145609998Y-118909500D01*
X145609981Y-118909501D01*
X145507203Y-118920000D01*
X145507200Y-118920001D01*
X145340668Y-118975185D01*
X145340663Y-118975187D01*
X145191342Y-119067289D01*
X145067289Y-119191342D01*
X144975187Y-119340663D01*
X144975186Y-119340666D01*
X144920001Y-119507203D01*
X144920001Y-119507204D01*
X144920000Y-119507204D01*
X144909500Y-119609983D01*
X138773738Y-119609983D01*
X138674745Y-119588193D01*
X138318950Y-119549499D01*
X138318949Y-119549499D01*
X137961053Y-119549499D01*
X137961051Y-119549499D01*
X137605256Y-119588193D01*
X137255727Y-119665130D01*
X136999971Y-119751305D01*
X136916566Y-119779408D01*
X136916564Y-119779409D01*
X136916553Y-119779413D01*
X136591756Y-119929679D01*
X136591752Y-119929681D01*
X136363368Y-120067095D01*
X136285082Y-120114199D01*
X136265158Y-120129345D01*
X136000173Y-120330780D01*
X136000164Y-120330788D01*
X135740332Y-120576913D01*
X135508642Y-120849679D01*
X135508635Y-120849689D01*
X135307791Y-121145912D01*
X135307785Y-121145922D01*
X135274055Y-121209543D01*
X135225261Y-121259553D01*
X135157176Y-121275244D01*
X135091417Y-121251634D01*
X135048860Y-121196220D01*
X135040500Y-121151460D01*
X135040500Y-108164984D01*
X136729500Y-108164984D01*
X136729500Y-109515015D01*
X136740000Y-109617795D01*
X136740001Y-109617796D01*
X136795186Y-109784335D01*
X136795187Y-109784337D01*
X136887286Y-109933651D01*
X136887289Y-109933655D01*
X137011345Y-110057711D01*
X137133099Y-110132810D01*
X137179821Y-110184756D01*
X137192000Y-110238347D01*
X137192000Y-116096418D01*
X137192000Y-116096420D01*
X137191999Y-116096420D01*
X137220840Y-116241407D01*
X137220843Y-116241417D01*
X137277413Y-116377990D01*
X137277414Y-116377991D01*
X137277416Y-116377995D01*
X137297019Y-116407332D01*
X137297020Y-116407334D01*
X137359551Y-116500920D01*
X137359552Y-116500921D01*
X137942707Y-117084074D01*
X137942728Y-117084097D01*
X138727049Y-117868416D01*
X138831584Y-117972951D01*
X138831587Y-117972953D01*
X138831588Y-117972954D01*
X138954503Y-118055083D01*
X138954506Y-118055085D01*
X139011079Y-118078518D01*
X139011080Y-118078518D01*
X139091088Y-118111659D01*
X139207241Y-118134763D01*
X139226468Y-118138587D01*
X139236081Y-118140500D01*
X139236082Y-118140500D01*
X139236083Y-118140500D01*
X139383918Y-118140500D01*
X141210028Y-118140500D01*
X141250983Y-118147458D01*
X141330745Y-118175368D01*
X141330750Y-118175369D01*
X141509996Y-118195565D01*
X141510000Y-118195565D01*
X141510004Y-118195565D01*
X141689249Y-118175369D01*
X141689252Y-118175368D01*
X141689255Y-118175368D01*
X141859522Y-118115789D01*
X142012262Y-118019816D01*
X142139816Y-117892262D01*
X142235789Y-117739522D01*
X142295368Y-117569255D01*
X142296253Y-117561401D01*
X142315565Y-117390003D01*
X142315565Y-117389996D01*
X142295369Y-117210750D01*
X142295368Y-117210745D01*
X142281214Y-117170295D01*
X142235789Y-117040478D01*
X142139816Y-116887738D01*
X142012262Y-116760184D01*
X141859523Y-116664211D01*
X141689254Y-116604631D01*
X141689249Y-116604630D01*
X141510004Y-116584435D01*
X141509996Y-116584435D01*
X141330750Y-116604630D01*
X141330745Y-116604631D01*
X141250983Y-116632542D01*
X141210028Y-116639500D01*
X139672229Y-116639500D01*
X139605190Y-116619815D01*
X139584548Y-116603181D01*
X139004097Y-116022728D01*
X139004074Y-116022707D01*
X138729319Y-115747951D01*
X138695834Y-115686628D01*
X138693000Y-115660270D01*
X138693000Y-113569994D01*
X139205057Y-113569994D01*
X139205057Y-113570005D01*
X139224807Y-113883942D01*
X139224808Y-113883949D01*
X139283755Y-114192958D01*
X139380963Y-114492132D01*
X139380965Y-114492137D01*
X139514900Y-114776761D01*
X139514903Y-114776767D01*
X139683457Y-115042367D01*
X139683460Y-115042371D01*
X139774286Y-115152160D01*
X140737913Y-114188533D01*
X140832829Y-114319175D01*
X140960825Y-114447171D01*
X141091465Y-114542086D01*
X140124971Y-115508579D01*
X140124972Y-115508581D01*
X140367772Y-115684985D01*
X140367790Y-115684996D01*
X140643447Y-115836540D01*
X140643455Y-115836544D01*
X140935926Y-115952340D01*
X141240620Y-116030573D01*
X141240629Y-116030575D01*
X141552701Y-116069999D01*
X141552715Y-116070000D01*
X141867285Y-116070000D01*
X141867298Y-116069999D01*
X142179370Y-116030575D01*
X142179379Y-116030573D01*
X142484073Y-115952340D01*
X142776544Y-115836544D01*
X142776552Y-115836540D01*
X143052209Y-115684996D01*
X143052219Y-115684990D01*
X143295026Y-115508579D01*
X143295027Y-115508579D01*
X142328533Y-114542086D01*
X142459175Y-114447171D01*
X142587171Y-114319175D01*
X142682086Y-114188534D01*
X143645712Y-115152160D01*
X143736544Y-115042364D01*
X143769784Y-114989986D01*
X156977501Y-114989986D01*
X156987994Y-115092697D01*
X157043141Y-115259119D01*
X157043143Y-115259124D01*
X157135184Y-115408345D01*
X157259154Y-115532315D01*
X157408375Y-115624356D01*
X157408380Y-115624358D01*
X157574802Y-115679505D01*
X157574809Y-115679506D01*
X157677519Y-115689999D01*
X157952499Y-115689999D01*
X158452500Y-115689999D01*
X158727472Y-115689999D01*
X158727486Y-115689998D01*
X158830197Y-115679505D01*
X158996619Y-115624358D01*
X158996624Y-115624356D01*
X159145845Y-115532315D01*
X159269815Y-115408345D01*
X159361856Y-115259124D01*
X159361858Y-115259119D01*
X159417005Y-115092697D01*
X159417006Y-115092690D01*
X159427499Y-114989986D01*
X159427500Y-114989973D01*
X159427500Y-114852500D01*
X158452500Y-114852500D01*
X158452500Y-115689999D01*
X157952499Y-115689999D01*
X157952500Y-115689998D01*
X157952500Y-114852500D01*
X156977501Y-114852500D01*
X156977501Y-114989986D01*
X143769784Y-114989986D01*
X143905096Y-114776767D01*
X143905099Y-114776761D01*
X144005821Y-114562718D01*
X158002500Y-114562718D01*
X158002500Y-114642282D01*
X158032948Y-114715791D01*
X158089209Y-114772052D01*
X158162718Y-114802500D01*
X158242282Y-114802500D01*
X158315791Y-114772052D01*
X158372052Y-114715791D01*
X158402500Y-114642282D01*
X158402500Y-114562718D01*
X158372052Y-114489209D01*
X158315791Y-114432948D01*
X158242282Y-114402500D01*
X158162718Y-114402500D01*
X158089209Y-114432948D01*
X158032948Y-114489209D01*
X158002500Y-114562718D01*
X144005821Y-114562718D01*
X144039034Y-114492137D01*
X144039036Y-114492132D01*
X144129078Y-114215013D01*
X156977500Y-114215013D01*
X156977500Y-114352500D01*
X157952500Y-114352500D01*
X158452500Y-114352500D01*
X159427499Y-114352500D01*
X159427499Y-114215028D01*
X159427498Y-114215013D01*
X159417005Y-114112302D01*
X159361858Y-113945880D01*
X159361856Y-113945875D01*
X159269815Y-113796654D01*
X159145845Y-113672684D01*
X158996624Y-113580643D01*
X158996619Y-113580641D01*
X158830197Y-113525494D01*
X158830190Y-113525493D01*
X158727486Y-113515000D01*
X158452500Y-113515000D01*
X158452500Y-114352500D01*
X157952500Y-114352500D01*
X157952500Y-113515000D01*
X157677529Y-113515000D01*
X157677512Y-113515001D01*
X157574802Y-113525494D01*
X157408380Y-113580641D01*
X157408375Y-113580643D01*
X157259154Y-113672684D01*
X157135184Y-113796654D01*
X157043143Y-113945875D01*
X157043141Y-113945880D01*
X156987994Y-114112302D01*
X156987993Y-114112309D01*
X156977500Y-114215013D01*
X144129078Y-114215013D01*
X144136244Y-114192958D01*
X144195191Y-113883949D01*
X144195192Y-113883942D01*
X144214943Y-113570005D01*
X144214943Y-113569994D01*
X144204247Y-113399986D01*
X148850001Y-113399986D01*
X148860494Y-113502697D01*
X148915641Y-113669119D01*
X148915643Y-113669124D01*
X149007684Y-113818345D01*
X149131654Y-113942315D01*
X149280875Y-114034356D01*
X149280880Y-114034358D01*
X149447302Y-114089505D01*
X149447309Y-114089506D01*
X149550019Y-114099999D01*
X149849999Y-114099999D01*
X150350000Y-114099999D01*
X150649972Y-114099999D01*
X150649986Y-114099998D01*
X150752697Y-114089505D01*
X150919119Y-114034358D01*
X150919124Y-114034356D01*
X151068345Y-113942315D01*
X151192315Y-113818345D01*
X151284356Y-113669124D01*
X151284358Y-113669119D01*
X151339505Y-113502697D01*
X151339506Y-113502690D01*
X151349999Y-113399986D01*
X151350000Y-113399973D01*
X151350000Y-112500000D01*
X150350000Y-112500000D01*
X150350000Y-114099999D01*
X149849999Y-114099999D01*
X149850000Y-114099998D01*
X149850000Y-112500000D01*
X148850001Y-112500000D01*
X148850001Y-113399986D01*
X144204247Y-113399986D01*
X144195192Y-113256057D01*
X144195191Y-113256050D01*
X144136244Y-112947041D01*
X144039036Y-112647867D01*
X144039034Y-112647862D01*
X143905099Y-112363238D01*
X143905096Y-112363232D01*
X143808172Y-112210504D01*
X149800000Y-112210504D01*
X149800000Y-112289496D01*
X149820444Y-112365796D01*
X149859940Y-112434205D01*
X149915795Y-112490060D01*
X149984204Y-112529556D01*
X150060504Y-112550000D01*
X150139496Y-112550000D01*
X150215796Y-112529556D01*
X150284205Y-112490060D01*
X150340060Y-112434205D01*
X150379556Y-112365796D01*
X150400000Y-112289496D01*
X150400000Y-112210504D01*
X150379556Y-112134204D01*
X150340060Y-112065795D01*
X150284205Y-112009940D01*
X150266988Y-112000000D01*
X150350000Y-112000000D01*
X151349999Y-112000000D01*
X151349999Y-111100028D01*
X151349998Y-111100013D01*
X151339505Y-110997302D01*
X151284358Y-110830880D01*
X151284356Y-110830875D01*
X151192315Y-110681654D01*
X151068345Y-110557684D01*
X150919124Y-110465643D01*
X150919119Y-110465641D01*
X150752697Y-110410494D01*
X150752690Y-110410493D01*
X150649986Y-110400000D01*
X150350000Y-110400000D01*
X150350000Y-112000000D01*
X150266988Y-112000000D01*
X150215796Y-111970444D01*
X150139496Y-111950000D01*
X150060504Y-111950000D01*
X149984204Y-111970444D01*
X149915795Y-112009940D01*
X149859940Y-112065795D01*
X149820444Y-112134204D01*
X149800000Y-112210504D01*
X143808172Y-112210504D01*
X143736542Y-112097632D01*
X143736539Y-112097628D01*
X143645712Y-111987838D01*
X142682085Y-112951465D01*
X142587171Y-112820825D01*
X142459175Y-112692829D01*
X142328533Y-112597913D01*
X143295027Y-111631419D01*
X143295026Y-111631417D01*
X143052227Y-111455014D01*
X143052209Y-111455003D01*
X142776552Y-111303459D01*
X142776544Y-111303455D01*
X142484073Y-111187659D01*
X142179379Y-111109426D01*
X142179370Y-111109424D01*
X141867298Y-111070000D01*
X141552701Y-111070000D01*
X141240629Y-111109424D01*
X141240620Y-111109426D01*
X140935926Y-111187659D01*
X140643455Y-111303455D01*
X140643447Y-111303459D01*
X140367787Y-111455004D01*
X140367782Y-111455007D01*
X140124972Y-111631418D01*
X140124971Y-111631419D01*
X141091466Y-112597913D01*
X140960825Y-112692829D01*
X140832829Y-112820825D01*
X140737913Y-112951465D01*
X139774286Y-111987838D01*
X139774285Y-111987838D01*
X139683459Y-112097629D01*
X139683457Y-112097632D01*
X139514903Y-112363232D01*
X139514900Y-112363238D01*
X139380965Y-112647862D01*
X139380963Y-112647867D01*
X139283755Y-112947041D01*
X139224808Y-113256050D01*
X139224807Y-113256057D01*
X139205057Y-113569994D01*
X138693000Y-113569994D01*
X138693000Y-110238347D01*
X138712685Y-110171308D01*
X138751899Y-110132810D01*
X138873655Y-110057711D01*
X138997711Y-109933655D01*
X139089814Y-109784334D01*
X139144999Y-109617797D01*
X139155500Y-109515008D01*
X139155500Y-108164992D01*
X139155499Y-108164984D01*
X139704500Y-108164984D01*
X139704500Y-109515015D01*
X139715000Y-109617795D01*
X139715001Y-109617796D01*
X139770186Y-109784335D01*
X139770187Y-109784337D01*
X139862286Y-109933651D01*
X139862289Y-109933655D01*
X139986344Y-110057710D01*
X139986348Y-110057713D01*
X140135662Y-110149812D01*
X140135664Y-110149813D01*
X140135666Y-110149814D01*
X140302203Y-110204999D01*
X140404992Y-110215500D01*
X140404997Y-110215500D01*
X141430003Y-110215500D01*
X141430008Y-110215500D01*
X141532797Y-110204999D01*
X141699334Y-110149814D01*
X141848655Y-110057711D01*
X141879818Y-110026546D01*
X141941138Y-109993063D01*
X142010829Y-109998045D01*
X142055180Y-110026547D01*
X143127049Y-111098416D01*
X143231584Y-111202951D01*
X143231587Y-111202953D01*
X143231588Y-111202954D01*
X143354503Y-111285083D01*
X143354506Y-111285085D01*
X143434369Y-111318165D01*
X143434370Y-111318165D01*
X143491087Y-111341658D01*
X143491091Y-111341658D01*
X143491092Y-111341659D01*
X143636079Y-111370500D01*
X143636082Y-111370500D01*
X146083920Y-111370500D01*
X146181462Y-111351096D01*
X146228913Y-111341658D01*
X146365495Y-111285084D01*
X146414729Y-111252186D01*
X146488416Y-111202952D01*
X146591355Y-111100013D01*
X148850000Y-111100013D01*
X148850000Y-112000000D01*
X149850000Y-112000000D01*
X149850000Y-110400000D01*
X149550028Y-110400000D01*
X149550012Y-110400001D01*
X149447302Y-110410494D01*
X149280880Y-110465641D01*
X149280875Y-110465643D01*
X149131654Y-110557684D01*
X149007684Y-110681654D01*
X148915643Y-110830875D01*
X148915641Y-110830880D01*
X148860494Y-110997302D01*
X148860493Y-110997309D01*
X148850000Y-111100013D01*
X146591355Y-111100013D01*
X147152952Y-110538415D01*
X147221406Y-110435965D01*
X147235084Y-110415495D01*
X147280700Y-110305368D01*
X147291659Y-110278912D01*
X147303356Y-110220102D01*
X147335740Y-110158195D01*
X147396455Y-110123620D01*
X147414588Y-110121015D01*
X147414571Y-110120854D01*
X147477483Y-110114091D01*
X147612328Y-110063797D01*
X147612327Y-110063797D01*
X147612331Y-110063796D01*
X147727546Y-109977546D01*
X147813796Y-109862331D01*
X147864091Y-109727483D01*
X147870500Y-109667873D01*
X147870499Y-108294499D01*
X147890184Y-108227461D01*
X147942987Y-108181706D01*
X147994499Y-108170500D01*
X169073331Y-108170500D01*
X169073347Y-108170501D01*
X169080943Y-108170501D01*
X169239054Y-108170501D01*
X169239057Y-108170501D01*
X169391785Y-108129577D01*
X169461200Y-108089500D01*
X169528716Y-108050520D01*
X169640520Y-107938716D01*
X169640520Y-107938714D01*
X169650724Y-107928511D01*
X169650727Y-107928506D01*
X170002822Y-107576412D01*
X170064142Y-107542929D01*
X170133834Y-107547913D01*
X170189767Y-107589785D01*
X170214184Y-107655249D01*
X170214500Y-107664094D01*
X170214500Y-107790000D01*
X170214501Y-107790019D01*
X170225000Y-107892796D01*
X170225001Y-107892799D01*
X170280185Y-108059331D01*
X170280187Y-108059336D01*
X170281956Y-108062204D01*
X170372288Y-108208656D01*
X170496344Y-108332712D01*
X170499628Y-108334737D01*
X170499653Y-108334753D01*
X170501445Y-108336746D01*
X170502011Y-108337193D01*
X170501934Y-108337289D01*
X170546379Y-108386699D01*
X170557603Y-108455661D01*
X170529761Y-108519744D01*
X170499665Y-108545826D01*
X170496660Y-108547679D01*
X170496655Y-108547683D01*
X170372684Y-108671654D01*
X170280643Y-108820875D01*
X170280641Y-108820880D01*
X170225494Y-108987302D01*
X170225493Y-108987309D01*
X170215000Y-109090013D01*
X170215000Y-109227500D01*
X171566000Y-109227500D01*
X171633039Y-109247185D01*
X171678794Y-109299989D01*
X171690000Y-109351500D01*
X171690000Y-110564999D01*
X171964972Y-110564999D01*
X171964986Y-110564998D01*
X172067697Y-110554505D01*
X172234119Y-110499358D01*
X172234124Y-110499356D01*
X172383345Y-110407315D01*
X172507315Y-110283345D01*
X172589961Y-110149356D01*
X172641909Y-110102632D01*
X172710872Y-110091409D01*
X172774954Y-110119253D01*
X172813810Y-110177322D01*
X172819500Y-110214453D01*
X172819500Y-116097587D01*
X172799815Y-116164626D01*
X172792450Y-116174896D01*
X172790186Y-116177734D01*
X172694211Y-116330476D01*
X172634631Y-116500745D01*
X172634630Y-116500750D01*
X172614435Y-116679996D01*
X172614435Y-116680003D01*
X172634630Y-116859249D01*
X172634631Y-116859254D01*
X172694211Y-117029523D01*
X172741975Y-117105538D01*
X172790184Y-117182262D01*
X172917738Y-117309816D01*
X172941940Y-117325023D01*
X173045343Y-117389996D01*
X173070478Y-117405789D01*
X173240745Y-117465368D01*
X173240750Y-117465369D01*
X173419996Y-117485565D01*
X173420000Y-117485565D01*
X173420004Y-117485565D01*
X173599249Y-117465369D01*
X173599252Y-117465368D01*
X173599255Y-117465368D01*
X173769522Y-117405789D01*
X173903782Y-117321427D01*
X173971017Y-117302427D01*
X174037852Y-117322794D01*
X174075292Y-117361325D01*
X174152288Y-117486156D01*
X174276344Y-117610212D01*
X174425666Y-117702314D01*
X174592203Y-117757499D01*
X174694991Y-117768000D01*
X175745008Y-117767999D01*
X175745016Y-117767998D01*
X175745019Y-117767998D01*
X175801302Y-117762248D01*
X175847797Y-117757499D01*
X176014334Y-117702314D01*
X176163656Y-117610212D01*
X176287712Y-117486156D01*
X176379814Y-117336834D01*
X176434999Y-117170297D01*
X176445500Y-117067509D01*
X176445499Y-116292492D01*
X176434999Y-116189703D01*
X176379814Y-116023166D01*
X176287712Y-115873844D01*
X176163656Y-115749788D01*
X176160342Y-115747743D01*
X176158546Y-115745748D01*
X176157989Y-115745307D01*
X176158064Y-115745211D01*
X176113618Y-115695797D01*
X176102397Y-115626834D01*
X176130240Y-115562752D01*
X176160348Y-115536665D01*
X176163342Y-115534818D01*
X176287315Y-115410845D01*
X176379356Y-115261624D01*
X176379358Y-115261619D01*
X176434505Y-115095197D01*
X176434506Y-115095190D01*
X176444999Y-114992486D01*
X176445000Y-114992473D01*
X176445000Y-114855000D01*
X175094000Y-114855000D01*
X175026961Y-114835315D01*
X174981206Y-114782511D01*
X174970000Y-114731000D01*
X174970000Y-114565218D01*
X175020000Y-114565218D01*
X175020000Y-114644782D01*
X175050448Y-114718291D01*
X175106709Y-114774552D01*
X175180218Y-114805000D01*
X175259782Y-114805000D01*
X175333291Y-114774552D01*
X175389552Y-114718291D01*
X175420000Y-114644782D01*
X175420000Y-114565218D01*
X175389552Y-114491709D01*
X175333291Y-114435448D01*
X175259782Y-114405000D01*
X175180218Y-114405000D01*
X175106709Y-114435448D01*
X175050448Y-114491709D01*
X175020000Y-114565218D01*
X174970000Y-114565218D01*
X174970000Y-114355000D01*
X175470000Y-114355000D01*
X176444999Y-114355000D01*
X176444999Y-114217528D01*
X176444998Y-114217513D01*
X176434505Y-114114802D01*
X176379358Y-113948380D01*
X176379356Y-113948375D01*
X176287315Y-113799154D01*
X176163345Y-113675184D01*
X176014124Y-113583143D01*
X176014119Y-113583141D01*
X175847697Y-113527994D01*
X175847690Y-113527993D01*
X175744986Y-113517500D01*
X175470000Y-113517500D01*
X175470000Y-114355000D01*
X174970000Y-114355000D01*
X174970000Y-113517500D01*
X174695029Y-113517500D01*
X174695012Y-113517501D01*
X174592302Y-113527994D01*
X174425880Y-113583141D01*
X174425875Y-113583143D01*
X174276654Y-113675184D01*
X174232181Y-113719658D01*
X174170858Y-113753143D01*
X174101166Y-113748159D01*
X174045233Y-113706287D01*
X174020816Y-113640823D01*
X174020500Y-113631977D01*
X174020500Y-109042412D01*
X174040185Y-108975373D01*
X174047555Y-108965097D01*
X174049810Y-108962267D01*
X174049816Y-108962262D01*
X174145789Y-108809522D01*
X174205368Y-108639255D01*
X174225565Y-108460000D01*
X174225076Y-108455661D01*
X174205369Y-108280750D01*
X174205368Y-108280745D01*
X174176624Y-108198599D01*
X174145789Y-108110478D01*
X174049816Y-107957738D01*
X173922262Y-107830184D01*
X173910033Y-107822500D01*
X173769523Y-107734211D01*
X173599254Y-107674631D01*
X173599249Y-107674630D01*
X173420004Y-107654435D01*
X173419996Y-107654435D01*
X173240750Y-107674630D01*
X173240745Y-107674631D01*
X173070476Y-107734211D01*
X172917737Y-107830184D01*
X172877179Y-107870742D01*
X172815856Y-107904227D01*
X172746164Y-107899241D01*
X172690231Y-107857369D01*
X172665815Y-107791905D01*
X172665499Y-107783087D01*
X172665499Y-107014992D01*
X172663320Y-106993664D01*
X172654999Y-106912203D01*
X172649091Y-106894374D01*
X172617383Y-106798688D01*
X172614982Y-106728864D01*
X172650713Y-106668821D01*
X172713233Y-106637628D01*
X172782693Y-106645188D01*
X172822771Y-106672006D01*
X173045139Y-106894374D01*
X173045149Y-106894385D01*
X173049479Y-106898715D01*
X173049480Y-106898716D01*
X173161284Y-107010520D01*
X173161286Y-107010521D01*
X173161290Y-107010524D01*
X173213976Y-107040942D01*
X173213981Y-107040944D01*
X173298209Y-107089574D01*
X173298210Y-107089574D01*
X173298215Y-107089577D01*
X173450943Y-107130500D01*
X178360909Y-107130500D01*
X178427948Y-107150185D01*
X178473292Y-107202097D01*
X178475965Y-107207830D01*
X178611501Y-107401396D01*
X178611506Y-107401402D01*
X178778597Y-107568493D01*
X178778603Y-107568498D01*
X178964158Y-107698425D01*
X179007783Y-107753002D01*
X179014977Y-107822500D01*
X178983454Y-107884855D01*
X178964158Y-107901575D01*
X178778597Y-108031505D01*
X178611505Y-108198597D01*
X178475965Y-108392169D01*
X178475964Y-108392171D01*
X178376098Y-108606335D01*
X178376094Y-108606344D01*
X178314938Y-108834586D01*
X178314936Y-108834596D01*
X178294341Y-109069999D01*
X178294341Y-109070000D01*
X178314936Y-109305403D01*
X178314938Y-109305413D01*
X178376094Y-109533655D01*
X178376096Y-109533659D01*
X178376097Y-109533663D01*
X178438685Y-109667883D01*
X178475965Y-109747830D01*
X178475967Y-109747834D01*
X178561159Y-109869500D01*
X178611501Y-109941396D01*
X178611506Y-109941402D01*
X178778597Y-110108493D01*
X178778603Y-110108498D01*
X178964158Y-110238425D01*
X179007783Y-110293002D01*
X179014977Y-110362500D01*
X178983454Y-110424855D01*
X178964158Y-110441575D01*
X178778597Y-110571505D01*
X178611505Y-110738597D01*
X178475965Y-110932169D01*
X178475964Y-110932171D01*
X178376098Y-111146335D01*
X178376094Y-111146344D01*
X178314938Y-111374586D01*
X178314936Y-111374596D01*
X178294341Y-111609999D01*
X178294341Y-111610000D01*
X178314936Y-111845403D01*
X178314938Y-111845413D01*
X178376094Y-112073655D01*
X178376096Y-112073659D01*
X178376097Y-112073663D01*
X178387273Y-112097629D01*
X178475965Y-112287830D01*
X178475967Y-112287834D01*
X178578458Y-112434205D01*
X178611501Y-112481396D01*
X178611506Y-112481402D01*
X178778597Y-112648493D01*
X178778603Y-112648498D01*
X178964158Y-112778425D01*
X179007783Y-112833002D01*
X179014977Y-112902500D01*
X178983454Y-112964855D01*
X178964158Y-112981575D01*
X178778597Y-113111505D01*
X178611505Y-113278597D01*
X178475965Y-113472169D01*
X178475964Y-113472171D01*
X178376098Y-113686335D01*
X178376094Y-113686344D01*
X178314938Y-113914586D01*
X178314936Y-113914596D01*
X178294341Y-114149999D01*
X178294341Y-114150000D01*
X178314936Y-114385403D01*
X178314938Y-114385413D01*
X178376094Y-114613655D01*
X178376096Y-114613659D01*
X178376097Y-114613663D01*
X178442887Y-114756894D01*
X178475965Y-114827830D01*
X178475967Y-114827834D01*
X178556073Y-114942236D01*
X178611501Y-115021396D01*
X178611506Y-115021402D01*
X178778597Y-115188493D01*
X178778603Y-115188498D01*
X178964158Y-115318425D01*
X179007783Y-115373002D01*
X179014977Y-115442500D01*
X178983454Y-115504855D01*
X178964158Y-115521575D01*
X178778597Y-115651505D01*
X178611505Y-115818597D01*
X178475965Y-116012169D01*
X178475964Y-116012171D01*
X178376098Y-116226335D01*
X178376094Y-116226344D01*
X178314938Y-116454586D01*
X178314936Y-116454596D01*
X178294341Y-116689999D01*
X178294341Y-116690000D01*
X178314936Y-116925403D01*
X178314938Y-116925413D01*
X178376094Y-117153655D01*
X178376096Y-117153659D01*
X178376097Y-117153663D01*
X178445467Y-117302427D01*
X178475965Y-117367830D01*
X178475967Y-117367834D01*
X178584281Y-117522521D01*
X178611501Y-117561396D01*
X178611506Y-117561402D01*
X178778597Y-117728493D01*
X178778603Y-117728498D01*
X178964158Y-117858425D01*
X179007783Y-117913002D01*
X179014977Y-117982500D01*
X178983454Y-118044855D01*
X178964158Y-118061575D01*
X178778597Y-118191505D01*
X178611505Y-118358597D01*
X178475965Y-118552169D01*
X178475964Y-118552171D01*
X178376098Y-118766335D01*
X178376094Y-118766344D01*
X178314938Y-118994586D01*
X178314936Y-118994596D01*
X178294341Y-119229999D01*
X178294341Y-119230000D01*
X178314936Y-119465403D01*
X178314938Y-119465413D01*
X178376094Y-119693655D01*
X178376096Y-119693659D01*
X178376097Y-119693663D01*
X178380000Y-119702032D01*
X178475965Y-119907830D01*
X178475967Y-119907834D01*
X178491265Y-119929681D01*
X178611505Y-120101401D01*
X178778599Y-120268495D01*
X178867551Y-120330780D01*
X178972165Y-120404032D01*
X178972167Y-120404033D01*
X178972170Y-120404035D01*
X179186337Y-120503903D01*
X179414592Y-120565063D01*
X179602918Y-120581539D01*
X179649999Y-120585659D01*
X179650000Y-120585659D01*
X179650001Y-120585659D01*
X179689234Y-120582226D01*
X179885408Y-120565063D01*
X180113663Y-120503903D01*
X180327830Y-120404035D01*
X180521401Y-120268495D01*
X180688495Y-120101401D01*
X180818425Y-119915842D01*
X180873002Y-119872217D01*
X180942500Y-119865023D01*
X181004855Y-119896546D01*
X181021575Y-119915842D01*
X181151500Y-120101395D01*
X181151505Y-120101401D01*
X181318599Y-120268495D01*
X181407551Y-120330780D01*
X181512165Y-120404032D01*
X181512167Y-120404033D01*
X181512170Y-120404035D01*
X181726337Y-120503903D01*
X181954592Y-120565063D01*
X182142918Y-120581539D01*
X182189999Y-120585659D01*
X182190000Y-120585659D01*
X182190001Y-120585659D01*
X182229234Y-120582226D01*
X182425408Y-120565063D01*
X182653663Y-120503903D01*
X182867830Y-120404035D01*
X183061401Y-120268495D01*
X183228495Y-120101401D01*
X183364035Y-119907830D01*
X183463903Y-119693663D01*
X183525063Y-119465408D01*
X183545659Y-119230000D01*
X183525063Y-118994592D01*
X183463903Y-118766337D01*
X183364035Y-118552171D01*
X183358425Y-118544158D01*
X183228494Y-118358597D01*
X183061402Y-118191506D01*
X183061396Y-118191501D01*
X182875842Y-118061575D01*
X182832217Y-118006998D01*
X182825023Y-117937500D01*
X182856546Y-117875145D01*
X182875842Y-117858425D01*
X182991856Y-117777191D01*
X183061401Y-117728495D01*
X183228495Y-117561401D01*
X183364035Y-117367830D01*
X183463903Y-117153663D01*
X183525063Y-116925408D01*
X183545659Y-116690000D01*
X183525063Y-116454592D01*
X183463903Y-116226337D01*
X183364035Y-116012171D01*
X183358425Y-116004158D01*
X183228494Y-115818597D01*
X183061402Y-115651506D01*
X183061396Y-115651501D01*
X182875842Y-115521575D01*
X182832217Y-115466998D01*
X182825023Y-115397500D01*
X182856546Y-115335145D01*
X182875842Y-115318425D01*
X182915826Y-115290428D01*
X183061401Y-115188495D01*
X183228495Y-115021401D01*
X183364035Y-114827830D01*
X183463903Y-114613663D01*
X183525063Y-114385408D01*
X183545659Y-114150000D01*
X183525063Y-113914592D01*
X183463903Y-113686337D01*
X183364035Y-113472171D01*
X183358425Y-113464158D01*
X183228494Y-113278597D01*
X183061402Y-113111506D01*
X183061396Y-113111501D01*
X182875842Y-112981575D01*
X182832217Y-112926998D01*
X182825023Y-112857500D01*
X182856546Y-112795145D01*
X182875842Y-112778425D01*
X182898026Y-112762891D01*
X183061401Y-112648495D01*
X183228495Y-112481401D01*
X183364035Y-112287830D01*
X183463903Y-112073663D01*
X183525063Y-111845408D01*
X183545659Y-111610000D01*
X183525063Y-111374592D01*
X183463903Y-111146337D01*
X183364035Y-110932171D01*
X183358425Y-110924158D01*
X183228494Y-110738597D01*
X183061402Y-110571506D01*
X183061396Y-110571501D01*
X182875842Y-110441575D01*
X182832217Y-110386998D01*
X182825023Y-110317500D01*
X182856546Y-110255145D01*
X182875842Y-110238425D01*
X182923579Y-110204999D01*
X183061401Y-110108495D01*
X183228495Y-109941401D01*
X183364035Y-109747830D01*
X183463903Y-109533663D01*
X183525063Y-109305408D01*
X183545659Y-109070000D01*
X183525063Y-108834592D01*
X183463903Y-108606337D01*
X183364035Y-108392171D01*
X183360204Y-108386699D01*
X183228494Y-108198597D01*
X183061402Y-108031506D01*
X183061396Y-108031501D01*
X182875842Y-107901575D01*
X182832217Y-107846998D01*
X182825023Y-107777500D01*
X182856546Y-107715145D01*
X182875842Y-107698425D01*
X182909825Y-107674630D01*
X183061401Y-107568495D01*
X183228495Y-107401401D01*
X183364035Y-107207830D01*
X183463903Y-106993663D01*
X183525063Y-106765408D01*
X183545659Y-106530000D01*
X183525063Y-106294592D01*
X183463903Y-106066337D01*
X183364035Y-105852171D01*
X183364034Y-105852169D01*
X183228494Y-105658597D01*
X183061402Y-105491506D01*
X183061396Y-105491501D01*
X182875842Y-105361575D01*
X182832217Y-105306998D01*
X182825023Y-105237500D01*
X182856546Y-105175145D01*
X182875842Y-105158425D01*
X182930983Y-105119815D01*
X183061401Y-105028495D01*
X183228495Y-104861401D01*
X183364035Y-104667830D01*
X183463903Y-104453663D01*
X183525063Y-104225408D01*
X183545659Y-103990000D01*
X183525063Y-103754592D01*
X183463903Y-103526337D01*
X183364035Y-103312171D01*
X183360828Y-103307590D01*
X183228494Y-103118597D01*
X183061402Y-102951506D01*
X183061396Y-102951501D01*
X182875842Y-102821575D01*
X182832217Y-102766998D01*
X182825023Y-102697500D01*
X182856546Y-102635145D01*
X182875842Y-102618425D01*
X182923846Y-102584812D01*
X183061401Y-102488495D01*
X183228495Y-102321401D01*
X183364035Y-102127830D01*
X183463903Y-101913663D01*
X183525063Y-101685408D01*
X183545659Y-101450000D01*
X183525063Y-101214592D01*
X183463903Y-100986337D01*
X183364035Y-100772171D01*
X183363925Y-100772013D01*
X183228494Y-100578597D01*
X183061402Y-100411506D01*
X183061396Y-100411501D01*
X182875842Y-100281575D01*
X182832217Y-100226998D01*
X182825023Y-100157500D01*
X182856546Y-100095145D01*
X182875842Y-100078425D01*
X183032525Y-99968714D01*
X183061401Y-99948495D01*
X183228495Y-99781401D01*
X183364035Y-99587830D01*
X183463903Y-99373663D01*
X183525063Y-99145408D01*
X183545659Y-98910000D01*
X183525063Y-98674592D01*
X183472966Y-98480161D01*
X183463905Y-98446344D01*
X183463904Y-98446343D01*
X183463903Y-98446337D01*
X183364035Y-98232171D01*
X183358425Y-98224158D01*
X183228494Y-98038597D01*
X183061402Y-97871506D01*
X183061396Y-97871501D01*
X182875842Y-97741575D01*
X182832217Y-97686998D01*
X182825023Y-97617500D01*
X182856546Y-97555145D01*
X182875842Y-97538425D01*
X182898026Y-97522891D01*
X183061401Y-97408495D01*
X183228495Y-97241401D01*
X183364035Y-97047830D01*
X183463903Y-96833663D01*
X183525063Y-96605408D01*
X183545659Y-96370000D01*
X183525063Y-96134592D01*
X183463903Y-95906337D01*
X183364035Y-95692171D01*
X183358425Y-95684158D01*
X183228494Y-95498597D01*
X183061402Y-95331506D01*
X183061396Y-95331501D01*
X182875842Y-95201575D01*
X182832217Y-95146998D01*
X182825023Y-95077500D01*
X182856546Y-95015145D01*
X182875842Y-94998425D01*
X182919669Y-94967737D01*
X183061401Y-94868495D01*
X183228495Y-94701401D01*
X183364035Y-94507830D01*
X183463903Y-94293663D01*
X183525063Y-94065408D01*
X183545659Y-93830000D01*
X183525063Y-93594592D01*
X183463903Y-93366337D01*
X183364035Y-93152171D01*
X183358425Y-93144158D01*
X183228494Y-92958597D01*
X183061402Y-92791506D01*
X183061396Y-92791501D01*
X182875842Y-92661575D01*
X182832217Y-92606998D01*
X182825023Y-92537500D01*
X182856546Y-92475145D01*
X182875842Y-92458425D01*
X182989762Y-92378657D01*
X183061401Y-92328495D01*
X183228495Y-92161401D01*
X183364035Y-91967830D01*
X183463903Y-91753663D01*
X183525063Y-91525408D01*
X183545659Y-91290000D01*
X183525063Y-91054592D01*
X183463903Y-90826337D01*
X183364035Y-90612171D01*
X183358425Y-90604158D01*
X183228494Y-90418597D01*
X183061402Y-90251506D01*
X183061396Y-90251501D01*
X182875842Y-90121575D01*
X182832217Y-90066998D01*
X182825023Y-89997500D01*
X182856546Y-89935145D01*
X182875842Y-89918425D01*
X182986780Y-89840745D01*
X183061401Y-89788495D01*
X183228495Y-89621401D01*
X183364035Y-89427830D01*
X183463903Y-89213663D01*
X183525063Y-88985408D01*
X183545659Y-88750000D01*
X183525063Y-88514592D01*
X183463903Y-88286337D01*
X183364035Y-88072171D01*
X183361994Y-88069255D01*
X183228494Y-87878597D01*
X183061402Y-87711506D01*
X183061401Y-87711505D01*
X182875405Y-87581269D01*
X182831781Y-87526692D01*
X182824588Y-87457193D01*
X182856110Y-87394839D01*
X182875405Y-87378119D01*
X183061082Y-87248105D01*
X183228105Y-87081082D01*
X183363600Y-86887578D01*
X183463429Y-86673492D01*
X183463432Y-86673486D01*
X183520636Y-86460000D01*
X182623012Y-86460000D01*
X182655925Y-86402993D01*
X182690000Y-86275826D01*
X182690000Y-86144174D01*
X182655925Y-86017007D01*
X182623012Y-85960000D01*
X183520636Y-85960000D01*
X183520635Y-85959999D01*
X183463432Y-85746513D01*
X183463429Y-85746507D01*
X183363600Y-85532422D01*
X183363599Y-85532420D01*
X183228113Y-85338926D01*
X183228108Y-85338920D01*
X183106053Y-85216865D01*
X183072568Y-85155542D01*
X183077552Y-85085850D01*
X183119424Y-85029917D01*
X183150400Y-85013002D01*
X183282331Y-84963796D01*
X183397546Y-84877546D01*
X183483796Y-84762331D01*
X183534091Y-84627483D01*
X183540500Y-84567873D01*
X183540499Y-82772128D01*
X183534091Y-82712517D01*
X183532810Y-82709083D01*
X183483797Y-82577671D01*
X183483793Y-82577664D01*
X183397547Y-82462455D01*
X183397544Y-82462452D01*
X183282335Y-82376206D01*
X183282328Y-82376202D01*
X183147482Y-82325908D01*
X183147483Y-82325908D01*
X183087883Y-82319501D01*
X183087881Y-82319500D01*
X183087873Y-82319500D01*
X183087864Y-82319500D01*
X181292129Y-82319500D01*
X181292123Y-82319501D01*
X181232516Y-82325908D01*
X181097671Y-82376202D01*
X181097664Y-82376206D01*
X180982455Y-82462452D01*
X180982452Y-82462455D01*
X180896206Y-82577664D01*
X180896203Y-82577669D01*
X180847189Y-82709083D01*
X180805317Y-82765016D01*
X180739853Y-82789433D01*
X180671580Y-82774581D01*
X180643326Y-82753430D01*
X180521402Y-82631506D01*
X180521395Y-82631501D01*
X180327834Y-82495967D01*
X180327830Y-82495965D01*
X180300024Y-82482999D01*
X180113663Y-82396097D01*
X180113659Y-82396096D01*
X180113655Y-82396094D01*
X179885413Y-82334938D01*
X179885403Y-82334936D01*
X179650001Y-82314341D01*
X179649999Y-82314341D01*
X179414596Y-82334936D01*
X179414586Y-82334938D01*
X179186344Y-82396094D01*
X179186335Y-82396098D01*
X178972171Y-82495964D01*
X178972169Y-82495965D01*
X178845623Y-82584574D01*
X178779417Y-82606901D01*
X178711650Y-82589891D01*
X178663837Y-82538943D01*
X178650500Y-82482999D01*
X178650500Y-79460945D01*
X178650500Y-79460943D01*
X178609577Y-79308216D01*
X178586326Y-79267944D01*
X178530524Y-79171290D01*
X178530521Y-79171286D01*
X178530520Y-79171284D01*
X178418716Y-79059480D01*
X178418715Y-79059479D01*
X178414385Y-79055149D01*
X178414374Y-79055139D01*
X177767590Y-78408355D01*
X177767588Y-78408352D01*
X177648717Y-78289481D01*
X177648709Y-78289475D01*
X177529106Y-78220423D01*
X177529106Y-78220422D01*
X177529101Y-78220421D01*
X177523058Y-78216932D01*
X177511786Y-78210423D01*
X177473603Y-78200192D01*
X177359057Y-78169499D01*
X177200943Y-78169499D01*
X177193347Y-78169499D01*
X177193331Y-78169500D01*
X174067074Y-78169500D01*
X174000035Y-78149815D01*
X173959700Y-78103637D01*
X173958605Y-78104313D01*
X173952611Y-78094595D01*
X173862712Y-77948844D01*
X173738656Y-77824788D01*
X173611930Y-77746623D01*
X173589336Y-77732687D01*
X173589331Y-77732685D01*
X173581780Y-77730183D01*
X173422797Y-77677501D01*
X173422795Y-77677500D01*
X173320010Y-77667000D01*
X172319998Y-77667000D01*
X172319980Y-77667001D01*
X172217203Y-77677500D01*
X172217200Y-77677501D01*
X172050668Y-77732685D01*
X172050663Y-77732687D01*
X171901342Y-77824789D01*
X171777289Y-77948842D01*
X171685187Y-78098163D01*
X171685185Y-78098168D01*
X171661548Y-78169500D01*
X171630001Y-78264703D01*
X171630001Y-78264704D01*
X171630000Y-78264704D01*
X171619500Y-78367483D01*
X171619500Y-79167501D01*
X171619501Y-79167519D01*
X171630000Y-79270296D01*
X171630001Y-79270299D01*
X171685185Y-79436831D01*
X171685187Y-79436836D01*
X171686689Y-79439271D01*
X171761152Y-79559996D01*
X171777289Y-79586157D01*
X171870951Y-79679819D01*
X171904436Y-79741142D01*
X171899452Y-79810834D01*
X171870951Y-79855181D01*
X171777289Y-79948842D01*
X171685187Y-80098163D01*
X171685185Y-80098168D01*
X171657349Y-80182170D01*
X171630001Y-80264703D01*
X171630001Y-80264704D01*
X171630000Y-80264704D01*
X171619500Y-80367483D01*
X171619500Y-81167501D01*
X171619501Y-81167519D01*
X171630000Y-81270296D01*
X171630001Y-81270299D01*
X171685185Y-81436831D01*
X171685187Y-81436836D01*
X171717209Y-81488752D01*
X171777288Y-81586156D01*
X171901344Y-81710212D01*
X172050666Y-81802314D01*
X172083505Y-81813195D01*
X172140949Y-81852967D01*
X172167773Y-81917483D01*
X172155458Y-81986258D01*
X172132182Y-82018582D01*
X171445881Y-82704882D01*
X171384558Y-82738367D01*
X171314866Y-82733383D01*
X171292226Y-82722193D01*
X171279525Y-82714212D01*
X171109254Y-82654631D01*
X171109249Y-82654630D01*
X170930004Y-82634435D01*
X170929996Y-82634435D01*
X170750750Y-82654630D01*
X170750745Y-82654631D01*
X170580476Y-82714211D01*
X170427737Y-82810184D01*
X170300184Y-82937737D01*
X170204211Y-83090476D01*
X170144631Y-83260745D01*
X170144630Y-83260750D01*
X170124435Y-83439996D01*
X170124435Y-83440003D01*
X170144630Y-83619249D01*
X170144631Y-83619254D01*
X170204211Y-83789523D01*
X170287767Y-83922500D01*
X170300184Y-83942262D01*
X170427738Y-84069816D01*
X170580478Y-84165789D01*
X170660649Y-84193842D01*
X170750745Y-84225368D01*
X170750750Y-84225369D01*
X170929996Y-84245565D01*
X170930000Y-84245565D01*
X170930004Y-84245565D01*
X171109249Y-84225369D01*
X171109252Y-84225368D01*
X171109255Y-84225368D01*
X171279522Y-84165789D01*
X171432262Y-84069816D01*
X171432266Y-84069811D01*
X171435097Y-84067555D01*
X171437275Y-84066665D01*
X171438158Y-84066111D01*
X171438255Y-84066265D01*
X171499784Y-84041146D01*
X171512411Y-84040501D01*
X171632780Y-84040501D01*
X171699819Y-84060186D01*
X171745574Y-84112990D01*
X171755518Y-84182148D01*
X171738319Y-84229597D01*
X171665189Y-84348159D01*
X171665185Y-84348168D01*
X171644033Y-84412000D01*
X171610001Y-84514703D01*
X171610001Y-84514704D01*
X171610000Y-84514704D01*
X171599500Y-84617483D01*
X171599500Y-85417501D01*
X171599501Y-85417519D01*
X171610000Y-85520296D01*
X171610001Y-85520299D01*
X171665185Y-85686831D01*
X171665187Y-85686836D01*
X171700069Y-85743388D01*
X171757287Y-85836155D01*
X171757289Y-85836157D01*
X171850951Y-85929819D01*
X171884436Y-85991142D01*
X171879452Y-86060834D01*
X171850951Y-86105181D01*
X171757288Y-86198843D01*
X171757285Y-86198847D01*
X171687844Y-86311429D01*
X171635896Y-86358154D01*
X171566934Y-86369375D01*
X171516333Y-86351325D01*
X171409524Y-86284211D01*
X171239254Y-86224631D01*
X171239249Y-86224630D01*
X171060004Y-86204435D01*
X171059996Y-86204435D01*
X170880750Y-86224630D01*
X170880745Y-86224631D01*
X170710476Y-86284211D01*
X170557737Y-86380184D01*
X170552295Y-86384525D01*
X170550398Y-86382147D01*
X170500918Y-86409166D01*
X170474560Y-86412000D01*
X168055908Y-86412000D01*
X167988869Y-86392315D01*
X167950363Y-86348228D01*
X167948605Y-86349313D01*
X167944812Y-86343163D01*
X167852712Y-86193844D01*
X167759049Y-86100181D01*
X167725564Y-86038858D01*
X167730548Y-85969166D01*
X167759049Y-85924819D01*
X167780875Y-85902993D01*
X167852712Y-85831156D01*
X167940566Y-85688721D01*
X167992513Y-85641997D01*
X168061475Y-85630774D01*
X168112074Y-85648823D01*
X168172562Y-85686831D01*
X168250475Y-85735788D01*
X168420745Y-85795368D01*
X168420750Y-85795369D01*
X168599996Y-85815565D01*
X168600000Y-85815565D01*
X168600004Y-85815565D01*
X168779249Y-85795369D01*
X168779252Y-85795368D01*
X168779255Y-85795368D01*
X168949522Y-85735789D01*
X169102262Y-85639816D01*
X169229816Y-85512262D01*
X169325789Y-85359522D01*
X169385368Y-85189255D01*
X169405565Y-85010000D01*
X169403332Y-84990184D01*
X169385369Y-84830750D01*
X169385368Y-84830745D01*
X169381601Y-84819980D01*
X169325789Y-84660478D01*
X169298778Y-84617491D01*
X169250968Y-84541401D01*
X169229816Y-84507738D01*
X169102262Y-84380184D01*
X169102259Y-84380182D01*
X169067171Y-84358134D01*
X169020880Y-84305799D01*
X169010233Y-84236745D01*
X169038609Y-84172897D01*
X169067171Y-84148148D01*
X169112262Y-84119816D01*
X169239816Y-83992262D01*
X169335789Y-83839522D01*
X169395368Y-83669255D01*
X169401002Y-83619254D01*
X169415565Y-83490003D01*
X169415565Y-83489996D01*
X169395369Y-83310750D01*
X169395368Y-83310745D01*
X169351371Y-83185009D01*
X169335789Y-83140478D01*
X169323289Y-83120585D01*
X169239815Y-82987737D01*
X169112262Y-82860184D01*
X168959523Y-82764211D01*
X168789254Y-82704631D01*
X168789249Y-82704630D01*
X168610004Y-82684435D01*
X168609996Y-82684435D01*
X168430750Y-82704630D01*
X168430745Y-82704631D01*
X168260476Y-82764211D01*
X168107736Y-82860185D01*
X168104903Y-82862445D01*
X168102724Y-82863334D01*
X168101842Y-82863889D01*
X168101744Y-82863734D01*
X168040217Y-82888855D01*
X168027588Y-82889500D01*
X168010097Y-82889500D01*
X167943058Y-82869815D01*
X167922416Y-82853181D01*
X167446819Y-82377584D01*
X167413334Y-82316261D01*
X167410500Y-82289903D01*
X167410500Y-81955300D01*
X167430185Y-81888261D01*
X167482989Y-81842506D01*
X167495482Y-81837599D01*
X167579334Y-81809814D01*
X167728656Y-81717712D01*
X167852712Y-81593656D01*
X167944814Y-81444334D01*
X167999999Y-81277797D01*
X168010500Y-81175009D01*
X168010499Y-80374992D01*
X168009733Y-80367498D01*
X167999999Y-80272203D01*
X167999998Y-80272200D01*
X167953043Y-80130500D01*
X167944814Y-80105666D01*
X167852712Y-79956344D01*
X167759049Y-79862681D01*
X167725564Y-79801358D01*
X167730548Y-79731666D01*
X167759049Y-79687319D01*
X167795286Y-79651082D01*
X167852712Y-79593656D01*
X167944814Y-79444334D01*
X167999999Y-79277797D01*
X168010500Y-79175009D01*
X168010499Y-78374992D01*
X168007529Y-78345922D01*
X167999999Y-78272203D01*
X167999998Y-78272200D01*
X167987211Y-78233612D01*
X167944814Y-78105666D01*
X167852712Y-77956344D01*
X167728656Y-77832288D01*
X167582103Y-77741894D01*
X167579336Y-77740187D01*
X167579331Y-77740185D01*
X167577862Y-77739698D01*
X167412797Y-77685001D01*
X167412795Y-77685000D01*
X167310010Y-77674500D01*
X166309998Y-77674500D01*
X166309980Y-77674501D01*
X166207203Y-77685000D01*
X166207200Y-77685001D01*
X166040668Y-77740185D01*
X166040663Y-77740187D01*
X165891342Y-77832289D01*
X165767289Y-77956342D01*
X165767288Y-77956344D01*
X165676438Y-78103637D01*
X165671395Y-78111813D01*
X165669600Y-78110706D01*
X165630313Y-78155337D01*
X165564092Y-78174500D01*
X164804499Y-78174500D01*
X164737460Y-78154815D01*
X164691705Y-78102011D01*
X164680499Y-78050500D01*
X164680499Y-77882129D01*
X164680498Y-77882123D01*
X164674091Y-77822516D01*
X164623797Y-77687671D01*
X164623793Y-77687664D01*
X164537547Y-77572455D01*
X164537544Y-77572452D01*
X164422335Y-77486206D01*
X164422328Y-77486202D01*
X164287482Y-77435908D01*
X164287483Y-77435908D01*
X164227883Y-77429501D01*
X164227881Y-77429500D01*
X164227873Y-77429500D01*
X164227864Y-77429500D01*
X162432129Y-77429500D01*
X162432123Y-77429501D01*
X162372516Y-77435908D01*
X162237671Y-77486202D01*
X162237664Y-77486206D01*
X162122455Y-77572452D01*
X162122452Y-77572455D01*
X162036206Y-77687664D01*
X162036203Y-77687669D01*
X161987189Y-77819083D01*
X161945317Y-77875016D01*
X161879853Y-77899433D01*
X161811580Y-77884581D01*
X161783326Y-77863430D01*
X161661402Y-77741506D01*
X161661395Y-77741501D01*
X161659518Y-77740187D01*
X161584518Y-77687671D01*
X161467834Y-77605967D01*
X161467830Y-77605965D01*
X161467828Y-77605964D01*
X161253663Y-77506097D01*
X161253659Y-77506096D01*
X161253655Y-77506094D01*
X161025413Y-77444938D01*
X161025403Y-77444936D01*
X160790001Y-77424341D01*
X160789999Y-77424341D01*
X160554596Y-77444936D01*
X160554586Y-77444938D01*
X160326344Y-77506094D01*
X160326335Y-77506098D01*
X160112171Y-77605964D01*
X160112169Y-77605965D01*
X159918597Y-77741505D01*
X159751505Y-77908597D01*
X159621575Y-78094158D01*
X159566998Y-78137783D01*
X159497500Y-78144977D01*
X159435145Y-78113454D01*
X159418425Y-78094158D01*
X159288494Y-77908597D01*
X159121402Y-77741506D01*
X159121395Y-77741501D01*
X159119518Y-77740187D01*
X159044518Y-77687671D01*
X158927834Y-77605967D01*
X158927830Y-77605965D01*
X158927828Y-77605964D01*
X158713663Y-77506097D01*
X158713659Y-77506096D01*
X158713655Y-77506094D01*
X158485413Y-77444938D01*
X158485403Y-77444936D01*
X158250001Y-77424341D01*
X158249999Y-77424341D01*
X158014596Y-77444936D01*
X158014586Y-77444938D01*
X157786344Y-77506094D01*
X157786335Y-77506098D01*
X157572171Y-77605964D01*
X157572169Y-77605965D01*
X157378597Y-77741505D01*
X157211508Y-77908594D01*
X157081269Y-78094595D01*
X157026692Y-78138219D01*
X156957193Y-78145412D01*
X156894839Y-78113890D01*
X156878119Y-78094594D01*
X156748113Y-77908926D01*
X156748108Y-77908920D01*
X156581082Y-77741894D01*
X156387578Y-77606399D01*
X156173492Y-77506570D01*
X156173486Y-77506567D01*
X155960000Y-77449364D01*
X155960000Y-78346988D01*
X155902993Y-78314075D01*
X155775826Y-78280000D01*
X155644174Y-78280000D01*
X155517007Y-78314075D01*
X155460000Y-78346988D01*
X155460000Y-77449364D01*
X155459999Y-77449364D01*
X155246513Y-77506567D01*
X155246507Y-77506570D01*
X155032422Y-77606399D01*
X155032420Y-77606400D01*
X154838926Y-77741886D01*
X154838920Y-77741891D01*
X154671891Y-77908920D01*
X154671886Y-77908926D01*
X154536400Y-78102420D01*
X154536399Y-78102422D01*
X154436570Y-78316507D01*
X154436567Y-78316513D01*
X154379364Y-78529999D01*
X154379364Y-78530000D01*
X155276988Y-78530000D01*
X155244075Y-78587007D01*
X155210000Y-78714174D01*
X155210000Y-78845826D01*
X155244075Y-78972993D01*
X155276988Y-79030000D01*
X154379364Y-79030000D01*
X154436567Y-79243486D01*
X154436570Y-79243492D01*
X154536399Y-79457578D01*
X154671894Y-79651082D01*
X154838917Y-79818105D01*
X155032421Y-79953600D01*
X155246507Y-80053429D01*
X155246516Y-80053433D01*
X155460000Y-80110634D01*
X155460000Y-79213012D01*
X155517007Y-79245925D01*
X155644174Y-79280000D01*
X155775826Y-79280000D01*
X155902993Y-79245925D01*
X155960000Y-79213012D01*
X155960000Y-80110633D01*
X156173483Y-80053433D01*
X156173492Y-80053429D01*
X156387578Y-79953600D01*
X156581082Y-79818105D01*
X156748105Y-79651082D01*
X156878119Y-79465405D01*
X156932696Y-79421781D01*
X157002195Y-79414588D01*
X157064549Y-79446110D01*
X157081269Y-79465405D01*
X157211505Y-79651401D01*
X157378599Y-79818495D01*
X157468439Y-79881402D01*
X157572165Y-79954032D01*
X157572167Y-79954033D01*
X157572170Y-79954035D01*
X157577898Y-79956706D01*
X157630339Y-80002872D01*
X157649500Y-80069090D01*
X157649500Y-88167587D01*
X157629815Y-88234626D01*
X157622450Y-88244896D01*
X157620186Y-88247734D01*
X157524211Y-88400476D01*
X157464631Y-88570745D01*
X157464630Y-88570750D01*
X157444435Y-88749996D01*
X157444435Y-88750003D01*
X157464630Y-88929249D01*
X157464631Y-88929254D01*
X157524211Y-89099523D01*
X157613324Y-89241344D01*
X157620184Y-89252262D01*
X157747738Y-89379816D01*
X157824152Y-89427830D01*
X157889251Y-89468735D01*
X157900478Y-89475789D01*
X158027103Y-89520097D01*
X158070745Y-89535368D01*
X158070750Y-89535369D01*
X158249996Y-89555565D01*
X158250000Y-89555565D01*
X158250004Y-89555565D01*
X158429249Y-89535369D01*
X158429252Y-89535368D01*
X158429255Y-89535368D01*
X158599522Y-89475789D01*
X158752262Y-89379816D01*
X158879816Y-89252262D01*
X158975789Y-89099522D01*
X159035368Y-88929255D01*
X159036411Y-88919999D01*
X159055565Y-88750003D01*
X159055565Y-88749996D01*
X159035369Y-88570750D01*
X159035368Y-88570745D01*
X158975788Y-88400476D01*
X158933262Y-88332797D01*
X158879816Y-88247738D01*
X158879814Y-88247736D01*
X158879813Y-88247734D01*
X158877550Y-88244896D01*
X158876659Y-88242715D01*
X158876111Y-88241842D01*
X158876264Y-88241745D01*
X158851144Y-88180209D01*
X158850500Y-88167587D01*
X158850500Y-80069090D01*
X158870185Y-80002051D01*
X158922101Y-79956706D01*
X158927830Y-79954035D01*
X159121401Y-79818495D01*
X159288495Y-79651401D01*
X159418425Y-79465842D01*
X159473002Y-79422217D01*
X159542500Y-79415023D01*
X159604855Y-79446546D01*
X159621575Y-79465842D01*
X159751281Y-79651082D01*
X159751505Y-79651401D01*
X159918599Y-79818495D01*
X160008439Y-79881402D01*
X160112165Y-79954032D01*
X160112167Y-79954033D01*
X160112170Y-79954035D01*
X160117898Y-79956706D01*
X160170339Y-80002872D01*
X160189500Y-80069090D01*
X160189500Y-89437587D01*
X160169815Y-89504626D01*
X160162450Y-89514896D01*
X160160186Y-89517734D01*
X160064211Y-89670476D01*
X160004631Y-89840745D01*
X160004630Y-89840750D01*
X159984435Y-90019996D01*
X159984435Y-90020003D01*
X160004630Y-90199249D01*
X160004631Y-90199254D01*
X160064211Y-90369523D01*
X160160184Y-90522262D01*
X160287738Y-90649816D01*
X160440478Y-90745789D01*
X160610745Y-90805368D01*
X160610750Y-90805369D01*
X160789996Y-90825565D01*
X160790000Y-90825565D01*
X160790004Y-90825565D01*
X160969249Y-90805369D01*
X160969252Y-90805368D01*
X160969255Y-90805368D01*
X161139522Y-90745789D01*
X161292262Y-90649816D01*
X161419816Y-90522262D01*
X161515789Y-90369522D01*
X161575368Y-90199255D01*
X161577896Y-90176817D01*
X161595565Y-90020003D01*
X161595565Y-90019996D01*
X161575369Y-89840750D01*
X161575368Y-89840745D01*
X161515788Y-89670476D01*
X161444614Y-89557204D01*
X161419816Y-89517738D01*
X161419814Y-89517736D01*
X161419813Y-89517734D01*
X161417550Y-89514896D01*
X161416659Y-89512715D01*
X161416111Y-89511842D01*
X161416264Y-89511745D01*
X161391144Y-89450209D01*
X161390500Y-89437587D01*
X161390500Y-80069090D01*
X161410185Y-80002051D01*
X161462101Y-79956706D01*
X161467830Y-79954035D01*
X161661401Y-79818495D01*
X161783329Y-79696566D01*
X161844648Y-79663084D01*
X161914340Y-79668068D01*
X161970274Y-79709939D01*
X161987189Y-79740917D01*
X162036202Y-79872328D01*
X162036206Y-79872335D01*
X162122452Y-79987544D01*
X162122455Y-79987547D01*
X162237664Y-80073793D01*
X162237671Y-80073797D01*
X162372517Y-80124091D01*
X162372516Y-80124091D01*
X162379444Y-80124835D01*
X162432127Y-80130500D01*
X164227872Y-80130499D01*
X164287483Y-80124091D01*
X164422331Y-80073796D01*
X164537546Y-79987546D01*
X164623796Y-79872331D01*
X164674091Y-79737483D01*
X164680500Y-79677873D01*
X164680500Y-79499500D01*
X164700185Y-79432461D01*
X164752989Y-79386706D01*
X164804500Y-79375500D01*
X165564092Y-79375500D01*
X165631131Y-79395185D01*
X165669636Y-79439271D01*
X165671395Y-79438187D01*
X165675185Y-79444331D01*
X165675186Y-79444334D01*
X165746529Y-79560000D01*
X165767289Y-79593657D01*
X165860951Y-79687319D01*
X165894436Y-79748642D01*
X165889452Y-79818334D01*
X165860951Y-79862681D01*
X165767289Y-79956342D01*
X165675187Y-80105663D01*
X165675185Y-80105668D01*
X165666957Y-80130498D01*
X165620001Y-80272203D01*
X165620001Y-80272204D01*
X165620000Y-80272204D01*
X165609500Y-80374983D01*
X165609500Y-81175001D01*
X165609501Y-81175019D01*
X165620000Y-81277796D01*
X165620001Y-81277799D01*
X165675185Y-81444331D01*
X165675187Y-81444336D01*
X165702583Y-81488752D01*
X165767288Y-81593656D01*
X165891344Y-81717712D01*
X166040666Y-81809814D01*
X166124505Y-81837595D01*
X166181948Y-81877366D01*
X166208772Y-81941882D01*
X166209500Y-81955300D01*
X166209500Y-82503330D01*
X166209499Y-82503348D01*
X166209499Y-82669054D01*
X166209498Y-82669054D01*
X166240781Y-82785800D01*
X166250423Y-82821785D01*
X166260651Y-82839500D01*
X166329477Y-82958712D01*
X166329481Y-82958717D01*
X166448349Y-83077585D01*
X166448355Y-83077590D01*
X167071084Y-83700319D01*
X167104569Y-83761642D01*
X167099585Y-83831334D01*
X167057713Y-83887267D01*
X166992249Y-83911684D01*
X166983403Y-83912000D01*
X166309998Y-83912000D01*
X166309980Y-83912001D01*
X166207203Y-83922500D01*
X166207200Y-83922501D01*
X166040668Y-83977685D01*
X166040663Y-83977687D01*
X165891342Y-84069789D01*
X165767289Y-84193842D01*
X165675187Y-84343163D01*
X165675185Y-84343168D01*
X165671492Y-84354313D01*
X165620001Y-84509703D01*
X165620001Y-84509704D01*
X165620000Y-84509704D01*
X165609500Y-84612483D01*
X165609500Y-85412501D01*
X165609501Y-85412519D01*
X165620000Y-85515296D01*
X165620001Y-85515299D01*
X165675185Y-85681831D01*
X165675187Y-85681836D01*
X165683206Y-85694837D01*
X165767287Y-85831155D01*
X165767289Y-85831157D01*
X165860951Y-85924819D01*
X165894436Y-85986142D01*
X165889452Y-86055834D01*
X165860951Y-86100181D01*
X165767289Y-86193842D01*
X165675187Y-86343163D01*
X165675185Y-86343168D01*
X165655361Y-86402993D01*
X165620001Y-86509703D01*
X165620001Y-86509704D01*
X165620000Y-86509704D01*
X165609500Y-86612483D01*
X165609500Y-87412501D01*
X165609501Y-87412519D01*
X165620000Y-87515296D01*
X165620001Y-87515299D01*
X165675185Y-87681831D01*
X165675187Y-87681836D01*
X165686699Y-87700500D01*
X165767288Y-87831156D01*
X165891344Y-87955212D01*
X166040666Y-88047314D01*
X166207203Y-88102499D01*
X166309991Y-88113000D01*
X167310008Y-88112999D01*
X167310016Y-88112998D01*
X167310019Y-88112998D01*
X167366302Y-88107248D01*
X167412797Y-88102499D01*
X167579334Y-88047314D01*
X167728656Y-87955212D01*
X167852712Y-87831156D01*
X167944814Y-87681834D01*
X167944815Y-87681831D01*
X167948605Y-87675687D01*
X167950399Y-87676793D01*
X167989687Y-87632163D01*
X168055908Y-87613000D01*
X169316889Y-87613000D01*
X169383928Y-87632685D01*
X169429683Y-87685489D01*
X169440109Y-87750883D01*
X169424435Y-87889996D01*
X169424435Y-87890003D01*
X169444630Y-88069249D01*
X169444631Y-88069254D01*
X169504211Y-88239523D01*
X169562821Y-88332799D01*
X169600184Y-88392262D01*
X169727738Y-88519816D01*
X169880478Y-88615789D01*
X170050745Y-88675368D01*
X170137669Y-88685161D01*
X170202080Y-88712226D01*
X170211464Y-88720699D01*
X170501284Y-89010520D01*
X170501286Y-89010521D01*
X170501290Y-89010524D01*
X170596797Y-89065664D01*
X170638216Y-89089577D01*
X170790943Y-89130501D01*
X170790945Y-89130501D01*
X170956654Y-89130501D01*
X170956670Y-89130500D01*
X171070943Y-89130500D01*
X176219903Y-89130500D01*
X176286942Y-89150185D01*
X176307584Y-89166819D01*
X176573181Y-89432416D01*
X176606666Y-89493739D01*
X176609500Y-89520097D01*
X176609500Y-100365500D01*
X176589815Y-100432539D01*
X176537011Y-100478294D01*
X176485500Y-100489500D01*
X175809057Y-100489500D01*
X173219057Y-100489500D01*
X173060943Y-100489500D01*
X172908215Y-100530423D01*
X172908214Y-100530423D01*
X172908212Y-100530424D01*
X172908209Y-100530425D01*
X172858096Y-100559359D01*
X172858095Y-100559360D01*
X172824775Y-100578597D01*
X172771285Y-100609479D01*
X172771282Y-100609481D01*
X172252181Y-101128583D01*
X172190858Y-101162068D01*
X172121166Y-101157084D01*
X172065233Y-101115212D01*
X172040816Y-101049748D01*
X172040500Y-101040902D01*
X172040500Y-100510097D01*
X172060185Y-100443058D01*
X172076819Y-100422416D01*
X172262416Y-100236819D01*
X172323739Y-100203334D01*
X172350097Y-100200500D01*
X174893331Y-100200500D01*
X174893347Y-100200501D01*
X174900943Y-100200501D01*
X175059054Y-100200501D01*
X175059057Y-100200501D01*
X175211785Y-100159577D01*
X175298387Y-100109577D01*
X175348716Y-100080520D01*
X175460520Y-99968716D01*
X175460520Y-99968715D01*
X175477948Y-99951287D01*
X175477953Y-99951280D01*
X175730520Y-99698716D01*
X175809577Y-99561784D01*
X175850501Y-99409057D01*
X175850501Y-99250942D01*
X175850501Y-99243347D01*
X175850500Y-99243329D01*
X175850500Y-99165808D01*
X175870185Y-99098769D01*
X175886820Y-99078126D01*
X175918076Y-99046870D01*
X175918081Y-99046865D01*
X176001744Y-98905398D01*
X176047598Y-98747569D01*
X176050500Y-98710694D01*
X176050500Y-96929306D01*
X176047598Y-96892431D01*
X176030524Y-96833664D01*
X176001745Y-96734606D01*
X176001744Y-96734603D01*
X176001744Y-96734602D01*
X175918081Y-96593135D01*
X175918079Y-96593133D01*
X175918076Y-96593129D01*
X175894319Y-96569372D01*
X175860834Y-96508049D01*
X175858000Y-96481691D01*
X175858000Y-96173767D01*
X175877685Y-96106728D01*
X175916901Y-96068230D01*
X176063656Y-95977712D01*
X176187712Y-95853656D01*
X176279814Y-95704334D01*
X176334999Y-95537797D01*
X176345500Y-95435009D01*
X176345499Y-94384992D01*
X176334999Y-94282203D01*
X176279814Y-94115666D01*
X176187712Y-93966344D01*
X176063656Y-93842288D01*
X175914334Y-93750186D01*
X175747797Y-93695001D01*
X175747795Y-93695000D01*
X175645010Y-93684500D01*
X174869998Y-93684500D01*
X174869980Y-93684501D01*
X174767203Y-93695000D01*
X174767200Y-93695001D01*
X174600668Y-93750185D01*
X174600663Y-93750187D01*
X174451342Y-93842289D01*
X174327288Y-93966343D01*
X174327283Y-93966349D01*
X174325241Y-93969661D01*
X174323247Y-93971453D01*
X174322807Y-93972011D01*
X174322711Y-93971935D01*
X174273291Y-94016383D01*
X174204328Y-94027602D01*
X174140247Y-93999755D01*
X174114168Y-93969656D01*
X174112319Y-93966659D01*
X174112316Y-93966655D01*
X173988345Y-93842684D01*
X173839124Y-93750643D01*
X173839119Y-93750641D01*
X173672697Y-93695494D01*
X173672690Y-93695493D01*
X173569986Y-93685000D01*
X173432500Y-93685000D01*
X173432500Y-96134999D01*
X173569972Y-96134999D01*
X173569986Y-96134998D01*
X173580600Y-96133914D01*
X173649293Y-96146684D01*
X173670866Y-96166983D01*
X173683510Y-96139297D01*
X173738219Y-96102794D01*
X173839119Y-96069358D01*
X173839124Y-96069356D01*
X173988345Y-95977315D01*
X174112318Y-95853342D01*
X174114165Y-95850348D01*
X174115969Y-95848724D01*
X174116798Y-95847677D01*
X174116976Y-95847818D01*
X174166110Y-95803621D01*
X174235073Y-95792396D01*
X174299156Y-95820236D01*
X174325243Y-95850341D01*
X174327288Y-95853656D01*
X174451344Y-95977712D01*
X174598097Y-96068229D01*
X174644821Y-96120175D01*
X174657000Y-96173767D01*
X174657000Y-96333528D01*
X174637315Y-96400567D01*
X174584511Y-96446322D01*
X174515353Y-96456266D01*
X174469880Y-96440261D01*
X174402760Y-96400567D01*
X174390398Y-96393256D01*
X174390396Y-96393255D01*
X174390394Y-96393254D01*
X174232573Y-96347402D01*
X174232567Y-96347401D01*
X174195701Y-96344500D01*
X174195694Y-96344500D01*
X173777223Y-96344500D01*
X173710184Y-96324815D01*
X173699943Y-96312996D01*
X173694682Y-96328530D01*
X173640047Y-96372083D01*
X173627797Y-96376348D01*
X173569606Y-96393254D01*
X173569603Y-96393255D01*
X173428137Y-96476917D01*
X173421969Y-96481702D01*
X173420072Y-96479256D01*
X173371358Y-96505857D01*
X173301666Y-96500873D01*
X173269296Y-96480069D01*
X173268031Y-96481702D01*
X173261862Y-96476917D01*
X173120396Y-96393255D01*
X173120393Y-96393253D01*
X172976030Y-96351312D01*
X172917144Y-96313706D01*
X172887938Y-96250233D01*
X172897684Y-96181046D01*
X172922944Y-96144555D01*
X172932500Y-96134999D01*
X172932500Y-95160000D01*
X172095001Y-95160000D01*
X172095001Y-95434986D01*
X172105494Y-95537697D01*
X172160641Y-95704119D01*
X172160643Y-95704124D01*
X172252684Y-95853345D01*
X172376654Y-95977315D01*
X172525875Y-96069356D01*
X172525880Y-96069358D01*
X172626783Y-96102794D01*
X172684228Y-96142566D01*
X172711051Y-96207082D01*
X172698736Y-96275858D01*
X172651193Y-96327058D01*
X172587779Y-96344500D01*
X172494298Y-96344500D01*
X172457432Y-96347401D01*
X172457426Y-96347402D01*
X172299606Y-96393254D01*
X172299603Y-96393255D01*
X172158137Y-96476917D01*
X172151969Y-96481702D01*
X172150072Y-96479256D01*
X172101358Y-96505857D01*
X172031666Y-96500873D01*
X171999296Y-96480069D01*
X171998031Y-96481702D01*
X171991862Y-96476917D01*
X171850396Y-96393255D01*
X171850393Y-96393254D01*
X171692573Y-96347402D01*
X171692567Y-96347401D01*
X171655701Y-96344500D01*
X171655694Y-96344500D01*
X171224306Y-96344500D01*
X171224298Y-96344500D01*
X171187432Y-96347401D01*
X171187426Y-96347402D01*
X171029606Y-96393254D01*
X171029603Y-96393255D01*
X170888137Y-96476917D01*
X170881969Y-96481702D01*
X170880072Y-96479256D01*
X170831358Y-96505857D01*
X170761666Y-96500873D01*
X170729296Y-96480069D01*
X170728031Y-96481702D01*
X170721862Y-96476917D01*
X170580396Y-96393255D01*
X170580393Y-96393254D01*
X170422573Y-96347402D01*
X170422567Y-96347401D01*
X170385701Y-96344500D01*
X170385694Y-96344500D01*
X169954306Y-96344500D01*
X169954298Y-96344500D01*
X169917432Y-96347401D01*
X169917426Y-96347402D01*
X169759606Y-96393254D01*
X169759603Y-96393255D01*
X169618137Y-96476917D01*
X169611969Y-96481702D01*
X169610072Y-96479256D01*
X169561358Y-96505857D01*
X169491666Y-96500873D01*
X169459296Y-96480069D01*
X169458031Y-96481702D01*
X169451862Y-96476917D01*
X169310396Y-96393255D01*
X169310393Y-96393254D01*
X169152573Y-96347402D01*
X169152567Y-96347401D01*
X169115701Y-96344500D01*
X169115694Y-96344500D01*
X168684306Y-96344500D01*
X168684298Y-96344500D01*
X168647432Y-96347401D01*
X168647426Y-96347402D01*
X168489606Y-96393254D01*
X168489603Y-96393255D01*
X168348137Y-96476917D01*
X168341969Y-96481702D01*
X168340072Y-96479256D01*
X168291358Y-96505857D01*
X168221666Y-96500873D01*
X168189296Y-96480069D01*
X168188031Y-96481702D01*
X168181862Y-96476917D01*
X168040396Y-96393255D01*
X168040393Y-96393254D01*
X167882573Y-96347402D01*
X167882567Y-96347401D01*
X167845701Y-96344500D01*
X167845694Y-96344500D01*
X167414306Y-96344500D01*
X167414298Y-96344500D01*
X167377432Y-96347401D01*
X167377426Y-96347402D01*
X167219606Y-96393254D01*
X167219603Y-96393255D01*
X167078137Y-96476917D01*
X167071969Y-96481702D01*
X167070072Y-96479256D01*
X167021358Y-96505857D01*
X166951666Y-96500873D01*
X166919296Y-96480069D01*
X166918031Y-96481702D01*
X166911862Y-96476917D01*
X166770396Y-96393255D01*
X166770393Y-96393254D01*
X166612573Y-96347402D01*
X166612567Y-96347401D01*
X166575701Y-96344500D01*
X166575694Y-96344500D01*
X166144306Y-96344500D01*
X166144298Y-96344500D01*
X166107432Y-96347401D01*
X166107426Y-96347402D01*
X165949606Y-96393254D01*
X165949603Y-96393255D01*
X165808137Y-96476917D01*
X165808129Y-96476923D01*
X165691923Y-96593129D01*
X165691917Y-96593137D01*
X165608255Y-96734603D01*
X165608254Y-96734606D01*
X165562402Y-96892426D01*
X165562401Y-96892432D01*
X165559500Y-96929298D01*
X165559500Y-98710701D01*
X165562401Y-98747567D01*
X165562402Y-98747573D01*
X165608254Y-98905393D01*
X165608255Y-98905396D01*
X165691917Y-99046862D01*
X165691923Y-99046870D01*
X165808129Y-99163076D01*
X165808133Y-99163079D01*
X165808135Y-99163081D01*
X165949602Y-99246744D01*
X165970457Y-99252803D01*
X166107426Y-99292597D01*
X166107429Y-99292597D01*
X166107431Y-99292598D01*
X166144306Y-99295500D01*
X166144314Y-99295500D01*
X166575686Y-99295500D01*
X166575694Y-99295500D01*
X166612569Y-99292598D01*
X166612571Y-99292597D01*
X166612573Y-99292597D01*
X166686895Y-99271004D01*
X166770398Y-99246744D01*
X166911865Y-99163081D01*
X166911870Y-99163075D01*
X166918031Y-99158298D01*
X166919933Y-99160750D01*
X166968579Y-99134155D01*
X167038274Y-99139104D01*
X167070695Y-99159940D01*
X167071969Y-99158298D01*
X167078132Y-99163078D01*
X167078135Y-99163081D01*
X167219602Y-99246744D01*
X167240457Y-99252803D01*
X167377426Y-99292597D01*
X167377429Y-99292597D01*
X167377431Y-99292598D01*
X167414306Y-99295500D01*
X167414314Y-99295500D01*
X167845686Y-99295500D01*
X167845694Y-99295500D01*
X167882569Y-99292598D01*
X167882571Y-99292597D01*
X167882573Y-99292597D01*
X167956895Y-99271004D01*
X168040398Y-99246744D01*
X168181865Y-99163081D01*
X168181870Y-99163075D01*
X168188031Y-99158298D01*
X168189933Y-99160750D01*
X168238579Y-99134155D01*
X168308274Y-99139104D01*
X168340695Y-99159940D01*
X168341969Y-99158298D01*
X168348132Y-99163078D01*
X168348135Y-99163081D01*
X168489602Y-99246744D01*
X168510457Y-99252803D01*
X168647426Y-99292597D01*
X168647429Y-99292597D01*
X168647431Y-99292598D01*
X168684306Y-99295500D01*
X168684314Y-99295500D01*
X169115686Y-99295500D01*
X169115694Y-99295500D01*
X169152569Y-99292598D01*
X169152571Y-99292597D01*
X169152573Y-99292597D01*
X169226895Y-99271004D01*
X169310398Y-99246744D01*
X169451865Y-99163081D01*
X169451870Y-99163075D01*
X169458031Y-99158298D01*
X169459933Y-99160750D01*
X169508579Y-99134155D01*
X169578274Y-99139104D01*
X169610695Y-99159940D01*
X169611969Y-99158298D01*
X169618132Y-99163078D01*
X169618135Y-99163081D01*
X169759602Y-99246744D01*
X169780457Y-99252803D01*
X169917426Y-99292597D01*
X169917429Y-99292597D01*
X169917431Y-99292598D01*
X169954306Y-99295500D01*
X169954314Y-99295500D01*
X170385686Y-99295500D01*
X170385694Y-99295500D01*
X170422569Y-99292598D01*
X170422571Y-99292597D01*
X170422573Y-99292597D01*
X170496895Y-99271004D01*
X170580398Y-99246744D01*
X170721865Y-99163081D01*
X170721870Y-99163075D01*
X170728031Y-99158298D01*
X170729933Y-99160750D01*
X170778579Y-99134155D01*
X170848274Y-99139104D01*
X170880695Y-99159940D01*
X170881969Y-99158298D01*
X170888132Y-99163078D01*
X170888135Y-99163081D01*
X171029602Y-99246744D01*
X171050457Y-99252803D01*
X171187426Y-99292597D01*
X171187429Y-99292597D01*
X171187431Y-99292598D01*
X171216616Y-99294894D01*
X171281903Y-99319776D01*
X171323376Y-99376005D01*
X171327865Y-99445731D01*
X171294570Y-99506193D01*
X171071286Y-99729478D01*
X170959481Y-99841282D01*
X170959480Y-99841284D01*
X170914775Y-99918716D01*
X170880423Y-99978215D01*
X170839499Y-100130943D01*
X170839499Y-100130945D01*
X170839499Y-100299046D01*
X170839500Y-100299059D01*
X170839500Y-101279093D01*
X170819815Y-101346132D01*
X170767011Y-101391887D01*
X170697853Y-101401831D01*
X170652380Y-101385825D01*
X170580400Y-101343257D01*
X170580393Y-101343254D01*
X170422573Y-101297402D01*
X170422567Y-101297401D01*
X170385701Y-101294500D01*
X170385694Y-101294500D01*
X169954306Y-101294500D01*
X169954298Y-101294500D01*
X169917432Y-101297401D01*
X169917426Y-101297402D01*
X169759606Y-101343254D01*
X169759603Y-101343255D01*
X169618137Y-101426917D01*
X169611969Y-101431702D01*
X169610072Y-101429256D01*
X169561358Y-101455857D01*
X169491666Y-101450873D01*
X169459296Y-101430069D01*
X169458031Y-101431702D01*
X169451862Y-101426917D01*
X169315261Y-101346132D01*
X169310398Y-101343256D01*
X169310397Y-101343255D01*
X169310396Y-101343255D01*
X169310393Y-101343254D01*
X169152573Y-101297402D01*
X169152567Y-101297401D01*
X169115701Y-101294500D01*
X169115694Y-101294500D01*
X168684306Y-101294500D01*
X168684298Y-101294500D01*
X168647432Y-101297401D01*
X168647426Y-101297402D01*
X168489606Y-101343254D01*
X168489603Y-101343255D01*
X168348137Y-101426917D01*
X168341969Y-101431702D01*
X168340072Y-101429256D01*
X168291358Y-101455857D01*
X168221666Y-101450873D01*
X168189296Y-101430069D01*
X168188031Y-101431702D01*
X168181862Y-101426917D01*
X168045261Y-101346132D01*
X168040398Y-101343256D01*
X168040397Y-101343255D01*
X168040396Y-101343255D01*
X168040393Y-101343254D01*
X167882573Y-101297402D01*
X167882567Y-101297401D01*
X167845701Y-101294500D01*
X167845694Y-101294500D01*
X167414306Y-101294500D01*
X167414298Y-101294500D01*
X167377432Y-101297401D01*
X167377426Y-101297402D01*
X167219606Y-101343254D01*
X167219603Y-101343255D01*
X167078137Y-101426917D01*
X167071969Y-101431702D01*
X167070072Y-101429256D01*
X167021358Y-101455857D01*
X166951666Y-101450873D01*
X166919296Y-101430069D01*
X166918031Y-101431702D01*
X166911862Y-101426917D01*
X166775261Y-101346132D01*
X166770398Y-101343256D01*
X166770397Y-101343255D01*
X166770396Y-101343255D01*
X166770393Y-101343254D01*
X166612573Y-101297402D01*
X166612567Y-101297401D01*
X166575701Y-101294500D01*
X166575694Y-101294500D01*
X166144306Y-101294500D01*
X166144298Y-101294500D01*
X166107432Y-101297401D01*
X166107426Y-101297402D01*
X165949606Y-101343254D01*
X165949603Y-101343255D01*
X165808137Y-101426917D01*
X165808129Y-101426923D01*
X165691923Y-101543129D01*
X165691917Y-101543137D01*
X165608255Y-101684603D01*
X165608254Y-101684606D01*
X165562402Y-101842426D01*
X165562401Y-101842432D01*
X165559500Y-101879298D01*
X165559500Y-103660701D01*
X165562401Y-103697567D01*
X165562402Y-103697573D01*
X165608254Y-103855393D01*
X165608255Y-103855396D01*
X165691917Y-103996862D01*
X165691923Y-103996870D01*
X165808129Y-104113076D01*
X165808133Y-104113079D01*
X165808135Y-104113081D01*
X165949602Y-104196744D01*
X165981688Y-104206066D01*
X166107426Y-104242597D01*
X166107429Y-104242597D01*
X166107431Y-104242598D01*
X166144306Y-104245500D01*
X166144314Y-104245500D01*
X166575686Y-104245500D01*
X166575694Y-104245500D01*
X166612569Y-104242598D01*
X166612571Y-104242597D01*
X166612573Y-104242597D01*
X166664502Y-104227510D01*
X166770398Y-104196744D01*
X166911865Y-104113081D01*
X166911870Y-104113075D01*
X166918031Y-104108298D01*
X166919933Y-104110750D01*
X166968579Y-104084155D01*
X167038274Y-104089104D01*
X167070695Y-104109940D01*
X167071969Y-104108298D01*
X167078132Y-104113078D01*
X167078135Y-104113081D01*
X167219602Y-104196744D01*
X167251688Y-104206066D01*
X167377426Y-104242597D01*
X167377429Y-104242597D01*
X167377431Y-104242598D01*
X167414306Y-104245500D01*
X167414314Y-104245500D01*
X167845686Y-104245500D01*
X167845694Y-104245500D01*
X167882569Y-104242598D01*
X167882571Y-104242597D01*
X167882573Y-104242597D01*
X167934502Y-104227510D01*
X168040398Y-104196744D01*
X168112381Y-104154173D01*
X168180102Y-104136991D01*
X168246365Y-104159151D01*
X168290129Y-104213617D01*
X168299500Y-104260906D01*
X168299500Y-106349901D01*
X168279815Y-106416940D01*
X168263182Y-106437581D01*
X168217584Y-106483180D01*
X168156261Y-106516666D01*
X168129902Y-106519500D01*
X160803218Y-106519500D01*
X160736179Y-106499815D01*
X160690424Y-106447011D01*
X160680480Y-106377853D01*
X160684142Y-106360905D01*
X160684548Y-106359507D01*
X160687709Y-106348627D01*
X160690500Y-106313163D01*
X160690499Y-104936838D01*
X160687709Y-104901373D01*
X160643618Y-104749610D01*
X160570035Y-104625188D01*
X160563831Y-104614697D01*
X160546648Y-104546973D01*
X160568808Y-104480710D01*
X160623274Y-104436947D01*
X160631550Y-104433873D01*
X160734334Y-104399814D01*
X160883656Y-104307712D01*
X161007712Y-104183656D01*
X161099814Y-104034334D01*
X161154999Y-103867797D01*
X161165500Y-103765009D01*
X161165499Y-102989992D01*
X161154999Y-102887203D01*
X161099814Y-102720666D01*
X161007712Y-102571344D01*
X160883656Y-102447288D01*
X160880342Y-102445243D01*
X160878546Y-102443248D01*
X160877989Y-102442807D01*
X160878064Y-102442711D01*
X160833618Y-102393297D01*
X160822397Y-102324334D01*
X160850240Y-102260252D01*
X160880348Y-102234165D01*
X160883342Y-102232318D01*
X161007315Y-102108345D01*
X161099356Y-101959124D01*
X161099358Y-101959119D01*
X161154505Y-101792697D01*
X161154506Y-101792690D01*
X161164999Y-101689986D01*
X161165000Y-101689973D01*
X161165000Y-101552500D01*
X156335001Y-101552500D01*
X156335001Y-101689986D01*
X156345494Y-101792697D01*
X156400641Y-101959119D01*
X156400643Y-101959124D01*
X156492684Y-102108345D01*
X156616655Y-102232316D01*
X156616659Y-102232319D01*
X156619656Y-102234168D01*
X156621279Y-102235972D01*
X156622323Y-102236798D01*
X156622181Y-102236976D01*
X156666381Y-102286116D01*
X156677602Y-102355079D01*
X156649759Y-102419161D01*
X156619661Y-102445241D01*
X156616349Y-102447283D01*
X156616343Y-102447288D01*
X156492289Y-102571342D01*
X156400187Y-102720663D01*
X156400185Y-102720668D01*
X156393468Y-102740939D01*
X156345001Y-102887203D01*
X156345001Y-102887204D01*
X156345000Y-102887204D01*
X156334500Y-102989983D01*
X156334500Y-103409092D01*
X156314815Y-103476131D01*
X156262011Y-103521886D01*
X156192853Y-103531830D01*
X156175905Y-103528168D01*
X156088553Y-103502789D01*
X156088547Y-103502788D01*
X156053118Y-103500000D01*
X155615000Y-103500000D01*
X155615000Y-105000000D01*
X155865500Y-105000000D01*
X155932539Y-105019685D01*
X155978294Y-105072489D01*
X155989500Y-105124000D01*
X155989500Y-106313150D01*
X155989501Y-106313175D01*
X155992291Y-106348627D01*
X155995858Y-106360905D01*
X155995659Y-106430774D01*
X155957717Y-106489444D01*
X155894079Y-106518288D01*
X155876782Y-106519500D01*
X155400097Y-106519500D01*
X155333058Y-106499815D01*
X155312416Y-106483181D01*
X154787590Y-105958355D01*
X154787588Y-105958352D01*
X154668717Y-105839481D01*
X154668716Y-105839480D01*
X154558012Y-105775565D01*
X154558010Y-105775564D01*
X154531785Y-105760423D01*
X154531784Y-105760422D01*
X154531783Y-105760422D01*
X154475881Y-105745443D01*
X154379057Y-105719499D01*
X154220943Y-105719499D01*
X154213347Y-105719499D01*
X154213331Y-105719500D01*
X147801692Y-105719500D01*
X147734653Y-105699815D01*
X147700119Y-105666625D01*
X147570047Y-105480861D01*
X147570045Y-105480858D01*
X147409141Y-105319954D01*
X147222734Y-105189432D01*
X147222732Y-105189431D01*
X147016497Y-105093261D01*
X147016488Y-105093258D01*
X146796697Y-105034366D01*
X146796693Y-105034365D01*
X146796692Y-105034365D01*
X146796691Y-105034364D01*
X146796686Y-105034364D01*
X146570002Y-105014532D01*
X146569998Y-105014532D01*
X146343313Y-105034364D01*
X146343302Y-105034366D01*
X146123511Y-105093258D01*
X146123502Y-105093261D01*
X145917267Y-105189431D01*
X145917265Y-105189432D01*
X145730858Y-105319954D01*
X145657681Y-105393132D01*
X145596358Y-105426617D01*
X145526666Y-105421633D01*
X145482319Y-105393132D01*
X145409141Y-105319954D01*
X145222734Y-105189432D01*
X145222732Y-105189431D01*
X145016497Y-105093261D01*
X145016488Y-105093258D01*
X144796697Y-105034366D01*
X144796693Y-105034365D01*
X144796692Y-105034365D01*
X144796691Y-105034364D01*
X144796686Y-105034364D01*
X144570002Y-105014532D01*
X144569998Y-105014532D01*
X144343313Y-105034364D01*
X144343302Y-105034366D01*
X144123511Y-105093258D01*
X144123502Y-105093261D01*
X143917267Y-105189431D01*
X143917265Y-105189432D01*
X143730858Y-105319954D01*
X143569954Y-105480858D01*
X143439432Y-105667265D01*
X143439431Y-105667267D01*
X143343261Y-105873502D01*
X143343258Y-105873511D01*
X143284366Y-106093302D01*
X143284364Y-106093313D01*
X143264532Y-106319998D01*
X143264532Y-106320001D01*
X143284364Y-106546686D01*
X143284366Y-106546697D01*
X143343258Y-106766488D01*
X143343261Y-106766497D01*
X143439431Y-106972732D01*
X143439432Y-106972734D01*
X143569954Y-107159141D01*
X143730858Y-107320045D01*
X143730861Y-107320047D01*
X143917266Y-107450568D01*
X143932975Y-107457893D01*
X143985414Y-107504064D01*
X144004567Y-107571257D01*
X143984352Y-107638138D01*
X143932979Y-107682656D01*
X143917514Y-107689867D01*
X143917512Y-107689868D01*
X143844526Y-107740973D01*
X143844526Y-107740974D01*
X144461001Y-108357449D01*
X144386657Y-108377370D01*
X144278343Y-108439905D01*
X144189905Y-108528343D01*
X144127370Y-108636657D01*
X144107449Y-108711001D01*
X143490974Y-108094526D01*
X143490973Y-108094526D01*
X143439868Y-108167512D01*
X143439866Y-108167516D01*
X143343734Y-108373673D01*
X143343730Y-108373682D01*
X143284860Y-108593389D01*
X143284858Y-108593399D01*
X143264584Y-108825135D01*
X143239131Y-108890203D01*
X143182540Y-108931182D01*
X143112779Y-108935060D01*
X143053376Y-108902008D01*
X142576182Y-108424814D01*
X142408421Y-108257052D01*
X142408420Y-108257051D01*
X142320939Y-108198599D01*
X142320938Y-108198598D01*
X142285500Y-108174919D01*
X142285491Y-108174914D01*
X142189370Y-108135099D01*
X142134967Y-108091258D01*
X142119117Y-108059542D01*
X142119047Y-108059331D01*
X142064814Y-107895666D01*
X142063044Y-107892797D01*
X141972713Y-107746348D01*
X141972710Y-107746344D01*
X141848655Y-107622289D01*
X141848651Y-107622286D01*
X141699337Y-107530187D01*
X141699335Y-107530186D01*
X141616065Y-107502593D01*
X141532797Y-107475001D01*
X141532795Y-107475000D01*
X141430015Y-107464500D01*
X141430008Y-107464500D01*
X140404992Y-107464500D01*
X140404984Y-107464500D01*
X140302204Y-107475000D01*
X140302203Y-107475001D01*
X140135664Y-107530186D01*
X140135662Y-107530187D01*
X139986348Y-107622286D01*
X139986344Y-107622289D01*
X139862289Y-107746344D01*
X139862286Y-107746348D01*
X139770187Y-107895662D01*
X139770186Y-107895664D01*
X139715001Y-108062203D01*
X139715000Y-108062204D01*
X139704500Y-108164984D01*
X139155499Y-108164984D01*
X139144999Y-108062203D01*
X139089814Y-107895666D01*
X139088044Y-107892797D01*
X138997713Y-107746348D01*
X138997710Y-107746344D01*
X138873655Y-107622289D01*
X138873651Y-107622286D01*
X138724337Y-107530187D01*
X138724335Y-107530186D01*
X138641065Y-107502593D01*
X138557797Y-107475001D01*
X138557795Y-107475000D01*
X138455015Y-107464500D01*
X138455008Y-107464500D01*
X137429992Y-107464500D01*
X137429984Y-107464500D01*
X137327204Y-107475000D01*
X137327203Y-107475001D01*
X137160664Y-107530186D01*
X137160662Y-107530187D01*
X137011348Y-107622286D01*
X137011344Y-107622289D01*
X136887289Y-107746344D01*
X136887286Y-107746348D01*
X136795187Y-107895662D01*
X136795186Y-107895664D01*
X136740001Y-108062203D01*
X136740000Y-108062204D01*
X136729500Y-108164984D01*
X135040500Y-108164984D01*
X135040500Y-101569994D01*
X139205057Y-101569994D01*
X139205057Y-101570005D01*
X139224807Y-101883942D01*
X139224808Y-101883949D01*
X139283755Y-102192958D01*
X139380963Y-102492132D01*
X139380965Y-102492137D01*
X139514900Y-102776761D01*
X139514903Y-102776767D01*
X139683457Y-103042367D01*
X139683460Y-103042371D01*
X139774286Y-103152160D01*
X140737913Y-102188533D01*
X140832829Y-102319175D01*
X140960825Y-102447171D01*
X141091465Y-102542086D01*
X140124971Y-103508579D01*
X140124972Y-103508581D01*
X140367772Y-103684985D01*
X140367790Y-103684996D01*
X140643447Y-103836540D01*
X140643455Y-103836544D01*
X140935926Y-103952340D01*
X141240620Y-104030573D01*
X141240629Y-104030575D01*
X141552701Y-104069999D01*
X141552715Y-104070000D01*
X141867285Y-104070000D01*
X141867298Y-104069999D01*
X142179370Y-104030575D01*
X142179379Y-104030573D01*
X142484073Y-103952340D01*
X142776544Y-103836544D01*
X142776552Y-103836540D01*
X143052209Y-103684996D01*
X143052219Y-103684990D01*
X143295026Y-103508579D01*
X143295027Y-103508579D01*
X142328533Y-102542086D01*
X142459175Y-102447171D01*
X142587171Y-102319175D01*
X142682086Y-102188534D01*
X143645712Y-103152160D01*
X143736544Y-103042364D01*
X143905096Y-102776767D01*
X143905099Y-102776761D01*
X144039034Y-102492137D01*
X144039036Y-102492132D01*
X144136244Y-102192958D01*
X144195191Y-101883949D01*
X144195192Y-101883942D01*
X144214943Y-101570005D01*
X144214943Y-101569994D01*
X144195192Y-101256057D01*
X144195191Y-101256050D01*
X144136244Y-100947041D01*
X144039036Y-100647867D01*
X144039034Y-100647862D01*
X143905099Y-100363238D01*
X143905096Y-100363232D01*
X143736542Y-100097632D01*
X143736539Y-100097628D01*
X143645712Y-99987838D01*
X142682085Y-100951465D01*
X142587171Y-100820825D01*
X142459175Y-100692829D01*
X142328533Y-100597913D01*
X143295027Y-99631419D01*
X143295026Y-99631417D01*
X143052227Y-99455014D01*
X143052209Y-99455003D01*
X142776552Y-99303459D01*
X142776544Y-99303455D01*
X142484073Y-99187659D01*
X142337336Y-99149983D01*
X148279500Y-99149983D01*
X148279500Y-99950001D01*
X148279501Y-99950019D01*
X148290000Y-100052796D01*
X148290001Y-100052799D01*
X148332152Y-100180000D01*
X148345186Y-100219334D01*
X148435341Y-100365500D01*
X148437289Y-100368657D01*
X148530951Y-100462319D01*
X148564436Y-100523642D01*
X148559452Y-100593334D01*
X148530951Y-100637681D01*
X148437289Y-100731342D01*
X148345187Y-100880663D01*
X148345185Y-100880668D01*
X148323191Y-100947041D01*
X148290001Y-101047203D01*
X148290001Y-101047204D01*
X148290000Y-101047204D01*
X148279500Y-101149983D01*
X148279500Y-101950001D01*
X148279501Y-101950019D01*
X148290000Y-102052796D01*
X148290001Y-102052799D01*
X148345185Y-102219331D01*
X148345187Y-102219336D01*
X148370424Y-102260252D01*
X148437288Y-102368656D01*
X148561344Y-102492712D01*
X148710666Y-102584814D01*
X148794505Y-102612595D01*
X148851948Y-102652366D01*
X148878772Y-102716882D01*
X148879500Y-102730300D01*
X148879500Y-102733330D01*
X148879499Y-102733348D01*
X148879499Y-102899054D01*
X148879498Y-102899054D01*
X148879499Y-102899057D01*
X148920423Y-103051785D01*
X148920424Y-103051786D01*
X148931680Y-103071284D01*
X148931681Y-103071285D01*
X148999475Y-103188709D01*
X148999481Y-103188717D01*
X149118349Y-103307585D01*
X149118355Y-103307590D01*
X149615139Y-103804374D01*
X149615149Y-103804385D01*
X149619479Y-103808715D01*
X149619480Y-103808716D01*
X149731284Y-103920520D01*
X149731286Y-103920521D01*
X149731290Y-103920524D01*
X149786398Y-103952340D01*
X149868216Y-103999577D01*
X149980019Y-104029534D01*
X150020942Y-104040500D01*
X150020943Y-104040500D01*
X153207588Y-104040500D01*
X153274627Y-104060185D01*
X153284903Y-104067555D01*
X153287736Y-104069814D01*
X153287738Y-104069816D01*
X153394646Y-104136991D01*
X153439578Y-104165224D01*
X153440478Y-104165789D01*
X153555583Y-104206066D01*
X153610745Y-104225368D01*
X153610750Y-104225369D01*
X153789996Y-104245565D01*
X153790000Y-104245565D01*
X153790004Y-104245565D01*
X153976176Y-104224589D01*
X153976505Y-104227510D01*
X154033120Y-104230967D01*
X154089487Y-104272253D01*
X154114585Y-104337459D01*
X154115000Y-104347594D01*
X154115000Y-104438118D01*
X154117788Y-104473547D01*
X154117789Y-104473553D01*
X154161843Y-104625185D01*
X154161844Y-104625188D01*
X154242226Y-104761108D01*
X154242232Y-104761116D01*
X154353883Y-104872767D01*
X154353891Y-104872773D01*
X154489811Y-104953155D01*
X154489814Y-104953156D01*
X154641446Y-104997210D01*
X154641452Y-104997211D01*
X154676881Y-104999999D01*
X154676894Y-105000000D01*
X155115000Y-105000000D01*
X155115000Y-104230109D01*
X155265000Y-104230109D01*
X155265000Y-104269891D01*
X155280224Y-104306645D01*
X155308355Y-104334776D01*
X155345109Y-104350000D01*
X155384891Y-104350000D01*
X155421645Y-104334776D01*
X155449776Y-104306645D01*
X155465000Y-104269891D01*
X155465000Y-104230109D01*
X155449776Y-104193355D01*
X155421645Y-104165224D01*
X155384891Y-104150000D01*
X155345109Y-104150000D01*
X155308355Y-104165224D01*
X155280224Y-104193355D01*
X155265000Y-104230109D01*
X155115000Y-104230109D01*
X155115000Y-103500000D01*
X154713139Y-103500000D01*
X154646100Y-103480315D01*
X154600345Y-103427511D01*
X154589919Y-103389884D01*
X154575369Y-103260749D01*
X154575368Y-103260745D01*
X154550164Y-103188716D01*
X154515789Y-103090478D01*
X154419816Y-102937738D01*
X154292262Y-102810184D01*
X154281117Y-102803181D01*
X154139523Y-102714211D01*
X153969254Y-102654631D01*
X153969249Y-102654630D01*
X153790004Y-102634435D01*
X153789996Y-102634435D01*
X153610750Y-102654630D01*
X153610745Y-102654631D01*
X153440476Y-102714211D01*
X153287736Y-102810185D01*
X153284903Y-102812445D01*
X153282724Y-102813334D01*
X153281842Y-102813889D01*
X153281744Y-102813734D01*
X153220217Y-102838855D01*
X153207588Y-102839500D01*
X150400097Y-102839500D01*
X150333058Y-102819815D01*
X150312416Y-102803181D01*
X150264181Y-102754946D01*
X150230696Y-102693623D01*
X150235680Y-102623931D01*
X150277552Y-102567998D01*
X150286766Y-102561726D01*
X150299992Y-102553568D01*
X150398656Y-102492712D01*
X150522712Y-102368656D01*
X150614814Y-102219334D01*
X150669999Y-102052797D01*
X150680500Y-101950009D01*
X150680499Y-101149992D01*
X150669999Y-101047203D01*
X150626195Y-100915013D01*
X156335000Y-100915013D01*
X156335000Y-101052500D01*
X157310000Y-101052500D01*
X157310000Y-100504041D01*
X157305334Y-100495496D01*
X157302500Y-100469138D01*
X157302500Y-99510000D01*
X156465001Y-99510000D01*
X156465001Y-99784986D01*
X156475494Y-99887697D01*
X156530641Y-100054119D01*
X156530643Y-100054124D01*
X156622682Y-100203342D01*
X156626349Y-100207979D01*
X156652490Y-100272774D01*
X156639452Y-100341416D01*
X156616766Y-100372573D01*
X156492682Y-100496657D01*
X156400643Y-100645875D01*
X156400641Y-100645880D01*
X156345494Y-100812302D01*
X156345493Y-100812309D01*
X156335000Y-100915013D01*
X150626195Y-100915013D01*
X150614814Y-100880666D01*
X150522712Y-100731344D01*
X150429049Y-100637681D01*
X150395564Y-100576358D01*
X150400548Y-100506666D01*
X150429049Y-100462319D01*
X150471554Y-100419814D01*
X150522712Y-100368656D01*
X150614814Y-100219334D01*
X150669999Y-100052797D01*
X150680500Y-99950009D01*
X150680499Y-99149992D01*
X150669999Y-99047203D01*
X150614814Y-98880666D01*
X150524975Y-98735013D01*
X156465000Y-98735013D01*
X156465000Y-99010000D01*
X157302500Y-99010000D01*
X157302500Y-98035000D01*
X157802500Y-98035000D01*
X157802500Y-100195958D01*
X157807166Y-100204504D01*
X157810000Y-100230862D01*
X157810000Y-101052500D01*
X161164999Y-101052500D01*
X161164999Y-100915028D01*
X161164998Y-100915013D01*
X161154505Y-100812302D01*
X161099358Y-100645880D01*
X161099356Y-100645875D01*
X161007315Y-100496654D01*
X160883345Y-100372684D01*
X160734124Y-100280643D01*
X160734121Y-100280642D01*
X160697083Y-100268369D01*
X160639639Y-100228596D01*
X160612816Y-100164080D01*
X160625131Y-100095304D01*
X160630543Y-100085576D01*
X160649814Y-100054334D01*
X160685879Y-99945494D01*
X160725652Y-99888051D01*
X160790167Y-99861228D01*
X160803585Y-99860500D01*
X161623331Y-99860500D01*
X161623347Y-99860501D01*
X161630943Y-99860501D01*
X161789054Y-99860501D01*
X161789057Y-99860501D01*
X161941785Y-99819577D01*
X162007907Y-99781401D01*
X162078716Y-99740520D01*
X162190520Y-99628716D01*
X162190520Y-99628714D01*
X162200724Y-99618511D01*
X162200727Y-99618506D01*
X162537932Y-99281302D01*
X162599253Y-99247819D01*
X162668945Y-99252803D01*
X162701609Y-99271004D01*
X162703887Y-99272771D01*
X162839811Y-99353155D01*
X162839814Y-99353156D01*
X162991446Y-99397210D01*
X162991452Y-99397211D01*
X163026881Y-99399999D01*
X163026894Y-99400000D01*
X163465000Y-99400000D01*
X163965000Y-99400000D01*
X164403106Y-99400000D01*
X164403118Y-99399999D01*
X164438547Y-99397211D01*
X164438553Y-99397210D01*
X164590185Y-99353156D01*
X164590188Y-99353155D01*
X164726108Y-99272773D01*
X164726116Y-99272767D01*
X164837767Y-99161116D01*
X164837773Y-99161108D01*
X164918154Y-99025191D01*
X164918156Y-99025185D01*
X164954525Y-98900000D01*
X163965000Y-98900000D01*
X163965000Y-99400000D01*
X163465000Y-99400000D01*
X163465000Y-98630109D01*
X163615000Y-98630109D01*
X163615000Y-98669891D01*
X163630224Y-98706645D01*
X163658355Y-98734776D01*
X163695109Y-98750000D01*
X163734891Y-98750000D01*
X163771645Y-98734776D01*
X163799776Y-98706645D01*
X163815000Y-98669891D01*
X163815000Y-98630109D01*
X163799776Y-98593355D01*
X163771645Y-98565224D01*
X163734891Y-98550000D01*
X163695109Y-98550000D01*
X163658355Y-98565224D01*
X163630224Y-98593355D01*
X163615000Y-98630109D01*
X163465000Y-98630109D01*
X163465000Y-98400000D01*
X163965000Y-98400000D01*
X164954526Y-98400000D01*
X164954525Y-98399999D01*
X164918156Y-98274814D01*
X164918154Y-98274808D01*
X164837773Y-98138891D01*
X164837767Y-98138883D01*
X164726116Y-98027232D01*
X164726108Y-98027226D01*
X164590188Y-97946844D01*
X164590185Y-97946843D01*
X164438553Y-97902789D01*
X164438547Y-97902788D01*
X164403118Y-97900000D01*
X163965000Y-97900000D01*
X163965000Y-98400000D01*
X163465000Y-98400000D01*
X163465000Y-97900000D01*
X163214500Y-97900000D01*
X163147461Y-97880315D01*
X163101706Y-97827511D01*
X163090500Y-97776000D01*
X163090499Y-96586849D01*
X163090498Y-96586824D01*
X163089125Y-96569372D01*
X163087709Y-96551373D01*
X163043618Y-96399610D01*
X162963170Y-96263580D01*
X162963168Y-96263578D01*
X162963165Y-96263574D01*
X162851425Y-96151834D01*
X162851416Y-96151827D01*
X162715390Y-96071382D01*
X162715385Y-96071380D01*
X162563633Y-96027292D01*
X162563620Y-96027290D01*
X162528163Y-96024500D01*
X162151849Y-96024500D01*
X162151824Y-96024501D01*
X162116372Y-96027291D01*
X161964614Y-96071380D01*
X161964609Y-96071382D01*
X161828583Y-96151827D01*
X161828574Y-96151834D01*
X161716834Y-96263574D01*
X161716827Y-96263583D01*
X161636382Y-96399609D01*
X161636380Y-96399614D01*
X161592292Y-96551366D01*
X161592290Y-96551379D01*
X161589500Y-96586829D01*
X161589500Y-97963150D01*
X161589501Y-97963175D01*
X161592291Y-97998627D01*
X161636380Y-98150385D01*
X161636382Y-98150390D01*
X161711539Y-98277474D01*
X161728722Y-98345198D01*
X161706562Y-98411461D01*
X161692488Y-98428276D01*
X161497584Y-98623181D01*
X161436261Y-98656666D01*
X161409903Y-98659500D01*
X160803585Y-98659500D01*
X160736546Y-98639815D01*
X160690791Y-98587011D01*
X160685879Y-98574504D01*
X160682804Y-98565224D01*
X160649814Y-98465666D01*
X160557712Y-98316344D01*
X160433656Y-98192288D01*
X160284334Y-98100186D01*
X160117797Y-98045001D01*
X160117795Y-98045000D01*
X160015010Y-98034500D01*
X159239998Y-98034500D01*
X159239980Y-98034501D01*
X159137203Y-98045000D01*
X159137200Y-98045001D01*
X158970668Y-98100185D01*
X158970663Y-98100187D01*
X158821342Y-98192289D01*
X158697288Y-98316343D01*
X158697283Y-98316349D01*
X158695241Y-98319661D01*
X158693247Y-98321453D01*
X158692807Y-98322011D01*
X158692711Y-98321935D01*
X158643291Y-98366383D01*
X158574328Y-98377602D01*
X158510247Y-98349755D01*
X158484168Y-98319656D01*
X158482319Y-98316659D01*
X158482316Y-98316655D01*
X158358345Y-98192684D01*
X158209124Y-98100643D01*
X158209119Y-98100641D01*
X158042697Y-98045494D01*
X158042690Y-98045493D01*
X157939986Y-98035000D01*
X157802500Y-98035000D01*
X157302500Y-98035000D01*
X157165027Y-98035000D01*
X157165012Y-98035001D01*
X157062302Y-98045494D01*
X156895880Y-98100641D01*
X156895875Y-98100643D01*
X156746654Y-98192684D01*
X156622684Y-98316654D01*
X156530643Y-98465875D01*
X156530641Y-98465880D01*
X156475494Y-98632302D01*
X156475493Y-98632309D01*
X156465000Y-98735013D01*
X150524975Y-98735013D01*
X150522712Y-98731344D01*
X150398656Y-98607288D01*
X150316917Y-98556871D01*
X150270194Y-98504924D01*
X150258971Y-98435961D01*
X150264974Y-98410380D01*
X150265368Y-98409255D01*
X150265368Y-98409247D01*
X150265370Y-98409244D01*
X150285565Y-98230003D01*
X150285565Y-98229996D01*
X150265369Y-98050750D01*
X150265368Y-98050745D01*
X150213596Y-97902789D01*
X150205789Y-97880478D01*
X150200148Y-97871501D01*
X150109815Y-97727737D01*
X149982262Y-97600184D01*
X149829523Y-97504211D01*
X149659254Y-97444631D01*
X149659249Y-97444630D01*
X149480004Y-97424435D01*
X149479996Y-97424435D01*
X149300750Y-97444630D01*
X149300745Y-97444631D01*
X149130476Y-97504211D01*
X148977737Y-97600184D01*
X148850184Y-97727737D01*
X148754211Y-97880476D01*
X148694631Y-98050745D01*
X148694630Y-98050750D01*
X148674435Y-98229996D01*
X148674435Y-98230003D01*
X148694631Y-98409253D01*
X148695026Y-98410382D01*
X148695065Y-98411156D01*
X148696181Y-98416044D01*
X148695324Y-98416239D01*
X148698585Y-98480161D01*
X148663854Y-98540788D01*
X148643081Y-98556871D01*
X148561344Y-98607287D01*
X148437289Y-98731342D01*
X148345187Y-98880663D01*
X148345185Y-98880668D01*
X148317349Y-98964670D01*
X148290001Y-99047203D01*
X148290001Y-99047204D01*
X148290000Y-99047204D01*
X148279500Y-99149983D01*
X142337336Y-99149983D01*
X142179379Y-99109426D01*
X142179370Y-99109424D01*
X141867298Y-99070000D01*
X141552701Y-99070000D01*
X141240629Y-99109424D01*
X141240620Y-99109426D01*
X140935926Y-99187659D01*
X140643455Y-99303455D01*
X140643447Y-99303459D01*
X140367787Y-99455004D01*
X140367782Y-99455007D01*
X140124972Y-99631418D01*
X140124971Y-99631419D01*
X141091466Y-100597913D01*
X140960825Y-100692829D01*
X140832829Y-100820825D01*
X140737913Y-100951465D01*
X139774286Y-99987838D01*
X139774285Y-99987838D01*
X139683459Y-100097629D01*
X139683457Y-100097632D01*
X139514903Y-100363232D01*
X139514900Y-100363238D01*
X139380965Y-100647862D01*
X139380963Y-100647867D01*
X139283755Y-100947041D01*
X139224808Y-101256050D01*
X139224807Y-101256057D01*
X139205057Y-101569994D01*
X135040500Y-101569994D01*
X135040500Y-92971421D01*
X139470000Y-92971421D01*
X139470000Y-93690000D01*
X140286988Y-93690000D01*
X140254075Y-93747007D01*
X140220000Y-93874174D01*
X140220000Y-94005826D01*
X140254075Y-94132993D01*
X140286988Y-94190000D01*
X139470001Y-94190000D01*
X139470001Y-94908588D01*
X139472794Y-94961191D01*
X139517237Y-95190987D01*
X139599879Y-95409975D01*
X139718339Y-95611841D01*
X139718344Y-95611848D01*
X139869211Y-95790786D01*
X139869213Y-95790788D01*
X140048151Y-95941655D01*
X140048158Y-95941660D01*
X140250024Y-96060120D01*
X140469012Y-96142762D01*
X140698809Y-96187205D01*
X140751382Y-96189998D01*
X140751421Y-96189999D01*
X141469999Y-96189999D01*
X141470000Y-96189998D01*
X141470000Y-94440000D01*
X141970000Y-94440000D01*
X141970000Y-96189999D01*
X142688576Y-96189999D01*
X142688588Y-96189998D01*
X142741191Y-96187205D01*
X142970987Y-96142762D01*
X143189975Y-96060120D01*
X143391841Y-95941660D01*
X143391848Y-95941655D01*
X143570786Y-95790788D01*
X143570788Y-95790786D01*
X143721655Y-95611848D01*
X143721660Y-95611841D01*
X143804898Y-95469996D01*
X146834435Y-95469996D01*
X146834435Y-95470003D01*
X146854630Y-95649249D01*
X146854631Y-95649254D01*
X146914211Y-95819523D01*
X146968765Y-95906344D01*
X147010184Y-95972262D01*
X147137738Y-96099816D01*
X147200572Y-96139297D01*
X147281261Y-96189998D01*
X147290478Y-96195789D01*
X147322752Y-96207082D01*
X147460745Y-96255368D01*
X147460750Y-96255369D01*
X147639996Y-96275565D01*
X147640000Y-96275565D01*
X147640004Y-96275565D01*
X147819249Y-96255369D01*
X147819252Y-96255368D01*
X147819255Y-96255368D01*
X147989522Y-96195789D01*
X148142262Y-96099816D01*
X148269816Y-95972262D01*
X148365789Y-95819522D01*
X148425368Y-95649255D01*
X148429584Y-95611841D01*
X148445565Y-95470003D01*
X148445565Y-95469996D01*
X148425369Y-95290750D01*
X148425368Y-95290745D01*
X148379618Y-95160000D01*
X148365789Y-95120478D01*
X148269816Y-94967738D01*
X148142262Y-94840184D01*
X147989523Y-94744211D01*
X147819254Y-94684631D01*
X147819249Y-94684630D01*
X147640004Y-94664435D01*
X147639996Y-94664435D01*
X147460750Y-94684630D01*
X147460745Y-94684631D01*
X147290476Y-94744211D01*
X147137737Y-94840184D01*
X147010184Y-94967737D01*
X146914211Y-95120476D01*
X146854631Y-95290745D01*
X146854630Y-95290750D01*
X146834435Y-95469996D01*
X143804898Y-95469996D01*
X143840120Y-95409975D01*
X143922762Y-95190987D01*
X143967205Y-94961191D01*
X143967205Y-94961190D01*
X143969998Y-94908617D01*
X143970000Y-94908578D01*
X143970000Y-94385013D01*
X172095000Y-94385013D01*
X172095000Y-94660000D01*
X172932500Y-94660000D01*
X172932500Y-93685000D01*
X172795027Y-93685000D01*
X172795012Y-93685001D01*
X172692302Y-93695494D01*
X172525880Y-93750641D01*
X172525875Y-93750643D01*
X172376654Y-93842684D01*
X172252684Y-93966654D01*
X172160643Y-94115875D01*
X172160641Y-94115880D01*
X172105494Y-94282302D01*
X172105493Y-94282309D01*
X172095000Y-94385013D01*
X143970000Y-94385013D01*
X143970000Y-94190000D01*
X143153012Y-94190000D01*
X143185925Y-94132993D01*
X143220000Y-94005826D01*
X143220000Y-93874174D01*
X143185925Y-93747007D01*
X143153012Y-93690000D01*
X143969999Y-93690000D01*
X143969999Y-92971423D01*
X143969998Y-92971411D01*
X143967205Y-92918808D01*
X143922762Y-92689012D01*
X143840120Y-92470024D01*
X143721660Y-92268158D01*
X143721655Y-92268151D01*
X143570788Y-92089213D01*
X143570786Y-92089211D01*
X143391848Y-91938344D01*
X143391841Y-91938339D01*
X143189975Y-91819879D01*
X142970984Y-91737236D01*
X142965840Y-91736241D01*
X142903760Y-91704180D01*
X142868869Y-91643646D01*
X142872244Y-91573858D01*
X142912814Y-91516973D01*
X142977697Y-91491052D01*
X142989374Y-91490499D01*
X146517872Y-91490499D01*
X146577483Y-91484091D01*
X146712331Y-91433796D01*
X146827546Y-91347546D01*
X146913796Y-91232331D01*
X146964091Y-91097483D01*
X146970500Y-91037873D01*
X146970499Y-88229986D01*
X147770001Y-88229986D01*
X147780494Y-88332697D01*
X147835641Y-88499119D01*
X147835643Y-88499124D01*
X147927684Y-88648345D01*
X148051654Y-88772315D01*
X148185038Y-88854587D01*
X148231762Y-88906535D01*
X148242985Y-88975498D01*
X148215141Y-89039580D01*
X148185038Y-89065664D01*
X148101347Y-89117285D01*
X148101343Y-89117288D01*
X147977289Y-89241342D01*
X147885187Y-89390663D01*
X147885186Y-89390666D01*
X147830001Y-89557203D01*
X147830001Y-89557204D01*
X147830000Y-89557204D01*
X147819500Y-89659983D01*
X147819500Y-91960001D01*
X147819501Y-91960018D01*
X147830000Y-92062796D01*
X147830001Y-92062799D01*
X147875597Y-92200396D01*
X147885186Y-92229334D01*
X147977288Y-92378656D01*
X148101344Y-92502712D01*
X148250666Y-92594814D01*
X148417203Y-92649999D01*
X148519991Y-92660500D01*
X149620008Y-92660499D01*
X149620016Y-92660498D01*
X149620019Y-92660498D01*
X149676302Y-92654748D01*
X149722797Y-92649999D01*
X149889334Y-92594814D01*
X150038656Y-92502712D01*
X150162712Y-92378656D01*
X150254814Y-92229334D01*
X150309999Y-92062797D01*
X150320500Y-91960009D01*
X150320500Y-91684500D01*
X150340185Y-91617461D01*
X150392989Y-91571706D01*
X150444500Y-91560500D01*
X150687769Y-91560500D01*
X150754808Y-91580185D01*
X150775449Y-91596818D01*
X150813180Y-91634548D01*
X150846666Y-91695870D01*
X150849500Y-91722230D01*
X150849500Y-92750028D01*
X150842542Y-92790982D01*
X150814631Y-92870747D01*
X150794435Y-93049996D01*
X150794435Y-93050003D01*
X150814630Y-93229249D01*
X150814631Y-93229254D01*
X150874211Y-93399523D01*
X150962417Y-93539901D01*
X150970184Y-93552262D01*
X151097738Y-93679816D01*
X151188080Y-93736582D01*
X151209729Y-93750185D01*
X151250478Y-93775789D01*
X151405401Y-93829999D01*
X151420745Y-93835368D01*
X151420750Y-93835369D01*
X151599996Y-93855565D01*
X151600000Y-93855565D01*
X151600004Y-93855565D01*
X151779249Y-93835369D01*
X151779252Y-93835368D01*
X151779255Y-93835368D01*
X151949522Y-93775789D01*
X152102262Y-93679816D01*
X152229816Y-93552262D01*
X152325789Y-93399522D01*
X152385368Y-93229255D01*
X152392782Y-93163454D01*
X152405565Y-93050003D01*
X152405565Y-93049996D01*
X152385368Y-92870747D01*
X152385368Y-92870745D01*
X152357458Y-92790982D01*
X152350500Y-92750028D01*
X152350500Y-91286079D01*
X152321659Y-91141092D01*
X152321658Y-91141091D01*
X152321658Y-91141087D01*
X152303596Y-91097482D01*
X152265087Y-91004511D01*
X152265080Y-91004498D01*
X152182952Y-90881585D01*
X152160741Y-90859374D01*
X152092951Y-90791584D01*
X152092949Y-90791582D01*
X152092948Y-90791580D01*
X151984091Y-90682723D01*
X151984080Y-90682713D01*
X151528421Y-90227052D01*
X151528414Y-90227046D01*
X151453339Y-90176883D01*
X151453240Y-90176818D01*
X151405495Y-90144916D01*
X151405494Y-90144915D01*
X151405492Y-90144914D01*
X151268917Y-90088343D01*
X151268907Y-90088340D01*
X151123920Y-90059500D01*
X151123918Y-90059500D01*
X150444499Y-90059500D01*
X150377460Y-90039815D01*
X150331705Y-89987011D01*
X150320499Y-89935500D01*
X150320499Y-89659998D01*
X150320498Y-89659981D01*
X150309999Y-89557203D01*
X150309998Y-89557200D01*
X150302764Y-89535369D01*
X150254814Y-89390666D01*
X150162712Y-89241344D01*
X150038656Y-89117288D01*
X149904960Y-89034824D01*
X149858237Y-88982877D01*
X149847014Y-88913914D01*
X149874858Y-88849832D01*
X149904962Y-88823747D01*
X149988343Y-88772317D01*
X150112315Y-88648345D01*
X150204356Y-88499124D01*
X150204358Y-88499119D01*
X150259505Y-88332697D01*
X150259506Y-88332690D01*
X150269999Y-88229986D01*
X150270000Y-88229973D01*
X150270000Y-87330000D01*
X147770001Y-87330000D01*
X147770001Y-88229986D01*
X146970499Y-88229986D01*
X146970499Y-87442128D01*
X146964091Y-87382517D01*
X146944503Y-87330000D01*
X146913797Y-87247671D01*
X146913793Y-87247664D01*
X146827547Y-87132455D01*
X146827544Y-87132452D01*
X146712335Y-87046206D01*
X146712328Y-87046202D01*
X146577482Y-86995908D01*
X146577483Y-86995908D01*
X146517883Y-86989501D01*
X146517881Y-86989500D01*
X146517873Y-86989500D01*
X146517864Y-86989500D01*
X142922129Y-86989500D01*
X142922123Y-86989501D01*
X142862516Y-86995908D01*
X142727671Y-87046202D01*
X142727664Y-87046206D01*
X142612455Y-87132452D01*
X142612452Y-87132455D01*
X142526206Y-87247664D01*
X142526202Y-87247671D01*
X142475908Y-87382517D01*
X142469501Y-87442116D01*
X142469501Y-87442123D01*
X142469500Y-87442135D01*
X142469500Y-91037870D01*
X142469501Y-91037876D01*
X142475908Y-91097483D01*
X142526202Y-91232328D01*
X142526206Y-91232335D01*
X142612452Y-91347544D01*
X142612455Y-91347547D01*
X142727664Y-91433793D01*
X142727673Y-91433798D01*
X142776506Y-91452011D01*
X142832440Y-91493881D01*
X142856858Y-91559345D01*
X142842007Y-91627618D01*
X142792603Y-91677024D01*
X142726598Y-91692018D01*
X142688625Y-91690001D01*
X142688579Y-91690000D01*
X141970000Y-91690000D01*
X141970000Y-93440000D01*
X141470000Y-93440000D01*
X141470000Y-91690000D01*
X140751423Y-91690000D01*
X140751411Y-91690001D01*
X140698808Y-91692794D01*
X140469012Y-91737237D01*
X140250024Y-91819879D01*
X140048158Y-91938339D01*
X140048151Y-91938344D01*
X139869213Y-92089211D01*
X139869211Y-92089213D01*
X139718344Y-92268151D01*
X139718339Y-92268158D01*
X139599879Y-92470024D01*
X139517237Y-92689012D01*
X139472794Y-92918808D01*
X139472794Y-92918809D01*
X139470001Y-92971382D01*
X139470000Y-92971421D01*
X135040500Y-92971421D01*
X135040500Y-88175803D01*
X136720000Y-88175803D01*
X136720000Y-88990000D01*
X138220000Y-88990000D01*
X138220000Y-89490000D01*
X136720001Y-89490000D01*
X136720001Y-90304197D01*
X136730400Y-90436332D01*
X136785377Y-90654519D01*
X136878428Y-90859374D01*
X136878431Y-90859380D01*
X137006559Y-91044323D01*
X137006569Y-91044335D01*
X137165664Y-91203430D01*
X137165676Y-91203440D01*
X137350619Y-91331568D01*
X137350625Y-91331571D01*
X137555480Y-91424622D01*
X137773667Y-91479599D01*
X137905810Y-91489999D01*
X138469999Y-91489999D01*
X138470000Y-91489998D01*
X138470000Y-90673012D01*
X138527007Y-90705925D01*
X138654174Y-90740000D01*
X138785826Y-90740000D01*
X138912993Y-90705925D01*
X138970000Y-90673012D01*
X138970000Y-91489999D01*
X139534182Y-91489999D01*
X139534197Y-91489998D01*
X139666332Y-91479599D01*
X139884519Y-91424622D01*
X140089374Y-91331571D01*
X140089380Y-91331568D01*
X140274323Y-91203440D01*
X140274335Y-91203430D01*
X140433430Y-91044335D01*
X140433440Y-91044323D01*
X140561568Y-90859380D01*
X140561571Y-90859374D01*
X140654622Y-90654519D01*
X140709599Y-90436332D01*
X140719999Y-90304196D01*
X140720000Y-90304184D01*
X140720000Y-89490000D01*
X139220000Y-89490000D01*
X139220000Y-88990000D01*
X140719999Y-88990000D01*
X140719999Y-88175817D01*
X140719998Y-88175802D01*
X140709599Y-88043667D01*
X140654622Y-87825480D01*
X140561571Y-87620625D01*
X140561568Y-87620619D01*
X140433440Y-87435676D01*
X140433430Y-87435664D01*
X140274335Y-87276569D01*
X140274323Y-87276559D01*
X140089380Y-87148431D01*
X140089374Y-87148428D01*
X139884519Y-87055377D01*
X139666332Y-87000400D01*
X139534196Y-86990000D01*
X138970000Y-86990000D01*
X138970000Y-87806988D01*
X138912993Y-87774075D01*
X138785826Y-87740000D01*
X138654174Y-87740000D01*
X138527007Y-87774075D01*
X138470000Y-87806988D01*
X138470000Y-86990000D01*
X137905817Y-86990000D01*
X137905802Y-86990001D01*
X137773667Y-87000400D01*
X137555480Y-87055377D01*
X137350625Y-87148428D01*
X137350619Y-87148431D01*
X137165676Y-87276559D01*
X137165664Y-87276569D01*
X137006569Y-87435664D01*
X137006559Y-87435676D01*
X136878431Y-87620619D01*
X136878428Y-87620625D01*
X136785377Y-87825480D01*
X136730400Y-88043667D01*
X136720000Y-88175803D01*
X135040500Y-88175803D01*
X135040500Y-85930013D01*
X147770000Y-85930013D01*
X147770000Y-86830000D01*
X148770000Y-86830000D01*
X149270000Y-86830000D01*
X150269999Y-86830000D01*
X150269999Y-85930028D01*
X150269998Y-85930013D01*
X150269995Y-85929983D01*
X152569500Y-85929983D01*
X152569500Y-88230001D01*
X152569501Y-88230018D01*
X152580000Y-88332796D01*
X152580001Y-88332799D01*
X152635185Y-88499331D01*
X152635187Y-88499336D01*
X152647819Y-88519815D01*
X152727288Y-88648656D01*
X152851344Y-88772712D01*
X152976376Y-88849832D01*
X152984562Y-88854881D01*
X153031286Y-88906829D01*
X153042509Y-88975792D01*
X153014665Y-89039874D01*
X152984562Y-89065959D01*
X152901342Y-89117289D01*
X152777289Y-89241342D01*
X152685187Y-89390663D01*
X152685186Y-89390666D01*
X152630001Y-89557203D01*
X152630001Y-89557204D01*
X152630000Y-89557204D01*
X152619500Y-89659983D01*
X152619500Y-91960001D01*
X152619501Y-91960018D01*
X152630000Y-92062796D01*
X152630001Y-92062799D01*
X152675597Y-92200396D01*
X152685186Y-92229334D01*
X152777288Y-92378656D01*
X152901344Y-92502712D01*
X153050666Y-92594814D01*
X153217203Y-92649999D01*
X153319991Y-92660500D01*
X154420008Y-92660499D01*
X154420016Y-92660498D01*
X154420019Y-92660498D01*
X154476302Y-92654748D01*
X154522797Y-92649999D01*
X154689334Y-92594814D01*
X154838656Y-92502712D01*
X154962712Y-92378656D01*
X155054814Y-92229334D01*
X155109999Y-92062797D01*
X155120500Y-91960009D01*
X155120500Y-91684500D01*
X155140185Y-91617461D01*
X155192989Y-91571706D01*
X155244500Y-91560500D01*
X155340028Y-91560500D01*
X155380982Y-91567457D01*
X155460745Y-91595368D01*
X155460750Y-91595369D01*
X155639996Y-91615565D01*
X155640000Y-91615565D01*
X155640004Y-91615565D01*
X155819249Y-91595369D01*
X155819252Y-91595368D01*
X155819255Y-91595368D01*
X155989522Y-91535789D01*
X156142262Y-91439816D01*
X156269816Y-91312262D01*
X156365789Y-91159522D01*
X156425368Y-90989255D01*
X156425369Y-90989249D01*
X156445565Y-90810003D01*
X156445565Y-90809996D01*
X156425369Y-90630750D01*
X156425368Y-90630745D01*
X156365788Y-90460476D01*
X156269815Y-90307737D01*
X156142262Y-90180184D01*
X155989523Y-90084211D01*
X155819254Y-90024631D01*
X155819249Y-90024630D01*
X155640004Y-90004435D01*
X155639996Y-90004435D01*
X155460750Y-90024630D01*
X155460745Y-90024631D01*
X155380983Y-90052542D01*
X155340028Y-90059500D01*
X155244499Y-90059500D01*
X155177460Y-90039815D01*
X155131705Y-89987011D01*
X155120499Y-89935500D01*
X155120499Y-89659998D01*
X155120498Y-89659981D01*
X155109999Y-89557203D01*
X155109998Y-89557200D01*
X155102764Y-89535369D01*
X155054814Y-89390666D01*
X154962712Y-89241344D01*
X154838656Y-89117288D01*
X154754960Y-89065664D01*
X154705437Y-89035118D01*
X154658712Y-88983170D01*
X154647491Y-88914207D01*
X154675334Y-88850125D01*
X154705434Y-88824043D01*
X154788656Y-88772712D01*
X154912712Y-88648656D01*
X155004814Y-88499334D01*
X155059999Y-88332797D01*
X155070500Y-88230009D01*
X155070500Y-87954500D01*
X155090185Y-87887461D01*
X155142989Y-87841706D01*
X155194500Y-87830500D01*
X155253920Y-87830500D01*
X155351462Y-87811096D01*
X155398913Y-87801658D01*
X155535495Y-87745084D01*
X155602220Y-87700500D01*
X155658416Y-87662952D01*
X156382951Y-86938416D01*
X156465084Y-86815495D01*
X156521658Y-86678913D01*
X156533878Y-86617480D01*
X156550500Y-86533920D01*
X156550500Y-82969972D01*
X156557458Y-82929017D01*
X156564112Y-82910000D01*
X156585368Y-82849255D01*
X156588463Y-82821785D01*
X156605565Y-82670003D01*
X156605565Y-82669996D01*
X156585369Y-82490750D01*
X156585368Y-82490745D01*
X156557114Y-82410000D01*
X156525789Y-82320478D01*
X156525174Y-82319500D01*
X156429815Y-82167737D01*
X156302262Y-82040184D01*
X156149523Y-81944211D01*
X155979254Y-81884631D01*
X155979249Y-81884630D01*
X155800004Y-81864435D01*
X155799996Y-81864435D01*
X155620750Y-81884630D01*
X155620745Y-81884631D01*
X155450476Y-81944211D01*
X155297737Y-82040184D01*
X155170184Y-82167737D01*
X155074211Y-82320476D01*
X155014631Y-82490745D01*
X155014630Y-82490750D01*
X154994435Y-82669996D01*
X154994435Y-82670003D01*
X155014630Y-82849249D01*
X155014631Y-82849254D01*
X155042542Y-82929017D01*
X155049500Y-82969972D01*
X155049500Y-85348770D01*
X155029815Y-85415809D01*
X154977011Y-85461564D01*
X154907853Y-85471508D01*
X154844297Y-85442483D01*
X154837819Y-85436451D01*
X154788657Y-85387289D01*
X154788656Y-85387288D01*
X154639334Y-85295186D01*
X154472797Y-85240001D01*
X154472795Y-85240000D01*
X154370010Y-85229500D01*
X153269998Y-85229500D01*
X153269980Y-85229501D01*
X153167203Y-85240000D01*
X153167200Y-85240001D01*
X153000668Y-85295185D01*
X153000663Y-85295187D01*
X152851342Y-85387289D01*
X152727289Y-85511342D01*
X152635187Y-85660663D01*
X152635185Y-85660668D01*
X152628171Y-85681836D01*
X152580001Y-85827203D01*
X152580001Y-85827204D01*
X152580000Y-85827204D01*
X152569500Y-85929983D01*
X150269995Y-85929983D01*
X150259505Y-85827302D01*
X150204358Y-85660880D01*
X150204356Y-85660875D01*
X150112315Y-85511654D01*
X149988345Y-85387684D01*
X149839124Y-85295643D01*
X149839119Y-85295641D01*
X149672697Y-85240494D01*
X149672690Y-85240493D01*
X149569986Y-85230000D01*
X149270000Y-85230000D01*
X149270000Y-86830000D01*
X148770000Y-86830000D01*
X148770000Y-85230000D01*
X148470028Y-85230000D01*
X148470012Y-85230001D01*
X148367302Y-85240494D01*
X148200880Y-85295641D01*
X148200875Y-85295643D01*
X148051654Y-85387684D01*
X147927684Y-85511654D01*
X147835643Y-85660875D01*
X147835641Y-85660880D01*
X147780494Y-85827302D01*
X147780493Y-85827309D01*
X147770000Y-85930013D01*
X135040500Y-85930013D01*
X135040500Y-81748540D01*
X135060185Y-81681501D01*
X135112989Y-81635746D01*
X135182147Y-81625802D01*
X135245703Y-81654827D01*
X135274055Y-81690457D01*
X135307784Y-81754077D01*
X135307787Y-81754082D01*
X135307789Y-81754085D01*
X135496357Y-82032203D01*
X135508634Y-82050309D01*
X135508641Y-82050319D01*
X135608377Y-82167737D01*
X135740332Y-82323086D01*
X136000163Y-82569211D01*
X136285081Y-82785800D01*
X136591747Y-82970315D01*
X136591749Y-82970316D01*
X136591751Y-82970317D01*
X136591755Y-82970319D01*
X136823619Y-83077590D01*
X136916565Y-83120591D01*
X137255726Y-83234868D01*
X137605254Y-83311805D01*
X137961052Y-83350500D01*
X137961058Y-83350500D01*
X138318942Y-83350500D01*
X138318948Y-83350500D01*
X138674746Y-83311805D01*
X139024274Y-83234868D01*
X139142639Y-83194986D01*
X146085001Y-83194986D01*
X146095494Y-83297697D01*
X146150641Y-83464119D01*
X146150643Y-83464124D01*
X146242684Y-83613345D01*
X146366654Y-83737315D01*
X146515875Y-83829356D01*
X146515880Y-83829358D01*
X146682302Y-83884505D01*
X146682309Y-83884506D01*
X146785019Y-83894999D01*
X146922499Y-83894999D01*
X146922500Y-83894998D01*
X146922500Y-82920000D01*
X146085001Y-82920000D01*
X146085001Y-83194986D01*
X139142639Y-83194986D01*
X139363435Y-83120591D01*
X139688253Y-82970315D01*
X139994919Y-82785800D01*
X140279837Y-82569211D01*
X140539668Y-82323086D01*
X140690924Y-82145013D01*
X146085000Y-82145013D01*
X146085000Y-82420000D01*
X146922500Y-82420000D01*
X146922500Y-81445000D01*
X147422500Y-81445000D01*
X147422500Y-83894999D01*
X147559972Y-83894999D01*
X147559986Y-83894998D01*
X147662697Y-83884505D01*
X147829119Y-83829358D01*
X147829124Y-83829356D01*
X147978345Y-83737315D01*
X148102318Y-83613342D01*
X148104165Y-83610348D01*
X148105969Y-83608724D01*
X148106798Y-83607677D01*
X148106976Y-83607818D01*
X148156110Y-83563621D01*
X148225073Y-83552396D01*
X148289156Y-83580236D01*
X148315243Y-83610341D01*
X148317288Y-83613656D01*
X148441344Y-83737712D01*
X148590666Y-83829814D01*
X148757203Y-83884999D01*
X148859991Y-83895500D01*
X149635008Y-83895499D01*
X149635016Y-83895498D01*
X149635019Y-83895498D01*
X149691302Y-83889748D01*
X149737797Y-83884999D01*
X149904334Y-83829814D01*
X150053656Y-83737712D01*
X150177712Y-83613656D01*
X150269814Y-83464334D01*
X150269817Y-83464322D01*
X150270149Y-83463614D01*
X150270511Y-83463201D01*
X150273605Y-83458187D01*
X150274461Y-83458715D01*
X150316316Y-83411170D01*
X150383508Y-83392012D01*
X150450391Y-83412221D01*
X150488075Y-83450911D01*
X150490185Y-83454332D01*
X150490186Y-83454334D01*
X150582288Y-83603656D01*
X150706344Y-83727712D01*
X150855666Y-83819814D01*
X151022203Y-83874999D01*
X151124991Y-83885500D01*
X151900008Y-83885499D01*
X151900016Y-83885498D01*
X151900019Y-83885498D01*
X151956302Y-83879748D01*
X152002797Y-83874999D01*
X152169334Y-83819814D01*
X152318656Y-83727712D01*
X152442712Y-83603656D01*
X152444752Y-83600347D01*
X152446745Y-83598555D01*
X152447193Y-83597989D01*
X152447289Y-83598065D01*
X152496694Y-83553623D01*
X152565656Y-83542395D01*
X152629740Y-83570234D01*
X152655829Y-83600339D01*
X152657681Y-83603341D01*
X152657683Y-83603344D01*
X152781654Y-83727315D01*
X152930875Y-83819356D01*
X152930880Y-83819358D01*
X153097302Y-83874505D01*
X153097309Y-83874506D01*
X153200019Y-83884999D01*
X153337499Y-83884999D01*
X153837500Y-83884999D01*
X153974972Y-83884999D01*
X153974986Y-83884998D01*
X154077697Y-83874505D01*
X154244119Y-83819358D01*
X154244124Y-83819356D01*
X154393345Y-83727315D01*
X154517315Y-83603345D01*
X154609356Y-83454124D01*
X154609358Y-83454119D01*
X154664505Y-83287697D01*
X154664506Y-83287690D01*
X154674999Y-83184986D01*
X154675000Y-83184973D01*
X154675000Y-82910000D01*
X153837500Y-82910000D01*
X153837500Y-83884999D01*
X153337499Y-83884999D01*
X153337500Y-83884998D01*
X153337500Y-82410000D01*
X153837500Y-82410000D01*
X154674999Y-82410000D01*
X154674999Y-82135028D01*
X154674998Y-82135013D01*
X154664505Y-82032302D01*
X154609358Y-81865880D01*
X154609356Y-81865875D01*
X154517315Y-81716654D01*
X154393345Y-81592684D01*
X154244124Y-81500643D01*
X154244119Y-81500641D01*
X154077697Y-81445494D01*
X154077690Y-81445493D01*
X153974986Y-81435000D01*
X153837500Y-81435000D01*
X153837500Y-82410000D01*
X153337500Y-82410000D01*
X153337500Y-81435000D01*
X153200027Y-81435000D01*
X153200012Y-81435001D01*
X153097302Y-81445494D01*
X152930880Y-81500641D01*
X152930875Y-81500643D01*
X152781654Y-81592684D01*
X152657683Y-81716655D01*
X152657679Y-81716660D01*
X152655826Y-81719665D01*
X152654018Y-81721290D01*
X152653202Y-81722323D01*
X152653025Y-81722183D01*
X152603874Y-81766385D01*
X152534911Y-81777601D01*
X152470831Y-81749752D01*
X152444753Y-81719653D01*
X152444737Y-81719628D01*
X152442712Y-81716344D01*
X152318656Y-81592288D01*
X152312989Y-81587807D01*
X152314430Y-81585984D01*
X152275175Y-81542335D01*
X152263000Y-81488752D01*
X152263000Y-79881402D01*
X152269959Y-79840447D01*
X152305368Y-79739255D01*
X152310621Y-79692631D01*
X152325565Y-79560003D01*
X152325565Y-79559996D01*
X152305369Y-79380750D01*
X152305368Y-79380745D01*
X152290922Y-79339460D01*
X152245789Y-79210478D01*
X152239504Y-79200476D01*
X152166954Y-79085013D01*
X152149816Y-79057738D01*
X152022262Y-78930184D01*
X152006347Y-78920184D01*
X151869523Y-78834211D01*
X151699254Y-78774631D01*
X151699249Y-78774630D01*
X151520004Y-78754435D01*
X151519996Y-78754435D01*
X151340750Y-78774630D01*
X151340745Y-78774631D01*
X151170476Y-78834211D01*
X151017737Y-78930184D01*
X150890184Y-79057737D01*
X150794211Y-79210476D01*
X150734631Y-79380745D01*
X150734630Y-79380750D01*
X150714435Y-79559996D01*
X150714435Y-79560003D01*
X150734630Y-79739246D01*
X150734632Y-79739256D01*
X150739237Y-79752416D01*
X150753738Y-79793858D01*
X150755041Y-79797580D01*
X150762000Y-79838535D01*
X150762000Y-81488752D01*
X150742315Y-81555791D01*
X150711002Y-81586531D01*
X150712011Y-81587807D01*
X150706343Y-81592288D01*
X150582289Y-81716342D01*
X150490183Y-81865670D01*
X150489842Y-81866403D01*
X150489474Y-81866820D01*
X150486395Y-81871813D01*
X150485541Y-81871286D01*
X150443666Y-81918840D01*
X150376471Y-81937987D01*
X150309591Y-81917767D01*
X150271924Y-81879087D01*
X150264100Y-81866403D01*
X150177712Y-81726344D01*
X150053656Y-81602288D01*
X150047989Y-81597807D01*
X150049430Y-81595984D01*
X150010175Y-81552335D01*
X149998000Y-81498752D01*
X149998000Y-79828535D01*
X150004959Y-79787580D01*
X150011985Y-79767500D01*
X150025368Y-79729255D01*
X150029051Y-79696569D01*
X150045565Y-79550003D01*
X150045565Y-79549996D01*
X150025369Y-79370750D01*
X150025368Y-79370745D01*
X149989396Y-79267944D01*
X149965789Y-79200478D01*
X149947446Y-79171286D01*
X149901699Y-79098480D01*
X149869816Y-79047738D01*
X149742262Y-78920184D01*
X149589523Y-78824211D01*
X149419254Y-78764631D01*
X149419249Y-78764630D01*
X149240004Y-78744435D01*
X149239996Y-78744435D01*
X149060750Y-78764630D01*
X149060745Y-78764631D01*
X148890476Y-78824211D01*
X148737737Y-78920184D01*
X148610184Y-79047737D01*
X148514211Y-79200476D01*
X148454631Y-79370745D01*
X148454630Y-79370750D01*
X148434435Y-79549996D01*
X148434435Y-79550003D01*
X148454630Y-79729246D01*
X148454632Y-79729256D01*
X148490041Y-79830447D01*
X148497000Y-79871402D01*
X148497000Y-81498752D01*
X148477315Y-81565791D01*
X148446002Y-81596531D01*
X148447011Y-81597807D01*
X148441343Y-81602288D01*
X148317288Y-81726343D01*
X148317283Y-81726349D01*
X148315241Y-81729661D01*
X148313247Y-81731453D01*
X148312807Y-81732011D01*
X148312711Y-81731935D01*
X148263291Y-81776383D01*
X148194328Y-81787602D01*
X148130247Y-81759755D01*
X148104168Y-81729656D01*
X148102319Y-81726659D01*
X148102316Y-81726655D01*
X147978345Y-81602684D01*
X147829124Y-81510643D01*
X147829119Y-81510641D01*
X147662697Y-81455494D01*
X147662690Y-81455493D01*
X147559986Y-81445000D01*
X147422500Y-81445000D01*
X146922500Y-81445000D01*
X146785027Y-81445000D01*
X146785012Y-81445001D01*
X146682302Y-81455494D01*
X146515880Y-81510641D01*
X146515875Y-81510643D01*
X146366654Y-81602684D01*
X146242684Y-81726654D01*
X146150643Y-81875875D01*
X146150641Y-81875880D01*
X146095494Y-82042302D01*
X146095493Y-82042309D01*
X146085000Y-82145013D01*
X140690924Y-82145013D01*
X140771365Y-82050311D01*
X140972211Y-81754085D01*
X141139853Y-81437880D01*
X141141001Y-81435000D01*
X141203636Y-81277796D01*
X141272324Y-81105403D01*
X141368071Y-80760552D01*
X141402210Y-80552315D01*
X141425970Y-80407385D01*
X141425970Y-80407382D01*
X141425972Y-80407371D01*
X141445348Y-80050000D01*
X141443179Y-80009986D01*
X142880001Y-80009986D01*
X142890494Y-80112697D01*
X142945641Y-80279119D01*
X142945643Y-80279124D01*
X143037684Y-80428345D01*
X143161654Y-80552315D01*
X143310875Y-80644356D01*
X143310880Y-80644358D01*
X143477302Y-80699505D01*
X143477309Y-80699506D01*
X143580019Y-80709999D01*
X144479999Y-80709999D01*
X144980000Y-80709999D01*
X145879972Y-80709999D01*
X145879986Y-80709998D01*
X145982697Y-80699505D01*
X146149119Y-80644358D01*
X146149124Y-80644356D01*
X146298345Y-80552315D01*
X146422315Y-80428345D01*
X146514356Y-80279124D01*
X146514358Y-80279119D01*
X146569505Y-80112697D01*
X146569506Y-80112690D01*
X146579999Y-80009986D01*
X146580000Y-80009973D01*
X146580000Y-79797500D01*
X144980000Y-79797500D01*
X144980000Y-80709999D01*
X144479999Y-80709999D01*
X144480000Y-80709998D01*
X144480000Y-79797500D01*
X142880001Y-79797500D01*
X142880001Y-80009986D01*
X141443179Y-80009986D01*
X141425972Y-79692629D01*
X141425101Y-79687319D01*
X141395704Y-79508004D01*
X144430000Y-79508004D01*
X144430000Y-79586996D01*
X144450444Y-79663296D01*
X144489940Y-79731705D01*
X144545795Y-79787560D01*
X144614204Y-79827056D01*
X144690504Y-79847500D01*
X144769496Y-79847500D01*
X144845796Y-79827056D01*
X144914205Y-79787560D01*
X144970060Y-79731705D01*
X145009556Y-79663296D01*
X145030000Y-79586996D01*
X145030000Y-79508004D01*
X145009556Y-79431704D01*
X144970060Y-79363295D01*
X144914205Y-79307440D01*
X144896988Y-79297500D01*
X144980000Y-79297500D01*
X146579999Y-79297500D01*
X146579999Y-79085028D01*
X146579998Y-79085013D01*
X146569505Y-78982302D01*
X146514358Y-78815880D01*
X146514356Y-78815875D01*
X146422315Y-78666654D01*
X146298345Y-78542684D01*
X146149124Y-78450643D01*
X146149119Y-78450641D01*
X145982697Y-78395494D01*
X145982690Y-78395493D01*
X145879986Y-78385000D01*
X144980000Y-78385000D01*
X144980000Y-79297500D01*
X144896988Y-79297500D01*
X144845796Y-79267944D01*
X144769496Y-79247500D01*
X144690504Y-79247500D01*
X144614204Y-79267944D01*
X144545795Y-79307440D01*
X144489940Y-79363295D01*
X144450444Y-79431704D01*
X144430000Y-79508004D01*
X141395704Y-79508004D01*
X141368073Y-79339460D01*
X141368072Y-79339459D01*
X141368071Y-79339448D01*
X141299424Y-79092202D01*
X141297428Y-79085013D01*
X142880000Y-79085013D01*
X142880000Y-79297500D01*
X144480000Y-79297500D01*
X144480000Y-78385000D01*
X143580028Y-78385000D01*
X143580012Y-78385001D01*
X143477302Y-78395494D01*
X143310880Y-78450641D01*
X143310875Y-78450643D01*
X143161654Y-78542684D01*
X143037684Y-78666654D01*
X142945643Y-78815875D01*
X142945641Y-78815880D01*
X142890494Y-78982302D01*
X142890493Y-78982309D01*
X142880000Y-79085013D01*
X141297428Y-79085013D01*
X141272327Y-78994607D01*
X141272325Y-78994600D01*
X141246659Y-78930184D01*
X141201115Y-78815875D01*
X141139857Y-78662129D01*
X141139848Y-78662111D01*
X140972215Y-78345922D01*
X140972213Y-78345919D01*
X140972211Y-78345915D01*
X140771365Y-78049689D01*
X140771361Y-78049684D01*
X140771358Y-78049680D01*
X140539668Y-77776914D01*
X140507690Y-77746623D01*
X140279837Y-77530789D01*
X140279830Y-77530783D01*
X140279827Y-77530781D01*
X140166902Y-77444938D01*
X139994919Y-77314200D01*
X139773122Y-77180749D01*
X139725829Y-77129321D01*
X139713846Y-77060486D01*
X139740981Y-76996101D01*
X139798618Y-76956607D01*
X139837052Y-76950500D01*
X180874108Y-76950500D01*
X180936754Y-76950500D01*
X180943243Y-76950670D01*
G37*
%TD.AperFunction*%
%TD*%
M02*
